<?xml version="1.0" encoding="UTF-8" standalone="no"?>
<!-- Generator: Adobe Illustrator 13.0.0, SVG Export Plug-In . SVG Version: 6.00 Build 14948)  -->

<svg
   xmlns:ns="&amp;#38;#38;ns_sfw;"
   xmlns:dc="http://purl.org/dc/elements/1.1/"
   xmlns:cc="http://creativecommons.org/ns#"
   xmlns:rdf="http://www.w3.org/1999/02/22-rdf-syntax-ns#"
   xmlns:svg="http://www.w3.org/2000/svg"
   xmlns="http://www.w3.org/2000/svg"
   xmlns:sodipodi="http://sodipodi.sourceforge.net/DTD/sodipodi-0.dtd"
   xmlns:inkscape="http://www.inkscape.org/namespaces/inkscape"
   version="1.1"
   id="svg2"
   x="0px"
   y="0px"
   width="154.22038"
   height="150.29214"
   viewBox="0.25 0 154.22038 150.29215"
   enable-background="new 0.25 0 567.927 113.032"
   xml:space="preserve"
   inkscape:version="0.91 r13725"
   sodipodi:docname="system_svg carbon_new_square_black.svg"
   inkscape:export-filename="D:\EMU\artwork\svg\playstation\system_svg carbon_new_square_black.png"
   inkscape:export-xdpi="90"
   inkscape:export-ydpi="90"><defs
     id="defs21" /><sodipodi:namedview
     pagecolor="#ffffff"
     bordercolor="#666666"
     borderopacity="1"
     objecttolerance="10"
     gridtolerance="10"
     guidetolerance="10"
     inkscape:pageopacity="0"
     inkscape:pageshadow="2"
     inkscape:window-width="1920"
     inkscape:window-height="1137"
     id="namedview19"
     showgrid="false"
     inkscape:zoom="2.5566666"
     inkscape:cx="12.092177"
     inkscape:cy="73.174009"
     inkscape:window-x="-8"
     inkscape:window-y="-8"
     inkscape:window-maximized="1"
     inkscape:current-layer="svg2"
     fit-margin-top="0"
     fit-margin-left="0"
     fit-margin-right="0"
     fit-margin-bottom="0" /><metadata
     id="metadata3"><ns:sfw><ns:slices /><ns:sliceSourceBounds
         x="677.036"
         y="482.984"
         width="567.927"
         height="113.032"
         bottomLeftOrigin="true" /></ns:sfw><rdf:RDF><cc:Work
         rdf:about=""><dc:format>image/svg+xml</dc:format><dc:type
           rdf:resource="http://purl.org/dc/dcmitype/StillImage" /><dc:title></dc:title></cc:Work></rdf:RDF></metadata><g
     id="g4277"
     transform="translate(2.7245865,2.5619736)"><rect
       ry="4.3024774"
       rx="4.3024774"
       y="-2.5619736"
       x="-2.4745865"
       height="150.29214"
       width="154.22038"
       id="rect4244"
       style="color:#000000;clip-rule:nonzero;display:inline;overflow:visible;visibility:visible;opacity:1;isolation:auto;mix-blend-mode:normal;color-interpolation:sRGB;color-interpolation-filters:linearRGB;solid-color:#000000;solid-opacity:1;fill:#000000;fill-opacity:1;fill-rule:evenodd;stroke:none;stroke-width:1.0347693;stroke-linecap:round;stroke-linejoin:round;stroke-miterlimit:4;stroke-dasharray:none;stroke-dashoffset:0;stroke-opacity:1;color-rendering:auto;image-rendering:auto;shape-rendering:auto;text-rendering:auto;enable-background:accumulate" /><g
       id="g4222"><g
         transform="translate(-4.8124013e-5,0)"
         id="g4209"><g
           id="g4783"><path
             style="fill:#de1528;fill-opacity:1"
             inkscape:connector-curvature="0"
             d="m 80.5214,23.506 -0.099,89.525 -23.986,-7.801 0,-105.23 30.618,8.096 c 19.599,5.267 31.592,15.507 31.398,33.45 -0.195,20.873 -9.849,29.257 -28.667,23.796 l 0,-41.154 c -0.002,-4.976 -9.264,-5.267 -9.264,-0.682 l 0,0 z"
             id="path7" /><path
             style="fill:#f4cb0e;fill-opacity:1"
             inkscape:connector-curvature="0"
             d="m 45.4164,87.87 -11.311,3.805 c -7.314,2.537 -13.554,-3.412 -6.826,-5.854 l 5.46,-1.947 -20.575,-6.537 c -6.338,2.148 -12.288,6.73 -11.896,13.168 0.39,6.533 15.309,8.097 26.815,9.947 10.726,1.754 20.477,0.779 29.351,-2.342 l 0,-6.73 -11.018,-3.51 0,0 z m 35.2,25.162 20.965,-7.313 -21.16,-6.729 0,13.557 0.195,0.485 0,0 z"
             id="path9" /><path
             style="fill:#4177b3;fill-opacity:1"
             inkscape:connector-curvature="0"
             d="m 136.3944,93.431 0.389,-0.099 c 9.167,-3.219 13.067,-7.707 12.092,-11.898 -1.56,-7.021 -12.773,-10.826 -30.033,-12.094 -12.384,-0.877 -24.572,1.854 -36.468,5.947 l -1.95,0.686 21.355,6.633 12.48,-4.197 c 13.067,-2.436 18.333,1.854 5.755,5.854 l -6.242,2.146 22.622,7.022 0,0 z m -79.958,-31.013 -9.459,3.217 9.459,2.926 0,-6.143 0,0 z"
             id="path16" /><path
             style="fill:#1ba0a5;fill-opacity:1"
             inkscape:connector-curvature="0"
             d="m 101.5824,105.717 34.812,-12.287 -22.624,-7.021 -33.348,11.41 0,1.17 21.16,6.728 0,0 z m -45.146,-21.552 -11.019,3.705 11.019,3.512 0,-7.217 0,0 z m 23.985,5.755 0,-13.945 21.355,6.631 -21.355,7.314 0,0 z m -47.682,-6.046 23.696,-8.484 0,-6.826 -9.459,-2.928 -34.324,11.605 c -0.097,0 -0.292,0.096 -0.487,0.096 l 20.574,6.537 0,0 z"
             id="path13" /></g></g><path
         id="path3003"
         style="display:inline;fill:#ffffff;fill-opacity:1;fill-rule:nonzero;stroke:none"
         d="m 15.60987,120.4057 0,17.9006 2.79443,0 0,-16.18552 2.58669,0 c 0,0 1.87909,0 2.52264,0.84036 0.5467,0.71384 0.64667,2.00874 0.64667,2.88347 0,0.93564 -0.0594,2.38206 -0.37332,2.91158 -0.47642,0.80912 -1.25898,0.97157 -1.97438,0.97157 l -1.70728,0 0,1.58856 2.45549,0 c 0,0 2.21492,0.0922 3.16774,-0.87629 1.16838,-1.18712 1.46516,-2.7835 1.46516,-4.92032 0,-1.94158 -0.70446,-3.90034 -2.14463,-4.56574 -1.19181,-0.54827 -3.34114,-0.54827 -3.34114,-0.54827 l -6.09807,0"
         inkscape:connector-curvature="0" /><path
         id="path3005"
         style="display:inline;fill:#ffffff;fill-opacity:1;fill-rule:nonzero;stroke:none"
         d="m 29.3899,138.3063 2.79395,0 0,-17.9006 -2.79395,0 0,17.9006 z"
         inkscape:connector-curvature="0" /><path
         id="path3007"
         style="display:inline;fill:#ffffff;fill-opacity:1;fill-rule:nonzero;stroke:none"
         d="m 47.04995,124.58094 5.11246,13.3989 -2.93501,7.18836 2.31958,0 8.45202,-20.58726 -2.58981,0 -3.68165,10.03434 -3.42548,-10.03434 -3.25211,0"
         inkscape:connector-curvature="0" /><path
         id="path3009"
         style="display:inline;fill:#ffffff;fill-opacity:1;fill-rule:nonzero;stroke:none"
         d="m 62.10302,138.20009 0,-1.69166 c 0,0 2.95532,0.11559 3.57075,0.11559 1.36363,0 2.04467,-0.29053 2.557,-0.84037 0.30304,-0.32957 0.57639,-1.79005 0.57639,-2.3102 0,-0.51858 -0.1,-1.6401 -0.30303,-2.09934 -0.20931,-0.44985 -0.68573,-0.87004 -1.39956,-0.93095 -0.50922,-0.0437 -1.29647,-0.14683 -2.21649,-0.18901 -1.29021,-0.061 -2.14308,-0.73414 -2.55388,-1.21836 -0.40769,-0.48423 -0.95283,-1.21368 -0.95283,-3.44579 0,-2.23523 0.57795,-3.48796 1.15745,-4.06903 0.5795,-0.58419 1.42768,-0.84036 2.07903,-0.95595 0.74977,-0.12808 1.97438,-0.13589 1.97438,-0.13589 l 3.91126,0.11409 0,1.69165 c 0,0 -2.85222,-0.11409 -3.46609,-0.11409 -1.36363,0 -1.77288,0.2921 -2.28365,0.84036 -0.30147,0.32646 -0.53734,1.2293 -0.53734,1.74632 0,0.52016 0.061,1.56982 0.26554,2.02436 0.20307,0.44987 0.68104,0.87161 1.39644,0.93565 0.50765,0.039 1.29647,0.14214 2.21493,0.18431 1.29646,0.0609 2.14776,0.73259 2.55388,1.21838 0.41081,0.48578 0.95751,1.50889 0.95751,3.73944 0,2.23523 -0.58263,3.8316 -1.15901,4.41423 -0.58107,0.58107 -1.42767,0.84036 -2.07903,0.95282 -0.75132,0.12965 -1.97594,0.13903 -1.97594,0.13903 l -4.28771,-0.11559"
         inkscape:connector-curvature="0" /><path
         id="path3011"
         style="display:inline;fill:#ffffff;fill-opacity:1;fill-rule:nonzero;stroke:none"
         d="m 77.34978,122.12078 -2.79287,0 0,13.14117 c 0,0 0.0671,1.19962 0.13589,1.62137 0.0687,0.42174 0.68259,1.42298 2.28365,1.42298 l 2.8944,-0.0562 0,-1.6854 c 0,0 -0.78412,0.0562 -1.25741,0.0562 -0.47954,0 -1.06061,-0.0312 -1.15901,-0.84193 -0.10472,-0.80912 -0.10472,-1.776 -0.10472,-1.776 l 0,-7.73819 3.15526,0 0,-1.68384 -3.15526,0 0,-2.46016"
         inkscape:connector-curvature="0" /><path
         id="path3013"
         style="display:inline;fill:#ffffff;fill-opacity:1;fill-rule:nonzero;stroke:none"
         d="m 104.31627,138.3063 2.79302,0 0,-13.72457 -2.79302,0 0,13.72457 z"
         inkscape:connector-curvature="0" /><path
         id="path3015"
         style="display:inline;fill:#ffffff;fill-opacity:1;fill-rule:nonzero;stroke:none"
         d="m 104.31627,122.8971 2.79302,0 0,-2.49186 -2.79302,0 0,2.49186 z"
         inkscape:connector-curvature="0" /><path
         id="path3017"
         style="display:inline;fill:#ffffff;fill-opacity:1;fill-rule:nonzero;stroke:none"
         d="m 115.9376,124.46379 c 1.90097,0 3.3755,0.42487 4.16744,1.06529 0.79975,0.64199 1.78225,1.99625 1.78225,5.91532 0,3.91908 -0.9825,5.27178 -1.78225,5.91533 -0.79194,0.64042 -2.26647,1.06841 -4.16744,1.06841 -1.90564,0 -3.37393,-0.42799 -4.17212,-1.06841 -0.79818,-0.64355 -1.776,-1.99625 -1.776,-5.91533 0,-3.91907 0.97782,-5.27333 1.776,-5.91532 0.79819,-0.64042 2.26648,-1.06529 4.17212,-1.06529 z m -1.91501,2.63199 c -0.38426,0.47328 -0.85286,1.46828 -0.85286,4.34862 0,2.87878 0.4686,3.87534 0.85286,4.34707 0.38268,0.4686 1.08871,0.78569 2.00249,0.78569 0.91533,0 1.61823,-0.31709 2.00562,-0.78569 0.38269,-0.47173 0.85129,-1.46829 0.85129,-4.34707 0,-2.88034 -0.4686,-3.87534 -0.85129,-4.34862 -0.38739,-0.47017 -1.09029,-0.78414 -2.00562,-0.78414 -0.91378,0 -1.61981,0.31397 -2.00249,0.78414"
         inkscape:connector-curvature="0" /><path
         id="path3019"
         style="display:inline;fill:#ffffff;fill-opacity:1;fill-rule:nonzero;stroke:none"
         d="m 127.67453,126.50846 2.73976,-0.11559 c 0.71695,0 1.56044,0.19369 1.96969,0.71227 0.38113,0.48892 0.62168,1.07154 0.62168,2.01031 l 0,9.17523 2.79755,0 0,-9.40641 c 0,-1.77913 -0.54826,-2.81317 -1.36988,-3.46297 -1.1715,-0.92939 -3.27084,-0.84036 -3.27084,-0.84036 l -6.25897,0.11247 0,13.59727 2.77101,0 0,-11.78222"
         inkscape:connector-curvature="0" /><path
         id="path3021"
         style="display:inline;fill:#ffffff;fill-opacity:1;fill-rule:nonzero;stroke:none"
         d="m 98.7524,122.12078 -2.794436,0 0,13.14117 c 0,0 0.06561,1.19962 0.132774,1.62137 0.07036,0.42174 0.679474,1.42298 2.286776,1.42298 l 2.894406,-0.0562 0,-1.6854 c 0,0 -0.78569,0.0562 -1.26054,0.0562 -0.474852,0 -1.057482,-0.0312 -1.15901,-0.84193 -0.09997,-0.80912 -0.09997,-1.776 -0.09997,-1.776 l 0,-7.73819 3.14745,0 0,-1.68384 -3.14745,0 0,-2.46016"
         inkscape:connector-curvature="0" /><path
         id="path3023"
         style="display:inline;fill:#ffffff;fill-opacity:1;fill-rule:nonzero;stroke:none"
         d="m 42.78723,129.11545 c 0,-0.93877 -0.23898,-1.52139 -0.62324,-2.01031 -0.40924,-0.51858 -1.2496,-0.71227 -1.96812,-0.71227 l -3.68478,0.11559 0,-1.81505 4.43454,-0.11247 c 0,0 2.09933,-0.0891 3.2724,0.84036 0.8185,0.6498 1.36207,1.68384 1.36207,3.46297 l 0,9.2752 -5.35456,0.11559 c 0,0 -2.42423,0.009 -3.64572,-0.48578 -1.19025,-0.48422 -1.84005,-1.8135 -1.84005,-3.65822 0,-1.78069 0.54514,-2.81474 1.36363,-3.46453 1.17307,-0.93096 3.27085,-0.83881 3.27085,-0.83881 l 1.7104,0 0,1.58076 -0.95907,0 c -0.71853,0 -1.45736,0.13277 -1.86816,0.65136 -0.3827,0.48422 -0.58732,0.9044 -0.58732,1.84316 0,1.23243 0.23899,1.78225 0.81849,2.20087 0.51234,0.37332 1.42924,0.45455 2.45235,0.45455 l 1.84629,-0.11247 0,-7.3305"
         inkscape:connector-curvature="0" /><path
         id="path3025"
         style="display:inline;fill:#ffffff;fill-opacity:1;fill-rule:nonzero;stroke:none"
         d="m 89.90206,129.11545 c 0,-0.93877 -0.2343,-1.52139 -0.61855,-2.01031 -0.41393,-0.51858 -1.25429,-0.71227 -1.96813,-0.71227 l -3.68321,0.11559 0,-1.81505 4.43141,-0.11247 c 0,0 2.09778,-0.0891 3.26928,0.84036 0.8185,0.6498 1.365199,1.68384 1.365199,3.46297 l 0,9.2752 -5.354559,0.11559 c 0,0 -2.42736,0.009 -3.64573,-0.48578 -1.19181,-0.48422 -1.84317,-1.8135 -1.84317,-3.65822 0,-1.78069 0.54983,-2.81474 1.36363,-3.46453 1.17151,-0.93096 3.27397,-0.83881 3.27397,-0.83881 l 1.70884,0 0,1.58076 -0.96063,0 c -0.71385,0 -1.45736,0.13277 -1.86348,0.65136 -0.38426,0.48422 -0.59044,0.9044 -0.59044,1.84316 0,1.23243 0.24055,1.78225 0.81849,2.20087 0.51078,0.37332 1.43237,0.45455 2.45548,0.45455 l 1.8416,-0.11247 0,-7.3305"
         inkscape:connector-curvature="0" /></g></g></svg>