<?xml version="1.0" encoding="UTF-8" standalone="no"?>
<!-- Generator: Adobe Illustrator 13.0.0, SVG Export Plug-In . SVG Version: 6.00 Build 14948)  -->

<svg
   xmlns:ns="&amp;ns_sfw;"
   xmlns:dc="http://purl.org/dc/elements/1.1/"
   xmlns:cc="http://creativecommons.org/ns#"
   xmlns:rdf="http://www.w3.org/1999/02/22-rdf-syntax-ns#"
   xmlns:svg="http://www.w3.org/2000/svg"
   xmlns="http://www.w3.org/2000/svg"
   xmlns:sodipodi="http://sodipodi.sourceforge.net/DTD/sodipodi-0.dtd"
   xmlns:inkscape="http://www.inkscape.org/namespaces/inkscape"
   version="1.1"
   id="svg2"
   x="0px"
   y="0px"
   width="567.927px"
   height="113.032px"
   viewBox="0.25 0 567.927 113.032"
   enable-background="new 0.25 0 567.927 113.032"
   xml:space="preserve"
   inkscape:version="0.91 r13725"
   sodipodi:docname="system_svg carbon_new.svg"><defs
     id="defs21" /><sodipodi:namedview
     pagecolor="#ffffff"
     bordercolor="#666666"
     borderopacity="1"
     objecttolerance="10"
     gridtolerance="10"
     guidetolerance="10"
     inkscape:pageopacity="0"
     inkscape:pageshadow="2"
     inkscape:window-width="1611"
     inkscape:window-height="901"
     id="namedview19"
     showgrid="false"
     inkscape:zoom="0.90391815"
     inkscape:cx="244.49234"
     inkscape:cy="180.77778"
     inkscape:window-x="0"
     inkscape:window-y="0"
     inkscape:window-maximized="0"
     inkscape:current-layer="svg2" /><metadata
     id="metadata3"><ns:sfw><ns:slices /><ns:sliceSourceBounds
         x="677.036"
         y="482.984"
         width="567.927"
         height="113.032"
         bottomLeftOrigin="true" /></ns:sfw><rdf:RDF><cc:Work
         rdf:about=""><dc:format>image/svg+xml</dc:format><dc:type
           rdf:resource="http://purl.org/dc/dcmitype/StillImage" /><dc:title></dc:title></cc:Work></rdf:RDF></metadata><g
     id="g5343"><g
       id="g4209"><g
         id="g4783"><path
           id="path7"
           d="m 80.5214,23.506 -0.099,89.525 -23.986,-7.801 0,-105.23 30.618,8.096 c 19.599,5.267 31.592,15.507 31.398,33.45 -0.195,20.873 -9.849,29.257 -28.667,23.796 l 0,-41.154 c -0.002,-4.976 -9.264,-5.267 -9.264,-0.682 l 0,0 z"
           inkscape:connector-curvature="0"
           style="fill:#de1528;fill-opacity:1" /><path
           id="path9"
           d="m 45.4164,87.87 -11.311,3.805 c -7.314,2.537 -13.554,-3.412 -6.826,-5.854 l 5.46,-1.947 -20.575,-6.537 c -6.338,2.148 -12.288,6.73 -11.896,13.168 0.39,6.533 15.309,8.097 26.815,9.947 10.726,1.754 20.477,0.779 29.351,-2.342 l 0,-6.73 -11.018,-3.51 0,0 z m 35.2,25.162 20.965,-7.313 -21.16,-6.729 0,13.557 0.195,0.485 0,0 z"
           inkscape:connector-curvature="0"
           style="fill:#f4cb0e;fill-opacity:1" /><path
           id="path16"
           d="m 136.3944,93.431 0.389,-0.099 c 9.167,-3.219 13.067,-7.707 12.092,-11.898 -1.56,-7.021 -12.773,-10.826 -30.033,-12.094 -12.384,-0.877 -24.572,1.854 -36.468,5.947 l -1.95,0.686 21.355,6.633 12.48,-4.197 c 13.067,-2.436 18.333,1.854 5.755,5.854 l -6.242,2.146 22.622,7.022 0,0 z m -79.958,-31.013 -9.459,3.217 9.459,2.926 0,-6.143 0,0 z"
           inkscape:connector-curvature="0"
           style="fill:#4177b3;fill-opacity:1" /><path
           id="path13"
           d="m 101.5824,105.717 34.812,-12.287 -22.624,-7.021 -33.348,11.41 0,1.17 21.16,6.728 0,0 z m -45.146,-21.552 -11.019,3.705 11.019,3.512 0,-7.217 0,0 z m 23.985,5.755 0,-13.945 21.355,6.631 -21.355,7.314 0,0 z m -47.682,-6.046 23.696,-8.484 0,-6.826 -9.459,-2.928 -34.324,11.605 c -0.097,0 -0.292,0.096 -0.487,0.096 l 20.574,6.537 0,0 z"
           inkscape:connector-curvature="0"
           style="fill:#1ba0a5;fill-opacity:1" /></g></g><g
       transform="matrix(1.2243408,0,0,1.2243408,61.37105,-612.11356)"
       id="g4781"><path
         id="path3003"
         style="display:inline;fill:#000000;fill-opacity:1;fill-rule:nonzero;stroke:none"
         d="m 83.731522,523.60346 0,45.71058 7.13579,0 0,-41.33098 6.60531,0 c 0,0 4.798408,0 6.441758,2.14592 1.39605,1.82284 1.65132,5.12948 1.65132,7.36316 0,2.38923 -0.15157,6.08277 -0.9533,7.43494 -1.21656,2.06615 -3.21489,2.48098 -5.041728,2.48098 l -4.35966,0 0,4.05651 6.270268,0 c 0,0 5.65598,0.23551 8.08909,-2.23767 2.98355,-3.03141 3.7414,-7.10787 3.7414,-12.56442 0,-4.95796 -1.79891,-9.95981 -5.47649,-11.65898 -3.04339,-1.40004 -8.531848,-1.40004 -8.531848,-1.40004 l -15.57191,0"
         inkscape:connector-curvature="0" /><path
         id="path3005"
         style="display:inline;fill:#000000;fill-opacity:1;fill-rule:nonzero;stroke:none"
         d="m 118.91989,569.31404 7.13458,0 0,-45.71058 -7.13458,0 0,45.71058 z"
         inkscape:connector-curvature="0" /><path
         id="path3007"
         style="display:inline;fill:#000000;fill-opacity:1;fill-rule:nonzero;stroke:none"
         d="m 164.01621,534.26526 13.05505,34.21513 -7.49477,18.35603 5.92322,0 21.58289,-52.57116 -6.61327,0 -9.40139,25.62346 -8.74723,-25.62346 -8.3045,0"
         inkscape:connector-curvature="0" /><path
         id="path3009"
         style="display:inline;fill:#000000;fill-opacity:1;fill-rule:nonzero;stroke:none"
         d="m 202.45539,569.04281 0,-4.31977 c 0,0 7.54663,0.29516 9.11819,0.29516 3.48214,0 5.22121,-0.7419 6.5295,-2.14594 0.77382,-0.8416 1.47184,-4.57104 1.47184,-5.89928 0,-1.32425 -0.25528,-4.18814 -0.77381,-5.36083 -0.53449,-1.14874 -1.75105,-2.22171 -3.57388,-2.37726 -1.30033,-0.11169 -3.31063,-0.37494 -5.65998,-0.48264 -3.29466,-0.15572 -5.47251,-1.87469 -6.52153,-3.11119 -1.04106,-1.2365 -2.43312,-3.09922 -2.43312,-8.79908 0,-5.70785 1.47583,-8.90679 2.95563,-10.39059 1.47981,-1.49177 3.64569,-2.14592 5.30898,-2.44109 1.91458,-0.32707 5.04172,-0.34701 5.04172,-0.34701 l 9.98771,0.29133 0,4.31977 c 0,0 -7.28337,-0.29133 -8.85092,-0.29133 -3.48214,0 -4.52719,0.74589 -5.8315,2.14592 -0.76982,0.83364 -1.37212,3.13912 -1.37212,4.45937 0,1.32825 0.15573,4.00865 0.67808,5.16936 0.51854,1.14876 1.73909,2.22571 3.56591,2.38924 1.29633,0.0996 3.31063,0.36297 5.65599,0.47066 3.31062,0.15542 5.48448,1.87071 6.52154,3.11121 1.04903,1.24048 2.44508,3.85309 2.44508,9.54895 0,5.70785 -1.48779,9.78431 -2.95964,11.27209 -1.48379,1.4838 -3.64567,2.14593 -5.30896,2.43311 -1.91856,0.33107 -5.04571,0.35501 -5.04571,0.35501 l -10.949,-0.29517"
         inkscape:connector-curvature="0" /><path
         id="path3011"
         style="display:inline;fill:#000000;fill-opacity:1;fill-rule:nonzero;stroke:none"
         d="m 241.38916,527.98306 -7.13181,0 0,33.55698 c 0,0 0.17135,3.06334 0.34702,4.14029 0.1755,1.07695 1.74305,3.63371 5.83148,3.63371 l 7.39108,-0.1436 0,-4.3038 c 0,0 -2.00233,0.14358 -3.21091,0.14358 -1.22453,0 -2.70834,-0.0797 -2.95962,-2.14992 -0.2674,-2.06614 -0.2674,-4.53515 -0.2674,-4.53515 l 0,-19.76006 8.05719,0 0,-4.29983 -8.05719,0 0,-6.2822"
         inkscape:connector-curvature="0" /><path
         id="path3013"
         style="display:inline;fill:#000000;fill-opacity:1;fill-rule:nonzero;stroke:none"
         d="m 310.25018,569.31404 7.1322,0 0,-35.04676 -7.1322,0 0,35.04676 z"
         inkscape:connector-curvature="0" /><path
         id="path3015"
         style="display:inline;fill:#000000;fill-opacity:1;fill-rule:nonzero;stroke:none"
         d="m 310.25018,529.96544 7.1322,0 0,-6.36316 -7.1322,0 0,6.36316 z"
         inkscape:connector-curvature="0" /><path
         id="path3017"
         style="display:inline;fill:#000000;fill-opacity:1;fill-rule:nonzero;stroke:none"
         d="m 339.92617,533.96611 c 4.85427,0 8.6196,1.08493 10.64187,2.72031 2.04222,1.63935 4.55112,5.09757 4.55112,15.10522 0,10.00767 -2.5089,13.4619 -4.55112,15.10524 -2.02227,1.63537 -5.7876,2.72827 -10.64187,2.72827 -4.86622,0 -8.61561,-1.0929 -10.65384,-2.72827 -2.03823,-1.64334 -4.53515,-5.09757 -4.53515,-15.10524 0,-10.00765 2.49692,-13.46587 4.53515,-15.10522 2.03823,-1.63538 5.78762,-2.72031 10.65384,-2.72031 z m -4.89015,6.72098 c -0.98123,1.20858 -2.17783,3.74938 -2.17783,11.10455 0,7.35119 1.1966,9.89599 2.17783,11.10058 0.97722,1.1966 2.78012,2.00632 5.11352,2.00632 2.33738,0 4.13229,-0.80972 5.12151,-2.00632 0.97722,-1.20459 2.17384,-3.74939 2.17384,-11.10058 0,-7.35517 -1.19662,-9.89597 -2.17384,-11.10455 -0.98922,-1.2006 -2.78413,-2.00234 -5.12151,-2.00234 -2.3334,0 -4.1363,0.80174 -5.11352,2.00234"
         inkscape:connector-curvature="0" /><path
         id="path3019"
         style="display:inline;fill:#000000;fill-opacity:1;fill-rule:nonzero;stroke:none"
         d="m 369.89731,539.18734 6.9962,-0.29517 c 1.8308,0 3.98471,0.4946 5.02976,1.81884 0.97323,1.24848 1.5875,2.73626 1.5875,5.13348 l 0,23.42966 7.14377,0 0,-24.01999 c 0,-4.54315 -1.40003,-7.18367 -3.4981,-8.84297 -2.99153,-2.37328 -8.35235,-2.14593 -8.35235,-2.14593 l -15.98275,0.2872 0,34.72169 7.07597,0 0,-30.08681"
         inkscape:connector-curvature="0" /><path
         id="path3021"
         style="display:inline;fill:#000000;fill-opacity:1;fill-rule:nonzero;stroke:none"
         d="m 296.04242,527.98306 -7.13581,0 0,33.55698 c 0,0 0.16753,3.06334 0.33905,4.14029 0.17966,1.07695 1.73509,3.63371 5.83946,3.63371 l 7.39108,-0.1436 0,-4.3038 c 0,0 -2.00631,0.14358 -3.21888,0.14358 -1.21257,0 -2.70036,-0.0797 -2.95962,-2.14992 -0.25528,-2.06614 -0.25528,-4.53515 -0.25528,-4.53515 l 0,-19.76006 8.03725,0 0,-4.29983 -8.03725,0 0,-6.2822"
         inkscape:connector-curvature="0" /><path
         id="path3023"
         style="display:inline;fill:#000000;fill-opacity:1;fill-rule:nonzero;stroke:none"
         d="m 153.13103,545.84449 c 0,-2.39722 -0.61027,-3.885 -1.59149,-5.13348 -1.04504,-1.32424 -3.19097,-1.81884 -5.02577,-1.81884 l -9.40937,0.29517 0,-4.63488 11.32394,-0.2872 c 0,0 5.36082,-0.22751 8.35635,2.14593 2.09008,1.6593 3.47814,4.29982 3.47814,8.84297 l 0,23.68493 -13.67328,0.29517 c 0,0 -6.19047,0.0225 -9.30964,-1.24049 -3.03939,-1.23649 -4.6987,-4.63089 -4.6987,-9.34154 0,-4.54713 1.39206,-7.18766 3.48214,-8.84695 2.99551,-2.37728 8.35236,-2.14195 8.35236,-2.14195 l 4.36763,0 0,4.03658 -2.44906,0 c -1.83482,0 -3.72147,0.33904 -4.77049,1.66329 -0.97725,1.2365 -1.49976,2.30946 -1.49976,4.70667 0,3.1471 0.61027,4.55111 2.09009,5.62008 1.30828,0.95331 3.64966,1.16073 6.26226,1.16073 l 4.71465,-0.28719 0,-18.719"
         inkscape:connector-curvature="0" /><path
         id="path3025"
         style="display:inline;fill:#000000;fill-opacity:1;fill-rule:nonzero;stroke:none"
         d="m 273.4424,545.84449 c 0,-2.39722 -0.59831,-3.885 -1.57953,-5.13348 -1.057,-1.32424 -3.20293,-1.81884 -5.02576,-1.81884 l -9.40537,0.29517 0,-4.63488 11.31595,-0.2872 c 0,0 5.35684,-0.22751 8.34837,2.14593 2.09008,1.6593 3.48613,4.29982 3.48613,8.84297 l 0,23.68493 -13.67329,0.29517 c 0,0 -6.19845,0.0225 -9.30964,-1.24049 -3.04338,-1.23649 -4.70668,-4.63089 -4.70668,-9.34154 0,-4.54713 1.40403,-7.18766 3.48214,-8.84695 2.99154,-2.37728 8.36033,-2.14195 8.36033,-2.14195 l 4.36365,0 0,4.03658 -2.45305,0 c -1.82285,0 -3.72146,0.33904 -4.75853,1.66329 -0.98123,1.2365 -1.50774,2.30946 -1.50774,4.70667 0,3.1471 0.61427,4.55111 2.09009,5.62008 1.30431,0.95331 3.65765,1.16073 6.27024,1.16073 l 4.70269,-0.28719 0,-18.719"
         inkscape:connector-curvature="0" /><path
         id="path3027"
         style="display:inline;fill:#000000;fill-opacity:1;fill-rule:nonzero;stroke:none"
         d="m 403.58593,569.60123 c 1.86273,0 3.61377,-0.72595 4.93005,-2.03424 1.31228,-1.32026 2.03822,-3.07132 2.03822,-4.93005 0,-1.86272 -0.72594,-3.61377 -2.03822,-4.93003 -1.31628,-1.3123 -3.06732,-2.03425 -4.93005,-2.03425 -3.82517,0 -6.96428,3.12315 -6.96428,6.96428 0,1.85873 0.71797,3.60979 2.04621,4.93005 1.32026,1.30829 3.06333,2.03424 4.91807,2.03424 z m -5.79559,-6.96429 c 0,-1.54761 0.61027,-3.0035 1.69919,-4.09641 1.10087,-1.09289 2.54879,-1.70317 4.0964,-1.70317 1.54762,0 3.00749,0.61028 4.10039,1.70317 1.08892,1.09291 1.69919,2.5488 1.69919,4.09641 0,3.19495 -2.59665,5.79958 -5.79958,5.79958 -1.54761,0 -2.99553,-0.61027 -4.0964,-1.69919 -1.08892,-1.09689 -1.69919,-2.54878 -1.69919,-4.10039"
         inkscape:connector-curvature="0" /><path
         id="path3029"
         style="display:inline;fill:#000000;fill-opacity:1;fill-rule:nonzero;stroke:none"
         d="m 407.0242,565.87179 c -0.10371,-0.0399 -0.18349,-0.15956 -0.2272,-0.33904 -0.0319,-0.12764 -0.06,-0.32309 -0.0679,-0.58635 l -0.0319,-1.00116 c -0.016,-0.47067 -0.11584,-0.80572 -0.28335,-1.02909 -0.10754,-0.15157 -0.27124,-0.27123 -0.45871,-0.38292 0.23134,-0.15157 0.43876,-0.33505 0.58635,-0.56639 0.19559,-0.31112 0.29899,-0.70601 0.29899,-1.18465 0,-0.9174 -0.38691,-1.56358 -1.14078,-1.90262 -0.39887,-0.17964 -0.8815,-0.25942 -1.47183,-0.25942 l -3.6018,0 0,7.75405 1.3402,0 0,-3.179 2.118,0 c 0.38292,0 0.67011,0.0399 0.83365,0.11169 0.27507,0.13561 0.42281,0.41084 0.43876,0.82964 l 0.0596,1.24049 c 0.016,0.30314 0.0319,0.49461 0.0559,0.60629 0.0361,0.11966 0.0558,0.21539 0.0995,0.29517 l 0.0559,0.0957 1.49577,0 0,-0.45472 -0.0996,-0.0479 z m -1.55162,-4.99387 c 0,0.43477 -0.11167,0.72196 -0.32706,0.88152 -0.2473,0.16368 -0.59033,0.25527 -1.02112,0.25527 l -2.15788,0 0,-2.19379 2.28951,0 c 0.30697,0 0.56241,0.0437 0.7459,0.13146 0.31908,0.15956 0.47065,0.47067 0.47065,0.92538"
         inkscape:connector-curvature="0" /></g></g></svg>