<?xml version="1.0" encoding="UTF-8" standalone="no"?>
<!-- Generator: Adobe Illustrator 13.0.0, SVG Export Plug-In . SVG Version: 6.00 Build 14948)  -->

<svg
   xmlns:dc="http://purl.org/dc/elements/1.1/"
   xmlns:cc="http://creativecommons.org/ns#"
   xmlns:rdf="http://www.w3.org/1999/02/22-rdf-syntax-ns#"
   xmlns:svg="http://www.w3.org/2000/svg"
   xmlns="http://www.w3.org/2000/svg"
   xmlns:sodipodi="http://sodipodi.sourceforge.net/DTD/sodipodi-0.dtd"
   xmlns:inkscape="http://www.inkscape.org/namespaces/inkscape"
   version="1.2"
   id="Ebene_1"
   x="0px"
   y="0px"
   width="297.59518"
   height="155.88658"
   viewBox="43.869 -10.908 297.59519 155.88658"
   xml:space="preserve"
   inkscape:version="0.91 r13725"
   sodipodi:docname="sega_megacd.svg"><metadata
     id="metadata5301"><rdf:RDF><cc:Work
         rdf:about=""><dc:format>image/svg+xml</dc:format><dc:type
           rdf:resource="http://purl.org/dc/dcmitype/StillImage" /><dc:title></dc:title></cc:Work></rdf:RDF></metadata><defs
     id="defs5299" /><sodipodi:namedview
     pagecolor="#ffffff"
     bordercolor="#666666"
     borderopacity="1"
     objecttolerance="10"
     gridtolerance="10"
     guidetolerance="10"
     inkscape:pageopacity="0"
     inkscape:pageshadow="2"
     inkscape:window-width="1920"
     inkscape:window-height="1137"
     id="namedview5297"
     showgrid="false"
     inkscape:zoom="0.8521712"
     inkscape:cx="-70.489875"
     inkscape:cy="172.95411"
     inkscape:window-x="-8"
     inkscape:window-y="-8"
     inkscape:window-maximized="1"
     inkscape:current-layer="g6103"
     fit-margin-top="0"
     fit-margin-left="0"
     fit-margin-right="0"
     fit-margin-bottom="0" /><g
     id="g6103"
     transform="translate(-5.248367,-3.3142805)"><g
       id="g4175"><g
         transform="matrix(0.77304741,0,0,0.77304741,11.558273,-0.92434125)"
         id="g4211"><g
           id="g4200"
           transform="matrix(4.1259919,0,0,4.1259919,-847.16857,-645.6486)"><path
             style="fill:#000000;fill-opacity:1;fill-rule:nonzero;stroke:none"
             d="m 217.10036,203.26585 93.3021,0 0,-48.85239 -93.3021,-0.0212 z"
             id="path4168"
             inkscape:connector-curvature="0" /><path
             style="fill:#ffffff;fill-opacity:1;fill-rule:nonzero;stroke:none"
             d="m 241.37836,157.3556 c 0.1905,-0.31749 0.48683,-0.31749 0.48683,-0.31749 l 8.84756,0 0,1.96849 -7.02725,0 -0.381,0.52917 0,1.33347 7.40825,0 -1.397,2.11666 -6.01125,0 0,1.90498 7.40825,0 0,1.94733 -11.15472,0 c 0,-2.11667 0,-4.57197 0,-6.68864 z"
             id="path4170"
             inkscape:connector-curvature="0" /><path
             style="fill:#ffffff;fill-opacity:1;fill-rule:nonzero;stroke:none"
             d="m 271.28675,157.03811 c 0.23283,0 0.23283,0.0212 0.40216,0.21166 2.2225,3.04797 4.61405,6.43463 6.90005,9.63077 -1.22766,0.0212 -2.01083,-0.0212 -3.2385,0 l -1.46022,-1.98966 -4.16983,0 -1.3335,-1.77798 0,3.76764 -3.15383,0 c -0.10583,0 -0.21167,-0.10583 -0.21167,-0.21166 l 0.0212,-9.63077 m 3.34434,5.94779 4.04283,0 -2.89983,-3.9793 -1.12184,0 z"
             id="path4172"
             inkscape:connector-curvature="0" /><path
             style="fill:#ffffff;fill-opacity:1;fill-rule:nonzero;stroke:none"
             d="m 254.28991,157.03811 8.80534,0 0,1.96849 -7.0485,0 c -0.3175,0 -0.40217,0 -0.46567,0.10583 l -0.29633,0.35984 -0.0423,4.88944 c 0,0.48683 0.0423,0.52917 0.29633,0.52917 l 4.826,0 0,-1.90498 -2.37067,0 1.41817,-2.11666 4.29683,0 0,6.05364 c -3.15383,-0.0212 -8.001,0 -11.15483,-0.0212 -0.21167,0 -0.71967,-0.21167 -0.71967,-0.762 l -0.0212,-5.99014 1.88384,-2.81514 c 0.1905,-0.31749 0.59266,-0.29632 0.59266,-0.29632 z"
             id="path4174"
             inkscape:connector-curvature="0" /><path
             style="fill:#e4ac25;fill-opacity:1;fill-rule:nonzero;stroke:none"
             d="m 297.40613,157.8636 c 2.05317,-0.48683 4.23333,-0.74083 6.2865,-0.21167 1.5875,0.381 3.048,1.48167 3.6195,3.02681 0.889,2.39183 0.254,5.01647 -0.635,7.30244 -1.4605,3.51367 -3.72533,6.66747 -6.32883,9.41911 0.0423,-3.55597 0,-7.09078 0.0212,-10.64675 -0.0212,-0.61383 0.0423,-1.22766 -0.0847,-1.82033 -0.23284,-1.35464 -1.54517,-2.39181 -2.89984,-2.39181 -3.3655,-0.0212 -6.70983,0 -10.07533,0 3.1115,-2.05316 6.477,-3.76763 10.0965,-4.6778 z"
             id="path4176"
             inkscape:connector-curvature="0" /><path
             style="fill:#e4ac25;fill-opacity:1;fill-rule:nonzero;stroke:none"
             d="m 279.37213,169.23001 c 2.3495,-2.4553 4.93183,-4.69897 7.76817,-6.56161 0.0212,5.46095 0,10.94309 0.0212,16.42523 0.0423,0.0423 0.10583,0.14813 0.14816,0.19047 3.40784,0 6.7945,0 10.18117,0 0.33867,0 0.67733,-0.0635 1.016,-0.12697 -0.74083,0.84663 -1.60867,1.54513 -2.45533,2.2648 -3.81,3.13258 -8.128,5.77842 -12.86934,7.17542 -2.83633,0.78316 -6.07483,1.29116 -8.763,-0.16934 -0.25372,-0.1905 -0.97338,-0.48683 -0.52888,-0.84666 3.89438,-3.66184 8.21238,-7.23892 12.14938,-10.85839 l 0,-1.16417 c -4.65666,3.28084 -9.48266,7.04847 -13.77921,10.05406 l -0.40217,0.16933 0.23283,-0.29633 c 4.23305,-3.97925 8.65689,-7.72572 12.89022,-11.70503 l 1.05833,-0.91017 0,-0.9525 c -4.72016,3.28084 -9.75783,7.13314 -14.03321,10.03295 0.33866,-0.5715 0.86783,-0.99484 1.37583,-1.43934 4.12722,-3.76763 8.48755,-7.42944 12.65738,-11.17591 l 0,-0.889 c -4.21216,2.77283 -8.636,6.28647 -12.40338,8.86878 0.1905,-0.4445 0.42333,-0.889 0.82522,-1.18534 3.8735,-3.3443 7.78933,-6.73094 11.57816,-10.15991 l 0,-0.84667 c -1.75683,0.99483 -3.13266,2.39183 -4.80483,3.51364 -1.12183,0.71966 -2.05317,1.73566 -3.28083,2.26483 0.40216,-0.61383 0.93133,-1.12183 1.41816,-1.67217 z"
             id="path4178"
             inkscape:connector-curvature="0" /><path
             style="fill:#e4ac25;fill-opacity:1;fill-rule:nonzero;stroke:none"
             d="m 291.66996,166.85938 c 0,-0.27517 0.0212,-0.55034 0.0847,-0.80434 1.2065,-0.0212 2.43417,0 3.64067,-0.0212 0.0847,0.23284 0.14816,0.46567 0.14816,0.71967 -0.0212,2.81514 0,5.65144 0,8.48778 0.0212,0.21164 -0.127,0.40214 -0.23283,0.57147 -1.05833,-0.0423 -2.13783,0 -3.19617,-0.0212 -0.254,0 -0.48683,-0.16934 -0.4445,-0.44447 -0.0212,-2.83634 0,-5.65148 0,-8.48778 z"
             id="path4180"
             inkscape:connector-curvature="0" /><path
             style="fill:#349dec;fill-opacity:1;fill-rule:nonzero;stroke:none"
             d="m 264.78858,169.69568 c 2.0955,-0.71967 4.29683,-1.22767 6.51933,-1.16417 1.50284,0.0423 3.04772,0.42334 4.25422,1.397 -3.95788,3.78881 -8.21238,7.49295 -12.23405,11.26059 l 0,0.9525 c 4.064,-2.87867 8.48783,-6.15947 12.02238,-8.76295 0.59267,-0.42333 1.16417,-0.86783 1.79917,-1.22766 -0.3175,0.55033 -0.84667,0.889 -1.29117,1.31233 -3.76738,3.49247 -7.59855,6.92144 -11.38738,10.39269 -0.40217,0.381 -0.78317,0.74084 -1.143,1.18534 l 0,0.55033 c 4.61433,-3.19608 9.31333,-6.54039 13.94855,-9.69422 -0.29633,0.35983 -0.65617,0.67733 -0.99483,0.99483 -4.25422,3.89464 -8.69922,7.68339 -12.95372,11.59922 l 0,0.84667 c 3.683,-2.64583 7.6835,-5.54567 10.90083,-7.85275 0.48655,-0.33867 0.95222,-0.6985 1.48139,-0.97367 -0.127,0.1905 -0.254,0.381 -0.40217,0.55034 -4.00022,3.68291 -7.97955,7.23891 -11.98005,10.92191 l 0,0.635 c 2.83633,-1.8415 5.715,-4.21216 8.255,-5.92666 -0.55033,0.78316 -1.22767,1.4605 -1.88383,2.18016 -3.83117,3.95817 -8.3185,7.34484 -13.37734,9.60967 -2.77283,1.2065 -5.7785,2.13783 -8.84766,2.01083 -1.67217,-0.0635 -3.47125,-0.5715 -4.61425,-1.86266 -1.18531,-1.31234 -1.46047,-3.21734 -1.24881,-4.93184 0.29631,-2.45533 1.31231,-4.7625 2.53997,-6.87916 1.37575,-2.3495 3.04792,-4.55075 4.97409,-6.49809 -0.10584,3.45009 -0.0212,6.92142 -0.0423,10.37159 0,1.10066 -0.10584,2.32833 0.5715,3.302 0.508,0.6985 1.31233,1.24883 2.2225,1.24883 3.38666,0 6.77333,0 10.16,0 0,-2.0955 0.0212,-4.16983 0,-6.24417 -1.35467,-0.0635 -2.75167,-0.14816 -4.08517,0.0423 -0.0212,0.84667 0.0423,1.69334 -0.0212,2.54 -0.381,0.27517 -0.91017,0.0847 -1.3335,0.14817 -0.9525,-0.0635 -1.92617,0.127 -2.83634,-0.127 0.0212,-3.15383 0,-6.2865 0,-9.44025 1.29117,-0.29633 2.667,-0.0423 3.97934,-0.127 0.0635,0.0635 0.14816,0.127 0.21166,0.21167 0,0.78308 0,1.56625 0,2.37058 1.27,0.1905 2.6035,0.0423 3.89467,0.0847 0.0423,-0.0423 0.14817,-0.127 0.1905,-0.16933 0,-1.96842 0,-3.93692 0,-5.90539 -2.58233,-0.16933 -5.207,-0.0212 -7.8105,-0.0635 -1.16417,-0.0423 -2.3495,0 -3.4925,0.1905 0.33867,-0.381 0.6985,-0.762 1.10067,-1.10067 3.78883,-3.38664 8.14916,-6.24411 12.954,-7.95861 z"
             id="path4182"
             inkscape:connector-curvature="0" /><path
             style="fill:#ffffff;fill-opacity:1;fill-rule:nonzero;stroke:none"
             d="m 225.73631,157.8636 c 0.35983,-0.508 0.889,-0.84666 1.5663,-0.82549 1.29117,-0.0423 2.58233,0 3.89464,0 -0.0212,0.40216 -0.0212,0.65616 -0.0423,1.05832 0.52916,-0.55033 1.10066,-1.10066 1.9685,-1.05832 1.79914,-0.0423 3.57714,0 5.37628,0 0,3.32313 0,6.51929 0,9.8636 -1.20648,0 -2.43414,0 -3.64064,0 0,-2.39183 0,-4.78364 0,-7.17544 -0.67731,-0.0635 -1.01598,0.5503 -1.31231,1.01597 -1.3335,2.05316 -2.70933,4.06397 -3.95814,6.15947 -1.29116,0.0212 -2.56116,0.0212 -3.83113,0 1.52397,-2.4765 3.17497,-4.86831 4.74127,-7.30244 -0.8043,0.0423 -1.84147,-0.21167 -2.43414,0.4445 -1.5028,2.2648 -2.98447,4.57194 -4.4873,6.85794 -1.26997,0 -2.56114,0 -3.83113,0 1.98966,-3.02681 4.00046,-6.03247 5.99013,-9.03811 z"
             id="path4184"
             inkscape:connector-curvature="0" /></g></g></g></g></svg>