<?xml version="1.0" encoding="UTF-8" standalone="no"?>
<!-- Generator: Adobe Illustrator 13.0.0, SVG Export Plug-In . SVG Version: 6.00 Build 14948)  -->

<svg
   xmlns:dc="http://purl.org/dc/elements/1.1/"
   xmlns:cc="http://creativecommons.org/ns#"
   xmlns:rdf="http://www.w3.org/1999/02/22-rdf-syntax-ns#"
   xmlns:svg="http://www.w3.org/2000/svg"
   xmlns="http://www.w3.org/2000/svg"
   xmlns:sodipodi="http://sodipodi.sourceforge.net/DTD/sodipodi-0.dtd"
   xmlns:inkscape="http://www.inkscape.org/namespaces/inkscape"
   version="1.2"
   id="Ebene_1"
   x="0px"
   y="0px"
   width="471.77335"
   height="162.22722"
   viewBox="43.869 -10.908 471.77335 162.22722"
   xml:space="preserve"
   inkscape:version="0.91 r13725"
   sodipodi:docname="sega_megacd_white.svg"><metadata
     id="metadata5301"><rdf:RDF><cc:Work
         rdf:about=""><dc:format>image/svg+xml</dc:format><dc:type
           rdf:resource="http://purl.org/dc/dcmitype/StillImage" /><dc:title></dc:title></cc:Work></rdf:RDF></metadata><defs
     id="defs5299" /><sodipodi:namedview
     pagecolor="#ffffff"
     bordercolor="#666666"
     borderopacity="1"
     objecttolerance="10"
     gridtolerance="10"
     guidetolerance="10"
     inkscape:pageopacity="0"
     inkscape:pageshadow="2"
     inkscape:window-width="1920"
     inkscape:window-height="1137"
     id="namedview5297"
     showgrid="false"
     inkscape:zoom="1.7043424"
     inkscape:cx="26.573032"
     inkscape:cy="11.000912"
     inkscape:window-x="-8"
     inkscape:window-y="-8"
     inkscape:window-maximized="1"
     inkscape:current-layer="g6103"
     fit-margin-top="0"
     fit-margin-left="0"
     fit-margin-right="0"
     fit-margin-bottom="0" /><g
     id="g6103"><g
       id="g4756"><path
         inkscape:connector-curvature="0"
         d="m 170.11385,60.094066 28.70769,-0.02911 c 11.74521,0 21.26363,-9.489311 21.26363,-21.181661 0,-11.71533 -9.51842,-21.205406 -21.26363,-21.205406 l -7.45555,0.0406 c -0.58753,0 -1.06399,-0.48182 -1.06399,-1.07471 0,-0.59289 0.47646,-1.075476 1.06399,-1.075476 l 28.6556,0.0061 0.0115,-8.9898724 -28.67322,0 c -5.5436,0 -10.05386,4.5033624 -10.05386,10.0362404 0,5.538239 4.50949,10.023984 10.05386,10.023984 l 7.49079,0.09881 c 6.72938,0 12.17494,5.427168 12.17494,12.122846 0,6.700274 -5.44479,12.139699 -12.17494,12.139699 l -28.72531,0 -0.0115,9.087922"
         style="fill:#2b4277;fill-opacity:1"
         id="path4332" /><path
         inkscape:connector-curvature="0"
         d="m 170.12534,48.895791 28.72531,0 c 5.56122,0 10.05922,-4.485744 10.05922,-10.030112 0,-5.538239 -4.498,-10.018622 -10.05922,-10.018622 l -7.49079,-0.0812 c -6.71789,0 -12.16881,-5.433297 -12.16881,-12.145827 0,-6.6941464 5.45092,-12.1282089 12.16881,-12.1282089 l 28.67322,-0.00613 -0.0115,-9.0243433 -28.6556,0 c -11.73295,0 -21.26363,9.4785862 -21.26363,21.1824262 0,11.70384 9.53068,21.187788 21.26363,21.187788 l 7.41496,0.01149 c 0.56378,0 1.04023,0.459605 1.04023,1.040239 0,0.569911 -0.47645,1.02875 -1.04023,1.02875 l -28.6671,0.02298 0.0115,8.960764"
         style="fill:#2b4277;fill-opacity:1"
         id="path4334" /><path
         inkscape:connector-curvature="0"
         d="m 242.3423,51.063595 c -4.98058,0 -9.06034,-3.969455 -9.06034,-9.037366 l 0,-28.677817 c 0,-4.875642 4.07976,-8.8856952 9.06034,-8.8856952 l 30.64263,0.00536 0,-9.0067251 -30.64263,0 c -9.97189,0 -18.04945,8.0484488 -18.04945,17.9858743 l 0,28.579767 c 0,9.938191 8.07756,17.99813 18.04945,17.99813 l 30.51471,0.01226 -0.006,-8.98451 -30.50858,0.01072"
         style="fill:#2b4277;fill-opacity:1"
         id="path4336" /><path
         inkscape:connector-curvature="0"
         d="m 235.47887,13.447228 c 0,-3.8001674 3.05714,-6.8802866 6.86343,-6.8802866 l 30.64263,0 0,9.0189816 -26.40047,0 c -2.11495,0 -2.14406,2.098096 -2.14406,2.098096 l 22.02503,0 0,8.978383 -30.99729,0 0.0107,-13.215174"
         style="fill:#2b4277;fill-opacity:1"
         id="path4338" /><path
         inkscape:connector-curvature="0"
         d="m 242.3423,48.878939 c -3.7948,0 -6.87492,-3.062501 -6.87492,-6.851944 l 0,-13.226664 30.99729,0 0,8.996767 -22.02504,0 c 0.0291,2.114949 2.14406,2.125673 2.14406,2.125673 l 26.27255,0 -0.006,8.943912 -30.50781,0.01226"
         style="fill:#2b4277;fill-opacity:1"
         id="path4340" /><path
         inkscape:connector-curvature="0"
         d="m 294.45844,51.040614 c -4.96297,0 -9.01898,-4.044523 -9.01898,-9.014385 l 0,-28.579767 c 0,-4.974458 4.0269,-8.9845112 8.99523,-8.9845112 l 29.67899,0 0,-9.0005971 -29.74793,0 c -9.9673,0 -18.04485,8.0484488 -18.04485,17.9858743 l 0,28.579767 c 0,9.938191 8.14726,17.99813 18.11379,17.99813 l 29.67899,0.01226 0,-42.353362 -25.50577,0 0,8.978383 16.49215,0 0,24.378212 -20.64162,0"
         style="fill:#2b4277;fill-opacity:1"
         id="path4342" /><path
         inkscape:connector-curvature="0"
         d="m 287.55441,42.026229 c 0,3.807827 3.08012,6.904799 6.88028,6.904799 l 18.53817,0 0,-20.142187 -14.34274,0 0,9.008257 5.32299,0 0.0169,2.114949 -5.29924,0 c -1.15667,0 -2.10346,-0.958277 -2.10346,-2.114949 l -0.0475,-20.119207 c 0,0 -0.006,-2.091968 2.1272,-2.144057 l 25.47667,0 -0.0115,-8.9730206 -29.67899,0.00613 c -3.80017,0 -6.88028,3.0801192 -6.88028,6.8802866 l 0,28.579001"
         style="fill:#2b4277;fill-opacity:1"
         id="path4344" /><path
         inkscape:connector-curvature="0"
         d="m 352.00175,6.43289 c 0.39985,-1.1444163 1.48682,-1.9694072 2.77141,-1.9694072 1.28537,0 2.38306,0.8249909 2.77219,1.9694072 l 14.40708,42.561716 -21.09587,0 0.023,-10.012493 7.04958,0 -3.17357,-9.43186 -10.33805,30.479468 -10.63449,0 18.21874,-53.596831"
         style="fill:#2b4277;fill-opacity:1"
         id="path4346" /><path
         inkscape:connector-curvature="0"
         d="m 374.85713,51.040614 -23.96533,0 0,8.989107 36.47118,0 -18.96789,-56.1192962 c -1.66224,-5.4738949 -7.1415,-9.5008004 -13.62805,-9.5008004 -6.49652,0 -11.95893,4.0092873 -13.63342,9.4785862 l -19.14178,56.1422764 9.54829,0 18.5849,-54.5734915 c 0.75451,-1.8070135 2.53395,-3.0801192 4.62592,-3.0801192 2.08048,0 3.86987,1.2731057 4.63129,3.0686291 l 15.47489,45.5951086"
         style="fill:#2b4277;fill-opacity:1"
         id="path4348" /><path
         inkscape:connector-curvature="0"
         d="m 380.48883,2.6036148 c 1.69747,0 3.29536,-0.6625972 4.49263,-1.85374001 1.19651,-1.20263295 1.86523,-2.78903599 1.86523,-4.48574449 0,-1.6852181 -0.66872,-3.2662592 -1.86523,-4.4688921 -1.19727,-1.1850148 -2.79516,-1.8476122 -4.49263,-1.8476122 -3.49224,0 -6.34562,2.8304008 -6.34562,6.3172703 0,1.6967085 0.6626,3.28311155 1.8706,4.4857445 1.19191,1.1903768 2.78367,1.852974 4.47502,1.852974 m -5.45015,-6.3402505 c 0,-1.4469896 0.55765,-2.8181443 1.59712,-3.8468934 1.03488,-1.0287491 2.40604,-1.5864031 3.85303,-1.5864031 1.4646,0 2.83576,0.55842 3.87064,1.5864031 1.02875,1.0287491 1.59866,2.3999038 1.59866,3.8468934 0,3.00428453 -2.45276,5.4447868 -5.4693,5.4447868 -1.44776,0 -2.81891,-0.5637821 -3.85303,-1.59253114 -1.04023,-1.02798307 -1.59712,-2.39377576 -1.59712,-3.85225566 z"
         style="fill:#231f20"
         id="path4350" /><path
         inkscape:connector-curvature="0"
         d="m 378.86182,-3.2019618 0,2.9866662 -0.91844,0 0,-7.0196998 2.60903,0 c 0.98278,0.01149 1.55806,0.01149 2.10422,0.4236026 0.52855,0.3898982 0.74992,0.9766605 0.74992,1.6277675 0,1.6392577 -1.33592,1.85374 -1.67449,1.9234467 l 1.9763,3.044883 -1.10995,0 -1.92344,-2.9866662 -1.81315,0 m 0,-0.7729024 1.86523,0 c 0.29722,0 0.57604,0 0.85487,-0.069707 0.65111,-0.1570317 0.88321,-0.6219987 0.88321,-1.1329262 0,-0.18614 -0.0176,-0.6564691 -0.41901,-0.9820226 -0.36692,-0.3079353 -0.83112,-0.2964452 -1.37115,-0.2964452 l -1.81315,0 0,2.4811008 z"
         style="fill:#231f20"
         id="path4352" /></g><g
       style="fill:#ffffff;fill-opacity:1;stroke:#000000;stroke-width:1.88426342;stroke-miterlimit:4;stroke-dasharray:none"
       id="g4877"
       transform="matrix(1.3267784,0,0,1.3267784,-90.046541,75.517357)"><g
         style="fill:#ffffff;fill-opacity:1;stroke:#000000;stroke-width:1.88426342;stroke-miterlimit:4;stroke-dasharray:none"
         id="g4885" /><g
         style="fill:#ffffff;fill-opacity:1;stroke:#000000;stroke-width:1.88426342;stroke-miterlimit:4;stroke-dasharray:none"
         id="g4891" /><path
         sodipodi:nodetypes="ccccccccccccccccccccccccccccccccccccccccccccccccccccscccccccccccccccsccccccccccccccccccccccccccccccccccc"
         inkscape:connector-curvature="0"
         d="m 327.1,26.972 c 4.46,-0.02 8.92,-0.02 13.39,0 0,2.96 0,5.91 -0.01,8.86 -4.45,0.16 -8.9,0.08 -13.35,0.1 -0.05,-2.991 -0.05,-5.971 -0.03,-8.96 z m 73.04,-16.39 c 12.28,-0.01 24.55,-0.06 36.83,0.01 2.71,-0.22 5.09,1.6 6.35,3.88 2.9,4.67 6.2,9.09 8.93,13.87 1.03,2.8 0.96,6.32 -1.06,8.69 -2.92,4.16 -5.36,8.64 -8.36,12.74 -1.54,2.18 -4.39,2.4945 -6.86,2.4345 -11.95,-0.04 -23.91,0.15 -35.87,0 0.09,-13.88 0.01,-27.7455 0.04,-41.6245 z m 15.65,9.339 c 0.02,7.76 -0.03,15.626 0.02,23.386 l 13.13,0 c 1.43,-0.14 3.3,0.114 4.09,-1.446 2.35,-3.24 4.58,-6.59 6.57,-10.06 -0.81,-3 -3.01,-5.36 -4.6,-7.97 -1.27,-1.63 -2.52,-4.04 -4.92,-3.89 -4.77,-0.079 -9.53,0.031 -14.29,-0.02 z M 353.6,13.512 c 1.24,-1.76 3.19,-3.15 5.44,-2.93 12.42,-0.04 24.84,0 37.26,-0.01 0,3.07 0.01,6.14 -0.02,9.21 -9.11,0.08 -18.23,-0.13 -27.34,0.09 -2.95,0.05 -4.37,2.98 -5.82,5.08 -1.42,2.36 -3.77,5.14 -1.82,7.92 2.24,3.54 4.15,9.575 8.76,10.435 l 26.24,0 c 0,3.33 0.01,5.5695 0,8.8995 -12.09,-0.01 -24.19,0.03 -36.28,0 -4.94,-0.01 -7.08,-5.2845 -9.48,-8.7745 -1.98,-3.88 -5.75,-7.03 -5.93,-11.65 -0.16,-2.52 0.26,-5.24 1.82,-7.31 2.43,-3.62 4.68,-7.37 7.17,-10.96 z m -73.65,-2.9 c 7.7,-0.1 15.41,-0.02 23.11,-0.06 4.13,-0.41 7.12,3.11 9.14,6.24 7.28,11.91 14.9,23.4545 22.09,35.4145 -5.25,-0.02 -11.22366,0.03 -16.47366,0 L 312.26,43.307 l -13.94,0 -4.1,-5.535 c 0.13,4.84 0.08,9.5945 0.08,14.4345 -4.79,0 -9.57,0.09 -14.35,0 -0.01,-13.88 -0.01,-27.7145 0,-41.5945 z m 14.64,8.99 c -0.08,5.22 0.02,10.823687 -0.08,16.043687 l 12.64,0 L 299.12837,22.482 c 0,0 -1.20619,-2.001955 -2.18508,-2.539281 C 296.24847,19.561326 294.59,19.602 294.59,19.602 Z m -60.91,-4.951 c 1.28,-1.82 2.78,-4.23 5.35,-4.07 11.43,-0.05 22.86,0 34.28,-0.01 0.02,3.12 -0.03,6.24 -0.15,9.35 -7.43,0.05 -14.85,-0.07 -22.27,0.05 -1.40587,0 -2.72556,-0.125667 -3.31418,0.794234 L 242.54,29.151 l 0,14.156 20.23,0 0,-7.661313 -9.64,0 5.07,-8.549187 17.335,0 0,25.11 -41.535,0 c -3.81299,0 -5.67,-3.155831 -5.67,-6.3555 0.1,-7.57 -0.17,-15.16 0.12,-22.72 1.45,-2.989 3.45,-5.679 5.23,-8.48 z m -48.02,1.921 c 1.92,-2.47 3.57,-6.37 7.32,-5.99 10.64,-0.03 21.52,-0.03 32.16,0.01 l 0,9.26 c -7.93,0.24 -16.18,-0.11 -24.1,0.17 l -5.41,7.0745 29.51,0 c -1.97,2.68 -3.53,5.799187 -5.4,8.549187 l -24.23,0 c 0.04,2.61 0.05,5.041313 0.06,7.661313 l 29.57,0 0,8.8995 -44.55,0 c -0.02,-8.49 -0.03,-16.8345 -0.01,-25.3345 -0.34,-4.181 3.04,-7.07 5.08,-10.3 z m -58.91,-1.861 c 1.4,-2.08 3.48,-4.19 6.19,-4.1 5.13,-0.14 10.26,0 15.4,-0.04 -0.04,1.72 -0.08,3.44 -0.14,5.16 2.09,-2.31 4.34,-5.24 7.8,-5.12 7.1,-0.13 14.2,0 21.3,-0.04 0,13.88 0.01,27.7455 0,41.6355 -4.8,0.01 -9.61,0 -14.41,0 -0.02,-9.93 0.01,-19.8355 -0.02,-29.7655 -2.7,-0.24 -3.99,2.33 -5.21,4.26 -5.22,8.52 -10.74,16.8355 -15.7,25.5055 -5.05,0.1 -10.09,0.1 -15.14,0 6.06,-10.22 12.56,-20.1455 18.78,-30.2755 -3.18,0.19 -7.27,-0.87 -9.63,1.88 -6,9.42 -11.8,18.9455 -17.75,28.3955 -5.08,-0.02 -10.15,0.03 -15.23,0 7.91,-12.51 15.86,-24.9755 23.76,-37.4955 z"
         style="fill:#ffffff;stroke:#000000;stroke-width:1.88426342;stroke-linecap:square;stroke-linejoin:round;stroke-miterlimit:4;stroke-dasharray:none;fill-opacity:1"
         id="path4895" /></g></g></svg>