<?xml version="1.0" encoding="UTF-8" standalone="no"?><!DOCTYPE svg PUBLIC "-//W3C//DTD SVG 1.1//EN" "http://www.w3.org/Graphics/SVG/1.1/DTD/svg11.dtd"><svg width="100%" height="100%" viewBox="0 0 282 69" version="1.1" xmlns="http://www.w3.org/2000/svg" xmlns:xlink="http://www.w3.org/1999/xlink" xml:space="preserve" style="fill-rule:evenodd;clip-rule:evenodd;stroke-linejoin:round;stroke-miterlimit:1.41421;"><g id="g6035"><g id="text5239"><path id="path6023" d="M37.513,54.698l13.033,0l0.024,-13.622l11.926,0l0.05,13.647l13.179,0.024c0.902,-27.392 -5.508,-40.515 -19.228,-39.367c-13.197,-1.066 -19.524,12.04 -18.984,39.318Zm18.984,-35.876c4.393,-0.098 6.475,5.73 6.245,17.483l-3.565,0l-2.435,0l-6.098,0c-0.213,-11.999 1.738,-17.827 5.853,-17.483Z" style="fill:#ed1c24;fill-rule:nonzero;"/><path id="path6025" d="M90.159,30.847l0.025,-3.295l-3.565,0l2.336,0l-2.336,0l-2.361,0l-2.361,0l-3.737,0l0,27.122l11.975,0l0,-4.722l0,-2.36l0,-5.902l0,-2.336l0,-4.721c0.033,-1.491 1.008,-2.45 2.926,-2.877c3.574,-0.131 5.319,1.222 5.238,4.058l8.852,0c0.032,-6.246 -3.771,-9.049 -11.41,-8.41c-2.459,0.508 -4.319,1.656 -5.582,3.443l0,0Z" style="fill:#ed1c24;fill-rule:nonzero;"/><path id="path6027" d="M125.175,26.666c-9.049,0.427 -14.172,4.959 -15.369,13.598l0.025,1.918c1.229,5.754 3.885,9.426 7.967,11.016c4.098,1.59 8.483,1.885 13.155,0.886c4.689,-1.017 7.754,-4.459 9.197,-10.328l-2.14,0l2.14,0l-2.14,0l-2.139,0l-2.139,0l-4.033,0c0.312,3.442 -0.32,5.647 -1.893,6.615c-1.558,0.967 -3.131,1.065 -4.721,0.295c-1.591,-0.787 -2.312,-4.156 -2.164,-10.107c0.082,-4.508 0.86,-7.475 2.336,-8.901c1.475,-1.443 2.967,-1.426 4.475,0.049c1.525,1.476 2.262,4.426 2.213,8.852l10.451,0c-0.459,-8.967 -5.533,-13.598 -15.221,-13.893Z" style="fill:#ed1c24;fill-rule:nonzero;"/><path id="path6029" d="M164.075,27.97c-1.475,-1.246 -4.5,-1.714 -9.073,-1.402c-4.803,1.197 -8.066,3.074 -9.787,5.631c-1.705,2.541 -2.582,5.369 -2.631,8.483c-0.279,3.394 0.68,6.541 2.877,9.443c2.197,2.885 5.639,4.377 10.328,4.475c4.59,0.164 7.335,-0.107 8.237,-0.812l0.025,0.935l11.557,0l0,-4.869l0,-2.311l0,-4.598l0,-3.468l0,-4.598l0,-2.311l0,-3.443l0,-2.041l-11.533,-0.024l0,0.91l0,0Zm-4.303,1.696c3.18,0.279 4.664,1.885 4.451,4.82l0,12.958c0.049,2.328 -1.402,3.648 -4.353,3.959c-3.016,-0.229 -4.647,-2.614 -4.893,-7.155l0,-7.426c0.131,-4.656 1.73,-7.041 4.795,-7.156l0,0Z" style="fill:#ed1c24;fill-rule:nonzero;"/><path id="path6031" d="M199.41,27.97c-1.475,-1.246 -4.5,-1.714 -9.073,-1.402c-4.803,1.197 -8.066,3.074 -9.787,5.631c-1.705,2.541 -2.582,5.369 -2.631,8.483c-0.279,3.394 0.68,6.541 2.877,9.443c2.197,2.885 5.639,4.377 10.328,4.475c4.59,0.164 7.335,-0.107 8.237,-0.812l0.025,0.935l11.557,0l0,-4.869l0,-2.311l0,-4.598l0,-3.468l0,-4.598l0,-2.311l0,-3.443l0,-2.311l0,-5.754l0,-2.287l0,-4.623l-2.312,0l2.312,0l-2.312,0l-2.311,0l-2.287,0l-4.623,0l0,13.82l0,0Zm-4.303,1.696c3.18,0.279 4.664,1.885 4.451,4.82l0,12.958c0.049,2.328 -1.402,3.648 -4.353,3.959c-3.016,-0.229 -4.647,-2.614 -4.893,-7.155l0,-7.426c0.131,-4.656 1.73,-7.041 4.795,-7.156l0,0Z" style="fill:#ed1c24;fill-rule:nonzero;"/><path id="path6033" d="M228.475,26.666c-9.049,0.427 -14.172,4.959 -15.369,13.598l0.025,1.918c1.229,5.754 3.885,9.426 7.967,11.016c4.098,1.59 8.483,1.885 13.155,0.886c4.689,-1.017 7.754,-4.459 9.197,-10.328l-2.14,0l2.14,0l-2.14,0l-2.139,0l-2.139,0l-4.033,0c0.312,3.442 -0.319,5.647 -1.893,6.615c-1.557,0.967 -3.131,1.065 -4.721,0.295c-1.59,-0.787 -2.312,-4.156 -2.164,-10.107l19.475,0c-0.459,-8.967 -5.533,-13.598 -15.221,-13.893Zm0.147,3c2.722,0.344 4.099,2.549 4.131,6.615l-2.139,0l-2.139,0l-4.254,0c0.082,-4.262 1.549,-6.467 4.401,-6.615l0,0Z" style="fill:#ed1c24;fill-rule:nonzero;"/></g><path id="rect6013" d="M34.449,0c-19.085,0 -34.449,15.364 -34.449,34.449c0,19.085 15.364,34.449 34.449,34.449l212.279,0c19.085,0 34.449,-15.364 34.449,-34.449c0,-19.085 -15.364,-34.449 -34.449,-34.449l-212.279,0l0,0Zm0,8.955l212.279,0c14.279,0 25.494,11.215 25.494,25.494c0,14.278 -11.215,25.493 -25.494,25.493l-212.279,0c-14.279,0 -25.494,-11.215 -25.494,-25.493c0,-14.279 11.215,-25.494 25.494,-25.494l0,0Z" style="fill:#ed1c24;"/></g></svg>