<?xml version="1.0" encoding="UTF-8" standalone="no"?>
<svg
   xmlns:ns="&amp;#38;#38;ns_sfw;"
   xmlns:dc="http://purl.org/dc/elements/1.1/"
   xmlns:cc="http://creativecommons.org/ns#"
   xmlns:rdf="http://www.w3.org/1999/02/22-rdf-syntax-ns#"
   xmlns:svg="http://www.w3.org/2000/svg"
   xmlns="http://www.w3.org/2000/svg"
   xmlns:sodipodi="http://sodipodi.sourceforge.net/DTD/sodipodi-0.dtd"
   xmlns:inkscape="http://www.inkscape.org/namespaces/inkscape"
   version="1.2"
   id="Ebene_1"
   x="0px"
   y="0px"
   width="281.17719"
   height="68.89772"
   viewBox="0 0 281.17719 68.897719"
   xml:space="preserve"
   inkscape:version="0.91 r13725"
   sodipodi:docname="arcade_nint_udb.svg"
   inkscape:label="Base Level"><defs
     id="defs15" /><sodipodi:namedview
     pagecolor="#ffffff"
     bordercolor="#666666"
     borderopacity="1"
     objecttolerance="10"
     gridtolerance="10"
     guidetolerance="10"
     inkscape:pageopacity="0"
     inkscape:pageshadow="2"
     inkscape:window-width="1920"
     inkscape:window-height="1137"
     id="namedview13"
     showgrid="false"
     inkscape:zoom="1.4556165"
     inkscape:cx="215.31908"
     inkscape:cy="72.394749"
     inkscape:window-x="-8"
     inkscape:window-y="-8"
     inkscape:window-maximized="1"
     inkscape:current-layer="Ebene_1"
     fit-margin-top="0"
     fit-margin-left="0"
     fit-margin-right="0"
     fit-margin-bottom="0" /><metadata
     id="metadata3"><ns:sfw><ns:slices /><ns:sliceSourceBounds
         x="749.163"
         y="518.519"
         width="352.675"
         height="41.963"
         bottomLeftOrigin="true" /></ns:sfw><rdf:RDF><cc:Work
         rdf:about=""><dc:format>image/svg+xml</dc:format><dc:type
           rdf:resource="http://purl.org/dc/dcmitype/StillImage" /><dc:title></dc:title><dc:date>August 2016</dc:date></cc:Work></rdf:RDF></metadata><g
     id="g6045"
     transform="translate(-12.207133,-1.5877241)"><g
       transform="matrix(0.62070021,0,0,0.62070021,47.698321,13.516175)"
       id="g6035"><g
         style="font-style:normal;font-variant:normal;font-weight:normal;font-stretch:normal;font-size:18.02949715px;line-height:125%;font-family:Pretendo;-inkscape-font-specification:Pretendo;letter-spacing:0px;word-spacing:0px;fill:#ed1c24;fill-opacity:1;stroke:none;stroke-width:1px;stroke-linecap:butt;stroke-linejoin:miter;stroke-opacity:1"
         id="text5239"><path
           inkscape:connector-curvature="0"
           d="m 3.258092,68.905708 20.996265,0 0.03962,-21.947039 19.213563,0 0.07923,21.986655 21.233958,0.03961 Q 66.999583,2.787282 33.84133,5.5603736 1.9507774,2.98536 3.258092,68.905708 Z M 33.84133,11.106557 q 10.61698,-0.237694 10.062361,28.166687 l -5.744261,0 -3.921944,0 -9.824667,0 Q 23.897816,10.274629 33.84133,11.106557 Z"
           style="font-style:normal;font-variant:normal;font-weight:normal;font-stretch:normal;font-size:81.13273621px;font-family:Pretendo;-inkscape-font-specification:Pretendo;fill:#ed1c24;fill-opacity:1"
           id="path6023" /><path
           inkscape:connector-curvature="0"
           d="m 88.075079,30.478582 0.03961,-5.308489 -5.744261,0 3.763481,0 -3.763481,0 -3.803097,0 -3.803097,0 -6.02157,0 0,43.696 2.218473,0 0,0 3.803097,0 3.803097,0 9.468127,0 0,-7.606194 0,-3.803097 0,-9.507743 0,-3.763481 0,-7.606194 q 0.07923,-3.605019 4.714256,-4.635025 8.636206,-0.316925 8.438126,6.536573 l 14.26161,0 q 0.0792,-15.093541 -18.381637,-13.548533 -5.942339,1.228083 -8.992739,5.546183 z"
           style="font-style:normal;font-variant:normal;font-weight:normal;font-stretch:normal;font-size:81.13273621px;font-family:Pretendo;-inkscape-font-specification:Pretendo;fill:#ed1c24;fill-opacity:1"
           id="path6025" /><path
           inkscape:connector-curvature="0"
           d="m 144.48769,23.743931 q -21.86781,1.030006 -24.75975,21.907424 l 0.0396,3.090016 q 2.97116,13.905073 12.83545,17.747786 9.9039,3.842713 21.19434,1.426161 11.33006,-2.456167 14.81623,-16.638549 l 0,0 -3.44655,0 3.44655,0 -3.44655,0 -3.44656,0 -3.44656,0 -6.49695,0 q 0.75269,8.319275 -3.05041,10.656595 -3.76348,2.33732 -7.60619,0.475387 -3.84271,-1.901549 -3.48617,-16.282009 l 0,0 q 0.19808,-10.894289 3.76348,-14.340845 3.5654,-3.486173 7.21004,0.07923 3.68425,3.565403 3.5654,14.261614 l 7.80427,0 3.44656,0 5.5858,0 Q 167.9005,24.457012 144.48769,23.743931 Z"
           style="font-style:normal;font-variant:normal;font-weight:normal;font-stretch:normal;font-size:81.13273621px;font-family:Pretendo;-inkscape-font-specification:Pretendo;fill:#ed1c24;fill-opacity:1"
           id="path6027" /><path
           inkscape:connector-curvature="0"
           d="m 207.15956,25.843558 q -3.5654,-3.010785 -14.61815,-2.258089 -11.60737,2.891938 -15.76701,9.071971 -4.12002,6.140417 -4.23887,13.66738 -0.67346,8.200428 4.63503,15.212388 5.30849,6.972344 16.63855,7.210038 11.09236,0.396156 13.27122,-1.307315 l 0.0396,1.505393 18.61933,0 0,-7.843888 0,-3.723866 0,-7.408116 0,-5.585798 0,-7.408116 0,-3.723866 0,-5.546183 0,-3.288095 -18.57971,-0.03962 0,1.465777 z m -6.93273,2.733476 q 7.68543,0.673465 7.17042,7.764656 l 0,20.877418 q 0.11885,5.625414 -7.01196,6.378111 -7.28927,-0.554619 -7.8835,-11.528138 l 0,-11.96391 q 0.31693,-11.250828 7.72504,-11.528137 z"
           style="font-style:normal;font-variant:normal;font-weight:normal;font-stretch:normal;font-size:81.13273621px;font-family:Pretendo;-inkscape-font-specification:Pretendo;fill:#ed1c24;fill-opacity:1"
           id="path6029" /><path
           inkscape:connector-curvature="0"
           d="m 264.08716,25.843558 q -3.5654,-3.010785 -14.61815,-2.258089 -11.60737,2.891938 -15.76701,9.071971 -4.12002,6.140417 -4.23887,13.66738 -0.67346,8.200428 4.63503,15.212388 5.30849,6.972344 16.63855,7.210038 11.09236,0.396156 13.27122,-1.307315 l 0.0396,1.505393 18.61932,0 0,-7.843888 0,-3.723866 0,-7.408116 0,-5.585798 0,-7.408116 0,-3.723866 0,-5.546183 0,-3.723866 0,-9.270049 0,-3.68425 0,-7.4477321 -3.72386,0 3.72386,0 -3.72386,0 -3.72387,0 -3.68425,0 -7.44773,0 0,22.2639641 z m -6.93273,2.733476 q 7.68543,0.673465 7.17042,7.764656 l 0,20.877418 q 0.11885,5.625414 -7.01196,6.378111 -7.28927,-0.554619 -7.8835,-11.528138 l 0,-11.96391 q 0.31693,-11.250828 7.72504,-11.528137 z"
           style="font-style:normal;font-variant:normal;font-weight:normal;font-stretch:normal;font-size:81.13273621px;font-family:Pretendo;-inkscape-font-specification:Pretendo;fill:#ed1c24;fill-opacity:1"
           id="path6031" /><path
           inkscape:connector-curvature="0"
           d="m 310.91279,23.743931 q -21.86781,1.030006 -24.75975,21.907424 l 0.0396,3.090016 q 2.97116,13.905073 12.83545,17.747786 9.9039,3.842713 21.19434,1.426161 11.33006,-2.456167 14.81623,-16.638549 l 0,0 -3.44655,0 3.44655,0 -3.44655,0 -3.44656,0 -3.44656,0 -6.49696,0 q 0.7527,8.319275 -3.0504,10.656595 -3.76348,2.33732 -7.60619,0.475387 -3.84271,-1.901549 -3.48617,-16.282009 l 0,0 5.15003,0 5.15002,0 3.44656,0 8.59658,0 3.44656,0 5.5858,0 Q 334.3256,24.457012 310.91279,23.743931 Z m 0.23769,4.833103 q 6.57619,0.831927 6.65542,10.656594 l -3.44656,0 -3.44655,0 -6.8535,0 q 0.19808,-10.300054 7.09119,-10.656594 z"
           style="font-style:normal;font-variant:normal;font-weight:normal;font-stretch:normal;font-size:81.13273621px;font-family:Pretendo;-inkscape-font-specification:Pretendo;fill:#ed1c24;fill-opacity:1"
           id="path6033" /></g><path
         style="color:#000000;clip-rule:nonzero;display:inline;overflow:visible;visibility:visible;opacity:1;isolation:auto;mix-blend-mode:normal;color-interpolation:sRGB;color-interpolation-filters:linearRGB;solid-color:#000000;solid-opacity:1;fill:#ed1c24;fill-opacity:1;fill-rule:evenodd;stroke:none;stroke-width:1;stroke-linecap:round;stroke-linejoin:round;stroke-miterlimit:4;stroke-dasharray:none;stroke-dashoffset:0;stroke-opacity:1;color-rendering:auto;image-rendering:auto;shape-rendering:auto;text-rendering:auto;enable-background:accumulate"
         d="m -1.679274,-19.217733 c -30.747,0 -55.500001,24.7529996 -55.500001,55.5 0,30.747 24.753001,55.5 55.500001,55.5 l 341.999994,0 c 30.747,0 55.5,-24.753 55.5,-55.5 0,-30.7470004 -24.753,-55.5 -55.5,-55.5 l -341.999994,0 z m 0,14.4277297 341.999994,0 c 23.00406,0 41.07227,18.0682103 41.07227,41.0722703 0,23.00405 -18.06821,41.07226 -41.07227,41.07226 l -341.999994,0 c -23.004053,0 -41.072266,-18.06821 -41.072266,-41.07226 0,-23.00406 18.068213,-41.0722703 41.072266,-41.0722703 z"
         id="rect6013"
         inkscape:connector-curvature="0" /></g></g></svg>