<?xml version="1.0" encoding="UTF-8" standalone="no"?><!DOCTYPE svg PUBLIC "-//W3C//DTD SVG 1.1//EN" "http://www.w3.org/Graphics/SVG/1.1/DTD/svg11.dtd"><svg width="100%" height="100%" viewBox="0 0 291 111" version="1.1" xmlns="http://www.w3.org/2000/svg" xmlns:xlink="http://www.w3.org/1999/xlink" xml:space="preserve" style="fill-rule:evenodd;clip-rule:evenodd;stroke-linejoin:round;stroke-miterlimit:1.41421;"><g id="g4180"><path id="path5366" d="M244.172,0.002c-7.536,0.289 -12.292,8.279 -12.36,15.261c-0.402,2.214 -1.656,2.841 -4.846,2.552c-8.716,-0.572 -16.669,4.478 -22.437,10.596c-0.725,-6.498 -7.402,-9.478 -13.186,-9.778c-9.714,-2.257 -21.177,-0.411 -27.971,7.406c-1.763,-6.879 -9.67,-9.365 -16.033,-8.539c-5.019,0.336 -9.7,2.305 -14.264,4.253c-4.044,-5.823 -12.752,-4.98 -18.047,-1.41c-6.081,-4.392 -16.378,-1.375 -17.948,6.315c-1.292,3.605 -3.289,6.893 -5.255,10.158c-2.901,-10.219 -0.81,-21.484 -5.505,-31.203c-6.433,-7.773 -20.06,-5.358 -24.544,3.327c-5,7.733 -8.875,16.204 -14.877,23.267c-12.992,17.747 -25.425,35.922 -38.851,53.343c-3.401,4.48 -7.317,9.522 -8.048,15.344c1.612,7.625 11.231,10.417 17.888,7.86c9.439,-3.109 14.368,-12.525 18.505,-20.768c2.114,-3.677 4.298,-7.323 6.783,-10.765c10.855,-0.445 21.774,-0.447 32.56,1.004c2.997,10.111 2.771,22.438 11.307,29.905c6.512,5.517 18.674,0.943 18.831,-7.957c18.235,-80.825 164.067,27.73 184.835,-34.923c0.526,-4.614 -4.303,-6.978 -8.255,-6.735c-1.839,0.411 -3.673,-1.872 -1.666,-3.051c4.993,-3.586 10.625,-9.782 8.357,-16.399c-0.684,-2.282 -4.043,-2.676 -4.752,-4.083c2.642,-8.883 -4.63,-18.14 -15.039,-17.516c-7.719,0.167 -14.465,4.466 -20.186,9.32c1.21,-7.834 6.382,-15.091 5.095,-23.198c-2.136,-3.31 -6.538,-3.62 -10.091,-3.586l0,0Zm-142.456,89.154c-3.376,6.902 -1.758,17.001 5.921,20.229c6.19,2.652 13.355,0.245 18.753,-3.064c4.757,4.102 12.26,2.701 16.628,-0.936c4.552,3.911 11.538,2.227 15.896,-0.936c3.981,3.282 10.358,2.783 13.936,-0.643c6.14,3.521 14.402,1.976 19.771,-2.12c5.919,4.271 14.222,2.682 20.139,-0.748c0.864,-0.512 1.588,-1.936 2.376,-0.529c4.581,3.616 11.778,2.515 15.599,-1.602c6.194,4.17 14.753,2.941 20.661,-1.151c7.378,4.452 18.461,2.639 23.354,-4.654c2.032,-3.195 2.266,-7.359 0.642,-10.752c-2.433,-18.04 -151.21,-33.715 -173.676,6.906l0,0Z" style="fill-rule:nonzero;"/><path id="path5328" d="M89.851,104.655c-3.234,-1.972 -5.501,-7.444 -7.738,-18.677c-1.068,-5.366 -2.296,-10.24 -2.729,-10.831c-1.301,-1.781 -6.99,-2.571 -23.398,-2.54c-5.2,0.009 -15.092,-0.788 -16.021,0.981c-1.574,2.996 -6.081,9.372 -8.262,13.451c-5.422,10.17 -7.21,12.673 -11.038,15.446c-5.086,3.684 -12.339,3.454 -15.442,-0.492c-1.329,-1.69 -1.345,-1.922 -0.27,-4.026c0.627,-1.229 2.953,-4.628 5.168,-7.553c2.215,-2.926 7.097,-9.363 10.85,-14.305c3.752,-4.942 7.365,-10.049 8.027,-11.348c0.663,-1.3 5.832,-8.541 11.486,-16.091c12.487,-16.675 19.915,-27.58 23.132,-33.962c2.771,-5.499 4.234,-7.026 8.022,-8.377c7.689,-2.742 12.977,0.796 12.987,8.688c0.009,5.166 1.825,18.803 3.906,29.293c2.611,13.166 3.239,14.965 5.691,16.318c1.399,0.773 163.351,2.536 165.162,2.532c32.623,-0.061 29.076,-2.008 22.92,8.269c-7.25,12.102 -18.497,7.496 -31.767,7.636c-20.119,-0.986 -115.656,-7.786 -153.141,-7.094c-2.901,2.066 -2.766,4.166 0.784,12.203c5.628,12.745 4.127,21.847 -3.602,21.839c-1.376,-0.002 -3.503,-0.614 -4.727,-1.36l0,0Zm-12.685,-43.421c0.249,-0.25 -0.4,-5.356 -1.441,-11.348c-1.93,-11.099 -4.095,-19.38 -5.254,-20.097c-1.007,-0.622 -21.587,27.45 -22.17,30.241c-0.143,0.683 1.095,1.072 4.412,1.385c5.867,0.553 23.855,0.42 24.453,-0.181l0,0Zm169.428,-56.709c-2.031,-0.168 -4.292,0.186 -6.091,1.311c-2.622,2.4 -3.621,6.481 -4.35,9.622c-0.389,1.699 -0.703,3.539 -1.099,5.085c-0.396,1.545 -0.935,2.769 -1.421,3.198c-0.243,0.215 -0.413,0.279 -0.725,0.249c-0.704,-0.256 -1.092,-0.563 -1.676,-0.828c-5.386,-1.924 -10.895,-0.775 -15.556,1.969c-4.661,2.743 -8.528,7.068 -10.818,11.674c-0.012,0.024 -0.023,0.049 -0.032,0.074c-2.117,5.53 -5.754,11.866 -11.359,13.629c-0.505,-2.537 0.157,-5.419 1.26,-8.481c1.207,-3.347 2.821,-6.824 3.448,-10.224c1.3,-2.004 1.698,-3.667 1.134,-5.013c-0.58,-1.38 -1.967,-2.092 -3.496,-2.558c-3.059,-0.933 -7.222,-1.041 -9.47,-1.783c-0.039,-0.013 -0.079,-0.023 -0.12,-0.03c-11.803,-2.059 -22.75,6.584 -26.954,17.002c-0.019,0.045 -0.033,0.091 -0.043,0.138c-1.343,6.244 -7.877,10.131 -13.943,11.496c-0.028,0.006 -0.056,0.014 -0.083,0.023c-3.334,1.118 -5.814,-0.064 -7.381,-2.255c-1.567,-2.191 -2.072,-5.45 -0.985,-8.314c0.028,-0.075 0.046,-0.154 0.052,-0.234c0.199,-2.546 2.112,-6.855 4.562,-9.474c1.225,-1.31 2.564,-2.183 3.771,-2.374c1.185,-0.187 2.316,0.167 3.556,1.613c0.143,0.254 0.236,0.863 0.187,1.652c-0.051,0.804 -0.202,1.746 -0.278,2.654c-0.076,0.907 -0.127,1.794 0.296,2.61c0.212,0.408 0.592,0.78 1.069,0.961c0.477,0.181 1.005,0.192 1.586,0.092l-0.32,-0.006c1.906,0.409 3.575,0.256 4.772,-0.701c1.16,-0.927 1.697,-2.481 1.754,-4.45c1.71,-3.136 1.583,-6.131 -0.037,-8.137c-1.634,-2.023 -4.577,-2.93 -7.994,-2.441c-6.014,-0.758 -11.517,1.46 -15.79,5.189c-4.285,3.739 -7.375,8.985 -8.679,14.408c-1.005,3.13 -0.919,6.736 0.347,9.778c1.271,3.052 3.817,5.547 7.554,6.129l0.005,0.001c7.62,1.149 15.99,0.062 22.192,-5.099c0.052,-0.043 0.098,-0.092 0.138,-0.146c0.874,-1.18 1.517,-1.576 1.748,-1.622c0.115,-0.023 0.15,-0.016 0.259,0.044c0.108,0.059 0.273,0.2 0.454,0.43c0.723,0.921 1.479,3.067 2.891,4.542c0.025,0.026 0.052,0.051 0.08,0.074c3.049,2.455 6.819,2.756 10.263,1.79c3.445,-0.967 6.628,-3.159 8.807,-5.808l-0.023,0.028c0.593,-0.66 1.184,-1.285 1.691,-1.75c0.208,-0.192 0.254,-0.192 0.427,-0.317c-0.05,0.424 -0.078,0.835 -0.377,1.804c-0.031,0.102 -0.043,0.208 -0.034,0.315c0.191,2.442 1.245,4.2 2.789,5.175c1.544,0.975 3.471,1.187 5.423,0.948c3.905,-0.477 8.04,-2.699 10.106,-5.488c0.007,-0.01 0.015,-0.02 0.022,-0.03c0.884,-1.31 1.543,-1.747 1.708,-1.784c0.083,-0.019 0.069,-0.022 0.162,0.036c0.093,0.058 0.256,0.216 0.434,0.47c0.712,1.015 1.442,3.329 3.092,4.722c0.011,0.009 0.022,0.017 0.032,0.025c3.071,2.351 6.805,2.607 10.213,1.629c3.409,-0.979 6.55,-3.155 8.718,-5.782l-0.023,0.027c0.593,-0.66 1.185,-1.285 1.691,-1.75c0.209,-0.193 0.256,-0.192 0.428,-0.317c-0.049,0.424 -0.078,0.835 -0.376,1.804c-0.032,0.101 -0.043,0.207 -0.035,0.312c0.185,2.431 1.23,4.186 2.764,5.164c1.535,0.977 3.453,1.198 5.398,0.969c3.889,-0.457 8.014,-2.65 10.082,-5.425c0.008,-0.012 0.017,-0.024 0.025,-0.037c0.546,-0.819 1.011,-1.355 1.362,-1.652c0.351,-0.297 0.547,-0.339 0.645,-0.339c0.098,0 0.208,0.033 0.418,0.223c0.21,0.19 0.47,0.525 0.744,0.945c0.548,0.842 1.155,2.006 1.978,3.051c0.819,1.041 1.914,2 3.415,2.25c6.306,1.71 13.537,1.388 19.51,-1.638c0.038,-0.019 0.074,-0.04 0.108,-0.064c2.334,-1.655 5.398,-3.453 7.959,-5.676c2.561,-2.223 4.674,-4.943 4.847,-8.411c0.029,-0.579 -0.522,-1.015 -1.079,-0.853c-2.785,0.807 -5.026,3.086 -7.351,5.216c-2.324,2.131 -4.697,4.12 -7.45,4.692c-0.074,0.015 -0.145,0.04 -0.212,0.074c-2.551,1.302 -5.761,1.129 -8.081,-0.16c-2.157,-1.199 -3.478,-3.252 -3.101,-6.1c6.567,-0.331 14.065,-0.65 19.215,-5.863c2.882,-2.782 3.485,-7.107 2.267,-10.608c-1.205,-3.466 -5.334,-5.747 -8.847,-5.725c-5.939,0.037 -11.417,2.061 -15.594,5.877c-4.138,3.781 -7.082,8.976 -8.33,14.36c-0.979,1.495 -3.286,4.611 -5.489,6.522c-1.115,0.967 -2.214,1.57 -2.867,1.623c-0.326,0.026 -0.525,-0.029 -0.752,-0.217c-0.194,-0.161 -0.41,-0.558 -0.604,-1.068c4.226,-14.266 9.085,-28.361 13.425,-42.64c0.112,-0.367 -0.038,-0.763 -0.364,-0.964c-0.982,-0.607 -2.238,-0.949 -3.592,-1.062l-0.002,0Zm-122.381,17.454c-3.092,0.006 -5.894,1.722 -8.236,3.448c-0.956,0.703 -1.774,1.369 -2.557,1.987c0.147,-0.484 0.241,-0.951 0.223,-1.393c-0.052,-1.288 -0.979,-2.248 -2.089,-2.668c-2.22,-0.84 -5.384,-0.361 -8.046,0.581c-0.228,0.081 -0.41,0.255 -0.501,0.479c-3.802,9.396 -10.35,18.397 -9.986,28.437c0.623,6.697 1.936,5.929 8.967,5.817c0.389,-0.103 1.379,-1.511 1.516,-1.89c1.257,-3.485 3.401,-9.963 5.825,-14.556c0.017,-0.03 0.031,-0.062 0.043,-0.094c0.547,-1.44 3.148,-5.461 5.488,-7.846c1.171,-1.192 2.366,-1.923 2.78,-1.959c0.207,-0.017 0.185,-0.044 0.32,0.165c0.13,0.2 0.289,0.755 0.328,1.608c-0.394,1.069 -0.5,2.002 -0.102,2.751c0.436,0.819 1.307,1.155 2.13,1.259c1.645,0.208 3.591,-0.286 4.913,-0.582c0.345,-0.077 0.605,-0.36 0.653,-0.709c0.105,-0.762 0.569,-1.997 1.147,-3.346c0.579,-1.349 1.26,-2.834 1.772,-4.269c0.511,-1.436 0.883,-2.815 0.703,-4.094c-0.09,-0.639 -0.346,-1.268 -0.821,-1.753c-0.472,-0.481 -1.128,-0.792 -1.907,-0.939c-0.857,-0.296 -1.719,-0.436 -2.563,-0.434l0,0Zm58.208,5.761c1.98,0.154 3.612,1.12 4.547,3.417c-2.547,6.781 -6.194,13.512 -11.916,17.895l-1.04,0.496l-1.035,0.276c-1.775,-0.206 -2.671,-0.91 -3.204,-1.988c-0.547,-1.106 -0.649,-2.711 -0.39,-4.494c0.518,-3.565 2.436,-7.759 3.8,-9.918c0.025,-0.039 0.047,-0.08 0.065,-0.123c1.377,-3.258 5.734,-5.828 9.173,-5.561l0,0Zm44.008,0.002c2.114,0.02 3.871,0.959 4.92,3.538c-2.629,6.711 -6.197,13.411 -11.891,17.754c-1.219,0.567 -2.199,0.817 -2.926,0.836c-0.744,0.019 -1.221,-0.162 -1.604,-0.478c-0.767,-0.633 -1.207,-2.083 -1.205,-3.965c0.005,-3.764 1.765,-8.954 3.063,-10.751c0.046,-0.064 0.083,-0.134 0.11,-0.208c0.636,-1.767 2.077,-3.489 3.847,-4.736c1.77,-1.247 3.856,-2.007 5.686,-1.99Zm41.568,0.348c0.966,-0.012 1.291,0.316 1.542,1.046c0.252,0.729 0.219,1.916 -0.145,3.15c-0.73,2.467 -2.654,4.548 -4.698,5.286c-2.512,0.907 -4.881,1.148 -4.996,0.997c-0.129,-0.1 -0.259,-0.192 -0.31,-0.336c-0.072,-0.2 -0.093,-0.507 -0.018,-0.913c0.151,-0.813 0.697,-1.955 1.451,-3.107c1.49,-2.278 3.789,-4.649 4.941,-5.505c0.944,-0.431 1.699,-0.612 2.233,-0.618l0,0Z" style="fill:#f4c401;fill-rule:nonzero;"/><path id="circle5423" d="M235.56,63.429c0,5.311 -4.37,9.681 -9.681,9.681c-5.311,0 -9.681,-4.37 -9.681,-9.681c0,-5.311 4.37,-9.681 9.681,-9.681c5.311,0 9.681,4.37 9.681,9.681l0,0Z" style="fill:#fff;"/><g id="g5416"><path id="path5376" d="M221.178,71.439c-1.617,0.584 -2.634,2.58 -3.634,3.392c-2.896,-4.939 -9.817,-4.666 -14.608,-3.19c-2.5,0.931 -4.658,2.838 -6.19,4.881c-2.243,-4.454 -7.999,-4.242 -12.229,-3.912c-4.797,0.439 -10.069,4.404 -9.633,9.586c0.312,1.242 1.368,3.139 -0.579,3.504c-1.788,1.104 -2.897,2.953 -3.991,4.686c0.685,-4.204 3.748,-8.776 1.878,-12.966c-2.923,-3.297 -7.765,-2.006 -11.592,-2.889c-9.341,-0.067 -17.332,7.502 -19.599,16.27c-0.44,1.222 -3.034,5.467 -2.955,3.455c0.615,-7.399 6.984,-11.928 10.249,-18.054c2.496,-3.968 3.245,-10.747 -1.728,-13.138c-5.388,-2.92 -12.92,0.406 -14.213,6.463c-1.503,3.64 -2.113,8.46 -3.221,11.621c-1.604,-4.162 -6.999,-4.065 -10.701,-3.722c-10.767,1.563 -19.518,14.132 -14.781,24.534c2.871,5.499 10.076,6.485 15.427,4.429c2.767,-0.622 5.441,-2.579 7.617,-3.772c4.235,5.103 12.707,3.227 16.299,-1.422c3.145,4.546 9.929,4.21 13.808,0.839c1.173,-1.105 2.763,-2.047 3.763,-0.18c3.352,3.19 9.585,1.807 11.779,-2.157c5.168,4.617 13.635,3.385 18.766,-0.675c0.92,-0.995 1.66,-1.702 2.509,-0.313c5.309,4.148 12.992,2.339 18.368,-0.677c0.974,-0.804 1.65,-2.14 2.389,-2.96c3.006,6.273 12.721,5.316 15.991,-0.178c3.582,3.25 8.89,4.044 13.515,2.817c2.855,-0.545 5.404,-2.342 7.808,-3.594c2.066,1.456 4.241,2.916 6.922,2.693c6.381,0.638 14.247,-2.407 15.545,-9.363c0.84,-2.497 -1.234,-4.96 -1.493,-7.029c4.041,-1.768 4.841,-7.484 2.657,-10.957c-2.723,-3.51 -7.899,-2.665 -11.804,-2.383c-3.123,0.346 -6.108,2.243 -8.047,4.386c-1.562,-0.309 -2.374,-2.466 -4.327,-2.508c-9.84,-2.971 -20.629,4.713 -22.429,14.529c-0.455,0.79 -0.978,3.153 -1.638,3.031c0.463,-4.941 4.163,-9.841 2.358,-14.888c-1.132,-1.879 -5.904,-1.959 -8.256,-0.189l0,0Zm22.694,5.898c-0.924,3.652 2.72,7.785 6.417,6.204c-0.971,3.536 -6.153,6.914 -9.499,4.266c-0.935,-3.662 0,-8.148 3.082,-10.47Zm11.263,1.032c1.065,1.156 -1.983,1.863 -0.375,0.102c0.122,0.057 0.297,-0.151 0.375,-0.102Zm-47.266,1.075c0.435,0.244 0.155,0.21 0,0Zm-11.47,3.108c0.626,0.868 -1.201,1.63 -0.368,0.399c0.088,-0.03 0.277,-0.54 0.368,-0.399Zm-37.739,0.274c2.311,1.473 0.266,4.782 -1.149,6.28c-1.208,1.524 -2.55,4.697 -4.358,4.569c-0.324,-4.019 1.293,-9.541 5.507,-10.849Zm57.222,0.853c0.654,2.384 -2.17,3.869 -1.709,1.041c0.293,-0.71 1.646,-0.561 1.709,-1.041Zm44.165,1.838c1.686,0.342 2.074,3.438 -0.186,2.742c-1.766,-0.447 -1.041,-2.397 0.186,-2.742Zm-67.132,0.601c-0.414,0.674 0.086,-0.272 0,0Zm-74.891,0.191c-0.785,3.39 2.338,7.686 6.031,6.207c1.573,-0.614 2.69,-0.989 0.823,0.73c-2.346,2.611 -5.832,5.356 -9.523,4.083c-1.724,-3.686 -0.568,-8.67 2.669,-11.02Zm83.619,2.647c1.895,0.791 1.171,5.176 -0.936,3.344c-0.184,-1.085 0.644,-2.76 0.936,-3.344Zm-21.474,1.527c1.711,0.421 2.352,4.629 -0.088,3.489c-0.621,-1.016 -0.132,-2.464 0.088,-3.489Z" style="fill:#fff;fill-rule:nonzero;"/><path id="path5361" d="M142.245,64.296c-2.383,-0.028 -4.936,0.974 -6.428,3.208c-0.009,0.014 -0.018,0.028 -0.026,0.043c-2.801,5.389 -3.472,11.562 -5.093,17.233l0.011,-0.033c-0.561,1.505 -0.748,3.142 -1.076,4.652c-0.328,1.51 -0.785,2.871 -1.807,3.902c-0.011,0.011 -0.022,0.023 -0.032,0.035c-1.647,2.05 -3.922,4.274 -6.404,5.574c-2.451,1.283 -5.045,1.668 -7.598,0.231c-1.557,-2.327 -1.881,-5.611 -1.095,-8.603c0.794,-3.018 2.688,-5.687 5.403,-6.803c0.607,-0.152 1.042,-0.153 1.324,-0.071c0.288,0.084 0.453,0.229 0.596,0.473c0.286,0.486 0.36,1.41 0.365,2.38c0.006,0.97 -0.055,1.966 0.227,2.766c0.141,0.401 0.408,0.779 0.833,0.958c0.409,0.172 0.895,0.141 1.455,-0.031c1.135,0.176 2.056,-0.086 2.645,-0.705c0.621,-0.653 0.902,-1.572 1.061,-2.556c0.317,-1.968 0.147,-4.324 0.402,-5.476c0.045,-0.205 -0.055,-0.414 -0.243,-0.508c-7.767,-3.848 -17.689,0.847 -20.581,8.824c0,0.003 -0.005,0.007 -0.005,0.011c-2.031,3.264 -2.152,7.526 -0.632,10.736c1.515,3.199 4.789,5.325 9.25,4.163c5.094,0.216 9.752,-3.231 12.867,-6.359c0.037,1.449 0.507,2.613 1.309,3.433c1.008,1.032 2.456,1.528 3.993,1.612c3.074,0.168 6.603,-1.259 8.206,-3.869l0,-0.003c0.667,-1.1 1.197,-1.697 1.538,-1.907c0.171,-0.105 0.275,-0.122 0.371,-0.113c0.095,0.01 0.209,0.056 0.359,0.174c0.598,0.474 1.432,2.074 2.761,3.684c0.044,0.053 0.099,0.096 0.162,0.125c3.155,1.44 6.292,0.688 8.894,-1.034c1.741,-1.152 3.241,-2.742 4.463,-4.421c0.016,0.257 -0.044,0.519 0.014,0.769c0.289,1.257 1.059,2.412 2.113,3.247c1.053,0.834 2.401,1.35 3.846,1.284c1.444,-0.066 2.968,-0.723 4.335,-2.155c0.029,-0.03 0.053,-0.065 0.073,-0.102c0.778,-1.467 1.406,-1.954 1.875,-2.033c0.47,-0.079 1.023,0.216 1.717,0.755c0.694,0.539 1.479,1.272 2.437,1.811c0.958,0.538 2.119,0.871 3.46,0.563l-0.107,0.012l0.758,0.006c0.005,0.001 0.011,0.001 0.017,0l0.752,-0.02l-0.038,-0.001c2.879,0.16 6.108,-0.791 8.421,-2.636c2.313,-1.845 3.687,-4.675 2.655,-8.023c-0.329,-1.118 -1.31,-2.169 -2.441,-3.257c-1.132,-1.088 -2.435,-2.192 -3.443,-3.232c-1.008,-1.041 -1.668,-2.028 -1.683,-2.701c-0.008,-0.337 0.096,-0.619 0.437,-0.943c0.331,-0.315 0.917,-0.642 1.789,-0.936c1.024,-0.045 1.474,0.265 1.8,0.788c0.333,0.533 0.483,1.349 0.614,2.166c0.131,0.818 0.217,1.642 0.717,2.246c0.249,0.302 0.636,0.517 1.082,0.55c0.434,0.031 0.92,-0.091 1.494,-0.334c0.667,-0.193 1.128,-0.775 1.477,-1.476c0.354,-0.709 0.595,-1.575 0.707,-2.454c0.112,-0.88 0.098,-1.771 -0.102,-2.538c-0.2,-0.767 -0.611,-1.455 -1.33,-1.73c-0.015,-0.006 -0.03,-0.01 -0.046,-0.015c-2.557,-0.679 -5.827,-1.121 -8.805,-0.644c-2.978,0.478 -5.708,1.929 -6.92,4.998c0,0.006 -0.005,0.012 -0.007,0.018c-0.624,1.794 -0.013,3.5 1.011,5.019c1.024,1.518 2.469,2.919 3.671,4.255c1.202,1.335 2.126,2.604 2.237,3.701c0.055,0.549 -0.061,1.066 -0.459,1.635c-0.389,0.554 -1.076,1.15 -2.128,1.763c-1.568,0.327 -2.53,0.093 -3.133,-0.415c-0.613,-0.516 -0.93,-1.383 -1.014,-2.437c-0.167,-2.11 0.654,-4.857 1.249,-6.04c0.145,-0.288 -0.046,-0.633 -0.368,-0.661c-1.572,-0.139 -2.813,0.482 -3.777,1.42c-0.964,0.938 -1.698,2.179 -2.422,3.385c-0.723,1.206 -1.437,2.377 -2.278,3.179c-0.733,0.699 -1.574,1.053 -2.637,1.061c0.011,-4.521 1.738,-8.976 2.712,-13.558l-0.036,0.102c0.438,-0.91 0.692,-1.67 0.746,-2.335c0.054,-0.665 -0.121,-1.264 -0.532,-1.679c-0.808,-0.816 -2.221,-0.902 -4.137,-0.758c-7.402,-2.295 -15.867,0.568 -19.89,7.328l0,0.004c-1.364,2.334 -2.558,5.985 -4.222,8.816c-0.832,1.416 -1.776,2.613 -2.862,3.34c-1.003,0.67 -2.125,0.94 -3.502,0.672c-0.347,-3.414 1.103,-6.857 1.807,-10.419c3.357,-4.754 7.973,-9.098 9.924,-15.013l-0.029,0.067c1.265,-2.448 1.044,-4.546 -0.07,-5.966c-1.113,-1.42 -3.019,-2.15 -5.005,-2.174l0.001,0Zm0.308,4.326c0.448,0.273 0.71,0.637 0.776,1.219c0.083,0.744 -0.122,1.764 -0.501,2.845c-0.754,2.15 -2.137,4.523 -2.848,5.934l-0.413,0.666c0.008,-0.123 -0.006,-0.185 0.012,-0.327c0.102,-0.911 0.353,-2.17 0.687,-3.519c0.621,-2.502 1.531,-5.229 2.287,-6.818l0,0Zm126.872,0.543c-1.042,-0.081 -2.14,-0.047 -3.188,0.032c-1.397,0.104 -2.703,0.3 -3.637,0.452l-0.01,0.002c-2.341,0.44 -3.905,1.431 -4.772,2.758c-0.867,1.327 -1.016,2.944 -0.688,4.556c0.644,3.174 3.082,6.413 5.94,8.111c1.155,1.859 1.066,3.121 0.47,3.981c-0.602,0.87 -1.843,1.386 -3.14,1.417c-1.298,0.031 -2.597,-0.424 -3.3,-1.292c-0.7,-0.864 -0.922,-2.168 0.053,-4.163c1.04,-1.078 1.537,-1.885 1.479,-2.633c-0.031,-0.385 -0.271,-0.73 -0.581,-0.904c-0.31,-0.174 -0.666,-0.223 -1.044,-0.208c-0.756,0.03 -1.63,0.327 -2.435,0.845c-0.805,0.519 -1.54,1.268 -1.917,2.241l0,0.007c-0.904,2.458 -3.416,4.886 -6.184,6.043c-2.743,1.146 -5.625,1.077 -7.626,-1.185c-0.836,-2.504 -0.89,-5.597 -0.063,-8.312c0.835,-2.739 2.536,-5.066 5.164,-6.128c0.609,-0.153 1.045,-0.153 1.328,-0.07c0.288,0.084 0.453,0.229 0.596,0.472c0.286,0.487 0.361,1.411 0.366,2.381c0.005,0.97 -0.055,1.965 0.227,2.766c0.141,0.4 0.408,0.779 0.833,0.957c0.408,0.172 0.895,0.141 1.455,-0.03c1.135,0.175 2.055,-0.087 2.644,-0.706c0.621,-0.652 0.902,-1.571 1.061,-2.555c0.317,-1.968 0.147,-4.323 0.402,-5.475c0.045,-0.205 -0.055,-0.415 -0.243,-0.508c-7.295,-3.618 -16.642,0.325 -20.004,7.553c-0.006,0.013 -0.01,0.025 -0.014,0.038c-0.814,2.251 -1.813,5.431 -3.271,7.954c-0.728,1.262 -1.57,2.355 -2.531,3.088c-0.832,0.634 -1.769,0.939 -2.825,0.958c0.28,-5.131 2.235,-10.218 3.328,-15.427l-0.036,0.105c0.359,-0.742 0.57,-1.355 0.625,-1.891c0.054,-0.535 -0.074,-1.041 -0.432,-1.361c-0.358,-0.321 -0.846,-0.412 -1.39,-0.393c-0.526,0.018 -1.141,0.153 -1.839,0.363c-1.743,0.064 -3.002,0.816 -3.824,1.951c-0.831,1.149 -1.258,2.646 -1.559,4.25c-0.601,3.207 -0.72,6.896 -1.905,9.044l-0.006,0.005c-1.764,3.31 -0.806,6.379 1.332,7.926c2.138,1.547 5.412,1.59 8.08,-0.772l-0.206,0.104c0.784,-0.167 1.383,-0.817 1.984,-1.541c0.6,-0.724 1.176,-1.562 1.691,-2.193c0.258,-0.316 0.502,-0.579 0.702,-0.742c0.2,-0.164 0.34,-0.201 0.368,-0.2c0.029,0.001 0.068,-0.011 0.191,0.207c0.123,0.218 0.263,0.638 0.375,1.271c0.012,0.07 0.041,0.136 0.083,0.193c1.999,2.694 5.122,3.573 8.284,3.442c3.161,-0.132 6.406,-1.244 8.87,-2.579c0.059,-0.032 0.11,-0.077 0.15,-0.132c0.921,-1.252 1.645,-1.683 2.251,-1.755c0.606,-0.071 1.224,0.215 1.95,0.699c1.451,0.968 3.223,2.685 5.826,2.324l-0.064,0.005c2.065,0.006 4.485,-0.148 6.7,-0.822c2.212,-0.673 4.24,-1.884 5.404,-3.992c0.979,-1.642 1.224,-3.176 0.95,-4.568c-0.275,-1.393 -1.046,-2.625 -2.004,-3.758c-1.877,-2.221 -4.487,-4.134 -5.921,-6.068c0,-1.301 0.366,-1.96 0.838,-2.232c0.493,-0.283 1.227,-0.232 1.99,0.149c0.763,0.381 1.513,1.077 1.965,1.91c0.452,0.834 0.616,1.782 0.278,2.756c-0.099,0.286 0.103,0.588 0.406,0.605c1.296,0.076 2.442,-0.053 3.281,-0.664c0.806,-0.587 1.182,-1.637 1.082,-3.031c0.49,-1.244 0.582,-2.286 0.294,-3.13c-0.294,-0.86 -0.967,-1.462 -1.789,-1.844c-0.822,-0.381 -1.806,-0.576 -2.848,-0.657l0,0Zm-58.677,3.981c-0.59,-0.009 -1.228,0.052 -1.904,0.175c-3.031,-0.595 -6.532,0.606 -8.698,2.728c-1.098,1.075 -1.856,2.404 -1.965,3.87c-0.109,1.467 0.452,3.036 1.853,4.518c0.04,0.041 0.086,0.075 0.138,0.099c2.189,1.033 4.328,3.956 4.823,6.403c0.247,1.224 0.099,2.279 -0.514,2.984c-0.607,0.7 -1.746,1.147 -3.726,0.99c-1.408,-0.332 -1.987,-0.893 -2.237,-1.594c-0.252,-0.706 -0.142,-1.65 0.123,-2.653c0.264,-1.004 0.669,-2.045 0.895,-2.985c0.113,-0.471 0.184,-0.918 0.151,-1.346c-0.033,-0.429 -0.194,-0.859 -0.537,-1.16c-0.109,-0.096 -0.257,-0.134 -0.398,-0.104c-3.959,0.858 -5.782,4.516 -5.485,7.802c0.148,1.642 0.817,3.217 2.023,4.325c1.206,1.108 2.949,1.72 5.115,1.465l-0.064,0.004c3.282,0.069 6.756,-0.414 9.666,-2.183l0.006,-0.004c2.982,-1.87 3.77,-4.921 3.092,-7.732c-0.678,-2.808 -2.744,-5.432 -5.449,-6.748l-0.007,-0.004c-1.718,-0.878 -2.264,-1.806 -2.291,-2.558c-0.027,-0.754 0.485,-1.477 1.241,-1.917c0.755,-0.439 1.698,-0.554 2.42,-0.186c0.722,0.368 1.334,1.224 1.377,3.034l0.033,-0.182c-0.304,0.75 -0.209,1.456 0.203,1.888c0.412,0.432 1.009,0.574 1.602,0.58c0.592,0.007 1.203,-0.129 1.716,-0.396c0.513,-0.267 0.971,-0.699 1.031,-1.31l-0.036,0.139c0.92,-2.105 1.012,-4.059 0.266,-5.533c-0.746,-1.473 -2.333,-2.377 -4.463,-2.409l0,0Zm-50.968,7.362c1.508,0.803 2.14,1.853 2.266,3.123c0.13,1.297 -0.314,2.848 -1.105,4.427c-1.576,3.147 -4.488,6.371 -6.373,8.097c-0.625,0.457 -1.16,0.577 -1.63,0.513c-0.474,-0.066 -0.911,-0.33 -1.284,-0.747c-0.745,-0.833 -1.154,-2.269 -0.932,-3.397c0.005,-0.017 0.005,-0.034 0.007,-0.051c0.216,-2.61 0.989,-5.777 2.471,-8.177c1.466,-2.376 3.555,-3.979 6.581,-3.788l-0.001,0Z" style="fill:#98a6af;fill-rule:nonzero;"/></g><path id="path5396" d="M234.095,63.398c0,0 0,0 0,0c0,4.587 -3.774,8.361 -8.361,8.361c0,0 0,0 0,0c-4.586,0 -8.36,-3.774 -8.36,-8.361c0,-4.586 3.774,-8.36 8.36,-8.36c0,0 0,0 0,0c4.587,0 8.361,3.774 8.361,8.36l0,0Z" style="fill:#db0123;"/><path id="circle5398" d="M224.796,59.584c0,1.068 -0.879,1.947 -1.947,1.947c-1.068,0 -1.948,-0.879 -1.948,-1.947c0,-1.069 0.88,-1.948 1.948,-1.948c1.068,0 1.947,0.879 1.947,1.948Z" style="fill:#fff;"/></g></svg>