<?xml version="1.0" encoding="UTF-8" standalone="no"?><!DOCTYPE svg PUBLIC "-//W3C//DTD SVG 1.1//EN" "http://www.w3.org/Graphics/SVG/1.1/DTD/svg11.dtd"><svg width="100%" height="100%" viewBox="0 0 339 73" version="1.1" xmlns="http://www.w3.org/2000/svg" xmlns:xlink="http://www.w3.org/1999/xlink" xml:space="preserve" style="fill-rule:evenodd;clip-rule:evenodd;stroke-linejoin:round;stroke-miterlimit:1.41421;"><g id="text5231"><path id="path5963" d="M26.185,63.91l30.698,0l-18.788,-52.149c-0.148,-0.493 -0.592,-0.937 -1.332,-1.331c-0.74,-0.395 -1.455,-0.592 -2.145,-0.592c-0.789,0 -1.529,0.197 -2.219,0.592c-0.641,0.394 -1.036,0.838 -1.184,1.331l-21.377,60.804l-9.838,0l22.857,-64.502c0.345,-1.036 0.838,-2.022 1.479,-2.959c0.641,-0.986 1.43,-1.849 2.367,-2.589c0.986,-0.789 2.121,-1.405 3.403,-1.849c1.331,-0.444 2.835,-0.666 4.512,-0.666c1.677,0 3.156,0.222 4.438,0.666c1.282,0.444 2.392,1.06 3.329,1.849c0.986,0.74 1.8,1.603 2.441,2.589c0.641,0.937 1.159,1.923 1.553,2.959l22.857,64.502l-43.051,0l0,-8.655l0,0Zm0,-2.663l0,-2.811l-4.734,14.129l-8.95,0l20.342,-58.955c0.098,-0.295 0.32,-0.542 0.665,-0.739c0.395,-0.247 0.765,-0.37 1.11,-0.37c0.345,0 0.715,0.123 1.109,0.37c0.395,0.197 0.642,0.444 0.74,0.739l16.865,47.637l-27.147,0Zm8.433,-27.443l-5.918,18.641l12.057,0l-6.139,-18.641Z" style="fill:#134e9c;fill-rule:nonzero;"/><path id="path5965" d="M66.689,72.565l9.838,0l0,-50.004l18.714,0c0.394,0 0.69,0.148 0.888,0.444c0.246,0.246 0.369,0.542 0.369,0.887c0,0.345 -0.123,0.666 -0.369,0.962c-0.198,0.296 -0.494,0.444 -0.888,0.444l-16.052,0l0,47.267l9.838,0l0,-25.372l14.647,25.372l10.577,0l-21.081,-37.059l2.441,0c1.529,0 2.959,-0.296 4.29,-0.888c1.332,-0.592 2.466,-1.405 3.403,-2.441c0.986,-1.036 1.75,-2.244 2.293,-3.625c0.542,-1.43 0.813,-2.958 0.813,-4.586c0,-3.797 -1.035,-6.632 -3.106,-8.506c-2.022,-1.874 -4.586,-2.811 -7.693,-2.811l-28.922,0l0,59.916Zm51.187,0l10.06,0l-16.865,-30.18c2.465,-1.874 4.413,-4.34 5.843,-7.397c1.43,-3.107 2.145,-6.781 2.145,-11.022c0,-3.353 -0.616,-6.484 -1.849,-9.394c-1.183,-2.909 -2.835,-5.449 -4.956,-7.619c-2.12,-2.17 -4.611,-3.871 -7.471,-5.104c-2.86,-1.233 -5.918,-1.849 -9.172,-1.849l-28.922,0l0,9.986l28.922,0c2.071,0 3.92,0.345 5.548,1.036c1.676,0.69 3.106,1.652 4.29,2.884c1.183,1.233 2.096,2.713 2.737,4.439c0.641,1.726 0.961,3.599 0.961,5.621c0,1.973 -0.32,3.797 -0.961,5.474c-0.641,1.627 -1.48,3.057 -2.515,4.29c-1.036,1.233 -2.244,2.219 -3.625,2.959c-1.331,0.74 -2.712,1.159 -4.142,1.258l19.972,34.618Z" style="fill:#134e9c;fill-rule:nonzero;"/><path id="path5967" d="M172.354,72.565l-28.035,0c-2.663,0 -5.252,-0.568 -7.767,-1.702c-2.466,-1.183 -4.66,-2.761 -6.583,-4.734c-1.874,-2.022 -3.378,-4.389 -4.512,-7.101c-1.135,-2.762 -1.702,-5.696 -1.702,-8.802l0,-27.887c0,-3.107 0.567,-6.016 1.702,-8.729c1.134,-2.761 2.638,-5.128 4.512,-7.101c1.923,-2.021 4.117,-3.6 6.583,-4.734c2.515,-1.183 5.104,-1.775 7.767,-1.775l28.034,0l0,9.838l-26.851,0c-1.874,0 -3.55,0.37 -5.03,1.11c-1.479,0.739 -2.736,1.701 -3.772,2.884c-0.986,1.184 -1.751,2.54 -2.293,4.069c-0.543,1.479 -0.814,2.959 -0.814,4.438l0,27.887c0,1.479 0.271,2.983 0.814,4.512c0.542,1.479 1.307,2.811 2.293,3.994c1.036,1.184 2.293,2.145 3.772,2.885c1.48,0.74 3.156,1.11 5.03,1.11l26.851,0l0,9.838Zm-24.558,-22.339l24.558,0l0,9.838l-25.889,0c-1.726,0 -3.23,-0.346 -4.512,-1.036c-1.282,-0.69 -2.343,-1.578 -3.181,-2.663c-0.838,-1.085 -1.479,-2.293 -1.923,-3.624c-0.395,-1.381 -0.592,-2.713 -0.592,-3.995l0,-24.928c0,-1.282 0.197,-2.589 0.592,-3.92c0.444,-1.381 1.085,-2.614 1.923,-3.699c0.838,-1.084 1.899,-1.972 3.181,-2.662c1.282,-0.691 2.786,-1.036 4.512,-1.036l25.889,0l0,9.838l-24.558,0c-0.295,0 -0.616,0.173 -0.961,0.518c-0.296,0.345 -0.444,0.813 -0.444,1.405l0,24.04c0,1.283 0.321,1.924 0.962,1.924l0.443,0Z" style="fill:#134e9c;fill-rule:nonzero;"/><path id="path5969" d="M197.674,63.91l30.698,0l-18.789,-52.149c-0.147,-0.493 -0.591,-0.937 -1.331,-1.331c-0.74,-0.395 -1.455,-0.592 -2.145,-0.592c-0.789,0 -1.529,0.197 -2.219,0.592c-0.641,0.394 -1.036,0.838 -1.184,1.331l-21.377,60.804l-9.838,0l22.857,-64.502c0.345,-1.036 0.838,-2.022 1.479,-2.959c0.641,-0.986 1.43,-1.849 2.367,-2.589c0.986,-0.789 2.121,-1.405 3.403,-1.849c1.331,-0.444 2.835,-0.666 4.512,-0.666c1.677,0 3.156,0.222 4.438,0.666c1.282,0.444 2.392,1.06 3.329,1.849c0.986,0.74 1.8,1.603 2.441,2.589c0.641,0.937 1.159,1.923 1.553,2.959l22.857,64.502l-43.051,0l0,-8.655l0,0Zm0,-2.663l0,-2.811l-4.734,14.129l-8.95,0l20.342,-58.955c0.098,-0.295 0.32,-0.542 0.665,-0.739c0.395,-0.247 0.765,-0.37 1.11,-0.37c0.345,0 0.715,0.123 1.109,0.37c0.395,0.197 0.642,0.444 0.74,0.739l16.865,47.637l-27.147,0l0,0Zm8.433,-27.443l-5.918,18.641l12.057,0l-6.139,-18.641Z" style="fill:#134e9c;fill-rule:nonzero;"/><path id="path5971" d="M267.692,62.727l-20.194,0l0,-38.021l-9.32,0l0,47.859l28.478,0c3.6,0 6.682,-0.42 9.246,-1.258c2.614,-0.838 4.759,-2.145 6.436,-3.92c1.676,-1.825 2.909,-4.143 3.698,-6.954c0.789,-2.86 1.184,-6.262 1.184,-10.207l0,-27.887c0,-4.093 -0.395,-7.545 -1.184,-10.356c-0.789,-2.86 -2.022,-5.178 -3.698,-6.953c-1.677,-1.775 -3.822,-3.057 -6.436,-3.846c-2.564,-0.789 -5.646,-1.184 -9.246,-1.184l-28.478,0l0,9.838l29.44,0c1.873,0 3.451,0.271 4.734,0.814c1.331,0.493 2.391,1.208 3.18,2.145c0.839,0.937 1.43,2.046 1.776,3.328c0.394,1.283 0.591,2.663 0.591,4.143l0,32.029c0,1.479 -0.197,2.86 -0.591,4.142c-0.346,1.282 -0.937,2.392 -1.776,3.329c-0.789,0.937 -1.824,1.676 -3.106,2.219c-1.283,0.493 -2.861,0.74 -4.734,0.74l0,0Zm-3.699,-40.388c0.592,0 1.06,0.173 1.405,0.518c0.395,0.345 0.592,0.813 0.592,1.405l0,24.04c0,0.592 -0.197,1.061 -0.592,1.406c-0.345,0.345 -0.813,0.518 -1.405,0.518l-1.627,0c-1.233,0 -1.85,-0.641 -1.85,-1.924l0,-23.596l-10.355,0l0,35.358l16.569,0c1.726,0 3.131,-0.148 4.216,-0.444c1.134,-0.345 1.997,-0.888 2.589,-1.628c0.641,-0.739 1.085,-1.676 1.332,-2.81c0.246,-1.184 0.369,-2.639 0.369,-4.365l0,-29.07c0,-1.282 -0.123,-2.49 -0.369,-3.624c-0.247,-1.135 -0.691,-2.121 -1.332,-2.959c-0.641,-0.838 -1.529,-1.48 -2.663,-1.923c-1.085,-0.494 -2.49,-0.74 -4.216,-0.74l-28.478,0l0,9.838l25.815,0Z" style="fill:#134e9c;fill-rule:nonzero;"/><path id="path5973" d="M290.043,22.339c0,-3.107 0.567,-6.016 1.701,-8.729c1.135,-2.761 2.639,-5.128 4.513,-7.101c1.923,-2.021 4.117,-3.6 6.583,-4.734c2.515,-1.183 5.104,-1.775 7.767,-1.775l28.034,0l0,9.838l-26.851,0c-1.874,0 -3.55,0.37 -5.03,1.11c-1.479,0.739 -2.736,1.701 -3.772,2.884c-0.986,1.184 -1.751,2.54 -2.293,4.069c-0.543,1.479 -0.814,2.959 -0.814,4.438l0,27.887c0,1.479 0.271,2.983 0.814,4.512c0.542,1.479 1.307,2.811 2.293,3.994c1.036,1.184 2.293,2.145 3.772,2.885c1.48,0.74 3.156,1.11 5.03,1.11l26.851,0l0,9.838l-28.034,0c-2.663,0 -5.252,-0.568 -7.767,-1.702c-2.466,-1.183 -4.66,-2.761 -6.583,-4.734c-1.874,-2.022 -3.378,-4.389 -4.512,-7.101c-1.135,-2.762 -1.702,-5.696 -1.702,-8.802l0,-27.887l0,0Zm12.501,12.723l0,-11.244c0,-1.282 0.197,-2.589 0.592,-3.92c0.444,-1.381 1.085,-2.614 1.923,-3.699c0.838,-1.084 1.899,-1.972 3.181,-2.663c1.282,-0.69 2.786,-1.035 4.512,-1.035l25.889,0l0,9.838l-25.667,0c-0.296,0 -0.617,0.173 -0.962,0.518c-0.296,0.345 -0.444,0.813 -0.444,1.405l0,1.036l21.452,0l0,9.764l-30.476,0l0,0Zm0,2.441l30.476,0l0,9.838l-21.452,0l0,0.961c0,0.592 0.148,1.061 0.444,1.406c0.345,0.345 0.666,0.518 0.962,0.518l25.667,0l0,9.838l-25.889,0c-1.726,0 -3.23,-0.346 -4.512,-1.036c-1.282,-0.69 -2.343,-1.578 -3.181,-2.663c-0.838,-1.085 -1.479,-2.293 -1.923,-3.624c-0.395,-1.381 -0.592,-2.713 -0.592,-3.995l0,-11.243l0,0Z" style="fill:#134e9c;fill-rule:nonzero;"/></g></svg>