<?xml version="1.0" encoding="UTF-8" standalone="no"?>
<!-- Generator: Adobe Illustrator 13.0.0, SVG Export Plug-In . SVG Version: 6.00 Build 14948)  -->

<svg
   xmlns:ns="&amp;#38;#38;#38;ns_sfw;"
   xmlns:dc="http://purl.org/dc/elements/1.1/"
   xmlns:cc="http://creativecommons.org/ns#"
   xmlns:rdf="http://www.w3.org/1999/02/22-rdf-syntax-ns#"
   xmlns:svg="http://www.w3.org/2000/svg"
   xmlns="http://www.w3.org/2000/svg"
   xmlns:sodipodi="http://sodipodi.sourceforge.net/DTD/sodipodi-0.dtd"
   xmlns:inkscape="http://www.inkscape.org/namespaces/inkscape"
   version="1.1"
   id="svg2"
   x="0px"
   y="0px"
   width="290.74826"
   height="110.52657"
   viewBox="0.25 0 290.74826 110.52658"
   enable-background="new 0.25 0 567.927 113.032"
   xml:space="preserve"
   inkscape:version="0.91 r13725"
   sodipodi:docname="arcade_classics.svg"><defs
     id="defs21" /><sodipodi:namedview
     pagecolor="#ffffff"
     bordercolor="#666666"
     borderopacity="1"
     objecttolerance="10"
     gridtolerance="10"
     guidetolerance="10"
     inkscape:pageopacity="0"
     inkscape:pageshadow="2"
     inkscape:window-width="1611"
     inkscape:window-height="901"
     id="namedview19"
     showgrid="false"
     inkscape:zoom="1.8078363"
     inkscape:cx="137.18031"
     inkscape:cy="5.9249026"
     inkscape:window-x="0"
     inkscape:window-y="0"
     inkscape:window-maximized="0"
     inkscape:current-layer="g4889"
     fit-margin-top="0"
     fit-margin-left="0"
     fit-margin-right="0"
     fit-margin-bottom="0" /><metadata
     id="metadata3"><ns:sfw><ns:slices /><ns:sliceSourceBounds
         x="677.036"
         y="482.984"
         width="567.927"
         height="113.032"
         bottomLeftOrigin="true" /></ns:sfw><rdf:RDF><cc:Work
         rdf:about=""><dc:format>image/svg+xml</dc:format><dc:type
           rdf:resource="http://purl.org/dc/dcmitype/StillImage" /><dc:title></dc:title><dc:creator><cc:Agent><dc:title>UDb23</dc:title></cc:Agent></dc:creator></cc:Work></rdf:RDF></metadata><g
     transform="matrix(0.77798037,0,0,0.77798037,-1.6802734,-214.16344)"
     id="g4889"><g
       transform="matrix(0.71852262,0,0,0.71852262,-845.77132,432.19022)"
       id="g4180"><path
         id="path5366"
         style="fill:#000000;fill-opacity:1"
         d="m 1617.3555,-218.37305 c -13.4825,0.51693 -21.9904,14.80919 -22.1114,27.30078 -0.7194,3.96038 -2.9634,5.0822 -8.6699,4.56446 -15.5911,-1.02318 -29.8188,8.01141 -40.1367,18.95508 -1.2969,-11.62407 -13.242,-16.95454 -23.5898,-17.49219 -17.3768,-4.03659 -37.8828,-0.73478 -50.0372,13.25 -3.1545,-12.30572 -17.2983,-16.7545 -28.6816,-15.27539 -8.9787,0.60114 -17.3524,4.12228 -25.5176,7.60742 -7.2348,-10.4167 -22.8125,-8.90827 -32.2851,-2.52149 -10.8778,-7.85744 -29.2993,-2.46045 -32.1074,11.29688 -2.3114,6.44759 -5.884,12.32984 -9.4004,18.17188 -5.189,-18.28238 -1.4493,-38.43376 -9.8477,-55.82032 -11.508,-13.90448 -35.886,-9.58504 -43.907,5.95189 -8.9458,13.83357 -15.8773,28.98822 -26.6145,41.62253 -23.2422,31.74835 -45.483,64.261304 -69.5012,95.425857 -6.0838,8.015013 -13.0887,17.034784 -14.3972,27.448944 2.8829,13.641828 20.0918,18.635584 32,14.0625 16.8858,-5.561899 25.704,-22.406713 33.1035,-37.152343 3.7816,-6.579408 7.6901,-13.100061 12.1348,-19.257813 19.4195,-0.797226 38.9514,-0.799912 58.248,1.794922 5.3603,18.08847 4.9573,40.140355 20.2266,53.498047 11.6498,9.870126 33.4056,1.687769 33.6875,-14.234375 32.6215,-144.588619 293.5028,49.607519 330.6543,-62.474609 0.9409,-8.25349 -7.6968,-12.48371 -14.7676,-12.04883 -3.2886,0.73621 -6.5708,-3.3489 -2.9805,-5.45703 8.932,-6.4152 19.0074,-17.49902 14.9512,-29.33594 -1.2234,-4.0824 -7.2329,-4.78725 -8.5013,-7.30495 4.7257,-15.89122 -10.2497,-34.35789 -27.0514,-31.15013 -13.8076,0.29753 -25.7285,7.80461 -35.9629,16.48829 2.1639,-14.01451 11.4165,-26.9974 9.1132,-41.5 -3.8195,-5.9215 -11.6946,-6.47534 -18.0507,-6.41407 z m -254.8427,159.488473 c -6.0405,12.346706 -3.1445,30.413616 10.5927,36.189265 11.0731,4.742534 23.8912,0.437648 33.5468,-5.482422 8.5101,7.338141 21.9325,4.832706 29.7461,-1.673828 8.1432,6.996462 20.6409,3.984418 28.4375,-1.673829 7.1215,5.870374 18.5296,4.977076 24.9297,-1.15039 10.9839,6.298784 25.7649,3.534192 35.3692,-3.792969 10.5873,7.640133 25.4413,4.796727 36.0273,-1.337891 1.5455,-0.915871 2.8394,-3.464676 4.25,-0.947265 8.1951,6.468743 21.0689,4.498664 27.9043,-2.865235 11.0815,7.459088 26.3919,5.261186 36.9609,-2.058593 13.1987,7.964215 33.0257,4.720546 41.7793,-8.326172 3.6349,-5.715971 4.0528,-13.164085 1.1485,-19.234375 -4.3516,-32.271859 -270.503,-60.314279 -310.6923,12.353704 z"
         inkscape:connector-curvature="0"
         sodipodi:nodetypes="ccccccccccccccccccccccccccccccccccccccccccccc" /><path
         id="path5328"
         style="fill:#f4c401;fill-opacity:1"
         d="m 1341.2865,-31.158177 c -5.785,-3.527458 -9.8405,-13.316738 -13.8418,-33.411936 -1.9111,-9.59854 -4.108,-18.317655 -4.8817,-19.37583 -2.3287,-3.184597 -12.5057,-4.598116 -41.8585,-4.543623 -9.3008,0.01727 -26.997,-1.408385 -28.6596,1.755715 -2.8158,5.358655 -10.8776,16.76599 -14.7808,24.06238 -9.6983,18.194098 -12.8976,22.67109 -19.7453,27.631509 -9.0988,6.591218 -22.0729,6.178304 -27.6244,-0.879196 -2.3782,-3.023301 -2.4061,-3.4388 -0.4834,-7.203713 1.1223,-2.197442 5.2825,-8.277542 9.2451,-13.511323 3.9626,-5.233781 12.697,-16.749503 19.4097,-25.590501 6.7129,-8.840998 13.1752,-17.976325 14.3607,-20.300725 1.1857,-2.3244 10.432,-15.27793 20.5477,-28.78562 22.3382,-29.82902 35.6252,-49.33703 41.3805,-60.75553 4.9578,-9.83613 7.5737,-12.56749 14.3516,-14.98482 13.7544,-4.9054 23.2133,1.42307 23.2312,15.54271 0.016,9.24051 3.2648,33.63664 6.9877,52.40279 4.6722,23.55205 5.7943,26.76984 10.1804,29.19121 2.5044,1.38266 292.2222,4.53614 295.4616,4.53007 58.3615,-0.10937 52.0149,-3.59353 41.002,14.791737 -12.968,21.64921 -33.0892,13.410148 -56.8282,13.659967 -35.99,-1.763624 -206.8992,-13.928037 -273.9568,-12.689961 -5.1887,3.694701 -4.9473,7.453111 1.402,21.8298 10.0694,22.7995 7.3843,39.082285 -6.4423,39.06763 -2.4616,-0.0032 -6.2675,-1.097349 -8.4574,-2.43274 z m -22.6918,-77.675613 c 0.4453,-0.44736 -0.7148,-9.58269 -2.578,-20.30073 -3.452,-19.85509 -7.3253,-34.67059 -9.3998,-35.95263 -1.8012,-1.11326 -38.6161,49.10563 -39.659,54.09872 -0.2554,1.22268 1.9581,1.91737 7.8922,2.47704 10.4956,0.98985 42.6744,0.7527 43.7446,-0.3224 z m 303.0935,-101.44796 c -3.633,-0.30131 -7.6786,0.33255 -10.8973,2.34455 -4.6896,4.29314 -6.4763,11.59375 -7.7805,17.21396 -0.697,3.03913 -1.2581,6.33103 -1.9669,9.09578 -0.7089,2.76475 -1.6721,4.95391 -2.5417,5.72184 -0.4349,0.38396 -0.7389,0.49866 -1.2969,0.44451 -1.2604,-0.45817 -1.9532,-1.00671 -2.9979,-1.4806 -9.6366,-3.44246 -19.4909,-1.38686 -27.8288,3.52101 -8.3378,4.90786 -15.2556,12.64562 -19.3529,20.88535 -0.021,0.043 -0.041,0.0871 -0.058,0.13202 -3.7863,9.8933 -10.2933,21.22638 -20.3188,24.3813 -0.9037,-4.53844 0.2797,-9.69501 2.2542,-15.17189 2.1586,-5.98723 5.0462,-12.20745 6.1681,-18.29014 2.324,-3.58449 3.0369,-6.56083 2.0271,-8.96711 -1.0366,-2.46979 -3.5172,-3.74291 -6.2533,-4.57713 -5.4722,-1.66844 -12.9191,-1.86262 -16.9416,-3.19013 -0.07,-0.023 -0.1414,-0.0409 -0.2139,-0.0535 -21.1143,-3.6826 -40.6975,11.77966 -48.2194,30.41562 -0.033,0.0801 -0.058,0.16283 -0.077,0.24732 -2.4015,11.16947 -14.0904,18.12253 -24.9427,20.56452 -0.05,0.0114 -0.1,0.0253 -0.1487,0.0417 -5.9628,1.99981 -10.4006,-0.11464 -13.2034,-4.03403 -2.8027,-3.91938 -3.7071,-9.74914 -1.7629,-14.87276 0.051,-0.13463 0.083,-0.27588 0.094,-0.41944 0.3551,-4.55379 3.7783,-12.26305 8.1615,-16.94826 2.1917,-2.3426 4.5857,-3.90462 6.7463,-4.24626 2.1198,-0.33519 4.143,0.29852 6.3602,2.88599 0.2554,0.45377 0.4227,1.54403 0.3342,2.9545 -0.09,1.4384 -0.3604,3.12395 -0.4964,4.74758 -0.1358,1.62364 -0.2277,3.2096 0.5298,4.66904 0.3787,0.72973 1.0592,1.39533 1.9117,1.71956 0.8526,0.32423 1.7983,0.34402 2.8375,0.16544 l -0.5732,-0.0117 c 3.4098,0.73218 6.3952,0.45889 8.5377,-1.25333 2.0755,-1.65873 3.0359,-4.43963 3.1383,-7.96109 3.0586,-5.60991 2.8315,-10.96837 -0.067,-14.55692 -2.9226,-3.6186 -8.1873,-5.2416 -14.3013,-4.36658 -10.7583,-1.35624 -20.602,2.61238 -28.2465,9.28294 -7.6646,6.68804 -13.1934,16.07427 -15.5262,25.77499 -1.7984,5.59972 -1.6437,12.04924 0.6216,17.49137 2.2731,5.4605 6.8273,9.92329 13.5125,10.96406 l 0.01,0.002 c 13.631,2.05629 28.6033,0.11204 39.6986,-9.12084 0.093,-0.0773 0.1757,-0.16535 0.2473,-0.26236 1.5642,-2.1105 2.7141,-2.81857 3.1266,-2.90103 0.2063,-0.0412 0.2693,-0.0277 0.4629,0.0785 0.1937,0.1063 0.4884,0.35873 0.8122,0.77038 1.295,1.64659 2.6471,5.48521 5.172,8.12487 0.045,0.047 0.093,0.0911 0.1437,0.13202 5.4552,4.39098 12.1983,4.93107 18.3603,3.20182 6.1622,-1.72927 11.8561,-5.65113 15.7552,-10.38921 l -0.042,0.0501 c 1.0605,-1.18094 2.1186,-2.29833 3.0247,-3.13163 0.3733,-0.34329 0.4557,-0.34304 0.7637,-0.5665 -0.088,0.7584 -0.139,1.49447 -0.6735,3.22688 -0.056,0.18216 -0.077,0.37324 -0.062,0.56317 0.3421,4.37003 2.228,7.51337 4.99,9.25787 2.7619,1.74448 6.2102,2.12304 9.7023,1.69616 6.9843,-0.85375 14.3821,-4.8282 18.078,-9.81769 0.013,-0.0175 0.026,-0.0353 0.039,-0.0535 1.5822,-2.34421 2.7612,-3.12576 3.0564,-3.19179 0.1476,-0.033 0.1234,-0.0388 0.2891,0.0652 0.1657,0.10393 0.4587,0.38679 0.7771,0.84057 1.2735,1.81513 2.5782,5.95466 5.5313,8.44739 0.019,0.0155 0.038,0.0305 0.056,0.0451 5.4944,4.20518 12.1745,4.66387 18.2718,2.91271 6.0974,-1.75115 11.7165,-5.64325 15.5947,-10.34241 l -0.04,0.0484 c 1.0605,-1.1809 2.1185,-2.29835 3.0247,-3.13163 0.3739,-0.34377 0.457,-0.34291 0.7654,-0.56651 -0.088,0.75833 -0.139,1.4945 -0.6735,3.22689 -0.056,0.18056 -0.076,0.36988 -0.062,0.55815 0.3303,4.34993 2.1995,7.48863 4.9448,9.23782 2.7453,1.74919 6.1771,2.14324 9.6556,1.7346 6.9571,-0.8173 14.337,-4.74198 18.0361,-9.70574 0.015,-0.0213 0.031,-0.043 0.045,-0.0652 0.9776,-1.46641 1.8091,-2.42485 2.4364,-2.95617 0.6274,-0.53132 0.979,-0.60707 1.1547,-0.60661 0.1757,4.6e-4 0.3715,0.0597 0.747,0.3994 0.3755,0.3397 0.8418,0.9388 1.3319,1.69114 0.9802,1.50469 2.0647,3.58746 3.5377,5.45781 1.4655,1.86082 3.4234,3.57739 6.1095,4.02399 11.2813,3.05925 24.2162,2.48342 34.9025,-2.92943 0.067,-0.0336 0.1311,-0.0721 0.1922,-0.1153 4.1759,-2.95991 9.6559,-6.1767 14.2377,-10.15358 4.5819,-3.97689 8.3625,-8.84186 8.6714,-15.04656 0.051,-1.03655 -0.9335,-1.81513 -1.9302,-1.52571 -4.9816,1.4444 -8.9917,5.51998 -13.1498,9.33141 -4.158,3.81142 -8.4039,7.36923 -13.3286,8.39224 -0.1319,0.0275 -0.2595,0.0724 -0.3794,0.13369 -4.5634,2.32869 -10.3058,2.01844 -14.455,-0.28743 -3.8595,-2.1449 -6.2233,-5.81619 -5.548,-10.91226 11.7481,-0.59152 25.1618,-1.16199 34.3744,-10.4878 5.1556,-4.97656 6.2338,-12.71438 4.0558,-18.97697 -2.1563,-6.2001 -7.8863,-11.06163 -15.827,-9.96475 -10.7362,-0.83116 -20.4246,3.40983 -27.8973,10.23714 -7.402,6.76283 -12.6684,16.05658 -14.9011,25.6881 -1.7508,2.67436 -5.8778,8.2496 -9.8194,11.66758 -1.994,1.72913 -3.9611,2.80896 -5.1286,2.9027 -0.5837,0.0469 -0.9386,-0.0514 -1.3452,-0.38769 -0.3477,-0.28766 -0.7331,-0.99805 -1.0813,-1.91006 7.56,-25.52048 16.2534,-50.735 24.017,-76.28054 0.1994,-0.65614 -0.068,-1.36426 -0.6517,-1.72457 -1.7568,-1.08575 -4.0035,-1.6975 -6.4253,-1.89837 z m -218.9303,31.22276 c -5.531,0.0121 -10.5435,3.08133 -14.7341,6.16803 -1.7088,1.25868 -3.1737,2.45032 -4.5738,3.55441 0.2623,-0.86448 0.4315,-1.70116 0.3994,-2.4916 -0.094,-2.30295 -1.7526,-4.02163 -3.7382,-4.77265 -3.9713,-1.50205 -9.631,-0.64614 -14.3932,1.03942 -0.4075,0.14445 -0.7335,0.45653 -0.8957,0.85728 -6.8014,16.80916 -18.5163,32.91104 -17.864,50.87151 1.1148,11.98044 3.4636,10.60705 16.0406,10.40559 0.6961,-0.18446 2.468,-2.7029 2.7124,-3.38031 2.2485,-6.23407 6.0839,-17.82276 10.421,-26.03902 0.029,-0.0546 0.055,-0.111 0.077,-0.16878 0.9782,-2.57691 5.63,-9.76984 9.8177,-14.03553 2.0938,-2.13286 4.2324,-3.4407 4.9731,-3.5043 0.3703,-0.0318 0.3304,-0.079 0.5715,0.29412 0.232,0.3589 0.5164,1.35132 0.5866,2.87763 -0.7053,1.91175 -0.8947,3.58027 -0.1822,4.91971 0.7803,1.46675 2.3385,2.06663 3.8101,2.25263 2.9433,0.37199 6.4245,-0.51174 8.79,-1.04109 0.6162,-0.13726 1.0819,-0.64307 1.1681,-1.26836 0.1873,-1.36266 1.0178,-3.57292 2.0521,-5.98587 1.0342,-2.41296 2.2533,-5.06885 3.1684,-7.63691 0.9151,-2.56807 1.5803,-5.03515 1.2584,-7.32275 -0.1611,-1.1438 -0.6183,-2.26921 -1.4689,-3.13664 -0.8445,-0.86109 -2.0179,-1.41657 -3.4108,-1.67945 -1.5337,-0.5296 -3.076,-0.78039 -4.5854,-0.77707 z m 104.1293,10.30733 c 3.5421,0.27546 6.4626,2.00186 8.1349,6.11119 -4.5567,12.13049 -11.0807,24.17226 -21.3181,32.0132 l -1.86,0.88735 -1.8516,0.49465 c -3.1754,-0.36922 -4.7782,-1.62832 -5.7318,-3.55777 -0.9776,-1.97793 -1.1599,-4.84866 -0.6969,-8.03797 0.9262,-6.37862 4.3582,-13.88154 6.798,-17.7437 0.044,-0.0697 0.083,-0.14291 0.1154,-0.21892 2.4633,-5.82938 10.2587,-10.42641 16.4101,-9.94803 z m 78.7271,0.003 c 3.7822,0.0355 6.9245,1.715 8.8016,6.32845 -4.7031,12.00586 -11.0853,23.99248 -21.273,31.76085 -2.1805,1.01423 -3.9336,1.4616 -5.2339,1.49564 -1.3301,0.0348 -2.1838,-0.2898 -2.8693,-0.85561 -1.3712,-1.13163 -2.1596,-3.72498 -2.1558,-7.09213 0.01,-6.73429 3.1578,-16.01921 5.4796,-19.23265 0.083,-0.11439 0.1492,-0.23983 0.1972,-0.37265 1.1373,-3.16006 3.7144,-6.24192 6.8816,-8.47246 3.1671,-2.23054 6.8984,-3.59019 10.172,-3.55944 z m 74.3621,0.62166 c 1.7268,-0.0205 2.3097,0.56676 2.7589,1.87162 0.4493,1.30486 0.3917,3.42823 -0.2607,5.63493 -1.3046,4.41344 -4.847,8.87279 -8.703,9.35982 -0.1333,0.0166 -0.2636,0.0509 -0.3877,0.10194 -2.5821,1.0651 -5.4059,1.59663 -8.2502,1.77804 -0.2317,-0.17928 -0.4632,-0.34391 -0.5548,-0.59992 -0.1284,-0.35826 -0.167,-0.90724 -0.032,-1.63434 0.2705,-1.45418 1.2466,-3.49719 2.5952,-5.55806 2.6664,-4.0747 6.7784,-8.3158 8.8384,-9.84778 1.6894,-0.77082 3.04,-1.09494 3.9957,-1.10625 z"
         inkscape:connector-curvature="0"
         sodipodi:nodetypes="cccsscsscsccssscscssccsccccccsccccccccsccccccsccccccccccscccccccccccscccccccccccsccccccsscccccccsccccccsscccsssscccsccsccsccscscsccccccccsccsccccccccccccscccscccccsccccccccssccccccccsccccccccsccc" /><path
         inkscape:connector-curvature="0"
         style="color:#000000;clip-rule:nonzero;display:inline;overflow:visible;visibility:visible;opacity:1;isolation:auto;mix-blend-mode:normal;color-interpolation:sRGB;color-interpolation-filters:linearRGB;solid-color:#000000;solid-opacity:1;fill:#ffffff;fill-opacity:1;fill-rule:evenodd;stroke:none;stroke-width:0.80000001;stroke-linecap:round;stroke-linejoin:round;stroke-miterlimit:4;stroke-dasharray:3.2, 3.2;stroke-dashoffset:0;stroke-opacity:1;color-rendering:auto;image-rendering:auto;shape-rendering:auto;text-rendering:auto;enable-background:accumulate"
         d="m 1601.9483,-104.90746 a 17.318331,17.318331 0 0 1 -17.3183,17.318328 17.318331,17.318331 0 0 1 -17.3183,-17.318328 17.318331,17.318331 0 0 1 17.3183,-17.31833 17.318331,17.318331 0 0 1 17.3183,17.31833 z"
         id="circle5423" /><g
         id="g5416"
         transform="translate(0,-25.6)"><path
           inkscape:connector-curvature="0"
           id="path5376"
           d="m 1576.2207,-64.978516 c -2.893,1.043901 -4.7117,4.614571 -6.5019,6.06836 -5.18,-8.835886 -17.561,-8.347825 -26.1309,-5.707032 -4.4731,1.664785 -8.3337,5.07662 -11.0742,8.732422 -4.0127,-7.968157 -14.3096,-7.589566 -21.877,-6.998046 -8.581,0.784729 -18.0132,7.876795 -17.2324,17.148437 0.5577,2.221185 2.4473,5.615484 -1.0352,6.267578 -3.1984,1.974838 -5.1839,5.283352 -7.1406,8.382813 1.2256,-7.520969 6.7045,-15.698575 3.3594,-23.195313 -5.2286,-5.897475 -13.8903,-3.587894 -20.7363,-5.167969 -16.7111,-0.119714 -31.0064,13.420594 -35.0606,29.105469 -0.7874,2.186512 -5.4282,9.781241 -5.2871,6.181641 1.0998,-13.236558 12.4939,-21.338576 18.334,-32.296875 4.4657,-7.100045 5.8065,-19.226852 -3.0899,-23.503909 -9.64,-5.22262 -23.1132,0.72694 -25.4257,11.562502 -2.6891,6.510593 -3.7815,15.134654 -5.7637,20.789063 -2.868,-7.445263 -12.5203,-7.271876 -19.1426,-6.658203 -19.2614,2.794978 -34.9153,25.279645 -26.4414,43.888672 5.1356,9.836802 18.0255,11.600426 27.5977,7.923828 4.9501,-1.113307 9.7328,-4.614883 13.625,-6.748047 7.5761,9.128252 22.7331,5.772481 29.1582,-2.544922 5.6271,8.133354 17.7627,7.531326 24.7011,1.501953 2.0997,-1.977354 4.9437,-3.662012 6.7325,-0.322265 5.9961,5.706863 17.1468,3.232345 21.0722,-3.859375 9.2439,8.260115 24.3905,6.056556 33.5703,-1.207032 1.6462,-1.779671 2.9696,-3.044927 4.4883,-0.560546 9.4977,7.420471 23.2413,4.185508 32.8594,-1.210938 1.7421,-1.437164 2.9502,-3.826974 4.2734,-5.294922 5.3776,11.222929 22.7556,9.510966 28.6055,-0.318359 6.409,5.813915 15.9039,7.23386 24.1777,5.039062 5.1085,-0.975254 9.6675,-4.189939 13.9688,-6.429687 3.6951,2.606198 7.5856,5.216603 12.3828,4.818359 11.4138,1.141053 25.4859,-4.30655 27.8086,-16.75 1.5015,-4.467251 -2.2071,-8.872845 -2.6719,-12.574219 7.2305,-3.16247 8.6614,-13.387279 4.7539,-19.601562 -4.8708,-6.278436 -14.1303,-4.766296 -21.1172,-4.261719 -5.5868,0.617835 -10.9259,4.011947 -14.3945,7.845703 -2.7947,-0.553834 -4.2478,-4.411844 -7.7402,-4.486328 -17.6039,-5.315481 -36.9045,8.430117 -40.125,25.990234 -0.8127,1.413676 -1.7484,5.641344 -2.9297,5.421876 0.8286,-8.839073 7.4474,-17.603147 4.2187,-26.632813 -2.0249,-3.361917 -10.5618,-3.504503 -14.7695,-0.337891 z m 40.5977,10.550782 c -1.6537,6.532763 4.866,13.927576 11.4785,11.099609 -1.7369,6.323948 -11.0068,12.367318 -16.9922,7.630859 -1.672,-6.552033 0,-14.576816 5.5137,-18.730468 z m 20.1484,1.845703 c 1.9056,2.068246 -3.5467,3.332954 -0.6699,0.183593 0.2178,0.101102 0.5296,-0.270278 0.6699,-0.183593 z m -84.5547,1.923828 c 0.7782,0.436283 0.2768,0.375976 0,0 z m -20.5195,5.560547 c 1.1205,1.552965 -2.1489,2.915341 -0.6582,0.71289 0.158,-0.05328 0.4955,-0.966385 0.6582,-0.71289 z m -67.5117,0.490234 c 4.1337,2.634807 0.4756,8.553178 -2.0547,11.234375 -2.1615,2.725827 -4.563,8.402058 -7.7969,8.173828 -0.5803,-7.191421 2.3136,-17.069678 9.8516,-19.408203 z m 102.3652,1.525391 c 1.1708,4.265465 -3.8814,6.921449 -3.0566,1.861328 0.5236,-1.269681 2.9441,-1.003591 3.0566,-1.861328 z m 79.0078,3.287109 c 3.0158,0.613266 3.7096,6.151055 -0.332,4.90625 -3.1591,-0.799337 -1.8637,-4.287644 0.332,-4.90625 z m -120.0937,1.076172 c -0.7408,1.204883 0.1539,-0.48682 0,0 z m -133.9747,0.341797 c -1.404,6.064474 4.1839,13.749145 10.7891,11.103515 2.8151,-1.098155 4.8129,-1.769888 1.4727,1.306641 -4.1963,4.669985 -10.4329,9.581111 -17.0352,7.302735 -3.0844,-6.592428 -1.017,-15.509092 4.7734,-19.712891 z m 149.5879,4.734375 c 3.3909,1.416229 2.0961,9.260599 -1.6738,5.982422 -0.3289,-1.940941 1.1528,-4.936939 1.6738,-5.982422 z m -38.414,2.732422 c 3.0595,0.753421 4.207,8.280601 -0.1582,6.242187 -1.111,-1.818999 -0.2366,-4.408127 0.1582,-6.242187 z"
           style="fill:#ffffff;fill-opacity:1"
           sodipodi:nodetypes="ccccccccccccccccccccccccccccccccccccccccccccccccccccccccccccccccccccccccccccc" /><path
           inkscape:connector-curvature="0"
           id="path5361"
           d="m 1435.0157,-77.75593 c -4.263,-0.0516 -8.8299,1.741141 -11.499,5.738298 -0.017,0.02485 -0.033,0.05063 -0.047,0.07722 -5.0104,9.639334 -6.2101,20.682159 -9.1113,30.827084 l 0.02,-0.05893 c -1.0033,2.693753 -1.3376,5.622248 -1.9242,8.322968 -0.5867,2.70072 -1.4041,5.136341 -3.2329,6.979832 -0.02,0.01999 -0.039,0.04102 -0.057,0.06299 -2.9463,3.66715 -7.0158,7.645996 -11.4562,9.970899 -4.3847,2.295669 -9.0255,2.985184 -13.592,0.414522 -2.7859,-4.164011 -3.3653,-10.038659 -1.9588,-15.390174 1.419,-5.399252 4.8079,-10.175016 9.6641,-12.171527 1.0861,-0.271694 1.8643,-0.273143 2.3693,-0.125982 0.5158,0.150313 0.8108,0.410049 1.0668,0.845301 0.5119,0.870504 0.6442,2.523808 0.6523,4.259019 0.01,1.73521 -0.098,3.515574 0.4063,4.947857 0.2519,0.716142 0.7301,1.393772 1.4894,1.712955 0.7316,0.307463 1.6017,0.252404 2.603,-0.05486 2.0311,0.313988 3.6783,-0.154953 4.7325,-1.261856 1.1115,-1.167 1.6141,-2.811487 1.8978,-4.571943 0.5674,-3.520912 0.2631,-7.735575 0.7193,-9.796148 0.081,-0.366681 -0.098,-0.741377 -0.4347,-0.908293 -13.8949,-6.884486 -31.644,1.514824 -36.8174,15.784377 0,0.0065 -0.01,0.01383 -0.01,0.02032 -3.6333,5.839384 -3.8491,13.463324 -1.1297,19.206223 2.7095,5.722184 8.5668,9.524738 16.5463,7.447186 9.1144,0.385347 17.4459,-5.780825 23.0182,-11.377025 0.066,2.593069 0.9085,4.675244 2.3428,6.142659 1.8036,1.845036 4.3931,2.733579 7.1425,2.883371 5.4988,0.299584 11.8124,-2.252432 14.681,-6.920904 l 0,-0.0061 c 1.1918,-1.968006 2.1407,-3.035697 2.7512,-3.411686 0.3053,-0.187994 0.4914,-0.218053 0.6625,-0.201165 0.171,0.01689 0.3747,0.09898 0.6421,0.310892 1.0696,0.847645 2.563,3.709864 4.9396,6.589693 0.079,0.09555 0.1781,0.171983 0.2906,0.223517 5.6443,2.57631 11.2548,1.23204 15.9104,-1.849097 3.1147,-2.061302 5.7979,-4.905177 7.9836,-7.908443 0.029,0.459688 -0.079,0.927496 0.025,1.375647 0.5173,2.248029 1.8947,4.314419 3.7794,5.807382 1.8848,1.492963 4.2966,2.415945 6.8803,2.298163 2.5837,-0.117782 5.3096,-1.294305 7.756,-3.854655 0.052,-0.05469 0.095,-0.116231 0.13,-0.182878 1.3912,-2.624121 2.5154,-3.495471 3.3549,-3.637234 0.8394,-0.141763 1.829,0.386935 3.0703,1.351263 1.2413,0.964327 2.6472,2.275607 4.3606,3.238967 1.7135,0.96336 3.7909,1.558929 6.1893,1.00786 l -0.1909,0.02032 1.3553,0.01219 c 0.01,1.84e-4 0.02,1.84e-4 0.03,0 l 1.3452,-0.03658 -0.067,-0.0021 c 5.1505,0.286886 10.9267,-1.415385 15.0651,-4.716212 4.1368,-3.299683 6.5951,-8.361965 4.7487,-14.351836 -0.5891,-2.000428 -2.3433,-3.880163 -4.3667,-5.82567 -2.0257,-1.947621 -4.3561,-3.921509 -6.159,-5.782999 -1.8028,-1.86149 -2.9834,-3.628004 -3.0113,-4.832035 -0.014,-0.602016 0.1716,-1.106446 0.7823,-1.686539 0.5922,-0.56258 1.6401,-1.148302 3.2003,-1.674347 1.8321,-0.08036 2.6368,0.474841 3.2207,1.41019 0.5954,0.953869 0.8631,2.412225 1.0973,3.874975 0.2342,1.46275 0.3887,2.937506 1.2821,4.017214 0.4469,0.539854 1.1382,0.925539 1.9366,0.983475 0.7765,0.05635 1.6464,-0.162078 2.672,-0.5974 1.193,-0.345582 2.0185,-1.38507 2.6435,-2.639535 0.6323,-1.268642 1.0628,-2.817381 1.264,-4.391096 0.2011,-1.573716 0.1748,-3.167356 -0.1829,-4.539432 -0.3577,-1.372074 -1.0931,-2.60363 -2.3794,-3.094696 -0.026,-0.01021 -0.054,-0.01903 -0.081,-0.02642 -4.5756,-1.214829 -10.4244,-2.005855 -15.7519,-1.15213 -5.3275,0.853726 -10.2111,3.450461 -12.3788,8.940687 0,0.01074 -0.01,0.02158 -0.013,0.03251 -1.1167,3.2084 -0.024,6.260408 1.8085,8.977263 1.8319,2.716855 4.4168,5.222849 6.5674,7.611776 2.1504,2.388928 3.8025,4.658605 4.0009,6.622205 0.099,0.9818 -0.1081,1.906369 -0.8209,2.924011 -0.695,0.992133 -1.925,2.05807 -3.8059,3.153624 -2.8056,0.584746 -4.5271,0.166419 -5.6063,-0.74167 -1.0964,-0.922684 -1.6631,-2.47347 -1.8124,-4.360617 -0.2988,-3.774296 1.169,-8.688754 2.233,-10.804008 0.2608,-0.516085 -0.082,-1.132345 -0.6583,-1.182609 -2.8114,-0.248154 -5.0311,0.86261 -6.7563,2.539968 -1.7251,1.677358 -3.0376,3.897684 -4.3322,6.055283 -1.2945,2.1576 -2.5718,4.253073 -4.0761,5.687497 -1.3108,1.24992 -2.8151,1.883047 -4.7162,1.897864 0.019,-8.088194 3.1077,-16.057514 4.8504,-24.253647 l -0.063,0.182878 c 0.783,-1.629363 1.2365,-2.987628 1.333,-4.177739 0.097,-1.190111 -0.2158,-2.260646 -0.951,-3.003258 -1.4461,-1.46065 -3.9726,-1.61383 -7.4005,-1.35736 -13.242,-4.104867 -28.3855,1.016166 -35.5819,13.1103 l 0,0.0061 c -2.4399,4.176788 -4.5759,10.708122 -7.5529,15.772186 -1.4884,2.532031 -3.177,4.674113 -5.1205,5.974004 -1.7942,1.199999 -3.8015,1.682385 -6.2646,1.202929 -0.6202,-6.107731 1.9728,-12.26766 3.2329,-18.639301 6.0056,-8.50341 14.2638,-16.275304 17.7533,-26.856606 l -0.051,0.119886 c 2.262,-4.379281 1.866,-8.131695 -0.126,-10.671929 -1.9919,-2.540234 -5.4004,-3.846222 -8.9528,-3.889202 z m 0.5506,7.737761 c 0.8016,0.489426 1.2708,1.140256 1.3878,2.180309 0.1499,1.332244 -0.2182,3.155607 -0.8961,5.090095 -1.3476,3.845435 -3.8227,8.091371 -5.0942,10.615035 l -0.7396,1.192768 c 0.015,-0.221268 -0.01,-0.331269 0.022,-0.585208 0.1833,-1.629485 0.6309,-3.881823 1.2293,-6.295057 1.1102,-4.477273 2.7385,-9.355669 4.0904,-12.197942 z m 226.9634,0.971283 c -1.8628,-0.14448 -3.8269,-0.08352 -5.7018,0.0569 -2.4999,0.187239 -4.8362,0.536635 -6.5063,0.808726 l -0.019,0.0041 c -4.1876,0.786848 -6.9849,2.559286 -8.5362,4.933634 -1.5514,2.374347 -1.8166,5.266001 -1.2314,8.150249 1.152,5.678487 5.5138,11.472402 10.6272,14.510329 2.0657,3.325102 1.9067,5.583049 0.8412,7.122071 -1.0771,1.555861 -3.2975,2.478685 -5.6184,2.533872 -2.3207,0.05519 -4.6445,-0.757323 -5.9028,-2.310355 -1.2521,-1.545386 -1.6487,-3.879253 0.094,-7.447187 1.8616,-1.928566 2.7506,-3.372207 2.6457,-4.710116 -0.054,-0.6899 -0.4838,-1.305988 -1.0383,-1.617452 -0.5547,-0.311464 -1.1915,-0.398496 -1.8675,-0.371851 -1.352,0.05329 -2.9165,0.58483 -4.3565,1.511789 -1.4401,0.926959 -2.7549,2.268292 -3.4299,4.009085 l 0,0.01219 c -1.6166,4.397301 -6.1106,8.740763 -11.0622,10.810104 -4.9069,2.050666 -10.0632,1.927369 -13.6426,-2.119349 -1.4944,-4.480164 -1.5919,-10.013023 -0.1118,-14.869989 1.4931,-4.89984 4.5361,-9.062205 9.2373,-10.962502 1.0905,-0.273857 1.869,-0.27353 2.3755,-0.125982 0.5158,0.150324 0.8107,0.410022 1.0667,0.845301 0.5122,0.870557 0.646,2.523809 0.6543,4.259018 0.01,1.735211 -0.098,3.515603 0.4064,4.947859 0.252,0.716127 0.73,1.393796 1.4894,1.712954 0.7316,0.307439 1.6016,0.252404 2.6031,-0.05486 2.0309,0.313999 3.6762,-0.155096 4.7303,-1.261857 1.1113,-1.166849 1.6145,-2.81173 1.898,-4.571942 0.5669,-3.520423 0.2631,-7.733617 0.7193,-9.794117 0.081,-0.36673 -0.098,-0.741442 -0.4349,-0.908293 -13.049,-6.471932 -29.77,0.580558 -35.7851,13.512631 -0.01,0.02196 -0.018,0.04433 -0.026,0.06705 -1.4562,4.026413 -3.2425,9.715049 -5.85,14.229917 -1.3038,2.257433 -2.8096,4.211497 -4.5293,5.522906 -1.4884,1.134951 -3.1641,1.680936 -5.0536,1.714986 0.5015,-9.180261 3.9983,-18.279209 5.9537,-27.598276 l -0.064,0.186941 c 0.6425,-1.326249 1.0195,-2.422477 1.1176,-3.381205 0.098,-0.958728 -0.1316,-1.863747 -0.7722,-2.436337 -0.6404,-0.572589 -1.5133,-0.736992 -2.4871,-0.703063 -0.9402,0.03275 -2.0412,0.274234 -3.2897,0.650231 -3.1181,0.114939 -5.3693,1.459411 -6.8396,3.490933 -1.4871,2.05464 -2.2521,4.732867 -2.79,7.601615 -1.0756,5.737498 -1.2881,12.336588 -3.4076,16.178581 l -0.01,0.01016 c -3.1564,5.921192 -1.4431,11.411592 2.3814,14.179119 3.8246,2.767526 9.6814,2.843441 14.4555,-1.381744 l -0.3698,0.186942 c 1.4027,-0.299261 2.4758,-1.462193 3.5498,-2.757389 1.0741,-1.295197 2.1037,-2.794004 3.0256,-3.923743 0.461,-0.56487 0.8979,-1.034485 1.2558,-1.326879 0.3579,-0.292394 0.6076,-0.360004 0.6584,-0.357628 0.051,0.0024 0.1214,-0.01996 0.3413,0.36982 0.22,0.389781 0.471,1.141486 0.6706,2.273779 0.022,0.125106 0.073,0.24338 0.1483,0.345436 3.5757,4.818818 9.1628,6.39279 14.8192,6.156882 5.6564,-0.235908 11.4608,-2.224804 15.8677,-4.612582 0.1057,-0.05784 0.1973,-0.13833 0.2682,-0.235709 1.6487,-2.239766 2.9434,-3.012131 4.0274,-3.1394 1.084,-0.127269 2.1908,0.383988 3.4889,1.249664 2.5961,1.731353 5.766,4.802835 10.422,4.15742 l -0.1138,0.0081 c 3.6938,0.01163 8.0231,-0.263782 11.9845,-1.469118 3.9578,-1.2042 7.5858,-3.3704 9.6682,-7.14239 1.7511,-2.937464 2.1899,-5.681648 1.6987,-8.170569 -0.492,-2.493126 -1.8705,-4.695819 -3.5844,-6.723803 -3.3573,-3.972638 -8.0266,-7.395097 -10.5926,-10.854807 -10e-5,-2.327327 0.6546,-3.507118 1.4996,-3.992831 0.8814,-0.506649 2.1943,-0.414992 3.56,0.26619 1.3656,0.681181 2.7072,1.927039 3.5153,3.41778 0.8081,1.490742 1.1018,3.186444 0.4978,4.92957 -0.1773,0.512253 0.1842,1.051978 0.7254,1.083043 2.3193,0.134766 4.3691,-0.09486 5.8704,-1.188705 1.4417,-1.050467 2.1131,-2.928089 1.9345,-5.421308 0.8763,-2.226869 1.0423,-4.089401 0.5263,-5.600121 -0.5256,-1.538684 -1.7301,-2.615873 -3.2004,-3.297895 -1.4704,-0.682021 -3.2314,-1.032032 -5.0942,-1.176514 z m -104.9677,7.122071 c -1.0558,-0.01608 -2.1964,0.09302 -3.4057,0.312924 -5.4221,-1.064872 -11.6852,1.083866 -15.5608,4.880803 -1.9629,1.923006 -3.3201,4.299784 -3.5153,6.922937 -0.1952,2.623152 0.8092,5.430088 3.3162,8.081162 0.07,0.07445 0.1534,0.135106 0.2458,0.178813 3.917,1.846839 7.7423,7.075817 8.6278,11.45424 0.4428,2.189212 0.1768,4.076739 -0.9184,5.337997 -1.0867,1.251447 -3.1247,2.051736 -6.6669,1.76985 -2.5174,-0.593789 -3.5536,-1.597703 -4.001,-2.85086 -0.4507,-1.262375 -0.2541,-2.95201 0.2194,-4.746693 0.4736,-1.794682 1.1967,-3.657686 1.6013,-5.340028 0.2022,-0.841172 0.3298,-1.641077 0.2702,-2.40789 -0.059,-0.766813 -0.3467,-1.535539 -0.9611,-2.074646 -0.1944,-0.170766 -0.4582,-0.239355 -0.7112,-0.18491 -7.0816,1.533566 -10.3432,8.078156 -9.8124,13.955601 0.2654,2.938722 1.4618,5.755724 3.6189,7.737759 2.1571,1.982033 5.2754,3.076153 9.15,2.621247 l -0.1138,0.0061 c 5.8711,0.124943 12.086,-0.740548 17.2921,-3.905455 l 0.01,-0.0061 c 5.3353,-3.34619 6.7452,-8.80325 5.531,-13.831649 -1.2132,-5.023833 -4.9077,-9.718625 -9.7473,-12.07196 l -0.012,-0.0081 c -3.0747,-1.569572 -4.0505,-3.230143 -4.0984,-4.576006 -0.048,-1.348034 0.8673,-2.641099 2.2189,-3.427941 1.3515,-0.786841 3.0387,-0.991512 4.3301,-0.333243 1.2915,0.658268 2.3866,2.188798 2.4628,5.427403 l 0.059,-0.325115 c -0.5427,1.341335 -0.3732,2.605075 0.3637,3.37714 0.737,0.772066 1.8053,1.026419 2.8651,1.038339 1.0598,0.01192 2.152,-0.231621 3.0703,-0.709158 0.9184,-0.477539 1.7374,-1.250462 1.8451,-2.342868 l -0.065,0.247902 c 1.6465,-3.766346 1.8104,-7.261896 0.4754,-9.897747 -1.335,-2.635853 -4.174,-4.251761 -7.9836,-4.309818 z m -91.1768,13.169227 c 2.6962,1.438001 3.8269,3.316478 4.0538,5.587929 0.2318,2.320718 -0.5626,5.094358 -1.9771,7.918604 -2.8198,5.630186 -8.0285,11.397207 -11.4014,14.485946 -1.118,0.816207 -2.0752,1.032299 -2.9158,0.91642 -0.8478,-0.116864 -1.6295,-0.58958 -2.2962,-1.335007 -1.3335,-1.490854 -2.065,-4.06035 -1.6683,-6.077635 0.01,-0.03021 0.01,-0.06074 0.013,-0.09144 0.386,-4.66904 1.7688,-10.333418 4.4196,-14.628184 2.6232,-4.250138 6.3597,-7.118279 11.7733,-6.776634 z"
           style="fill:#98a6af;fill-opacity:1"
           sodipodi:nodetypes="ccccccccccscsccccccsccccccccsccccsccscccscccscccccccccccccccscscccsccscccccccccccccsccccsccccccccccccccccccscccsccccccsscccscccscccccccccsccccccccccccsccccccccccsccccsccscccsccscscsccccccccccsscccscscccccsscccccccccccccscccscccsscscccscc" /></g><path
         id="path5396"
         d="m 1599.3279,-104.96271 a 14.956544,14.956544 0 0 1 -14.9566,14.956546 14.956544,14.956544 0 0 1 -14.9565,-14.956546 14.956544,14.956544 0 0 1 14.9565,-14.95654 14.956544,14.956544 0 0 1 14.9566,14.95654 z"
         style="color:#000000;clip-rule:nonzero;display:inline;overflow:visible;visibility:visible;opacity:1;isolation:auto;mix-blend-mode:normal;color-interpolation:sRGB;color-interpolation-filters:linearRGB;solid-color:#000000;solid-opacity:1;fill:#db0123;fill-opacity:1;fill-rule:evenodd;stroke:none;stroke-width:0.80000001;stroke-linecap:round;stroke-linejoin:round;stroke-miterlimit:4;stroke-dasharray:3.2, 3.2;stroke-dashoffset:0;stroke-opacity:1;color-rendering:auto;image-rendering:auto;shape-rendering:auto;text-rendering:auto;enable-background:accumulate"
         inkscape:connector-curvature="0" /><path
         id="circle5398"
         d="m 1582.6935,-111.78648 a 3.4839196,3.4839196 0 0 1 -3.4839,3.48392 3.4839196,3.4839196 0 0 1 -3.4839,-3.48392 3.4839196,3.4839196 0 0 1 3.4839,-3.48392 3.4839196,3.4839196 0 0 1 3.4839,3.48392 z"
         style="color:#000000;clip-rule:nonzero;display:inline;overflow:visible;visibility:visible;opacity:1;isolation:auto;mix-blend-mode:normal;color-interpolation:sRGB;color-interpolation-filters:linearRGB;solid-color:#000000;solid-opacity:1;fill:#ffffff;fill-opacity:1;fill-rule:evenodd;stroke:none;stroke-width:0.18665318;stroke-linecap:round;stroke-linejoin:round;stroke-miterlimit:4;stroke-dasharray:none;stroke-dashoffset:0;stroke-opacity:1;color-rendering:auto;image-rendering:auto;shape-rendering:auto;text-rendering:auto;enable-background:accumulate"
         inkscape:connector-curvature="0" /></g></g></svg>