<?xml version="1.0" encoding="UTF-8" standalone="no"?>
<!-- Generator: Adobe Illustrator 13.0.0, SVG Export Plug-In . SVG Version: 6.00 Build 14948)  -->

<svg
   xmlns:ns="&amp;#38;ns_sfw;"
   xmlns:dc="http://purl.org/dc/elements/1.1/"
   xmlns:cc="http://creativecommons.org/ns#"
   xmlns:rdf="http://www.w3.org/1999/02/22-rdf-syntax-ns#"
   xmlns:svg="http://www.w3.org/2000/svg"
   xmlns="http://www.w3.org/2000/svg"
   xmlns:sodipodi="http://sodipodi.sourceforge.net/DTD/sodipodi-0.dtd"
   xmlns:inkscape="http://www.inkscape.org/namespaces/inkscape"
   version="1.1"
   id="svg2"
   x="0px"
   y="0px"
   width="567.927px"
   height="113.032px"
   viewBox="0.25 0 567.927 113.032"
   enable-background="new 0.25 0 567.927 113.032"
   xml:space="preserve"
   inkscape:version="0.91 r13725"
   sodipodi:docname="arcade_cap_udb.svg"><defs
     id="defs21" /><sodipodi:namedview
     pagecolor="#ffffff"
     bordercolor="#666666"
     borderopacity="1"
     objecttolerance="10"
     gridtolerance="10"
     guidetolerance="10"
     inkscape:pageopacity="0"
     inkscape:pageshadow="2"
     inkscape:window-width="1611"
     inkscape:window-height="901"
     id="namedview19"
     showgrid="false"
     inkscape:zoom="0.45195907"
     inkscape:cx="111.35229"
     inkscape:cy="247.18063"
     inkscape:window-x="0"
     inkscape:window-y="0"
     inkscape:window-maximized="0"
     inkscape:current-layer="g4889" /><metadata
     id="metadata3"><ns:sfw><ns:slices /><ns:sliceSourceBounds
         x="677.036"
         y="482.984"
         width="567.927"
         height="113.032"
         bottomLeftOrigin="true" /></ns:sfw><rdf:RDF><cc:Work
         rdf:about=""><dc:format>image/svg+xml</dc:format><dc:type
           rdf:resource="http://purl.org/dc/dcmitype/StillImage" /><dc:title></dc:title></cc:Work></rdf:RDF></metadata><g
     transform="matrix(0.77798037,0,0,0.77798037,1.257759,-212.53919)"
     id="g4889"><g
       id="g4937"><path
         sodipodi:nodetypes="ccccccccccccccccccccccccccccsccccccccccccccccccccccccccccccccccccccccccccccccsccccccccccsscccccccccccccc"
         inkscape:connector-curvature="0"
         id="path4285"
         transform="matrix(1.2853795,0,0,1.2853795,-1.2953527,273.19351)"
         d="M 44.617188,3.9492188 C 41.750369,3.9271241 39.172692,5.6923755 38.15625,8.3730469 28.881232,32.840337 19.951555,57.390873 10.824219,81.814453 9.6618302,84.70241 9.2269919,85.967732 9.0195312,86.277344 c -0.1949587,0.06761 -0.6546338,0.269672 -1.65625,0.61914 -2.7515151,0.960314 -4.5935591,3.55642 -4.59375,6.470704 l 0,5.4375 c 1.627e-4,3.784692 3.0668697,7.402182 6.8515626,7.402342 l 220.0957062,-0.01 c 17.59656,2.72337 35.89025,4.15291 51.40234,1.39258 1.0441,-0.20528 2.00298,-0.69574 2.80664,-1.38769 l 276.3457,0 c 3.04248,-6.1e-4 4.88603,-3.41553 4.88672,-6.458009 l 0,-88.935547 C 565.1475,7.7605849 561.43274,4.9974887 558.38477,5.015625 533.53846,5.163099 508.63475,4.9455853 483.67773,5.125 l -0.002,0 c -3.02865,0.022281 -5.76892,2.7837851 -5.76953,5.8125 0,2.059395 -5e-4,4.107967 -0.0156,6.142578 -0.0208,2.686012 2.06646,5.235146 4.70313,5.748047 l 0.002,0 c 0.35359,0.06861 0.48369,0.09089 0.74805,0.140625 0.0477,0.32341 0.17468,0.609437 0.17969,2.117188 -0.0186,5.017425 -0.0204,10.029944 -0.0176,15.041015 C 480.6718,33.184076 476.34359,26.882156 470.88867,21.740234 459.48054,10.781454 443.88877,4.896384 428.24805,5.0234375 l -0.0117,0 c -12.69175,-0.015373 -25.36811,0.015651 -38.02539,-0.00781 -1.70085,-0.00311 -3.39193,0.6948781 -4.59571,1.8964844 -1.20376,1.2015938 -1.90614,2.8929044 -1.90625,4.5937496 0,2.101711 8.6e-4,4.169925 -0.0293,6.205079 -0.0453,3.07235 2.39099,5.992863 5.42187,6.498046 0.008,0.0012 0.008,6.28e-4 0.0156,0.002 0.0287,0.294481 0.0638,0.433422 0.0781,0.867187 -0.008,20.37563 -0.008,40.757183 0,61.132813 -0.0266,1.099236 -0.0891,1.191873 -0.14453,1.503906 -0.23143,0.05464 -0.6543,0.15625 -0.6543,0.15625 -0.44275,0.04861 -0.85352,0.161462 -1.23632,0.318359 -0.48566,-0.221338 -1.02511,-0.403937 -1.62305,-0.548828 -1.73727,-0.748579 -2.22594,-2.03959 -2.73633,-3.517578 -0.0279,-0.08006 -0.057,-0.159313 -0.0879,-0.238281 -9.73503,-25.127615 -19.28074,-50.377374 -29.11328,-75.5585941 -1.02759,-2.6321815 -3.56302,-4.3642222 -6.38867,-4.3613281 -7.43118,0.0084 -14.82215,0.041759 -22.18555,-0.015625 -2.86682,-0.022095 -5.44449,1.7431567 -6.46094,4.4238281 -9.27502,24.4672901 -18.20469,49.0178261 -27.33203,73.4414061 -1.16239,2.887957 -1.59722,4.153279 -1.80469,4.462891 -0.19496,0.06761 -0.65463,0.269672 -1.65625,0.61914 -0.55115,0.192361 -1.0644,0.452628 -1.53515,0.765625 0.001,-2.687561 0,-5.369699 0,-8.060547 -6.2e-4,-3.319013 -3.01888,-6.339221 -6.33789,-6.339843 l -7.18946,0 c -2.69433,-1.62e-4 -5.2785,1.913078 -6.06445,4.490234 -0.64878,2.12843 -3.20517,4.111166 -6.31641,4.6875 -0.0726,0.01319 -0.14474,0.02716 -0.21679,0.04297 l -0.01,0.002 c -7.90067,1.76393 -16.93654,-0.524269 -22.76172,-5.96875 -0.014,-0.01276 -0.0286,-0.02472 -0.043,-0.03711 -0.011,-0.0098 -0.0221,-0.01953 -0.0332,-0.0293 -7.58679,-6.869287 -10.92663,-18.374488 -9.97265,-29.134766 0.55774,-5.319494 2.67282,-10.357523 6.10937,-13.285156 l 0.004,0 c 4.05736,-3.457855 10.59653,-4.715607 16.33984,-3.505859 l 0.0215,0.0039 0.002,0 c 2.76651,0.574243 5.21264,2.599755 5.65625,4.164062 0.032,0.113207 0.0673,0.224695 0.10547,0.335938 l 0.004,0.0059 c 0.13957,0.403784 0.0514,1.803094 -0.91406,3.542969 -1.58152,2.852362 -0.48927,6.873565 2.31836,8.533203 2.04614,1.20872 3.98465,2.335589 5.72461,3.486328 2.44091,1.614764 6.00855,1.227145 8.04687,-0.873047 5.72906,-5.904124 11.05368,-11.889468 16.58204,-17.320312 l 0.002,0 c 2.22897,-2.191104 2.44214,-6.112558 0.46484,-8.533203 C 280.55562,15.055619 270.64036,8.0613439 259.00586,5.4648438 l -0.0156,-0.00391 c -3.33346,-0.7345379 -6.72277,-1.2012837 -10.12695,-1.4003906 -1.27572,-0.074618 -2.55549,-0.1116144 -3.83398,-0.1113281 -8.94944,0.00187 -17.91056,1.844645 -26.12696,5.5917968 -0.002,0.00124 -0.004,0.00133 -0.006,0.00195 l -0.0117,0.00391 c -6.3e-4,3.734e-4 -0.003,-3.734e-4 -0.004,0 l -0.002,0.00195 C 208.62872,14.18655 200.01658,22.275055 194.94531,32.392578 194.27818,24.760715 190.68162,17.421096 184.43164,12.412109 174.99677,4.5028746 162.95169,3.7204036 153.01953,3.9941406 c -0.0349,-0.00311 -0.0705,-0.00524 -0.10547,-0.00586 -14.31405,0.046492 -28.70114,-0.094084 -43.15234,0.070313 -1.65729,0.018858 -3.29748,0.7141245 -4.46289,1.8925781 -1.16541,1.1784535 -1.84141,2.8269905 -1.8418,4.4843751 0,2.079012 0.009,4.115541 -0.0137,6.111328 -0.0336,2.987687 2.31447,5.826631 5.25586,6.351563 l 0.002,0 c 0.14738,0.0262 0.16016,0.03045 0.28125,0.05273 0.0267,0.217635 0.0893,0.150782 0.0918,0.820312 -0.0155,20.42384 -0.0154,40.853587 0,61.285157 -0.0398,1.187496 -0.0942,1.308154 -0.15039,1.660156 -0.42685,0.713358 -1.60271,0.889531 -2.22461,0.804687 -1.92069,-0.602499 -3.7259,-1.789194 -4.30664,-3.398437 -0.0279,-0.08006 -0.057,-0.159313 -0.0879,-0.238281 C 92.569657,58.757151 83.025905,33.507392 73.193359,8.3261719 72.165778,5.6939904 69.626431,3.9619497 66.800781,3.9648438 59.369605,3.9732459 51.98059,4.0066026 44.617188,3.9492188 Z"
         style="opacity:1;fill:#004099;fill-opacity:1;stroke:none;stroke-width:0.09375" /><path
         id="path4150"
         d="m 284.01257,291.341 c 14.39,-6.57 30.99,-8.11 46.42,-4.71 12.86,2.87 24.15,10.74 32.42,20.86 -7.37,7.24 -14.25,14.98 -21.45,22.4 -2.51,-1.66 -5.12,-3.17 -7.71,-4.7 1.87,-3.37 3.06,-7.38 1.75,-11.17 -1.71,-6.03 -7.57,-9.89 -13.46,-11.11 -9.59,-2.02 -20.39,-0.18 -27.97,6.28 -6.55,5.58 -9.81,14.09 -10.68,22.47 -1.44,15.98 3.3,33.29 15.46,44.3 9.64,9.01 23.79,12.53 36.6,9.67 6.37,-1.18 12.47,-5.23 14.43,-11.66 3.07,0 6.16,0 9.24,0 0,9.33 -0.01,18.65 0,27.98 -20.42,4.01 -42.03,3.93 -62.02,-2.27 -16.32,-5.22 -31.51,-15.89 -39.41,-31.41 -7.09,-13.69 -8.4,-30.34 -3.19,-44.88 4.85,-14.19 15.96,-25.9 29.57,-32.05 z"
         style="opacity:1;fill:#fcd200;fill-opacity:1;stroke:none;stroke-width:0.09375"
         inkscape:connector-curvature="0" /><path
         id="path4152"
         d="m 20.286987,382.551 c 11.81,-31.6 23.34,-63.31 35.3,-94.85 9.8,0.08 19.59,0.03 29.39,0.02 12.67,32.44 24.980003,65.02 37.560003,97.49 1.44,4.17 4.6,7.79 9.08,8.66 0.01,2.7 0.01,5.4 0.01,8.1 -14.93,0 -29.86,0 -44.790003,0 -0.01,-2.68 -0.01,-5.36 0.01,-8.03 3.03,-0.35 6.97,-2.45 5.76,-6.11 -2.71,-8.39 -6.08,-16.57 -8.95,-24.92 -11.86,0.02 -23.72,0.01 -35.57,0.01 -2.42,7.32 -5.21,14.51 -7.63,21.83 -0.64,2.11 -1.18,4.65 0.13,6.63 1.11,1.97 3.68,1.94 5.59,2.58 0.01,2.67 0.01,5.34 0.01,8.01 -11.9,0 -23.79,0 -35.69,0 0,-2.66 0,-5.32 0,-7.98 1.96,-0.74 4.21,-1.12 5.68,-2.76 2.24,-2.39 2.92,-5.73 4.11,-8.68 m 33.62,-36.61 c 7.98,-0.21 15.97,-0.15 23.95,-0.04 -4.28,-11.02 -8.7,-22.01 -12.45,-33.22 -3.47,11.21 -7.63,22.19 -11.5,33.26 z"
         style="opacity:1;fill:#fcd200;fill-opacity:1;stroke:none;stroke-width:0.09375"
         inkscape:connector-curvature="0" /><path
         id="path4154"
         d="m 140.46699,287.831 c 18.46,-0.21 36.93,-0.03 55.4,-0.09 12.2,-0.36 25.58,0.77 35.3,8.97 10.46,8.33 13.55,24.13 7.5,35.96 -4.27,8.81 -13.09,14.39 -22.14,17.34 7.4,12.34 14.75,24.7 22.29,36.95 1.88,3.36 4.86,5.9 8.53,7.11 -0.01,2.63 -0.01,5.27 -0.01,7.9 -10.87,0 -21.75,0 -32.62,0 -9.65,-16.37 -19.16,-32.82 -28.87,-49.14 -3.08,0.02 -6.15,0.01 -9.22,0.03 0.01,10.69 -0.02,21.37 0.01,32.06 0.05,2.76 0.28,6.12 2.8,7.83 1.35,0.56 2.81,0.79 4.24,1.12 0,2.7 0,5.4 0,8.1 -14.4,0 -28.81,0 -43.21,0 0,-2.65 0,-5.29 0,-7.94 2.02,-0.61 4.58,-0.66 5.8,-2.68 1.4,-2.16 1.34,-4.89 1.42,-7.37 -0.02,-26.35 -0.02,-52.7 0,-79.04 -0.01,-2.69 -0.11,-5.71 -2.07,-7.79 -1.46,-1.17 -3.43,-1.06 -5.17,-1.37 0.03,-2.65 0.02,-5.3 0.02,-7.95 m 36.16,16.07 c -0.02,10.99 0.03,21.97 -0.02,32.95 5.44,-0.03 10.88,0.07 16.32,-0.04 4.29,-0.23 8.93,-0.57 12.44,-3.34 8.89,-6.05 9.12,-22.03 -0.98,-27 -8.67,-4.04 -18.52,-2.13 -27.76,-2.57 z"
         style="opacity:1;fill:#fcd200;fill-opacity:1;stroke:none;stroke-width:0.09375"
         inkscape:connector-curvature="0" /><path
         id="path4156"
         d="m 378.50699,388.281 c 12.63,-33.47 24.78,-67.13 37.47,-100.57 9.8,0.06 19.6,0.03 29.4,0.01 12.67,32.44 24.98,65.01 37.55,97.48 1.46,4.17 4.59,7.81 9.09,8.68 0.01,2.7 0.01,5.39 0.01,8.09 -14.93,0 -29.86,0 -44.79,0 -0.01,-2.68 -0.01,-5.37 0.01,-8.05 3.05,-0.35 6.97,-2.42 5.76,-6.11 -2.72,-8.38 -6.08,-16.56 -8.95,-24.9 -11.86,0.02 -23.72,0.01 -35.57,0.01 -2.42,7.34 -5.22,14.54 -7.64,21.88 -0.64,2.1 -1.16,4.61 0.14,6.58 1.11,1.97 3.67,1.94 5.58,2.58 0.02,2.67 0.01,5.34 0.02,8.01 -11.9,0 -23.79,0 -35.69,0 0,-2.66 0,-5.32 0,-7.97 3.18,-0.79 6.46,-2.4 7.61,-5.72 m 47.2,-75.59 c -3.28,11.25 -7.58,22.18 -11.4,33.25 7.98,-0.22 15.97,-0.15 23.95,-0.04 -4.34,-11.01 -8.6,-22.06 -12.55,-33.21 z"
         style="opacity:1;fill:#fcd200;fill-opacity:1;stroke:none;stroke-width:0.09375"
         inkscape:connector-curvature="0" /><path
         id="path4158"
         d="m 500.37699,287.731 c 16.32,0.03 32.64,-0.01 48.96,0.01 17.97,-0.15 36.03,6.7 49.02,19.2 10.5,9.89 17.35,23.69 18.3,38.14 1.22,14.33 -3.25,29.41 -13.4,39.81 -10.99,11.59 -27.22,17 -42.94,17.06 -19.98,0.05 -39.96,0.01 -59.94,0.02 -0.01,-2.69 -0.01,-5.38 0,-8.07 1.9,-0.55 4.27,-0.56 5.49,-2.36 1.53,-2.22 1.5,-5.03 1.56,-7.61 -0.01,-26.31 -0.01,-52.63 0,-78.94 -0.08,-2.71 -0.06,-5.97 -2.28,-7.9 -1.28,-1.27 -3.19,-0.99 -4.81,-1.26 0.04,-2.7 0.04,-5.4 0.04,-8.1 m 36,16.15 c -0.03,27.33 0.05,54.66 -0.04,81.98 11.36,-0.23 23.72,0.94 33.83,-5.3 8.74,-5.09 14.27,-14.66 15.64,-24.55 2.56,-15.64 -2.79,-33.08 -15.7,-42.83 -9.46,-7.55 -21.95,-9.51 -33.73,-9.3 z"
         style="opacity:1;fill:#fcd200;fill-opacity:1;stroke:none;stroke-width:0.09375"
         inkscape:connector-curvature="0" /><path
         id="path4160"
         d="m 621.16609,287.821 c 32,-0.23 64.01,0.05 96.02,-0.14 0.03,8.73 -0.14,17.46 0.1,26.19 -2.8,-0.07 -5.58,-0.07 -8.36,-0.05 -0.94,-4.6 -4.04,-9.65 -9.24,-9.83 -14.11,-0.23 -28.23,-0.04 -42.34,-0.09 -0.02,8.64 0.02,17.28 -0.03,25.92 11.06,-0.06 22.12,0.13 33.18,-0.09 4.02,0.07 7.21,-3 8.07,-6.79 2.52,-0.01 5.04,-0.01 7.57,-0.02 0.01,10.41 0,20.81 0.01,31.22 -2.54,-0.04 -5.07,-0.04 -7.59,-0.05 -0.72,-4.38 -4.34,-8.06 -8.92,-8.04 -10.76,-0.2 -21.53,-0.02 -32.29,-0.08 -0.02,13.29 0.03,26.57 -0.03,39.85 14.43,-0.01 28.85,0.02 43.27,-0.01 3.19,0.02 6.66,-0.51 9.04,-2.84 2.2,-1.98 2.87,-4.99 3.6,-7.73 2.11,0 4.22,0 6.34,0 0,8.91 0,17.82 0,26.73 -32.8,0 -65.6,0 -98.4,0 0,-2.65 0,-5.29 -0.01,-7.93 4.08,-0.19 7.3,-3.38 7.11,-7.53 0.26,-26.84 0.02,-53.69 0.12,-80.53 -0.01,-3.01 0.03,-6.43 -2.17,-8.78 -1.41,-1.19 -3.37,-1.1 -5.07,-1.43 0.02,-2.65 0.02,-5.3 0.02,-7.95 z"
         style="opacity:1;fill:#fcd200;fill-opacity:1;stroke:none;stroke-width:0.09375"
         inkscape:connector-curvature="0" /></g></g></svg>