<?xml version="1.0" encoding="UTF-8" standalone="no"?>
<svg
   xmlns:ns="&amp;#38;#38;ns_sfw;"
   xmlns:dc="http://purl.org/dc/elements/1.1/"
   xmlns:cc="http://creativecommons.org/ns#"
   xmlns:rdf="http://www.w3.org/1999/02/22-rdf-syntax-ns#"
   xmlns:svg="http://www.w3.org/2000/svg"
   xmlns="http://www.w3.org/2000/svg"
   xmlns:sodipodi="http://sodipodi.sourceforge.net/DTD/sodipodi-0.dtd"
   xmlns:inkscape="http://www.inkscape.org/namespaces/inkscape"
   version="1.2"
   id="Ebene_1"
   x="0px"
   y="0px"
   width="338.64145"
   height="72.564529"
   viewBox="0 0 338.64146 72.564528"
   xml:space="preserve"
   inkscape:version="0.91 r13725"
   sodipodi:docname="arcade_sega_udb.svg"
   inkscape:label="Base Level"><defs
     id="defs15" /><sodipodi:namedview
     pagecolor="#ffffff"
     bordercolor="#666666"
     borderopacity="1"
     objecttolerance="10"
     gridtolerance="10"
     guidetolerance="10"
     inkscape:pageopacity="0"
     inkscape:pageshadow="2"
     inkscape:window-width="1920"
     inkscape:window-height="1137"
     id="namedview13"
     showgrid="false"
     inkscape:zoom="1.4556165"
     inkscape:cx="227.52621"
     inkscape:cy="74.473831"
     inkscape:window-x="-8"
     inkscape:window-y="-8"
     inkscape:window-maximized="1"
     inkscape:current-layer="Ebene_1"
     fit-margin-top="0"
     fit-margin-left="0"
     fit-margin-right="0"
     fit-margin-bottom="0" /><metadata
     id="metadata3"><ns:sfw><ns:slices /><ns:sliceSourceBounds
         x="749.163"
         y="518.519"
         width="352.675"
         height="41.963"
         bottomLeftOrigin="true" /></ns:sfw><rdf:RDF><cc:Work
         rdf:about=""><dc:format>image/svg+xml</dc:format><dc:type
           rdf:resource="http://purl.org/dc/dcmitype/StillImage" /><dc:title></dc:title><dc:date>August 2016</dc:date></cc:Work></rdf:RDF></metadata><g
     id="g5975"><g
       id="text5231"
       style="font-style:normal;font-variant:normal;font-weight:normal;font-stretch:normal;font-size:16.43777084px;line-height:125%;font-family:'SEGA LOGO FONT';-inkscape-font-specification:'SEGA LOGO FONT';letter-spacing:0px;word-spacing:0px;fill:#134e9c;fill-opacity:1;stroke:none;stroke-width:1px;stroke-linecap:butt;stroke-linejoin:miter;stroke-opacity:1"><path
         id="path5963"
         style="font-style:normal;font-variant:normal;font-weight:normal;font-stretch:normal;font-size:73.9699707px;font-family:'SEGA LOGO FONT';-inkscape-font-specification:'SEGA LOGO FONT';fill:#134e9c;fill-opacity:1"
         d="m 26.18537,63.91005 30.697537,0 -18.788372,-52.148829 q -0.22191,-0.7397 -1.33146,-1.331459 -1.109549,-0.5917601 -2.145129,-0.5917601 -1.183519,0 -2.219099,0.5917601 -0.961609,0.591759 -1.183519,1.331459 L 9.8380061,72.564537 -4.7683716e-8,72.564537 22.856721,8.0627226 q 0.51779,-1.5533694 1.479399,-2.9587988 0.96161,-1.4793994 2.367039,-2.588949 1.4794,-1.1835195 3.402619,-1.84924928 1.997189,-0.6657297314258 4.512168,-0.6657297314258 2.514979,0 4.438198,0.6657297314258 1.92322,0.66572978 3.328649,1.84924928 1.4794,1.1095496 2.441009,2.588949 0.96161,1.4054294 1.55337,2.9587988 l 22.856721,64.5018144 -43.050523,0 0,-8.654487 z m 0,-2.662918 0,-2.810859 -4.734079,14.128264 -8.950366,0 20.341742,-58.954067 q 0.14794,-0.443819 0.66573,-0.739699 0.591759,-0.36985 1.109549,-0.36985 0.51779,0 1.10955,0.36985 0.59176,0.29588 0.7397,0.739699 l 16.865153,47.636662 -27.146979,0 z m 8.432576,-27.44286 -5.917597,18.640433 12.057105,0 -6.139508,-18.640433 z" /><path
         id="path5965"
         style="font-style:normal;font-variant:normal;font-weight:normal;font-stretch:normal;font-size:73.9699707px;font-family:'SEGA LOGO FONT';-inkscape-font-specification:'SEGA LOGO FONT';fill:#134e9c;fill-opacity:1"
         d="m 66.68855,72.564537 9.838006,0 0,-50.0037 18.714402,0 q 0.59176,0 0.88764,0.44382 0.36985,0.36985 0.36985,0.887639 0,0.51779 -0.36985,0.96161 -0.29588,0.44382 -0.88764,0.44382 l -16.051483,0 0,47.266811 9.838006,0 0,-25.3717 14.646059,25.3717 10.5777,0 -21.081441,-37.058955 2.441009,0 q 2.293069,0 4.290259,-0.88764 1.997193,-0.88764 3.402623,-2.441009 1.47939,-1.553369 2.29306,-3.624529 0.81367,-2.145129 0.81367,-4.586138 0,-5.695687 -3.10673,-8.506546 -3.03277,-2.810859 -7.692882,-2.810859 l -28.922258,0 0,59.915676 z m 51.18722,0 10.05992,0 -16.86516,-30.179748 q 3.6985,-2.810859 5.84363,-7.396997 2.14513,-4.660108 2.14513,-11.021526 0,-5.029958 -1.84925,-9.394186 -1.77528,-4.364228 -4.95599,-7.618907 Q 109.07334,3.6984943 104.78308,1.8492451 100.49283,-4.2114258e-6 95.610808,-4.2114258e-6 l -28.922258,0 0,9.9859460114258 28.922258,0 q 3.106739,0 5.547752,1.0355792 2.51498,1.03558 4.29025,2.884829 1.77528,1.84925 2.73689,4.438199 0.96161,2.588948 0.96161,5.621717 0,2.958799 -0.96161,5.473778 -0.96161,2.441009 -2.51498,4.290258 -1.55337,1.84925 -3.62452,2.958799 -1.99719,1.10955 -4.142323,1.25749 l 19.971893,34.617946 z" /><path
         id="path5967"
         style="font-style:normal;font-variant:normal;font-weight:normal;font-stretch:normal;font-size:73.9699707px;font-family:'SEGA LOGO FONT';-inkscape-font-specification:'SEGA LOGO FONT';fill:#134e9c;fill-opacity:1"
         d="m 172.3535,72.564537 -28.03462,0 q -3.99438,0 -7.76684,-1.701309 -3.6985,-1.77528 -6.58333,-4.734078 -2.81086,-3.032769 -4.51217,-7.101118 -1.70131,-4.142318 -1.70131,-8.802426 l 0,-27.886679 q 0,-4.660108 1.70131,-8.728457 1.70131,-4.142318 4.51217,-7.1011168 2.88483,-3.0327688 6.58333,-4.7340781 Q 140.3245,-4.2114258e-6 144.31888,-4.2114258e-6 l 28.03462,0 0,9.8380061114258 -26.8511,0 q -2.81086,0 -5.02996,1.1095491 -2.2191,1.10955 -3.77246,2.884829 -1.4794,1.77528 -2.29307,4.068349 -0.81367,2.219099 -0.81367,4.438198 l 0,27.886679 q 0,2.219099 0.81367,4.512168 0.81367,2.219099 2.29307,3.994379 1.55336,1.775279 3.77246,2.884828 2.2191,1.10955 5.02996,1.10955 l 26.8511,0 0,9.838006 z m -24.55803,-22.338931 24.55803,0 0,9.838006 -25.88949,0 q -2.58895,0 -4.51217,-1.03558 -1.92322,-1.035579 -3.18071,-2.662919 -1.25748,-1.627339 -1.92321,-3.624528 -0.59176,-2.071159 -0.59176,-3.994379 l 0,-24.92788 q 0,-1.923219 0.59176,-3.920408 0.66573,-2.071159 1.92321,-3.698499 1.25749,-1.627339 3.18071,-2.662919 1.92322,-1.035579 4.51217,-1.035579 l 25.88949,0 0,9.838006 -24.55803,0 q -0.44382,0 -0.96161,0.51779 -0.44382,0.51779 -0.44382,1.405429 l 0,24.040241 q 0,1.923219 0.96161,1.923219 l 0.44382,0 z" /><path
         id="path5969"
         style="font-style:normal;font-variant:normal;font-weight:normal;font-stretch:normal;font-size:73.9699707px;font-family:'SEGA LOGO FONT';-inkscape-font-specification:'SEGA LOGO FONT';fill:#134e9c;fill-opacity:1"
         d="m 197.67434,63.91005 30.69754,0 -18.78838,-52.148829 q -0.22191,-0.7397 -1.33146,-1.331459 -1.10955,-0.5917601 -2.14513,-0.5917601 -1.18352,0 -2.21909,0.5917601 -0.96161,0.591759 -1.18352,1.331459 l -21.37733,60.803316 -9.838,0 22.85672,-64.5018144 q 0.51779,-1.5533694 1.4794,-2.9587988 0.96161,-1.4793994 2.36704,-2.588949 1.4794,-1.1835195 3.40262,-1.84924928 1.99719,-0.6657297314258 4.51216,-0.6657297314258 2.51498,0 4.4382,0.6657297314258 1.92322,0.66572978 3.32865,1.84924928 1.4794,1.1095496 2.44101,2.588949 0.96161,1.4054294 1.55337,2.9587988 l 22.85672,64.5018144 -43.05052,0 0,-8.654487 z m 0,-2.662918 0,-2.810859 -4.73408,14.128264 -8.95037,0 20.34174,-58.954067 q 0.14794,-0.443819 0.66573,-0.739699 0.59176,-0.36985 1.10955,-0.36985 0.51779,0 1.10955,0.36985 0.59176,0.29588 0.7397,0.739699 l 16.86516,47.636662 -27.14698,0 z m 8.43257,-27.44286 -5.91759,18.640433 12.0571,0 -6.13951,-18.640433 z" /><path
         id="path5971"
         style="font-style:normal;font-variant:normal;font-weight:normal;font-stretch:normal;font-size:73.9699707px;font-family:'SEGA LOGO FONT';-inkscape-font-specification:'SEGA LOGO FONT';fill:#134e9c;fill-opacity:1"
         d="m 267.69154,62.726531 -20.19381,0 0,-38.020565 -9.32021,0 0,47.858571 28.47844,0 q 5.3998,0 9.24624,-1.257489 3.92041,-1.25749 6.43539,-3.920409 2.51498,-2.736889 3.6985,-6.953177 1.18352,-4.290258 1.18352,-10.207856 l 0,-27.886679 q 0,-6.139508 -1.18352,-10.355796 -1.18352,-4.2902583 -3.6985,-6.9531772 Q 279.82261,2.3670349 275.9022,1.1835153 272.05576,-4.2114258e-6 266.65596,-4.2114258e-6 l -28.47844,0 0,9.8380061114258 29.44005,0 q 2.81085,0 4.73407,0.8136701 1.99719,0.739699 3.18071,2.145129 1.25749,1.405429 1.77528,3.328648 0.59176,1.92322 0.59176,4.142319 l 0,32.028997 q 0,2.219099 -0.59176,4.142318 -0.51779,1.92322 -1.77528,3.328649 -1.18352,1.40543 -3.10674,2.219099 -1.92322,0.7397 -4.73407,0.7397 z m -3.6985,-40.387604 q 0.88764,0 1.40543,0.51779 0.59176,0.51779 0.59176,1.405429 l 0,24.040241 q 0,0.887639 -0.59176,1.405429 -0.51779,0.51779 -1.40543,0.51779 l -1.62734,0 q -1.84925,0 -1.84925,-1.923219 l 0,-23.596421 -10.3558,0 0,35.357646 16.56928,0 q 2.58895,0 4.21628,-0.44382 1.70131,-0.51779 2.58895,-1.627339 0.96161,-1.10955 1.33146,-2.810859 0.36985,-1.775279 0.36985,-4.364228 l 0,-29.070199 q 0,-1.923219 -0.36985,-3.624528 -0.36985,-1.70131 -1.33146,-2.958799 -0.96161,-1.25749 -2.66292,-1.923219 -1.62733,-0.7397 -4.21628,-0.7397 l -28.47844,0 0,9.838006 25.81552,0 z" /><path
         id="path5973"
         style="font-style:normal;font-variant:normal;font-weight:normal;font-stretch:normal;font-size:73.9699707px;font-family:'SEGA LOGO FONT';-inkscape-font-specification:'SEGA LOGO FONT';fill:#134e9c;fill-opacity:1"
         d="m 290.04319,22.338927 q 0,-4.660108 1.70131,-8.728457 1.70131,-4.142318 4.51217,-7.1011168 Q 299.1415,3.4765844 302.84,1.7752751 306.61247,-4.2114258e-6 310.60685,-4.2114258e-6 l 28.03462,0 0,9.8380061114258 -26.8511,0 q -2.81086,0 -5.02996,1.1095491 -2.2191,1.10955 -3.77247,2.884829 -1.4794,1.77528 -2.29307,4.068349 -0.81367,2.219099 -0.81367,4.438198 l 0,27.886679 q 0,2.219099 0.81367,4.512168 0.81367,2.219099 2.29307,3.994379 1.55337,1.775279 3.77247,2.884828 2.2191,1.10955 5.02996,1.10955 l 26.8511,0 0,9.838006 -28.03462,0 q -3.99438,0 -7.76685,-1.701309 -3.6985,-1.77528 -6.58333,-4.734078 -2.81086,-3.032769 -4.51217,-7.101118 -1.70131,-4.142318 -1.70131,-8.802426 l 0,-27.886679 z m 12.50093,12.722835 0,-11.243436 q 0,-1.923219 0.59176,-3.920408 0.66573,-2.071159 1.92322,-3.698499 1.25749,-1.627339 3.18071,-2.662919 1.92322,-1.035579 4.51217,-1.035579 l 25.88949,0 0,9.838006 -25.66758,0 q -0.44382,0 -0.96161,0.51779 -0.44382,0.51779 -0.44382,1.405429 l 0,1.03558 21.45129,0 0,9.764036 -30.47563,0 z m 0,2.441009 30.47563,0 0,9.838006 -21.45129,0 0,0.96161 q 0,0.887639 0.44382,1.405429 0.51779,0.51779 0.96161,0.51779 l 25.66758,0 0,9.838006 -25.88949,0 q -2.58895,0 -4.51217,-1.03558 -1.92322,-1.035579 -3.18071,-2.662919 -1.25749,-1.627339 -1.92322,-3.624528 -0.59176,-2.071159 -0.59176,-3.994379 l 0,-11.243435 z" /></g></g></svg>