<?xml version="1.0" encoding="UTF-8" standalone="no"?>
<svg
   xmlns:dc="http://purl.org/dc/elements/1.1/"
   xmlns:cc="http://creativecommons.org/ns#"
   xmlns:rdf="http://www.w3.org/1999/02/22-rdf-syntax-ns#"
   xmlns:svg="http://www.w3.org/2000/svg"
   xmlns="http://www.w3.org/2000/svg"
   xmlns:sodipodi="http://sodipodi.sourceforge.net/DTD/sodipodi-0.dtd"
   xmlns:inkscape="http://www.inkscape.org/namespaces/inkscape"
   width="335.14206"
   height="127.40268"
   viewBox="0 0 335.14206 127.40268"
   version="1.1"
   xml:space="preserve"
   style="clip-rule:evenodd;fill-rule:evenodd;stroke-linejoin:round;stroke-miterlimit:1.41420996"
   id="svg11"
   sodipodi:docname="system.svg"
   inkscape:version="0.92.0 r15299"><metadata
     id="metadata17"><rdf:RDF><cc:Work
         rdf:about=""><dc:format>image/svg+xml</dc:format><dc:type
           rdf:resource="http://purl.org/dc/dcmitype/StillImage" /><dc:title></dc:title></cc:Work></rdf:RDF></metadata><defs
     id="defs15" /><sodipodi:namedview
     pagecolor="#ffffff"
     bordercolor="#666666"
     borderopacity="1"
     objecttolerance="10"
     gridtolerance="10"
     guidetolerance="10"
     inkscape:pageopacity="0"
     inkscape:pageshadow="2"
     inkscape:window-width="1920"
     inkscape:window-height="1137"
     id="namedview13"
     showgrid="false"
     units="px"
     inkscape:zoom="2.1580756"
     inkscape:cx="213.66969"
     inkscape:cy="-30.468611"
     inkscape:window-x="1912"
     inkscape:window-y="-8"
     inkscape:window-maximized="1"
     inkscape:current-layer="g4180"
     fit-margin-top="0"
     fit-margin-left="0"
     fit-margin-right="0"
     fit-margin-bottom="0" /><g
     id="g4180"
     transform="matrix(1.1526871,0,0,1.1526871,0,3.0783984e-4)"><g
       id="g5052"><path
         sodipodi:nodetypes="ccccccccccccccccccccccccccccccccccccccccccccc"
         inkscape:connector-curvature="0"
         style="fill-rule:nonzero"
         d="m 244.172,0.002 c -7.536,0.289 -12.292,8.279 -12.36,15.261 -0.402,2.214 -1.656,2.841 -4.846,2.552 -8.716,-0.572 -16.669,4.478 -22.437,10.596 -0.725,-6.498 -7.402,-9.478 -13.186,-9.778 -9.714,-2.257 -21.177,-0.411 -27.971,7.406 -1.763,-6.879 -9.67,-9.365 -16.033,-8.539 -5.019,0.336 -9.7,2.305 -14.264,4.253 -4.044,-5.823 -12.752,-4.98 -18.047,-1.41 C 108.947,15.951 98.65,18.968 97.08,26.658 95.788,30.263 93.791,33.551 91.825,36.816 88.924,26.597 91.015,15.332 86.32,5.613 79.887,-2.16 66.26,0.255 61.776,8.94 56.776,16.673 52.901,25.144 46.899,32.207 33.907,49.954 21.474,68.129 8.048,85.55 4.647,90.03 0.731,95.072 0,100.894 c 1.612,7.625 11.231,10.417 17.888,7.86 9.439,-3.109 14.368,-12.525 18.505,-20.768 2.114,-3.677 4.298,-7.323 6.783,-10.765 10.855,-0.445 21.774,-0.447 32.56,1.004 2.997,10.111 2.771,22.438 11.307,29.905 6.512,5.517 18.674,0.943 18.831,-7.957 18.235,-80.825 164.067,27.73 184.835,-34.923 0.526,-4.614 -4.303,-6.978 -8.255,-6.735 -1.839,0.411 -3.673,-1.872 -1.666,-3.051 4.993,-3.586 10.625,-9.782 8.357,-16.399 -0.684,-2.282 -4.043,-2.676 -4.752,-4.083 2.642,-8.883 -4.63,-18.14 -15.039,-17.516 -7.719,0.167 -14.465,4.466 -20.186,9.32 1.21,-7.834 6.181,-20.2667007 5.095,-23.198 -2.136,-3.31 -6.538,-3.62 -10.091,-3.586 z M 101.716,89.156 c -3.376,6.902 -1.758,17.001 5.921,20.229 6.19,2.652 13.355,0.245 18.753,-3.064 4.757,4.102 12.26,2.701 16.628,-0.936 4.552,3.911 11.538,2.227 15.896,-0.936 3.981,3.282 10.358,2.783 13.936,-0.643 6.14,3.521 14.402,1.976 19.771,-2.12 5.919,4.271 14.222,2.682 20.139,-0.748 0.864,-0.512 1.588,-1.936 2.376,-0.529 4.581,3.616 11.778,2.515 15.599,-1.602 6.194,4.17 14.753,2.941 20.661,-1.151 7.378,4.452 18.461,2.639 23.354,-4.654 2.032,-3.195 2.266,-7.359 0.642,-10.752 -2.433,-18.04 -151.21,-33.715 -173.676,6.906 z"
         id="path5366" /></g><path
       id="path5328"
       d="m 89.851,104.655 c -3.234,-1.972 -5.501,-7.444 -7.738,-18.677 -1.068,-5.366 -2.296,-10.24 -2.729,-10.831 -1.301,-1.781 -6.99,-2.571 -23.398,-2.54 -5.2,0.009 -15.092,-0.788 -16.021,0.981 -1.574,2.996 -6.081,9.372 -8.262,13.451 -5.422,10.17 -7.21,12.673 -11.038,15.446 -5.086,3.684 -12.339,3.454 -15.442,-0.492 -1.329,-1.69 -1.345,-1.922 -0.27,-4.026 0.627,-1.229 2.953,-4.628 5.168,-7.553 2.215,-2.926 7.097,-9.363 10.85,-14.305 3.752,-4.942 7.365,-10.049 8.027,-11.348 0.663,-1.3 5.832,-8.541 11.486,-16.091 12.487,-16.675 19.915,-27.58 23.132,-33.962 2.771,-5.499 4.234,-7.026 8.022,-8.377 7.689,-2.742 12.977,0.796 12.987,8.688 0.009,5.166 1.825,18.803 3.906,29.293 2.611,13.166 3.239,14.965 5.691,16.318 1.399,0.773 163.351,2.536 165.162,2.532 32.623,-0.061 29.076,-2.008 22.92,8.269 -7.25,12.102 -18.497,7.496 -31.767,7.636 -20.119,-0.986 -115.656,-7.786 -153.141,-7.094 -2.901,2.066 -2.766,4.166 0.784,12.203 5.628,12.745 4.127,21.847 -3.602,21.839 -1.376,-0.002 -3.503,-0.614 -4.727,-1.36 z M 77.166,61.234 c 0.249,-0.25 -0.4,-5.356 -1.441,-11.348 -1.93,-11.099 -4.095,-19.38 -5.254,-20.097 -1.007,-0.622 -21.587,27.45 -22.17,30.241 -0.143,0.683 1.095,1.072 4.412,1.385 5.867,0.553 23.855,0.42 24.453,-0.181 z M 246.594,4.525 c -2.031,-0.168 -4.292,0.186 -6.091,1.311 -2.622,2.4 -3.621,6.481 -4.35,9.622 -0.389,1.699 -0.703,3.539 -1.099,5.085 -0.396,1.545 -0.935,2.769 -1.421,3.198 -0.243,0.215 -0.413,0.279 -0.725,0.249 -0.704,-0.256 -1.092,-0.563 -1.676,-0.828 -5.386,-1.924 -10.895,-0.775 -15.556,1.969 -4.661,2.743 -8.528,7.068 -10.818,11.674 -0.012,0.024 -0.023,0.049 -0.032,0.074 -2.117,5.53 -5.754,11.866 -11.359,13.629 -0.505,-2.537 0.157,-5.419 1.26,-8.481 1.207,-3.347 2.821,-6.824 3.448,-10.224 1.3,-2.004 1.698,-3.667 1.134,-5.013 -0.58,-1.38 -1.967,-2.092 -3.496,-2.558 -3.059,-0.933 -7.222,-1.041 -9.47,-1.783 -0.039,-0.013 -0.079,-0.023 -0.12,-0.03 -11.803,-2.059 -22.75,6.584 -26.954,17.002 -0.019,0.045 -0.033,0.091 -0.043,0.138 -1.343,6.244 -7.877,10.131 -13.943,11.496 -0.028,0.006 -0.056,0.014 -0.083,0.023 -3.334,1.118 -5.814,-0.064 -7.381,-2.255 -1.567,-2.191 -2.072,-5.45 -0.985,-8.314 0.028,-0.075 0.046,-0.154 0.052,-0.234 0.199,-2.546 2.112,-6.855 4.562,-9.474 1.225,-1.31 2.564,-2.183 3.771,-2.374 1.185,-0.187 2.316,0.167 3.556,1.613 0.143,0.254 0.236,0.863 0.187,1.652 -0.051,0.804 -0.202,1.746 -0.278,2.654 -0.076,0.907 -0.127,1.794 0.296,2.61 0.212,0.408 0.592,0.78 1.069,0.961 0.477,0.181 1.005,0.192 1.586,0.092 l -0.32,-0.006 c 1.906,0.409 3.575,0.256 4.772,-0.701 1.16,-0.927 1.697,-2.481 1.754,-4.45 1.71,-3.136 1.583,-6.131 -0.037,-8.137 -1.634,-2.023 -4.577,-2.93 -7.994,-2.441 -6.014,-0.758 -11.517,1.46 -15.79,5.189 -4.285,3.739 -7.375,8.985 -8.679,14.408 -1.005,3.13 -0.919,6.736 0.347,9.778 1.271,3.052 3.817,5.547 7.554,6.129 l 0.005,0.001 c 7.62,1.149 15.99,0.062 22.192,-5.099 0.052,-0.043 0.098,-0.092 0.138,-0.146 0.874,-1.18 1.517,-1.576 1.748,-1.622 0.115,-0.023 0.15,-0.016 0.259,0.044 0.108,0.059 0.273,0.2 0.454,0.43 0.723,0.921 1.479,3.067 2.891,4.542 0.025,0.026 0.052,0.051 0.08,0.074 3.049,2.455 6.819,2.756 10.263,1.79 3.445,-0.967 6.628,-3.159 8.807,-5.808 l -0.023,0.028 c 0.593,-0.66 1.184,-1.285 1.691,-1.75 0.208,-0.192 0.254,-0.192 0.427,-0.317 -0.05,0.424 -0.078,0.835 -0.377,1.804 -0.031,0.102 -0.043,0.208 -0.034,0.315 0.191,2.442 1.245,4.2 2.789,5.175 1.544,0.975 3.471,1.187 5.423,0.948 3.905,-0.477 8.04,-2.699 10.106,-5.488 0.007,-0.01 0.015,-0.02 0.022,-0.03 0.884,-1.31 1.543,-1.747 1.708,-1.784 0.083,-0.019 0.069,-0.022 0.162,0.036 0.093,0.058 0.256,0.216 0.434,0.47 0.712,1.015 1.442,3.329 3.092,4.722 0.011,0.009 0.022,0.017 0.032,0.025 3.071,2.351 6.805,2.607 10.213,1.629 3.409,-0.979 6.55,-3.155 8.718,-5.782 l -0.023,0.027 c 0.593,-0.66 1.185,-1.285 1.691,-1.75 0.209,-0.193 0.256,-0.192 0.428,-0.317 -0.049,0.424 -0.078,0.835 -0.376,1.804 -0.032,0.101 -0.043,0.207 -0.035,0.312 0.185,2.431 1.23,4.186 2.764,5.164 1.535,0.977 3.453,1.198 5.398,0.969 3.889,-0.457 8.014,-2.65 10.082,-5.425 0.008,-0.012 0.017,-0.024 0.025,-0.037 0.546,-0.819 1.011,-1.355 1.362,-1.652 0.351,-0.297 0.547,-0.339 0.645,-0.339 0.098,0 0.208,0.033 0.418,0.223 0.21,0.19 0.47,0.525 0.744,0.945 0.548,0.842 1.155,2.006 1.978,3.051 0.819,1.041 1.914,2 3.415,2.25 6.306,1.71 13.537,1.388 19.51,-1.638 0.038,-0.019 0.074,-0.04 0.108,-0.064 2.334,-1.655 5.398,-3.453 7.959,-5.676 2.561,-2.223 4.674,-4.943 4.847,-8.411 0.029,-0.579 -0.522,-1.015 -1.079,-0.853 -2.785,0.807 -5.026,3.086 -7.351,5.216 -2.324,2.131 -4.697,4.12 -7.45,4.692 -0.074,0.015 -0.145,0.04 -0.212,0.074 -2.551,1.302 -5.761,1.129 -8.081,-0.16 -2.157,-1.199 -3.478,-3.252 -3.101,-6.1 6.567,-0.331 14.065,-0.65 19.215,-5.863 2.882,-2.782 3.485,-7.107 2.267,-10.608 -1.205,-3.466 -5.334,-5.747 -8.847,-5.725 -5.939,0.037 -11.417,2.061 -15.594,5.877 -4.138,3.781 -7.082,8.976 -8.33,14.36 -0.979,1.495 -3.286,4.611 -5.489,6.522 -1.115,0.967 -2.214,1.57 -2.867,1.623 -0.326,0.026 -0.525,-0.029 -0.752,-0.217 -0.194,-0.161 -0.41,-0.558 -0.604,-1.068 4.226,-14.266 9.085,-28.361 13.425,-42.64 0.112,-0.367 -0.038,-0.763 -0.364,-0.964 C 249.206,4.98 247.95,4.638 246.596,4.525 Z M 124.213,21.979 c -3.092,0.006 -5.894,1.722 -8.236,3.448 -0.956,0.703 -1.774,1.369 -2.557,1.987 0.147,-0.484 0.241,-0.951 0.223,-1.393 -0.052,-1.288 -0.979,-2.248 -2.089,-2.668 -2.22,-0.84 -5.384,-0.361 -8.046,0.581 -0.228,0.081 -0.41,0.255 -0.501,0.479 -3.802,9.396 -10.35,18.397 -9.986,28.437 0.623,6.697 1.936,5.929 8.967,5.817 0.389,-0.103 1.379,-1.511 1.516,-1.89 1.257,-3.485 3.401,-9.963 5.825,-14.556 0.017,-0.03 0.031,-0.062 0.043,-0.094 0.547,-1.44 3.148,-5.461 5.488,-7.846 1.171,-1.192 2.366,-1.923 2.78,-1.959 0.207,-0.017 0.185,-0.044 0.32,0.165 0.13,0.2 0.289,0.755 0.328,1.608 -0.394,1.069 -0.5,2.002 -0.102,2.751 0.436,0.819 1.307,1.155 2.13,1.259 1.645,0.208 3.591,-0.286 4.913,-0.582 0.345,-0.077 0.605,-0.36 0.653,-0.709 0.105,-0.762 0.569,-1.997 1.147,-3.346 0.579,-1.349 1.26,-2.834 1.772,-4.269 0.511,-1.436 0.883,-2.815 0.703,-4.094 -0.09,-0.639 -0.346,-1.268 -0.821,-1.753 -0.472,-0.481 -1.128,-0.792 -1.907,-0.939 -0.857,-0.296 -1.719,-0.436 -2.563,-0.434 z m 58.208,5.761 c 1.98,0.154 3.612,1.12 4.547,3.417 -2.547,6.781 -6.194,13.512 -11.916,17.895 l -1.04,0.496 -1.035,0.276 c -1.775,-0.206 -2.671,-0.91 -3.204,-1.988 -0.547,-1.106 -0.649,-2.711 -0.39,-4.494 0.518,-3.565 2.436,-7.759 3.8,-9.918 0.025,-0.039 0.047,-0.08 0.065,-0.123 1.377,-3.258 5.734,-5.828 9.173,-5.561 z m 44.008,0.002 c 2.114,0.02 3.871,0.959 4.92,3.538 -2.629,6.711 -6.197,13.411 -11.891,17.754 -1.219,0.567 -2.199,0.817 -2.926,0.836 -0.744,0.019 -1.221,-0.162 -1.604,-0.478 -0.767,-0.633 -1.207,-2.083 -1.205,-3.965 0.005,-3.764 1.765,-8.954 3.063,-10.751 0.046,-0.064 0.083,-0.134 0.11,-0.208 0.636,-1.767 2.077,-3.489 3.847,-4.736 1.77,-1.247 3.856,-2.007 5.686,-1.99 z m 41.568,0.348 c 0.966,-0.012 1.291,0.316 1.542,1.046 0.252,0.729 0.219,1.916 -0.145,3.15 -0.73,2.467 -2.654,4.548 -4.698,5.286 -2.512,0.907 -4.881,1.148 -4.996,0.997 -0.129,-0.1 -0.259,-0.192 -0.31,-0.336 -0.072,-0.2 -0.093,-0.507 -0.018,-0.913 0.151,-0.813 0.697,-1.955 1.451,-3.107 1.49,-2.278 3.789,-4.649 4.941,-5.505 0.944,-0.431 1.699,-0.612 2.233,-0.618 z"
       style="fill:#f4c401;fill-rule:nonzero"
       inkscape:connector-curvature="0" /><path
       id="circle5423"
       d="m 235.56,63.429 c 0,5.311 -4.37,9.681 -9.681,9.681 -5.311,0 -9.681,-4.37 -9.681,-9.681 0,-5.311 4.37,-9.681 9.681,-9.681 5.311,0 9.681,4.37 9.681,9.681 z"
       style="fill:#ffffff"
       inkscape:connector-curvature="0" /><g
       id="g5416"><path
         id="path5376"
         d="m 221.178,71.439 c -1.617,0.584 -2.634,2.58 -3.634,3.392 -2.896,-4.939 -9.817,-4.666 -14.608,-3.19 -2.5,0.931 -4.658,2.838 -6.19,4.881 -2.243,-4.454 -7.999,-4.242 -12.229,-3.912 -4.797,0.439 -10.069,4.404 -9.633,9.586 0.312,1.242 1.368,3.139 -0.579,3.504 -1.788,1.104 -2.897,2.953 -3.991,4.686 0.685,-4.204 3.748,-8.776 1.878,-12.966 -2.923,-3.297 -7.765,-2.006 -11.592,-2.889 -9.341,-0.067 -17.332,7.502 -19.599,16.27 -0.44,1.222 -3.034,5.467 -2.955,3.455 0.615,-7.399 6.984,-11.928 10.249,-18.054 2.496,-3.968 3.245,-10.747 -1.728,-13.138 -5.388,-2.92 -12.92,0.406 -14.213,6.463 -1.503,3.64 -2.113,8.46 -3.221,11.621 -1.604,-4.162 -6.999,-4.065 -10.701,-3.722 -10.767,1.563 -19.518,14.132 -14.781,24.534 2.871,5.499 10.076,6.485 15.427,4.429 2.767,-0.622 5.441,-2.579 7.617,-3.772 4.235,5.103 12.707,3.227 16.299,-1.422 3.145,4.546 9.929,4.21 13.808,0.839 1.173,-1.105 2.763,-2.047 3.763,-0.18 3.352,3.19 9.585,1.807 11.779,-2.157 5.168,4.617 13.635,3.385 18.766,-0.675 0.92,-0.995 1.66,-1.702 2.509,-0.313 5.309,4.148 12.992,2.339 18.368,-0.677 0.974,-0.804 1.65,-2.14 2.389,-2.96 3.006,6.273 12.721,5.316 15.991,-0.178 3.582,3.25 8.89,4.044 13.515,2.817 2.855,-0.545 5.404,-2.342 7.808,-3.594 2.066,1.456 4.241,2.916 6.922,2.693 6.381,0.638 14.247,-2.407 15.545,-9.363 0.84,-2.497 -1.234,-4.96 -1.493,-7.029 4.041,-1.768 4.841,-7.484 2.657,-10.957 -2.723,-3.51 -7.899,-2.665 -11.804,-2.383 -3.123,0.346 -6.108,2.243 -8.047,4.386 -1.562,-0.309 -2.374,-2.466 -4.327,-2.508 -9.84,-2.971 -20.629,4.713 -22.429,14.529 -0.455,0.79 -0.978,3.153 -1.638,3.031 0.463,-4.941 4.163,-9.841 2.358,-14.888 -1.132,-1.879 -5.904,-1.959 -8.256,-0.189 z m 22.694,5.898 c -0.924,3.652 2.72,7.785 6.417,6.204 -0.971,3.536 -6.153,6.914 -9.499,4.266 -0.935,-3.662 0,-8.148 3.082,-10.47 z m 11.263,1.032 c 1.065,1.156 -1.983,1.863 -0.375,0.102 0.122,0.057 0.297,-0.151 0.375,-0.102 z m -47.266,1.075 c 0.435,0.244 0.155,0.21 0,0 z m -11.47,3.108 c 0.626,0.868 -1.201,1.63 -0.368,0.399 0.088,-0.03 0.277,-0.54 0.368,-0.399 z m -37.739,0.274 c 2.311,1.473 0.266,4.782 -1.149,6.28 -1.208,1.524 -2.55,4.697 -4.358,4.569 -0.324,-4.019 1.293,-9.541 5.507,-10.849 z m 57.222,0.853 c 0.654,2.384 -2.17,3.869 -1.709,1.041 0.293,-0.71 1.646,-0.561 1.709,-1.041 z m 44.165,1.838 c 1.686,0.342 2.074,3.438 -0.186,2.742 -1.766,-0.447 -1.041,-2.397 0.186,-2.742 z m -67.132,0.601 c -0.414,0.674 0.086,-0.272 0,0 z m -74.891,0.191 c -0.785,3.39 2.338,7.686 6.031,6.207 1.573,-0.614 2.69,-0.989 0.823,0.73 -2.346,2.611 -5.832,5.356 -9.523,4.083 -1.724,-3.686 -0.568,-8.67 2.669,-11.02 z m 83.619,2.647 c 1.895,0.791 1.171,5.176 -0.936,3.344 -0.184,-1.085 0.644,-2.76 0.936,-3.344 z m -21.474,1.527 c 1.711,0.421 2.352,4.629 -0.088,3.489 -0.621,-1.016 -0.132,-2.464 0.088,-3.489 z"
         style="fill:#ffffff;fill-rule:nonzero"
         inkscape:connector-curvature="0" /><path
         id="path5361"
         d="m 142.245,64.296 c -2.383,-0.028 -4.936,0.974 -6.428,3.208 -0.009,0.014 -0.018,0.028 -0.026,0.043 -2.801,5.389 -3.472,11.562 -5.093,17.233 l 0.011,-0.033 c -0.561,1.505 -0.748,3.142 -1.076,4.652 -0.328,1.51 -0.785,2.871 -1.807,3.902 -0.011,0.011 -0.022,0.023 -0.032,0.035 -1.647,2.05 -3.922,4.274 -6.404,5.574 -2.451,1.283 -5.045,1.668 -7.598,0.231 -1.557,-2.327 -1.881,-5.611 -1.095,-8.603 0.794,-3.018 2.688,-5.687 5.403,-6.803 0.607,-0.152 1.042,-0.153 1.324,-0.071 0.288,0.084 0.453,0.229 0.596,0.473 0.286,0.486 0.36,1.41 0.365,2.38 0.006,0.97 -0.055,1.966 0.227,2.766 0.141,0.401 0.408,0.779 0.833,0.958 0.409,0.172 0.895,0.141 1.455,-0.031 1.135,0.176 2.056,-0.086 2.645,-0.705 0.621,-0.653 0.902,-1.572 1.061,-2.556 0.317,-1.968 0.147,-4.324 0.402,-5.476 0.045,-0.205 -0.055,-0.414 -0.243,-0.508 -7.767,-3.848 -17.689,0.847 -20.581,8.824 0,0.003 -0.005,0.007 -0.005,0.011 -2.031,3.264 -2.152,7.526 -0.632,10.736 1.515,3.199 4.789,5.325 9.25,4.163 5.094,0.216 9.752,-3.231 12.867,-6.359 0.037,1.449 0.507,2.613 1.309,3.433 1.008,1.032 2.456,1.528 3.993,1.612 3.074,0.168 6.603,-1.259 8.206,-3.869 v -0.003 c 0.667,-1.1 1.197,-1.697 1.538,-1.907 0.171,-0.105 0.275,-0.122 0.371,-0.113 0.095,0.01 0.209,0.056 0.359,0.174 0.598,0.474 1.432,2.074 2.761,3.684 0.044,0.053 0.099,0.096 0.162,0.125 3.155,1.44 6.292,0.688 8.894,-1.034 1.741,-1.152 3.241,-2.742 4.463,-4.421 0.016,0.257 -0.044,0.519 0.014,0.769 0.289,1.257 1.059,2.412 2.113,3.247 1.053,0.834 2.401,1.35 3.846,1.284 1.444,-0.066 2.968,-0.723 4.335,-2.155 0.029,-0.03 0.053,-0.065 0.073,-0.102 0.778,-1.467 1.406,-1.954 1.875,-2.033 0.47,-0.079 1.023,0.216 1.717,0.755 0.694,0.539 1.479,1.272 2.437,1.811 0.958,0.538 2.119,0.871 3.46,0.563 l -0.107,0.012 0.758,0.006 c 0.005,0.001 0.011,0.001 0.017,0 l 0.752,-0.02 -0.038,-0.001 c 2.879,0.16 6.108,-0.791 8.421,-2.636 2.313,-1.845 3.687,-4.675 2.655,-8.023 -0.329,-1.118 -1.31,-2.169 -2.441,-3.257 -1.132,-1.088 -2.435,-2.192 -3.443,-3.232 -1.008,-1.041 -1.668,-2.028 -1.683,-2.701 -0.008,-0.337 0.096,-0.619 0.437,-0.943 0.331,-0.315 0.917,-0.642 1.789,-0.936 1.024,-0.045 1.474,0.265 1.8,0.788 0.333,0.533 0.483,1.349 0.614,2.166 0.131,0.818 0.217,1.642 0.717,2.246 0.249,0.302 0.636,0.517 1.082,0.55 0.434,0.031 0.92,-0.091 1.494,-0.334 0.667,-0.193 1.128,-0.775 1.477,-1.476 0.354,-0.709 0.595,-1.575 0.707,-2.454 0.112,-0.88 0.098,-1.771 -0.102,-2.538 -0.2,-0.767 -0.611,-1.455 -1.33,-1.73 -0.015,-0.006 -0.03,-0.01 -0.046,-0.015 -2.557,-0.679 -5.827,-1.121 -8.805,-0.644 -2.978,0.478 -5.708,1.929 -6.92,4.998 0,0.006 -0.005,0.012 -0.007,0.018 -0.624,1.794 -0.013,3.5 1.011,5.019 1.024,1.518 2.469,2.919 3.671,4.255 1.202,1.335 2.126,2.604 2.237,3.701 0.055,0.549 -0.061,1.066 -0.459,1.635 -0.389,0.554 -1.076,1.15 -2.128,1.763 -1.568,0.327 -2.53,0.093 -3.133,-0.415 -0.613,-0.516 -0.93,-1.383 -1.014,-2.437 -0.167,-2.11 0.654,-4.857 1.249,-6.04 0.145,-0.288 -0.046,-0.633 -0.368,-0.661 -1.572,-0.139 -2.813,0.482 -3.777,1.42 -0.964,0.938 -1.698,2.179 -2.422,3.385 -0.723,1.206 -1.437,2.377 -2.278,3.179 -0.733,0.699 -1.574,1.053 -2.637,1.061 0.011,-4.521 1.738,-8.976 2.712,-13.558 l -0.036,0.102 c 0.438,-0.91 0.692,-1.67 0.746,-2.335 0.054,-0.665 -0.121,-1.264 -0.532,-1.679 -0.808,-0.816 -2.221,-0.902 -4.137,-0.758 -7.402,-2.295 -15.867,0.568 -19.89,7.328 v 0.004 c -1.364,2.334 -2.558,5.985 -4.222,8.816 -0.832,1.416 -1.776,2.613 -2.862,3.34 -1.003,0.67 -2.125,0.94 -3.502,0.672 -0.347,-3.414 1.103,-6.857 1.807,-10.419 3.357,-4.754 7.973,-9.098 9.924,-15.013 l -0.029,0.067 c 1.265,-2.448 1.044,-4.546 -0.07,-5.966 -1.113,-1.42 -3.019,-2.15 -5.005,-2.174 z m 0.308,4.326 c 0.448,0.273 0.71,0.637 0.776,1.219 0.083,0.744 -0.122,1.764 -0.501,2.845 -0.754,2.15 -2.137,4.523 -2.848,5.934 l -0.413,0.666 c 0.008,-0.123 -0.006,-0.185 0.012,-0.327 0.102,-0.911 0.353,-2.17 0.687,-3.519 0.621,-2.502 1.531,-5.229 2.287,-6.818 z m 126.872,0.543 c -1.042,-0.081 -2.14,-0.047 -3.188,0.032 -1.397,0.104 -2.703,0.3 -3.637,0.452 l -0.01,0.002 c -2.341,0.44 -3.905,1.431 -4.772,2.758 -0.867,1.327 -1.016,2.944 -0.688,4.556 0.644,3.174 3.082,6.413 5.94,8.111 1.155,1.859 1.066,3.121 0.47,3.981 -0.602,0.87 -1.843,1.386 -3.14,1.417 -1.298,0.031 -2.597,-0.424 -3.3,-1.292 -0.7,-0.864 -0.922,-2.168 0.053,-4.163 1.04,-1.078 1.537,-1.885 1.479,-2.633 -0.031,-0.385 -0.271,-0.73 -0.581,-0.904 -0.31,-0.174 -0.666,-0.223 -1.044,-0.208 -0.756,0.03 -1.63,0.327 -2.435,0.845 -0.805,0.519 -1.54,1.268 -1.917,2.241 v 0.007 c -0.904,2.458 -3.416,4.886 -6.184,6.043 -2.743,1.146 -5.625,1.077 -7.626,-1.185 -0.836,-2.504 -0.89,-5.597 -0.063,-8.312 0.835,-2.739 2.536,-5.066 5.164,-6.128 0.609,-0.153 1.045,-0.153 1.328,-0.07 0.288,0.084 0.453,0.229 0.596,0.472 0.286,0.487 0.361,1.411 0.366,2.381 0.005,0.97 -0.055,1.965 0.227,2.766 0.141,0.4 0.408,0.779 0.833,0.957 0.408,0.172 0.895,0.141 1.455,-0.03 1.135,0.175 2.055,-0.087 2.644,-0.706 0.621,-0.652 0.902,-1.571 1.061,-2.555 0.317,-1.968 0.147,-4.323 0.402,-5.475 0.045,-0.205 -0.055,-0.415 -0.243,-0.508 -7.295,-3.618 -16.642,0.325 -20.004,7.553 -0.006,0.013 -0.01,0.025 -0.014,0.038 -0.814,2.251 -1.813,5.431 -3.271,7.954 -0.728,1.262 -1.57,2.355 -2.531,3.088 -0.832,0.634 -1.769,0.939 -2.825,0.958 0.28,-5.131 2.235,-10.218 3.328,-15.427 l -0.036,0.105 c 0.359,-0.742 0.57,-1.355 0.625,-1.891 0.054,-0.535 -0.074,-1.041 -0.432,-1.361 -0.358,-0.321 -0.846,-0.412 -1.39,-0.393 -0.526,0.018 -1.141,0.153 -1.839,0.363 -1.743,0.064 -3.002,0.816 -3.824,1.951 -0.831,1.149 -1.258,2.646 -1.559,4.25 -0.601,3.207 -0.72,6.896 -1.905,9.044 l -0.006,0.005 c -1.764,3.31 -0.806,6.379 1.332,7.926 2.138,1.547 5.412,1.59 8.08,-0.772 l -0.206,0.104 c 0.784,-0.167 1.383,-0.817 1.984,-1.541 0.6,-0.724 1.176,-1.562 1.691,-2.193 0.258,-0.316 0.502,-0.579 0.702,-0.742 0.2,-0.164 0.34,-0.201 0.368,-0.2 0.029,0.001 0.068,-0.011 0.191,0.207 0.123,0.218 0.263,0.638 0.375,1.271 0.012,0.07 0.041,0.136 0.083,0.193 1.999,2.694 5.122,3.573 8.284,3.442 3.161,-0.132 6.406,-1.244 8.87,-2.579 0.059,-0.032 0.11,-0.077 0.15,-0.132 0.921,-1.252 1.645,-1.683 2.251,-1.755 0.606,-0.071 1.224,0.215 1.95,0.699 1.451,0.968 3.223,2.685 5.826,2.324 l -0.064,0.005 c 2.065,0.006 4.485,-0.148 6.7,-0.822 2.212,-0.673 4.24,-1.884 5.404,-3.992 0.979,-1.642 1.224,-3.176 0.95,-4.568 -0.275,-1.393 -1.046,-2.625 -2.004,-3.758 -1.877,-2.221 -4.487,-4.134 -5.921,-6.068 0,-1.301 0.366,-1.96 0.838,-2.232 0.493,-0.283 1.227,-0.232 1.99,0.149 0.763,0.381 1.513,1.077 1.965,1.91 0.452,0.834 0.616,1.782 0.278,2.756 -0.099,0.286 0.103,0.588 0.406,0.605 1.296,0.076 2.442,-0.053 3.281,-0.664 0.806,-0.587 1.182,-1.637 1.082,-3.031 0.49,-1.244 0.582,-2.286 0.294,-3.13 -0.294,-0.86 -0.967,-1.462 -1.789,-1.844 -0.822,-0.381 -1.806,-0.576 -2.848,-0.657 z m -58.677,3.981 c -0.59,-0.009 -1.228,0.052 -1.904,0.175 -3.031,-0.595 -6.532,0.606 -8.698,2.728 -1.098,1.075 -1.856,2.404 -1.965,3.87 -0.109,1.467 0.452,3.036 1.853,4.518 0.04,0.041 0.086,0.075 0.138,0.099 2.189,1.033 4.328,3.956 4.823,6.403 0.247,1.224 0.099,2.279 -0.514,2.984 -0.607,0.7 -1.746,1.147 -3.726,0.99 -1.408,-0.332 -1.987,-0.893 -2.237,-1.594 -0.252,-0.706 -0.142,-1.65 0.123,-2.653 0.264,-1.004 0.669,-2.045 0.895,-2.985 0.113,-0.471 0.184,-0.918 0.151,-1.346 -0.033,-0.429 -0.194,-0.859 -0.537,-1.16 -0.109,-0.096 -0.257,-0.134 -0.398,-0.104 -3.959,0.858 -5.782,4.516 -5.485,7.802 0.148,1.642 0.817,3.217 2.023,4.325 1.206,1.108 2.949,1.72 5.115,1.465 l -0.064,0.004 c 3.282,0.069 6.756,-0.414 9.666,-2.183 l 0.006,-0.004 c 2.982,-1.87 3.77,-4.921 3.092,-7.732 -0.678,-2.808 -2.744,-5.432 -5.449,-6.748 l -0.007,-0.004 c -1.718,-0.878 -2.264,-1.806 -2.291,-2.558 -0.027,-0.754 0.485,-1.477 1.241,-1.917 0.755,-0.439 1.698,-0.554 2.42,-0.186 0.722,0.368 1.334,1.224 1.377,3.034 l 0.033,-0.182 c -0.304,0.75 -0.209,1.456 0.203,1.888 0.412,0.432 1.009,0.574 1.602,0.58 0.592,0.007 1.203,-0.129 1.716,-0.396 0.513,-0.267 0.971,-0.699 1.031,-1.31 l -0.036,0.139 c 0.92,-2.105 1.012,-4.059 0.266,-5.533 -0.746,-1.473 -2.333,-2.377 -4.463,-2.409 z m -50.968,7.362 c 1.508,0.803 2.14,1.853 2.266,3.123 0.13,1.297 -0.314,2.848 -1.105,4.427 -1.576,3.147 -4.488,6.371 -6.373,8.097 -0.625,0.457 -1.16,0.577 -1.63,0.513 -0.474,-0.066 -0.911,-0.33 -1.284,-0.747 -0.745,-0.833 -1.154,-2.269 -0.932,-3.397 0.005,-0.017 0.005,-0.034 0.007,-0.051 0.216,-2.61 0.989,-5.777 2.471,-8.177 1.466,-2.376 3.555,-3.979 6.581,-3.788 z"
         style="fill:#98a6af;fill-rule:nonzero"
         inkscape:connector-curvature="0" /></g><path
       id="path5396"
       d="m 234.095,63.398 c 0,4.587 -3.774,8.361 -8.361,8.361 -4.586,0 -8.36,-3.774 -8.36,-8.361 0,-4.586 3.774,-8.36 8.36,-8.36 4.587,0 8.361,3.774 8.361,8.36 z"
       style="fill:#db0123"
       inkscape:connector-curvature="0" /><path
       id="circle5398"
       d="m 224.796,59.584 c 0,1.068 -0.879,1.947 -1.947,1.947 -1.068,0 -1.948,-0.879 -1.948,-1.947 0,-1.069 0.88,-1.948 1.948,-1.948 1.068,0 1.947,0.879 1.947,1.948 z"
       style="fill:#ffffff"
       inkscape:connector-curvature="0" /></g></svg>