<?xml version="1.0" encoding="UTF-8" standalone="no"?>
<svg
   xmlns:dc="http://purl.org/dc/elements/1.1/"
   xmlns:cc="http://creativecommons.org/ns#"
   xmlns:rdf="http://www.w3.org/1999/02/22-rdf-syntax-ns#"
   xmlns:svg="http://www.w3.org/2000/svg"
   xmlns="http://www.w3.org/2000/svg"
   xmlns:sodipodi="http://sodipodi.sourceforge.net/DTD/sodipodi-0.dtd"
   xmlns:inkscape="http://www.inkscape.org/namespaces/inkscape"
   width="567"
   height="129"
   viewBox="0 0 567 129"
   version="1.1"
   xml:space="preserve"
   style="clip-rule:evenodd;fill-rule:evenodd"
   id="svg137"
   sodipodi:docname="arcade_vector.svg"
   inkscape:version="0.92.0 r15299"><metadata
     id="metadata143"><rdf:RDF><cc:Work
         rdf:about=""><dc:format>image/svg+xml</dc:format><dc:type
           rdf:resource="http://purl.org/dc/dcmitype/StillImage" /><dc:title></dc:title></cc:Work></rdf:RDF></metadata><defs
     id="defs141" /><sodipodi:namedview
     pagecolor="#ffffff"
     bordercolor="#666666"
     borderopacity="1"
     objecttolerance="10"
     gridtolerance="10"
     guidetolerance="10"
     inkscape:pageopacity="0"
     inkscape:pageshadow="2"
     inkscape:window-width="1920"
     inkscape:window-height="1080"
     id="namedview139"
     showgrid="false"
     units="px"
     inkscape:snap-page="true"
     inkscape:snap-grids="false"
     inkscape:snap-to-guides="false"
     inkscape:zoom="1.266129"
     inkscape:cx="13.821656"
     inkscape:cy="71"
     inkscape:window-x="0"
     inkscape:window-y="120"
     inkscape:window-maximized="0"
     inkscape:current-layer="svg137" /><g
     id="g4755"
     transform="translate(170.61678)"><g
       transform="scale(0.91370127)"
       id="g8933"><g
         id="g8470"><path
           inkscape:connector-curvature="0"
           style="fill:#fdd039"
           d="M 10.32,0 0,31.815 v 43.793 l 11.885,34.09 h 5.672 l -9.973,11.539 v 5.476 l 11.146,14.471 h 209.629 l 11.149,-14.471 v -5.476 l -9.975,-11.539 h 5.672 L 247.09,75.608 V 31.815 L 236.77,0 Z"
           id="path6018" /><path
           inkscape:connector-curvature="0"
           d="m 21.469,112.608 -8.229,10.717 v 1.244 l 8.16,10.926 h 204.772 l 8.158,-10.926 v -1.244 l -8.228,-10.717 z"
           id="path6023" /><g
           id="text6030"><path
             inkscape:connector-curvature="0"
             style="fill:#fdd039;fill-rule:nonzero"
             d="m 40.839,116.979 -3.39,11.19 -3.433,-11.19 H 28.78 l 3.911,14.319 h 9.408 l 4.02,-14.319 z"
             id="path6032" /><path
             inkscape:connector-curvature="0"
             style="fill:#fdd039;fill-rule:nonzero"
             d="m 46.985,131.363 v -14.471 h 13.211 v 3.52 h -8.257 v 2.108 h 7.649 v 3.172 h -7.649 v 2.107 H 62.13 v 3.564 z"
             id="path6034" /><path
             inkscape:connector-curvature="0"
             style="fill:#fdd039;fill-rule:nonzero"
             d="m 75.652,128.169 v 3.324 h -4.368 c -1.274,0 -2.426,-0.159 -3.454,-0.478 -1.029,-0.333 -1.905,-0.811 -2.629,-1.434 -0.71,-0.637 -1.261,-1.419 -1.652,-2.347 -0.376,-0.927 -0.565,-1.991 -0.565,-3.194 0,-2.361 0.703,-4.179 2.108,-5.453 1.405,-1.289 3.39,-1.934 5.953,-1.934 h 4.607 v 3.324 h -4.498 c -0.652,0.058 -1.166,0.174 -1.543,0.348 -0.376,0.174 -0.717,0.464 -1.021,0.869 -0.434,0.608 -0.652,1.543 -0.652,2.803 0,1.217 0.225,2.195 0.674,2.933 0.463,0.739 1.253,1.152 2.368,1.239 z"
             id="path6036" /><path
             inkscape:connector-curvature="0"
             style="fill:#fdd039;fill-rule:nonzero"
             d="m 76.522,120.303 v -3.455 h 15.036 v 3.455 h -5.106 v 10.929 h -4.933 v -10.929 z"
             id="path6038" /><path
             inkscape:connector-curvature="0"
             style="fill:#fdd039;fill-rule:nonzero"
             d="m 92.012,124.084 c 0,-2.332 0.724,-4.15 2.172,-5.454 1.449,-1.318 3.47,-1.977 6.063,-1.977 2.65,0 4.693,0.645 6.127,1.934 1.434,1.274 2.151,3.063 2.151,5.367 -0.015,2.448 -0.71,4.316 -2.086,5.605 -1.362,1.275 -3.361,1.912 -5.997,1.912 -1.275,0 -2.433,-0.159 -3.476,-0.478 -1.043,-0.333 -1.934,-0.811 -2.673,-1.434 -0.724,-0.622 -1.289,-1.39 -1.695,-2.303 -0.391,-0.927 -0.586,-1.984 -0.586,-3.172 z m 4.932,0.022 c 0,1.448 0.297,2.491 0.891,3.128 0.608,0.623 1.419,0.935 2.433,0.935 1.072,0 1.898,-0.312 2.477,-0.935 0.58,-0.622 0.869,-1.731 0.869,-3.324 0,-1.347 -0.304,-2.332 -0.912,-2.955 -0.609,-0.623 -1.434,-0.934 -2.477,-0.934 -0.985,0 -1.782,0.318 -2.39,0.956 -0.594,0.637 -0.891,1.68 -0.891,3.129 z"
             id="path6040" /><path
             inkscape:connector-curvature="0"
             style="fill:#fdd039;fill-rule:nonzero"
             d="m 114.734,131.232 h -5.323 v -14.34 h 8.213 c 0.811,0 1.608,0.087 2.39,0.261 0.797,0.159 1.507,0.441 2.13,0.847 0.623,0.391 1.122,0.913 1.499,1.564 0.391,0.652 0.579,1.456 0.565,2.412 -0.015,0.783 -0.094,1.434 -0.239,1.956 -0.131,0.507 -0.304,0.934 -0.522,1.282 -0.202,0.333 -0.434,0.601 -0.695,0.804 -0.246,0.203 -0.478,0.376 -0.695,0.521 l -0.609,0.196 c 0.029,0.101 0.044,0.224 0.044,0.369 0,0.13 0.123,0.254 0.369,0.369 0.246,0.116 0.674,0.218 1.282,0.305 0.609,0.072 1.521,0.108 2.738,0.108 v 3.412 h -4.498 c -0.797,-0.174 -1.506,-0.42 -2.129,-0.739 -0.609,-0.333 -1.173,-0.71 -1.695,-1.13 -0.521,-0.435 -1.014,-0.898 -1.477,-1.391 -0.449,-0.492 -0.899,-0.977 -1.348,-1.455 z m 0.044,-10.559 v 2.846 h 1.977 c 1.318,0 2.231,-0.109 2.738,-0.326 0.507,-0.232 0.76,-0.637 0.76,-1.217 0,-0.188 -0.05,-0.362 -0.152,-0.521 -0.101,-0.16 -0.289,-0.297 -0.565,-0.413 -0.26,-0.116 -0.623,-0.203 -1.086,-0.261 -0.449,-0.072 -1.029,-0.108 -1.738,-0.108 z"
             id="path6042" /><path
             inkscape:connector-curvature="0"
             style="fill:#fdd039;fill-rule:nonzero"
             d="m 152.994,123.693 v 7.778 l -7.062,-0.021 c -1.275,0 -2.426,-0.16 -3.455,-0.478 -1.028,-0.333 -1.904,-0.811 -2.629,-1.434 -0.71,-0.638 -1.26,-1.42 -1.651,-2.347 -0.377,-0.927 -0.565,-1.992 -0.565,-3.194 0,-2.361 0.703,-4.179 2.108,-5.454 1.405,-1.289 3.389,-1.934 5.953,-1.934 h 4.606 v 3.325 h -4.497 c -0.652,0.058 -1.166,0.174 -1.543,0.348 -0.377,0.173 -0.717,0.463 -1.021,0.869 -0.435,0.608 -0.652,1.542 -0.652,2.803 0,1.216 0.225,2.194 0.674,2.933 0.463,0.739 1.253,1.151 2.368,1.238 h 3.237 v -1.521 h -2.281 v -2.911 z"
             id="path6044" /><path
             inkscape:connector-curvature="0"
             style="fill:#fdd039;fill-rule:nonzero"
             d="m 165.902,131.232 -0.891,-2.563 h -5.193 l -0.738,2.563 h -5.237 l 3.911,-14.318 h 9.408 l 4.02,14.318 z m -5.236,-5.671 h 3.737 l -1.999,-5.649 z"
             id="path6046" /><path
             inkscape:connector-curvature="0"
             style="fill:#fdd039;fill-rule:nonzero"
             d="m 172.049,131.232 v -14.318 h 5.019 l 4.172,7.387 3.715,-7.387 h 5.02 v 14.318 h -5.02 v -6.779 l -3.715,6.779 -4.172,-6.779 v 6.779 z"
             id="path6048" /><path
             inkscape:connector-curvature="0"
             style="fill:#fdd039;fill-rule:nonzero"
             d="m 190.849,131.363 v -14.471 h 13.21 v 3.52 h -8.256 v 2.108 h 7.648 v 3.172 h -7.648 v 2.107 h 10.19 v 3.564 z"
             id="path6050" /><path
             inkscape:connector-curvature="0"
             style="fill:#fdd039;fill-rule:nonzero"
             d="m 202.364,131.363 v -3.455 h 7.236 c 0.289,-0.087 0.499,-0.167 0.63,-0.239 0.13,-0.087 0.13,-0.304 0,-0.652 -0.116,-0.362 -0.391,-0.941 -0.826,-1.738 -0.434,-0.797 -1.079,-1.956 -1.934,-3.477 -0.318,-0.651 -0.485,-1.274 -0.499,-1.868 -0.015,-0.609 0.115,-1.137 0.391,-1.586 0.275,-0.449 0.695,-0.804 1.26,-1.065 0.565,-0.275 1.282,-0.413 2.151,-0.413 l 8.018,-0.022 v 3.52 h -5.324 c -0.304,-0.014 -0.485,0.044 -0.543,0.174 -0.043,0.116 0.051,0.384 0.283,0.804 0.231,0.42 0.608,1.036 1.129,1.847 0.536,0.797 1.239,1.861 2.108,3.194 0.29,0.377 0.493,0.847 0.608,1.412 0.131,0.565 0.102,1.116 -0.087,1.652 -0.173,0.521 -0.543,0.97 -1.108,1.347 -0.565,0.377 -1.39,0.565 -2.477,0.565 z"
             id="path6052" /></g><path
           inkscape:connector-curvature="0"
           d="M 15.438,7.04 7.04,32.928 v 41.488 l 9.847,28.242 H 230.203 L 240.05,74.416 V 32.928 L 231.652,7.04 Z"
           id="path6166" /><g
           id="g6164"><path
             inkscape:connector-curvature="0"
             style="fill:#ca0000;fill-rule:nonzero;stroke:#ca0000;stroke-width:0.12px"
             d="m 176.205,35.845 c -0.113,-0.568 -0.175,-1.143 -0.152,-1.721 0.472,0.1 0.738,0.431 0.769,0.898 0.863,4.502 1.757,8.999 2.623,13.503 0.153,1.034 1.038,1.698 1.662,2.461 2.437,2.791 4.882,5.576 7.302,8.38 0.442,0.498 0.903,1.032 1.569,1.214 4.406,1.513 8.813,3.032 13.215,4.555 0.492,0.205 1.027,0.175 1.541,0.072 4.14,-0.82 8.292,-1.601 12.441,-2.381 0.553,-0.101 1.104,-0.286 1.528,-0.675 3.331,-2.899 6.661,-5.801 10.016,-8.677 0.445,-0.369 0.822,-0.824 0.98,-1.393 1.388,-4.038 2.766,-8.082 4.176,-12.112 0.22,-0.547 0.315,-1.141 0.163,-1.722 -0.759,-3.84 -1.52,-7.681 -2.264,-11.525 -0.258,-1.023 -0.221,-2.188 -0.86,-3.072 -3.238,-3.842 -6.715,-7.495 -9.839,-11.43 0.733,-0.156 1.16,0.457 1.588,0.929 2.559,2.984 5.163,5.931 7.754,8.888 0.671,0.807 1.602,1.528 1.727,2.644 0.812,4.268 1.657,8.531 2.503,12.794 0.042,0.389 0.179,0.795 0.062,1.179 -1.737,4.566 -3.21,9.226 -4.84,13.829 -0.139,0.468 -0.463,0.832 -0.824,1.142 -3.416,2.951 -6.824,5.908 -10.234,8.869 -0.698,0.631 -1.686,0.649 -2.557,0.843 -3.571,0.673 -7.141,1.369 -10.712,2.035 -0.739,0.136 -1.465,0.326 -2.165,0.588 -4.38,-1.44 -8.715,-3.013 -13.089,-4.471 -0.575,-0.22 -1.233,-0.355 -1.644,-0.849 -3.142,-3.62 -6.302,-7.227 -9.465,-10.832 -0.338,-0.368 -0.402,-0.884 -0.511,-1.353 -0.798,-4.209 -1.62,-8.411 -2.463,-12.61 z"
             id="path1159" /><path
             inkscape:connector-curvature="0"
             style="fill:#ca0000;fill-rule:nonzero;stroke:#ca0000;stroke-width:0.12px"
             d="m 180.793,20.539 c 0.279,-0.508 0.693,-0.916 1.129,-1.288 2.749,-2.348 5.475,-4.719 8.2,-7.091 0.934,-0.795 1.792,-1.733 2.953,-2.201 -0.18,0.652 -0.578,1.195 -1.107,1.607 -3.557,3.007 -7.01,6.147 -10.6,9.111 -0.144,-0.037 -0.432,-0.105 -0.575,-0.138 z"
             id="path1161" /><path
             inkscape:connector-curvature="0"
             style="fill:#c8fb64;fill-rule:nonzero;stroke:#c8fb64;stroke-width:0.12px"
             d="m 183.195,30.103 c 0.044,-0.548 0.059,-1.138 0.42,-1.592 1.921,-2.847 3.84,-5.698 5.74,-8.558 0.282,-0.388 0.536,-0.845 0.997,-1.051 3.51,-1.773 7.106,-3.385 10.579,-5.235 3.635,0.246 7.267,0.529 10.902,0.772 0.587,0.051 1.216,0.057 1.698,0.447 2.955,1.981 5.892,3.988 8.861,5.949 0.517,0.288 0.82,0.796 1.068,1.316 1.552,3.207 3.098,6.421 4.691,9.61 0.229,0.385 0.263,0.834 0.217,1.268 -0.25,3.373 -0.51,6.745 -0.727,10.123 -0.057,0.521 -0.019,1.095 -0.369,1.528 -1.942,2.899 -3.91,5.78 -5.828,8.694 -0.283,0.447 -0.631,0.862 -1.118,1.081 -3.46,1.738 -6.997,3.326 -10.409,5.152 -4.015,-0.336 -8.052,-0.484 -12.053,-0.935 -3.18,-1.949 -6.209,-4.154 -9.339,-6.193 -0.948,-0.481 -1.187,-1.574 -1.655,-2.434 -1.485,-3.007 -2.893,-6.058 -4.441,-9.03 0.232,-3.64 0.54,-7.273 0.766,-10.912 m -0.405,10.174 c -0.051,0.467 -0.017,0.944 0.213,1.361 1.631,3.344 3.261,6.688 4.887,10.037 2.783,1.824 5.526,3.708 8.295,5.556 0.83,0.529 1.614,1.312 2.675,1.262 3.703,0.219 7.403,0.594 11.11,0.742 3.081,-1.377 6.069,-2.968 9.133,-4.396 0.635,-0.328 1.382,-0.571 1.771,-1.217 1.959,-2.894 3.879,-5.811 5.853,-8.693 0.222,-0.38 0.57,-0.732 0.542,-1.207 0.247,-3.584 0.513,-7.166 0.778,-10.747 0.054,-0.513 -0.015,-1.031 -0.267,-1.486 -1.333,-2.704 -2.655,-5.41 -3.958,-8.125 -0.41,-0.755 -0.642,-1.706 -1.445,-2.15 -2.731,-1.791 -5.425,-3.636 -8.133,-5.46 -0.668,-0.441 -1.327,-1.002 -2.178,-0.968 -3.709,-0.23 -7.417,-0.602 -11.13,-0.749 -3.356,1.446 -6.586,3.2 -9.904,4.744 -0.828,0.306 -1.239,1.115 -1.705,1.801 -1.709,2.561 -3.424,5.12 -5.151,7.669 -0.237,0.406 -0.611,0.778 -0.601,1.278 -0.269,3.583 -0.51,7.167 -0.785,10.748 z"
             id="path1163" /><path
             inkscape:connector-curvature="0"
             style="fill:#c8fb64;fill-rule:nonzero;stroke:#c8fb64;stroke-width:0.12px"
             d="m 188.429,39.222 c -0.229,-1.279 -0.601,-2.534 -0.756,-3.827 0.861,-2.746 1.912,-5.44 2.769,-8.194 0.222,-0.761 1.034,-1.092 1.554,-1.627 1.752,-1.599 3.71,-2.982 5.317,-4.735 3.027,-0.71 6.159,-1.021 9.126,-1.95 2.661,0.911 5.315,1.829 7.974,2.746 0.819,0.178 1.224,0.956 1.744,1.526 1.51,1.751 3.029,3.493 4.565,5.221 0.277,0.275 0.435,0.638 0.511,1.017 0.539,2.816 1.117,5.631 1.72,8.432 -0.979,2.933 -1.961,5.876 -3.058,8.768 -2.376,1.721 -4.497,3.772 -6.726,5.679 -0.442,0.231 -0.948,0.277 -1.429,0.376 -2.285,0.402 -4.556,0.897 -6.839,1.325 -0.539,0.141 -1.058,-0.113 -1.561,-0.268 -2.054,-0.727 -4.119,-1.423 -6.171,-2.149 -0.552,-0.203 -1.127,-0.332 -1.713,-0.357 -2.087,-2.375 -4.155,-4.769 -6.237,-7.148 0.04,-0.974 -0.197,-1.928 -0.386,-2.877 -0.081,0.198 -0.239,0.603 -0.317,0.803 l -0.266,-0.095 c 0.128,-0.39 0.257,-0.783 0.386,-1.176 -0.404,0.251 -0.813,0.49 -1.237,0.706 0.214,-0.238 0.636,-0.715 0.85,-0.953 -0.636,0.124 -1.275,0.243 -1.925,0.205 0.664,-0.312 1.386,-0.454 2.1,-0.601 -0.268,-0.099 -0.803,-0.299 -1.071,-0.397 0.23,-0.028 0.689,-0.084 0.918,-0.109 -0.41,-0.406 -0.832,-0.834 -1.007,-1.402 0.398,0.339 0.79,0.691 1.166,1.06 m -0.479,-3.775 c 0.353,1.384 0.547,2.81 1.085,4.142 0.106,-0.307 0.316,-0.918 0.421,-1.221 l 0.285,0.094 c -0.097,0.269 -0.286,0.802 -0.382,1.071 0.255,-0.154 0.763,-0.461 1.013,-0.614 -0.142,0.222 -0.431,0.66 -0.574,0.882 0.53,-0.097 1.068,-0.17 1.607,-0.22 -0.442,0.351 -0.995,0.443 -1.529,0.543 0.133,0.152 0.401,0.459 0.537,0.613 -0.247,-0.079 -0.74,-0.243 -0.987,-0.322 0.446,0.541 0.944,1.065 1.176,1.743 -0.478,-0.401 -0.895,-0.862 -1.307,-1.325 -0.014,1.09 0.218,2.159 0.384,3.229 1.955,2.273 3.947,4.514 5.902,6.787 2.899,0.668 5.633,1.913 8.483,2.766 0.347,0.142 0.719,0.031 1.076,-0.019 2.57,-0.508 5.139,-1.027 7.716,-1.507 2.105,-1.893 4.287,-3.693 6.424,-5.55 0.284,-0.261 0.592,-0.532 0.691,-0.929 0.908,-2.608 1.804,-5.22 2.693,-7.834 -0.771,-2.884 -1.256,-5.836 -1.848,-8.763 -1.638,-1.855 -3.268,-3.72 -4.883,-5.595 -0.557,-0.61 -1.025,-1.404 -1.893,-1.596 -2.515,-0.858 -5.024,-1.736 -7.542,-2.584 -2.768,0.852 -5.673,1.151 -8.487,1.808 -0.369,0.067 -0.631,0.355 -0.914,0.572 -1.913,1.694 -3.879,3.33 -5.807,5.01 -0.5,0.366 -0.646,0.989 -0.845,1.541 -0.81,2.433 -1.663,4.852 -2.495,7.278 z"
             id="path1167" /><path
             inkscape:connector-curvature="0"
             style="fill:#a58403;fill-rule:nonzero;stroke:#a58403;stroke-width:0.12px"
             d="m 196.53,33.057 1.129,6.552 3.984,2.811 -1.091,-7.285 1.588,0.89 -0.286,7.864 0.714,0.13 2.91,-7.357 1.865,-0.054 -4.066,6.205 4.957,-1.227 3.663,-5.385 -3.79,-0.015 1.681,-2.694 -5.445,0.059 -4.787,-2.277 0.379,3.105 z m 0.477,0.507 3.03,1.391 1.191,6.728 -3.147,-2.496 z m 3.014,-1.539 4.306,1.938 4.736,-0.029 -1.525,2.253 -2.288,0.014 -0.677,1.591 -2.086,-0.407 0.102,-1.573 -2.088,-1.093 z m 2.433,6.138 1.883,0.332 -2.057,5.171 z m 1.655,4.049 3.618,-5.551 3.481,-0.084 -3.167,4.557 z"
             id="path1171" /><path
             inkscape:connector-curvature="0"
             style="fill:#4600b0;fill-rule:nonzero;stroke:#4600b0;stroke-width:0.12px"
             d="m 186.248,92.551 c 1.228,-1.21 2.802,-1.99 4.064,-3.153 1.147,-1.751 1.767,-3.788 2.836,-5.585 -0.083,1.828 -1.431,3.296 -1.98,4.998 0.63,-0.396 1.259,-0.796 1.902,-1.176 0.258,0.656 0.516,1.314 0.796,1.961 0.316,-1.474 0.427,-2.984 0.737,-4.457 0.043,-0.315 0.265,-0.55 0.452,-0.791 -0.121,2.057 -0.766,4.057 -0.821,6.115 0.34,1.587 1.23,3.008 1.496,4.62 -0.752,-0.603 -1.432,-1.284 -2.106,-1.973 l -0.118,0.781 c -0.197,-0.681 -0.395,-1.382 -0.891,-1.915 0.134,0.76 0.467,1.464 0.924,2.084 -0.104,0.244 -0.31,0.733 -0.411,0.982 -0.528,-1.296 -0.875,-2.653 -1.238,-3.999 -1.154,0.974 -2.192,2.127 -3.564,2.797 0.284,-0.633 0.6,-1.251 0.917,-1.868 -0.987,0.245 -1.981,0.475 -2.995,0.579 m 1.603,-0.71 c 1.447,-0.275 2.838,-0.781 4.234,-1.238 0.445,0.569 0.902,1.133 1.351,1.7 0.091,-0.564 0.184,-1.126 0.289,-1.688 -0.274,-0.809 -0.557,-1.612 -0.851,-2.411 -0.996,0.802 -2.572,1.297 -2.59,2.817 -0.145,-0.015 -0.439,-0.047 -0.587,-0.067 l 0.417,-0.706 c -0.805,0.456 -1.562,0.991 -2.263,1.593 m 1.559,0.66 c 0.368,0.199 0.875,-0.369 0.793,-0.743 -0.386,-0.23 -0.896,0.355 -0.793,0.743 m 4.423,0.074 c 0.225,0.461 0.667,0.774 1.006,1.149 -0.204,-0.838 -0.511,-1.646 -0.875,-2.423 -0.035,0.319 -0.099,0.954 -0.131,1.274 z"
             id="path1183" /><path
             inkscape:connector-curvature="0"
             style="fill:#d7d4c5;fill-rule:nonzero;stroke:#d7d4c5;stroke-width:0.12px"
             d="m 197.212,76.415 c -0.593,-0.23 -0.649,-0.743 -0.587,-1.279 0.365,0.091 0.726,0.184 1.092,0.279 -0.166,0.336 -0.334,0.668 -0.505,1 z"
             id="path1191" /></g><g
           id="g8367"><path
             inkscape:connector-curvature="0"
             style="fill:#0806e5;fill-rule:nonzero;stroke:#0806e5;stroke-width:0.13px"
             d="m 97.183,34.619 c 1.268,-0.4 2.549,-0.786 3.875,-0.963 -0.116,0.154 -0.342,0.457 -0.458,0.608 -5.111,1.441 -10.26,2.742 -15.362,4.214 12.257,12.717 22.04,24.71 33.44,36.196 0.243,0.006 0.728,0.02 0.97,0.024 -0.01,0.15 -0.027,0.443 -0.037,0.59 -0.157,0.052 -0.475,0.147 -0.636,0.195 -0.806,0.844 -1.332,1.899 -1.65,3.012 l -0.171,-0.133 c 0.004,-0.202 0.161,-0.912 0.164,-1.113 L 74.11,55.16 c 0.038,7.53 0.034,15.06 0.007,22.587 l 42.818,1.889 0.216,-0.526 0.239,-0.39 c 0.205,0.68 0.437,1.349 0.724,1.995 l 0.062,0.184 c -0.164,0.021 -0.489,0.062 -0.653,0.082 -0.085,-0.208 -0.256,-0.628 -0.341,-0.837 L 74.513,78.229 c 3.338,5.228 6.782,10.385 10.052,15.658 1.418,-0.345 2.788,-0.851 4.135,-1.411 0.17,0.103 0.505,0.304 0.673,0.407 -1.319,0.481 -2.628,0.997 -3.95,1.482 5.231,1.174 10.37,2.745 15.553,4.118 6.126,-5.276 12.485,-10.282 18.638,-15.528 0.055,-0.181 0.161,-0.546 0.212,-0.727 -0.089,0.116 -0.273,0.351 -0.362,0.468 -0.055,-0.147 -0.157,-0.441 -0.209,-0.588 l 0.045,-0.307 c 0.482,0.095 0.963,0.188 1.452,0.252 0.137,-0.064 0.41,-0.191 0.55,-0.256 0.082,0.198 0.25,0.595 0.332,0.796 -1.494,2.182 -3.424,4.026 -5.095,6.075 4.674,0.011 9.345,-0.034 14.016,0.017 -1.251,-1.314 -2.303,-2.807 -3.636,-4.04 0.147,-0.191 0.301,-0.382 0.451,-0.573 1.849,2.192 3.516,4.682 6.085,6.099 2.122,1.267 4.046,2.865 6.263,3.961 0,0.581 0.673,0.796 1.155,0.772 -0.195,0.208 0.134,0 0,0 -0.208,-0.427 -0.649,-0.823 -1.155,-0.772 l -3.785,-3.305 c -2.966,-2.558 -6.103,-4.915 -9,-7.548 -0.161,0.281 -0.321,0.557 -0.482,0.834 -0.885,-1.196 -1.841,-2.883 -3.587,-2.623 -0.404,0.372 -0.81,0.744 -1.23,1.103 0.017,-0.256 0.058,-0.768 0.075,-1.024 0.338,-0.192 0.683,-0.373 1.028,-0.55 l 0.072,0.003 c 1.015,0.062 2.088,0.106 2.904,0.792 -0.055,0.058 -0.16,0.178 -0.215,0.236 0.055,-0.058 0.16,-0.178 0.215,-0.236 0.113,0.065 0.342,0.192 0.455,0.257 0.628,-0.082 1.253,-0.199 1.882,-0.294 0.178,-0.219 0.356,-0.437 0.53,-0.656 l 0.106,0.294 c 0.188,0.464 0.608,0.717 1.066,0.854 l 32.677,11.611 c 3.356,-5.222 6.708,-10.45 10.1,-15.648 l -42.668,1.909 c -0.123,0.229 -0.362,0.683 -0.485,0.908 -0.15,-0.041 -0.458,-0.126 -0.608,-0.17 0.218,-0.311 0.437,-0.622 0.659,-0.929 -0.048,-1.124 0.301,-2.411 -0.471,-3.364 -0.503,-0.977 -1.517,-1.468 -2.556,-1.643 -0.188,0.072 -0.567,0.212 -0.755,0.284 -0.318,0.365 -0.656,0.714 -0.994,1.062 -0.39,-0.113 -0.78,-0.219 -1.169,-0.321 l 0.253,-0.188 c 0.123,-0.044 0.362,-0.13 0.482,-0.171 1.342,-6.041 2.449,-12.126 3.717,-18.181 0.854,-4.501 1.9,-8.965 2.679,-13.479 -4.767,-0.014 -9.533,0.02 -14.299,0 l -0.383,-0.021 0.246,-0.314 c 4.93,-0.041 9.864,0.038 14.794,-0.038 4.88,-3.466 10.018,-6.556 14.925,-9.982 2.087,0.338 4.049,1.271 6.16,1.455 3.506,1.335 7.244,1.943 10.797,3.135 2.74,4.716 5.901,9.18 8.788,13.807 0.547,0.885 1.128,1.749 1.729,2.595 -0.089,0.55 -0.171,1.104 -0.168,1.66 -0.01,6.601 -0.003,13.199 -0.006,19.797 -0.007,0.676 0.058,1.352 0.16,2.022 -3.635,5.471 -7.151,11.013 -10.711,16.532 l -16.63,4.627 c -4.568,-3.268 -9.375,-6.198 -14.029,-9.347 -0.577,-0.351 -1.127,-0.881 -1.852,-0.83 -4.445,-0.034 -8.89,-0.01 -13.332,-0.01 -0.454,-0.054 -0.833,0.202 -1.189,0.441 -4.869,3.278 -9.888,6.345 -14.675,9.743 -1.178,-0.594 -2.501,-0.769 -3.751,-1.154 -4.21,-1.165 -8.44,-2.275 -12.652,-3.419 -1.036,-1.27 -1.842,-2.708 -2.7,-4.098 -0.082,0.01 -0.242,0.031 -0.324,0.041 0.082,-0.492 -0.277,-0.881 -0.499,-1.274 -2.453,-3.722 -4.818,-7.503 -7.295,-11.211 0.12,-7.746 0.01,-15.494 0.055,-23.239 -0.021,-0.526 0.376,-0.929 0.611,-1.363 3.202,-4.815 6.256,-9.726 9.437,-14.555 0.352,-0.574 0.861,-1.082 1.558,-1.185 3.943,-1.014 7.852,-2.168 11.805,-3.145 m 49.072,-0.243 c -6.491,13.324 -13.746,27.421 -19.182,39.171 -0.615,0.211 -0.642,0.488 -0.079,0.826 0.093,0.181 0.274,0.543 0.366,0.728 l 0.307,-0.39 c 0.151,0.028 0.451,0.082 0.602,0.109 11.469,-11.802 23.098,-25.371 33.727,-36.281 -4.576,-1.311 -9.192,-2.476 -13.767,-3.777 -0.649,-0.17 -1.298,-0.396 -1.974,-0.386 m -13.804,8.811 c -0.53,0.389 -1.292,0.7 -1.316,1.462 -2.036,10.016 -4.072,20.036 -6.051,30.062 -0.242,0.55 0.824,0.195 0.981,-0.037 0.277,-0.315 0.345,-0.656 0.202,-1.025 l 18.986,-38.812 c -4.315,2.705 -8.535,5.57 -12.802,8.35 M 84.569,38.765 C 81.251,44.13 77.67,49.331 74.373,54.713 l 43.191,22.102 -0.078,-0.512 0.283,-0.017 c 0,-0.144 -0.003,-0.431 -0.007,-0.574 0.291,-0.127 0.564,-0.287 0.824,-0.478 C 106.894,63.553 94.684,49.189 84.569,38.765 m 77.881,0.071 -33.716,36.483 c 0.31,0.492 0.615,0.984 0.915,1.482 l 42.942,-22.078 c -0.379,-0.85 -0.878,-1.632 -1.435,-2.373 m -41.343,25.158 c 0.004,0.724 0.007,1.448 0.007,2.175 l 43.031,-1.973 c -0.007,-7.507 0.01,-15.016 -0.011,-22.522 l -43.027,22.32 m -2.668,4.853 0.089,0.229 -0.294,-0.038 c 0.728,0.768 1.561,1.424 2.419,2.039 0.123,0.454 0.427,0.727 0.909,0.823 5.234,4.374 10.588,8.619 15.727,13.1 l 15.994,-4.249 -29.992,-10.73 c -0.447,-0.341 -1.388,-0.577 -1.828,-0.925 -0.161,0.096 -0.479,0.29 -0.639,0.386 -0.229,-0.587 -1.302,-0.977 -1.794,-0.608 l -0.246,-0.188 -0.345,0.161 m -18.7,10.583 c -0.468,0.365 -0.923,0.758 -1.261,1.253 1.668,-0.826 3.116,-2.018 4.708,-2.971 1.562,-1.147 3.424,-1.929 4.671,-3.459 1.425,-1.629 2.891,-3.224 4.24,-4.914 -4.243,3.199 -8.193,6.789 -12.358,10.091 m -2.217,1.902 c -0.226,0.208 -0.226,0.208 0,0 0.365,0.137 1.089,-0.201 0.956,-0.649 -0.379,-0.191 -1.015,0.219 -0.956,0.649 z"
             id="path823" /><path
             inkscape:connector-curvature="0"
             style="fill:#f3f417;fill-rule:nonzero;stroke:#f3f417;stroke-width:0.13px"
             d="m 101.058,33.656 c 5.156,1.199 10.325,2.411 15.43,3.808 -0.055,2.049 0.133,4.135 -0.311,6.15 l -0.246,0.314 0.383,0.021 c 2.111,10.566 4.25,21.125 6.396,31.684 -0.229,-0.017 -0.684,-0.048 -0.912,-0.065 -0.038,0.007 -0.117,0.017 -0.154,0.024 l -0.431,0.075 c 0.011,-0.177 0.031,-0.529 0.045,-0.707 l 0.01,-0.181 c 0.519,0.082 0.97,-0.546 0.54,-0.949 -0.328,-0.201 -0.625,-0.13 -0.889,0.212 0.089,0.184 0.264,0.553 0.349,0.737 -0.325,-0.184 -0.656,-0.358 -0.994,-0.515 C 113.962,60.61 106.95,47.478 100.962,34.455 l -0.362,-0.191 0.458,-0.608 m 14.682,6.178 c 0.577,-0.333 0.211,-1.319 0.293,-1.978 l -12.554,-3.021 m -0.784,0.203 1.455,1.305 0.451,0.984 0.69,1.363 1.035,1.608 -0.642,-0.16 -2.487,-3.2 -1.288,-1.602 1.349,2.664 c 5.001,11.46 11.831,22.595 16.479,33.921 0.031,-0.113 0.086,-0.338 0.113,-0.451 -0.427,-0.621 -0.519,-1.605 0.277,-1.967 0.317,0.345 0.475,0.776 0.567,1.226 0.225,0.745 0.56,1.458 0.653,2.237 l 0.304,0.01 c -0.093,-0.553 -0.158,-1.11 -0.322,-1.646 -0.553,-1.793 -0.789,-3.664 -1.192,-5.494 -1.476,-7.271 -2.956,-14.542 -4.397,-21.819 -1.411,-0.277 -2.816,-0.594 -4.227,-0.878 l -2.5,-0.814 c 1.281,-0.078 2.562,-0.034 3.847,-0.048 0.267,0.011 0.871,-0.026 1.137,-0.015 0.263,-0.598 0.56,-1.182 0.8,-1.793 l -10.008,-4.412 -2.094,-1.019 m 11.853,7.561 -0.809,0.022 -2.717,-0.028 c 0,0 2.838,0.499 3.498,0.625 0.215,0.024 0.649,0.068 0.864,0.092 0.088,-0.125 0.145,-0.116 0.284,-0.143 l 0.051,-2.906 m 4.254,30.065 c 0.198,0.192 0.198,0.192 0,0 m 0.348,2.753 c 0.185,0.171 0.185,0.171 0,0 z"
             id="path825" /><path
             inkscape:connector-curvature="0"
             style="fill:#0806e5;fill-rule:nonzero;stroke:#0806e5;stroke-width:0.13px"
             d="m 102.695,35.038 c 0.55,0.192 1.585,0.732 2.094,1.019 3.031,2.127 6.215,4.026 9.208,6.205 -0.266,-0.011 -0.799,-0.028 -1.066,-0.038 -2.826,-2.107 -5.914,-3.832 -8.781,-5.881 -0.239,-0.252 -1.219,-1.055 -1.455,-1.305 z"
             id="path841" /><path
             inkscape:connector-curvature="0"
             style="fill:#0806e5;fill-rule:nonzero;stroke:#0806e5;stroke-width:0.13px"
             d="m 113.495,42.621 1.053,-0.022 0.946,0.592 -0.11,0.119 c -0.215,-0.024 -0.649,-0.068 -0.864,-0.092 z"
             id="path853" /><path
             inkscape:connector-curvature="0"
             style="fill:#f3f417;fill-rule:nonzero;stroke:#f3f417;stroke-width:0.13px"
             d="m 144.051,50.769 c 0.123,-0.072 0.372,-0.209 0.495,-0.281 l 0.069,0.168 c -0.103,0.106 -0.305,0.314 -0.407,0.42 z"
             id="path859" /><path
             inkscape:connector-curvature="0"
             style="fill:#1ad915;fill-rule:nonzero;stroke:#1ad915;stroke-width:0.13px"
             d="m 144.546,50.488 0.154,-0.02 c -0.021,0.048 -0.065,0.14 -0.085,0.188 z"
             id="path861" /><path
             inkscape:connector-curvature="0"
             style="fill:#1ad915;fill-rule:nonzero;stroke:#1ad915;stroke-width:0.13px"
             d="m 138.632,58.258 c 1.855,-2.463 3.42,-5.143 5.419,-7.489 l 0.157,0.307 c -0.68,1.352 -1.64,2.527 -2.494,3.767 -2.536,3.62 -5.119,7.209 -7.609,10.856 -0.489,0.481 0.218,0.919 0.423,1.349 -0.362,0.864 -0.977,1.564 -1.725,2.117 -0.294,-0.119 -0.588,-0.235 -0.882,-0.355 -1.496,1.912 -2.76,3.989 -4.254,5.901 l -0.307,0.39 c -0.092,-0.185 -0.273,-0.547 -0.366,-0.728 0.106,-0.089 0.322,-0.27 0.427,-0.358 1.61,-1.913 2.901,-4.068 4.384,-6.076 -0.533,-0.929 -0.242,-1.878 0.458,-2.616 0.396,0.134 0.789,0.277 1.182,0.424 1.596,-2.585 3.485,-4.976 5.187,-7.489 m -6.348,7.97 c 0.184,0.188 0.184,0.188 0,0 m 0.686,1.021 c 0.192,0.192 0.192,0.192 0,0 z"
             id="path863" /><path
             inkscape:connector-curvature="0"
             style="fill-rule:nonzero;stroke:#000000;stroke-width:0.13px"
             d="m 132.284,66.228 c 0.184,0.188 0.184,0.188 0,0 z"
             id="path869" /><path
             inkscape:connector-curvature="0"
             style="fill-rule:nonzero;stroke:#000000;stroke-width:0.13px"
             d="m 132.97,67.249 c 0.192,0.192 0.192,0.192 0,0 z"
             id="path871" /><path
             inkscape:connector-curvature="0"
             style="fill:#f3f417;fill-rule:nonzero;stroke:#f3f417;stroke-width:0.13px"
             d="m 157.755,69.814 c -0.505,0.164 -0.505,-1.007 -0.003,-0.847 0.003,0.212 0.003,0.635 0.003,0.847 z"
             id="path873" /><path
             inkscape:connector-curvature="0"
             style="fill:#f3f417;fill-rule:nonzero;stroke:#f3f417;stroke-width:0.13px"
             d="m 155.517,70.528 c -0.191,-0.314 -0.324,-1.216 0.168,-1.243 0.181,0.314 0.318,1.212 -0.168,1.243 z"
             id="path875" /><path
             inkscape:connector-curvature="0"
             style="fill:#f40412;fill-rule:nonzero;stroke:#f40412;stroke-width:0.13px"
             d="m 119.973,70.326 c 0.198,0.192 0.198,0.192 0,0 z"
             id="path877" /><path
             inkscape:connector-curvature="0"
             style="fill:#f40412;fill-rule:nonzero;stroke:#f40412;stroke-width:0.13px"
             d="m 156.129,71.173 c -0.246,-0.355 0.212,-0.994 0.625,-0.857 0.236,0.355 -0.208,1.004 -0.625,0.857 z"
             id="path879" /><path
             inkscape:connector-curvature="0"
             style="fill:#f40412;fill-rule:nonzero;stroke:#f40412;stroke-width:0.13px"
             d="m 132.656,70.347 0.157,1.728 1.418,-1.394 -0.735,0.936 -0.164,0.072 -0.259,0.765 -0.123,2.004 -0.419,-1.37 -1.136,1.777 1.09,-2.534 z"
             id="path881" /><path
             inkscape:connector-curvature="0"
             style="fill:#f40412;fill-rule:nonzero;stroke:#f40412;stroke-width:0.13px"
             d="m 157.277,70.623 c 0.516,0.147 0.007,1.353 -0.465,1.267 -0.191,-0.444 0.123,-0.987 0.465,-1.267 z"
             id="path883" /><path
             inkscape:connector-curvature="0"
             style="fill:#f3f417;fill-rule:nonzero;stroke:#f3f417;stroke-width:0.13px"
             d="m 158.23,71.358 0.209,0.003 c 0.276,0.454 0.205,0.738 -0.212,0.85 0.003,-0.215 0.003,-0.638 0.003,-0.853 z"
             id="path885" /><path
             inkscape:connector-curvature="0"
             style="fill:#f3f417;fill-rule:nonzero;stroke:#f3f417;stroke-width:0.13px"
             d="m 133.332,71.689 0.164,-0.072 0.12,0.246 c -0.014,0.492 0.123,0.977 0.328,1.424 l -0.157,0.048 c -0.178,-0.219 -0.537,-0.659 -0.714,-0.881 0.065,-0.191 0.195,-0.574 0.259,-0.765 z"
             id="path887" /><path
             inkscape:connector-curvature="0"
             style="fill:#f3f417;fill-rule:nonzero;stroke:#f3f417;stroke-width:0.13px"
             d="m 133.777,71.785 c 0.092,-0.048 0.273,-0.14 0.365,-0.188 0.291,0.375 0.766,1.093 0.226,1.461 -0.168,-0.44 -0.366,-0.864 -0.591,-1.273 z"
             id="path889" /><path
             inkscape:connector-curvature="0"
             style="fill:#f40412;fill-rule:nonzero;stroke:#f40412;stroke-width:0.13px"
             d="m 133.616,71.863 0.161,-0.078 c 0.225,0.409 0.423,0.833 0.591,1.273 -0.106,0.058 -0.318,0.171 -0.424,0.229 -0.205,-0.447 -0.342,-0.932 -0.328,-1.424 z"
             id="path891" /><path
             inkscape:connector-curvature="0"
             style="fill:#f3f417;fill-rule:nonzero;stroke:#f3f417;stroke-width:0.13px"
             d="m 156.201,73.263 c -0.198,-0.314 -0.332,-1.209 0.16,-1.243 0.188,0.311 0.321,1.206 -0.16,1.243 z"
             id="path893" /><path
             inkscape:connector-curvature="0"
             style="fill:#1ad915;fill-rule:nonzero;stroke:#1ad915;stroke-width:0.13px"
             d="m 120.321,73.079 c 0.185,0.171 0.185,0.171 0,0 z"
             id="path895" /><path
             inkscape:connector-curvature="0"
             style="fill:#f40412;fill-rule:nonzero;stroke:#f40412;stroke-width:0.13px"
             d="m 125.084,74.711 c 0.393,-0.355 0.797,-0.7 1.183,-1.062 0.143,0.369 0.075,0.71 -0.202,1.025 -0.157,0.232 -1.223,0.587 -0.981,0.037 z"
             id="path901" /><path
             inkscape:connector-curvature="0"
             style="fill:#f40412;fill-rule:nonzero;stroke:#f40412;stroke-width:0.13px"
             d="m 126.994,74.373 c -0.563,-0.338 -0.536,-0.615 0.079,-0.826 0.085,0.116 0.26,0.351 0.348,0.468 -0.105,0.088 -0.321,0.269 -0.427,0.358 z"
             id="path903" /><path
             inkscape:connector-curvature="0"
             style="fill:#0806e5;fill-rule:nonzero;stroke:#0806e5;stroke-width:0.13px"
             d="m 119.922,74.694 c 0.089,-0.106 0.263,-0.321 0.352,-0.43 0.338,0.157 0.669,0.331 0.994,0.515 l -0.01,0.181 c -0.414,0.168 -0.824,0.168 -1.23,0 z"
             id="path905" /><path
             inkscape:connector-curvature="0"
             style="fill:#f3f417;fill-rule:nonzero;stroke:#f3f417;stroke-width:0.13px"
             d="m 119.648,74.698 0.274,-0.004 0.106,0.266 c -0.106,0.082 -0.311,0.246 -0.417,0.328 0.01,-0.147 0.027,-0.44 0.037,-0.59 z"
             id="path907" /><path
             inkscape:connector-curvature="0"
             style="fill:#f40412;fill-rule:nonzero;stroke:#f40412;stroke-width:0.13px"
             d="m 121.644,75.592 c 0.037,-0.007 0.116,-0.017 0.154,-0.024 l -0.069,0.106 z"
             id="path913" /><path
             inkscape:connector-curvature="0"
             style="fill:#0806e5;fill-rule:nonzero;stroke:#0806e5;stroke-width:0.13px"
             d="m 121.798,75.568 c 0.228,0.017 0.683,0.048 0.912,0.065 0.109,0.014 0.328,0.041 0.437,0.058 l 0.058,0.222 c -0.277,0.168 -0.564,0.304 -0.868,0.41 -0.15,-0.164 -0.457,-0.485 -0.608,-0.649 z"
             id="path915" /><path
             inkscape:connector-curvature="0"
             style="fill:#f3f417;fill-rule:nonzero;stroke:#f3f417;stroke-width:0.13px"
             d="m 123.147,75.691 c 0.13,-0.051 0.39,-0.153 0.516,-0.205 l 0.072,0.294 -0.253,0.188 -0.277,-0.055 z"
             id="path917" /><path
             inkscape:connector-curvature="0"
             style="fill:#f3f417;fill-rule:nonzero;stroke:#f3f417;stroke-width:0.13px"
             d="m 117.513,75.777 0.249,-0.065 c 0.004,0.143 0.007,0.43 0.007,0.574 l -0.283,0.017 c 0.006,-0.13 0.02,-0.393 0.027,-0.526 z"
             id="path919" /><path
             inkscape:connector-curvature="0"
             style="fill:#f40412;fill-rule:nonzero;stroke:#f40412;stroke-width:0.13px"
             d="m 83.994,78.157 0.628,-1.281 0.067,1.29 c -0.283,0.004 -0.411,-0.013 -0.695,-0.009 z"
             id="path921" /><path
             inkscape:connector-curvature="0"
             style="fill:#f3f417;fill-rule:nonzero;stroke:#f3f417;stroke-width:0.13px"
             d="m 116.812,79.024 c 0.086,-0.164 0.257,-0.495 0.342,-0.662 l 0.171,0.133 0.065,0.225 c -0.058,0.099 -0.181,0.294 -0.239,0.39 z"
             id="path925" /><path
             inkscape:connector-curvature="0"
             style="fill:#f40412;fill-rule:nonzero;stroke:#f40412;stroke-width:0.13px"
             d="m 84.722,78.727 c -0.102,1.971 0.257,3.917 0.346,5.878 -0.031,1.085 0.628,1.99 1.161,2.878 1.015,1.612 1.961,3.265 2.949,4.891 l 0.324,0.468 -0.129,0.041 C 89.205,92.78 88.87,92.579 88.7,92.476 l -2.344,-2.387 -1.399,2.656 -0.286,-6.921 c -1.237,-1.786 -2.521,-3.552 -3.581,-5.451 0.875,0.229 1.722,0.547 2.56,0.885 0.013,-0.861 0.275,-1.691 0.288,-2.552 m 0.286,2.108 c -0.065,0.304 -0.202,0.915 -0.267,1.219 -0.512,-0.198 -1.022,-0.393 -1.534,-0.584 0.577,1.042 1.261,2.018 1.954,2.981 -0.003,-1.205 -0.024,-2.414 -0.153,-3.616 m 1.223,9.982 0.707,-1.377 1.614,1.326 c -0.629,-0.816 -2.116,-3.163 -2.584,-4.078 0.184,1.37 0.229,2.749 0.263,4.129 z"
             id="path929" /><path
             inkscape:connector-curvature="0"
             style="fill:#f40412;fill-rule:nonzero;stroke:#f40412;stroke-width:0.13px"
             d="m 118.179,79.321 c 0.13,0.123 0.39,0.366 0.52,0.489 0.194,-0.144 0.587,-0.43 0.782,-0.574 -0.318,0.683 -0.612,1.376 -0.977,2.035 -0.243,0.42 -0.53,0.844 -1.042,0.946 0.01,-0.167 0.027,-0.502 0.037,-0.669 0.441,-0.044 0.667,-0.263 0.677,-0.649 l -0.062,-0.184 c 0.014,-0.349 0.048,-1.045 0.065,-1.394 z"
             id="path933" /><path
             inkscape:connector-curvature="0"
             style="fill:#f40412;fill-rule:nonzero;stroke:#f40412;stroke-width:0.13px"
             d="m 120.263,79.868 c 1.131,0.041 -0.522,1.031 0,0 z"
             id="path935" /><path
             inkscape:connector-curvature="0"
             style="fill:#f40412;fill-rule:nonzero;stroke:#f40412;stroke-width:0.13px"
             d="m 127.814,79.841 c 0.561,-0.185 0.752,0.003 0.578,0.556 -0.561,0.181 -0.752,-0.003 -0.578,-0.556 z"
             id="path937" /><path
             inkscape:connector-curvature="0"
             style="fill:#f3f417;fill-rule:nonzero;stroke:#f3f417;stroke-width:0.13px"
             d="m 117.523,80.981 c 0.164,-0.02 0.489,-0.061 0.653,-0.082 -0.01,0.386 -0.236,0.605 -0.677,0.649 0.007,-0.143 0.017,-0.427 0.024,-0.567 z"
             id="path941" /><path
             inkscape:connector-curvature="0"
             style="fill:#f3f417;fill-rule:nonzero;stroke:#f3f417;stroke-width:0.13px"
             d="m 128.768,80.879 c 0.15,0.044 0.458,0.129 0.608,0.17 -0.109,0.117 -0.332,0.345 -0.444,0.458 l -0.246,-0.092 -0.106,-0.294 z"
             id="path945" /><path
             inkscape:connector-curvature="0"
             style="fill:#0806e5;fill-rule:nonzero;stroke:#0806e5;stroke-width:0.13px"
             d="m 118.504,81.271 0.287,0.335 c 0.051,0.15 0.157,0.447 0.208,0.598 -9.806,3.613 -19.66,7.11 -29.497,10.638 l -0.324,-0.468 c 9.41,-3.426 18.826,-6.851 28.284,-10.157 0.512,-0.102 0.799,-0.526 1.042,-0.946 z"
             id="path947" /><path
             inkscape:connector-curvature="0"
             style="fill:#f40412;fill-rule:nonzero;stroke:#f40412;stroke-width:0.13px"
             d="m 118.791,81.606 c 0.126,0.048 0.382,0.147 0.509,0.195 l -0.045,0.307 -0.256,0.096 c -0.051,-0.151 -0.157,-0.448 -0.208,-0.598 z"
             id="path949" /><path
             inkscape:connector-curvature="0"
             style="fill:#f3f417;fill-rule:nonzero;stroke:#f3f417;stroke-width:0.13px"
             d="m 121.302,81.797 c 0.099,-0.058 0.304,-0.174 0.407,-0.228 -0.017,0.256 -0.058,0.768 -0.075,1.024 -0.082,-0.201 -0.25,-0.598 -0.332,-0.796 z"
             id="path951" /><path
             inkscape:connector-curvature="0"
             style="fill:#f3f417;fill-rule:nonzero;stroke:#f3f417;stroke-width:0.13px"
             d="m 119.464,82.696 c 0.089,-0.117 0.273,-0.352 0.362,-0.468 -0.051,0.181 -0.157,0.546 -0.212,0.727 z"
             id="path959" /><path
             inkscape:connector-curvature="0"
             style="fill:#1ad915;fill-rule:nonzero;stroke:#1ad915;stroke-width:0.13px"
             d="m 127.145,82.361 0.345,-0.161 0.246,0.188 0.02,0.191 c -0.13,0.004 -0.393,0.007 -0.522,0.011 z"
             id="path961" /><path
             inkscape:connector-curvature="0"
             style="fill:#1ad915;fill-rule:nonzero;stroke:#1ad915;stroke-width:0.13px"
             d="m 127.756,82.579 c 0.591,0.072 1.183,0.666 1.774,0.417 0.16,-0.096 0.478,-0.29 0.639,-0.386 0.44,0.348 0.884,0.69 1.332,1.031 -0.348,0.636 -0.649,1.319 -1.233,1.773 -0.482,-0.096 -0.786,-0.369 -0.909,-0.823 -0.263,-0.857 -1.025,-1.38 -1.603,-2.012 m 2.085,1.069 c -0.527,1.035 1.12,0.055 0,0 z"
             id="path967" /><path
             inkscape:connector-curvature="0"
             style="fill:#f3f417;fill-rule:nonzero;stroke:#f3f417;stroke-width:0.13px"
             d="m 129.841,83.648 c 1.12,0.055 -0.527,1.035 0,0 z"
             id="path971" /><path
             inkscape:connector-curvature="0"
             style="fill:#f3f417;fill-rule:nonzero;stroke:#f3f417;stroke-width:0.13px"
             d="m 147.502,90.984 c -0.506,0.153 -0.499,-1.015 0.006,-0.844 0,0.212 -0.003,0.635 -0.006,0.844 z"
             id="path977" /><path
             inkscape:connector-curvature="0"
             style="fill:#f3f417;fill-rule:nonzero;stroke:#f3f417;stroke-width:0.13px"
             d="m 145.284,92.077 c -0.177,-0.451 -0.352,-1.435 0.137,-1.66 0.164,0.451 0.345,1.427 -0.137,1.66 z"
             id="path979" /><path
             inkscape:connector-curvature="0"
             style="fill:#f40412;fill-rule:nonzero;stroke:#f40412;stroke-width:0.13px"
             d="m 146.354,91.462 c 0.529,0.167 0.013,1.062 -0.304,1.277 -0.53,-0.16 -0.021,-1.065 0.304,-1.277 z"
             id="path981" /><path
             inkscape:connector-curvature="0"
             style="fill:#f40412;fill-rule:nonzero;stroke:#f40412;stroke-width:0.13px"
             d="m 147.259,92.172 c 1.124,0.068 -0.533,1.028 0,0 z"
             id="path983" /><path
             inkscape:connector-curvature="0"
             style="fill:#f3f417;fill-rule:nonzero;stroke:#f3f417;stroke-width:0.13px"
             d="m 148.523,93.726 c -0.505,0.154 -0.502,-1.018 0.004,-0.847 0,0.212 0,0.635 -0.004,0.847 z"
             id="path985" /><path
             inkscape:connector-curvature="0"
             style="fill:#f40412;fill-rule:nonzero;stroke:#f40412;stroke-width:0.13px"
             d="m 146.935,93.207 c 1.127,0.068 -0.534,1.028 0,0 z"
             id="path987" /><path
             inkscape:connector-curvature="0"
             style="fill:#f3f417;fill-rule:nonzero;stroke:#f3f417;stroke-width:0.13px"
             d="m 146.138,94.747 c -0.505,0.161 -0.502,-1.011 0,-0.85 0,0.211 0,0.638 0,0.85 z"
             id="path989" /><path
             inkscape:connector-curvature="0"
             style="fill-rule:nonzero;stroke:#000000;stroke-width:0.13px"
             d="m 106.227,94.846 c -0.225,0.208 -0.225,0.208 0,0 z"
             id="path995" /><path
             inkscape:connector-curvature="0"
             style="fill-rule:nonzero;stroke:#000000;stroke-width:0.13px"
             d="m 140.873,94.904 0.065,0.113 c -0.037,-0.01 -0.109,-0.027 -0.147,-0.038 z"
             id="path997" /></g><g
           id="g8222"><path
             inkscape:connector-curvature="0"
             style="fill:none;stroke:#00e701;stroke-width:0.60000002px"
             d="m 18.293,46.219 -4.881,-17.961 11.913,13.562 -0.033,2.237 1.816,1.615 2.78,14.691 z"
             id="path8140" /><path
             inkscape:connector-curvature="0"
             style="fill:none;stroke:#00e701;stroke-width:0.60000002px"
             d="m 13.412,28.258 10.22,-0.319 9.92,13.597 3.866,14.421 L 28.214,45.248 27.746,43.271 26.052,41.587 23.61,27.946"
             id="path8142" /><path
             inkscape:connector-curvature="0"
             style="fill:none;stroke:#00e701;stroke-width:0.60000002px"
             d="m 29.888,60.363 7.53,-4.406"
             id="path8144" /><path
             inkscape:connector-curvature="0"
             style="fill:none;stroke:#00e701;stroke-width:0.60000002px"
             d="m 55.939,15.725 4.678,1.211 6.569,13.343 4.648,15.541 -3.107,3.045 -7.641,-15.434 z"
             id="path8146" /><path
             inkscape:connector-curvature="0"
             style="fill:none;stroke:#00e701;stroke-width:0.60000002px"
             d="M 55.939,15.725 71.834,45.82"
             id="path8148" /><path
             inkscape:connector-curvature="0"
             style="fill:none;stroke:#00e701;stroke-width:0.60000002px"
             d="M 68.727,48.865 60.617,16.936"
             id="path8150" /><path
             inkscape:connector-curvature="0"
             style="fill:none;stroke:#00e701;stroke-width:0.60000002px"
             d="M 67.433,31.435 18.293,46.219"
             id="path8152" /><path
             inkscape:connector-curvature="0"
             style="fill:none;stroke:#00e701;stroke-width:0.60000002px"
             d="M 25.325,41.82 37.471,38.224"
             id="path8154" /><path
             inkscape:connector-curvature="0"
             style="fill:none;stroke:#00e701;stroke-width:0.60000002px"
             d="M 63.619,30.459 51.95,33.897"
             id="path8156" /><path
             inkscape:connector-curvature="0"
             style="fill:none;stroke:#00e701;stroke-width:0.60000002px"
             d="M 64.872,34.317 53.522,37.66"
             id="path8158" /><path
             inkscape:connector-curvature="0"
             style="fill:none;stroke:#00e701;stroke-width:0.60000002px"
             d="M 27.108,45.672 38.783,42.114"
             id="path8160" /><path
             inkscape:connector-curvature="0"
             style="fill:none;stroke:#00e701;stroke-width:0.60000002px"
             d="m 37.471,38.224 2.032,-4.817 5.473,-1.636 2.011,-0.078 4.963,2.204 0.537,0.119 1.063,1.562 -0.028,2.082 -2.258,3.995 -1.737,1.111 -5.216,1.558 -5.282,-1.831 -1.728,-2.024 z"
             id="path8162" /><path
             inkscape:connector-curvature="0"
             style="fill:none;stroke:#00e701;stroke-width:0.60000002px"
             d="m 47.957,37.284 -4.375,-1.964 -3.857,1.292 -1.555,3.597 3.616,2.121 4.961,-1.587 z"
             id="path8164" /><path
             inkscape:connector-curvature="0"
             style="fill:none;stroke:#00e701;stroke-width:0.60000002px"
             d="m 41.605,32.814 4.195,5.115 0.443,5.818"
             id="path8166" /><path
             inkscape:connector-curvature="0"
             style="fill:none;stroke:#00e701;stroke-width:0.60000002px"
             d="m 49.527,42.766 -2.78,-2.023"
             id="path8168" /><path
             inkscape:connector-curvature="0"
             style="fill:none;stroke:#00e701;stroke-width:0.60000002px"
             d="m 43.582,35.32 0.995,-3.36"
             id="path8170" /><path
             inkscape:connector-curvature="0"
             style="fill:none;stroke:#00e701;stroke-width:0.60000002px"
             d="m 46.987,31.693 3.349,4.984 0.928,4.978"
             id="path8172" /><path
             inkscape:connector-curvature="0"
             style="fill:none;stroke:#00e701;stroke-width:0.60000002px"
             d="m 51.603,33.758 0.369,2.291 1.55,1.611"
             id="path8174" /><path
             inkscape:connector-curvature="0"
             style="fill:none;stroke:#00e701;stroke-width:0.60000002px"
             d="M 39.725,36.612 39.198,34.264"
             id="path8176" /><path
             inkscape:connector-curvature="0"
             style="fill:none;stroke:#00e701;stroke-width:0.60000002px"
             d="m 41.786,42.33 1.886,1.733"
             id="path8178" /></g></g><g
         id="g8692"><g
           id="g8590"><path
             inkscape:connector-curvature="0"
             style="fill:none;stroke:#fcfc03;stroke-width:0.40000001px"
             d="m 37.067,83.201 7.171,-8.543"
             id="path8578" /><path
             inkscape:connector-curvature="0"
             style="fill:none;stroke:#fcfc03;stroke-width:0.40000001px"
             d="m 36.534,74.097 4.852,8.436"
             id="path8580" /><path
             inkscape:connector-curvature="0"
             style="fill:none;stroke:#fcfc03;stroke-width:0.40000001px"
             d="m 33.468,79.73 h 7.385"
             id="path8582" /><path
             inkscape:connector-curvature="0"
             style="fill:none;stroke:#fcfc03;stroke-width:0.40000001px"
             d="M 39.706,78.102 39.84,79.81"
             id="path8584" /></g><g
           id="g8481"><path
             inkscape:connector-curvature="0"
             style="fill:none;stroke:#1ade00;stroke-width:0.40000001px"
             d="m 34.826,69.013 3.242,8.381"
             id="path8472" /><path
             inkscape:connector-curvature="0"
             style="fill:none;stroke:#1ade00;stroke-width:0.40000001px"
             d="m 33.393,77.243 3.242,-3.473 1.433,-3.096"
             id="path8474" /><path
             inkscape:connector-curvature="0"
             style="fill:none;stroke:#1ade00;stroke-width:0.40000001px"
             d="m 34.976,73.921 h 4.449"
             id="path8476" /></g><g
           id="g8513"><path
             inkscape:connector-curvature="0"
             style="fill:none;stroke:#fa0100;stroke-width:0.40000001px"
             d="M 38.633,86.568 39.84,79.81 45.419,75.544"
             id="path8489" /><g
             id="g8503"><path
               inkscape:connector-curvature="0"
               style="fill:none;stroke:#fa0100;stroke-width:0.40000001px"
               d="m 34.562,75.506 10.179,8.608"
               id="path8483" /><path
               inkscape:connector-curvature="0"
               style="fill:none;stroke:#fa0100;stroke-width:0.40000001px"
               d="M 35.391,84.945 44.175,74.789"
               id="path8485" /><path
               inkscape:connector-curvature="0"
               style="fill:none;stroke:#fa0100;stroke-width:0.40000001px"
               d="m 38.746,74.147 2.451,12.308"
               id="path8487" /><path
               inkscape:connector-curvature="0"
               style="fill:none;stroke:#fa0100;stroke-width:0.40000001px"
               d="m 45.457,78.074 -5.617,1.736 5.315,1.435"
               id="path8491" /><path
               inkscape:connector-curvature="0"
               style="fill:none;stroke:#fa0100;stroke-width:0.40000001px"
               d="M 45.683,80.226 39.84,79.81 36.334,79.697"
               id="path8493" /><path
               inkscape:connector-curvature="0"
               style="fill:none;stroke:#fa0100;stroke-width:0.40000001px"
               d="M 36.07,81.471 39.84,79.81 33.883,77.734"
               id="path8495" /></g></g><g
           id="g8521"><path
             inkscape:connector-curvature="0"
             style="fill:none;stroke:#1ade00;stroke-width:0.40000001px"
             d="m 31.6,75.073 3.242,8.381"
             id="path8515" /><path
             inkscape:connector-curvature="0"
             style="fill:none;stroke:#1ade00;stroke-width:0.40000001px"
             d="M 30.167,83.303 33.41,79.83 34.842,76.734"
             id="path8517" /><path
             inkscape:connector-curvature="0"
             style="fill:none;stroke:#1ade00;stroke-width:0.40000001px"
             d="m 31.751,79.981 h 4.448"
             id="path8519" /></g><g
           id="g8529"><path
             inkscape:connector-curvature="0"
             style="fill:none;stroke:#1ade00;stroke-width:0.40000001px"
             d="m 39.571,81.987 3.242,8.381"
             id="path8523" /><path
             inkscape:connector-curvature="0"
             style="fill:none;stroke:#1ade00;stroke-width:0.40000001px"
             d="m 38.138,90.217 3.242,-3.473 1.433,-3.096"
             id="path8525" /><path
             inkscape:connector-curvature="0"
             style="fill:none;stroke:#1ade00;stroke-width:0.40000001px"
             d="M 39.721,86.895 H 44.17"
             id="path8527" /></g><g
           id="g8537"><path
             inkscape:connector-curvature="0"
             style="fill:none;stroke:#1ade00;stroke-width:0.40000001px"
             d="m 45.036,75.607 3.242,8.381"
             id="path8531" /><path
             inkscape:connector-curvature="0"
             style="fill:none;stroke:#1ade00;stroke-width:0.40000001px"
             d="m 43.603,83.837 3.242,-3.473 1.433,-3.096"
             id="path8533" /><path
             inkscape:connector-curvature="0"
             style="fill:none;stroke:#1ade00;stroke-width:0.40000001px"
             d="m 45.186,80.515 h 4.449"
             id="path8535" /></g><g
           id="g8545"><path
             inkscape:connector-curvature="0"
             style="fill:none;stroke:#1ade00;stroke-width:0.40000001px"
             d="m 42.743,69.52 3.242,8.381"
             id="path8539" /><path
             inkscape:connector-curvature="0"
             style="fill:none;stroke:#1ade00;stroke-width:0.40000001px"
             d="m 41.31,77.75 3.243,-3.473 1.432,-3.096"
             id="path8541" /><path
             inkscape:connector-curvature="0"
             style="fill:none;stroke:#1ade00;stroke-width:0.40000001px"
             d="m 42.894,74.428 h 4.448"
             id="path8543" /></g></g></g></g></svg>