<?xml version="1.0" encoding="UTF-8" standalone="no"?>
<!-- Generator: Adobe Illustrator 13.0.0, SVG Export Plug-In . SVG Version: 6.00 Build 14948)  -->

<svg
   xmlns:ns="&amp;#38;#38;#38;#38;#38;ns_sfw;"
   xmlns:dc="http://purl.org/dc/elements/1.1/"
   xmlns:cc="http://creativecommons.org/ns#"
   xmlns:rdf="http://www.w3.org/1999/02/22-rdf-syntax-ns#"
   xmlns:svg="http://www.w3.org/2000/svg"
   xmlns="http://www.w3.org/2000/svg"
   xmlns:sodipodi="http://sodipodi.sourceforge.net/DTD/sodipodi-0.dtd"
   xmlns:inkscape="http://www.inkscape.org/namespaces/inkscape"
   version="1.1"
   id="svg2"
   x="0px"
   y="0px"
   width="247.08984"
   height="141.18414"
   viewBox="0.25 0 247.08984 141.18415"
   enable-background="new 0.25 0 567.927 113.032"
   xml:space="preserve"
   inkscape:version="0.92.0 r15299"
   sodipodi:docname="vector_games_udb.svg"
   inkscape:export-filename="D:\EMU\artwork\svg\ES Custom Logos\arcade_vector.png"
   inkscape:export-xdpi="96"
   inkscape:export-ydpi="96"><defs
     id="defs21" /><sodipodi:namedview
     pagecolor="#ffffff"
     bordercolor="#666666"
     borderopacity="1"
     objecttolerance="10"
     gridtolerance="10"
     guidetolerance="10"
     inkscape:pageopacity="0"
     inkscape:pageshadow="2"
     inkscape:window-width="1920"
     inkscape:window-height="1137"
     id="namedview19"
     showgrid="false"
     inkscape:zoom="2.5566666"
     inkscape:cx="147.79813"
     inkscape:cy="-19.33943"
     inkscape:window-x="-8"
     inkscape:window-y="-8"
     inkscape:window-maximized="1"
     inkscape:current-layer="g4889"
     fit-margin-top="0"
     fit-margin-left="0"
     fit-margin-right="0"
     fit-margin-bottom="0"
     inkscape:measure-start="0,0"
     inkscape:measure-end="0,0"
     inkscape:snap-bbox="true" /><metadata
     id="metadata3"><ns:sfw><ns:slices /><ns:sliceSourceBounds
         x="677.036"
         y="482.984"
         width="567.927"
         height="113.032"
         bottomLeftOrigin="true" /></ns:sfw><rdf:RDF><cc:Work
         rdf:about=""><dc:format>image/svg+xml</dc:format><dc:type
           rdf:resource="http://purl.org/dc/dcmitype/StillImage" /><dc:title></dc:title><dc:creator><cc:Agent><dc:title>UDb23</dc:title></cc:Agent></dc:creator></cc:Work></rdf:RDF></metadata><g
     transform="matrix(0.77798037,0,0,0.77798037,-23.637553,-183.59523)"
     id="g4889"><g
       id="g9074"><g
         style="stroke-width:7.33107853"
         transform="matrix(0.13631021,0,0,0.13650101,264.9164,451.87455)"
         id="g8627"><g
           transform="translate(-761.54702,-1198.0204)"
           id="g8933"><g
             transform="matrix(7.3362076,0,0,7.3259531,-1943.4817,-3310.4118)"
             id="g8470"><path
               sodipodi:nodetypes="ccccccccccccccccc"
               inkscape:connector-curvature="0"
               id="path6018"
               transform="matrix(1.2853795,0,0,1.2853795,2.4811338,275.28129)"
               d="M 113.03711,96.655697 102.7168,128.47024 v 43.79352 l 11.88476,34.08976 h 5.67188 l -9.97266,11.53906 v 5.47656 l 11.14649,14.4707 h 209.6289 l 11.14844,-14.4707 v -5.47656 L 332.25,206.35352 h 5.67188 l 11.88476,-34.08976 V 128.47024 L 339.48633,96.655697 Z"
               style="fill:#fdd039;fill-opacity:1;fill-rule:evenodd;stroke:none;stroke-width:1px;stroke-linecap:butt;stroke-linejoin:miter;stroke-opacity:1" /><path
               sodipodi:nodetypes="ccccccccc"
               inkscape:connector-curvature="0"
               id="path6023"
               transform="matrix(1.2853795,0,0,1.2853795,2.4811338,275.28129)"
               d="m 124.18555,209.26367 -8.22852,10.7168 v 1.24414 l 8.16016,10.92578 h 204.77148 l 8.15821,-10.92578 v -1.24414 l -8.22852,-10.7168 z"
               style="fill:#000000;fill-opacity:1;fill-rule:evenodd;stroke:none;stroke-width:1px;stroke-linecap:butt;stroke-linejoin:miter;stroke-opacity:1" /><g
               transform="translate(4.3185838)"
               id="g6184"><g
                 id="g6067"
                 transform="translate(1.4220087)"
                 style="fill:#fdd039;fill-opacity:1"><g
                   transform="matrix(0.54320073,0,0,0.54320073,100.36596,226.11296)"
                   id="text6030"
                   style="font-style:normal;font-variant:normal;font-weight:normal;font-stretch:normal;font-size:51.41518021px;line-height:32.13448715px;font-family:STARWARS;-inkscape-font-specification:STARWARS;letter-spacing:0px;word-spacing:0px;fill:#fdd039;fill-opacity:1;stroke:none;stroke-width:2.36630678px;stroke-linecap:butt;stroke-linejoin:miter;stroke-opacity:1"
                   aria-label="VECTOR GAMES"><path
                     inkscape:connector-curvature="0"
                     id="path6032"
                     style="fill:#fdd039;fill-opacity:1;stroke-width:2.36630678px"
                     d="m 148.92823,596.04081 -8.02077,26.47881 -8.1236,-26.47881 h -12.39105 l 9.25473,33.8826 h 22.26277 l 9.51181,-33.8826 z" /><path
                     inkscape:connector-curvature="0"
                     id="path6034"
                     style="fill:#fdd039;fill-opacity:1;stroke-width:2.36630678px"
                     d="m 163.4731,630.07766 v -34.24251 h 31.26043 v 8.32926 h -19.53776 v 4.98727 h 18.09814 v 7.50661 h -18.09814 v 4.98728 h 24.11372 v 8.43209 z" /><path
                     inkscape:connector-curvature="0"
                     id="path6036"
                     style="fill:#fdd039;fill-opacity:1;stroke-width:2.36630678px"
                     d="m 231.3066,622.51962 v 7.86653 h -10.33445 q -4.52454,0 -8.17502,-1.13114 -3.65047,-1.18255 -6.22123,-3.3934 -2.51935,-2.26227 -3.90756,-5.55284 -1.33679,-3.29057 -1.33679,-7.55803 0,-8.38067 4.98727,-12.90521 4.98727,-4.57595 14.08776,-4.57595 h 10.90002 v 7.86652 h -10.64294 q -2.31369,0.20566 -3.65048,0.82264 -1.3368,0.61699 -2.41651,2.05661 -1.54246,2.15944 -1.54246,6.63256 0,4.31888 1.59387,6.94105 1.64529,2.62217 5.60426,2.93066 z" /><path
                     inkscape:connector-curvature="0"
                     id="path6038"
                     style="fill:#fdd039;fill-opacity:1;stroke-width:2.36630678px"
                     d="m 233.36561,603.90733 v -8.17501 h 35.57931 v 8.17501 h -12.08257 v 25.86184 h -11.67124 v -25.86184 z" /><path
                     inkscape:connector-curvature="0"
                     id="path6040"
                     style="fill:#fdd039;fill-opacity:1;stroke-width:2.36630678px"
                     d="m 270.01903,612.85357 q 0,-8.27784 5.14151,-12.90521 5.14152,-4.67878 14.34484,-4.67878 9.40898,0 14.49908,4.57595 5.0901,4.52454 5.0901,12.69955 -0.0514,8.68917 -4.93585,13.26512 -4.83303,4.52453 -14.19059,4.52453 -4.52454,0 -8.22643,-1.13113 -3.7019,-1.18255 -6.32407,-3.3934 -2.57076,-2.21086 -4.01038,-5.45001 -1.38821,-3.29057 -1.38821,-7.50662 z m 11.67124,0.0514 q 0,5.14151 2.10802,7.40378 2.15944,2.21085 5.7585,2.21085 3.80473,0 5.86134,-2.21085 2.0566,-2.21085 2.0566,-7.86652 0,-4.78161 -2.15944,-6.99247 -2.15943,-2.21085 -5.86133,-2.21085 -3.49623,0 -5.65567,2.26227 -2.10802,2.26227 -2.10802,7.40379 z" /><path
                     inkscape:connector-curvature="0"
                     id="path6042"
                     style="fill:#fdd039;fill-opacity:1;stroke-width:2.36630678px"
                     d="m 323.78805,629.76917 h -12.59672 v -33.93402 h 19.43494 q 2.87925,0 5.65567,0.61698 2.82783,0.56557 5.03868,2.00519 2.21086,1.38821 3.54765,3.70189 1.38821,2.31369 1.3368,5.70709 -0.0514,2.77642 -0.56557,4.62736 -0.46274,1.79954 -1.23397,3.0335 -0.71981,1.18255 -1.64528,1.90236 -0.87406,0.71981 -1.64529,1.23397 l -1.43962,0.46273 q 0.10283,0.35991 0.10283,0.87406 0,0.46274 0.87406,0.87406 0.87405,0.41132 3.03349,0.71981 2.15944,0.25708 6.47832,0.25708 v 8.07218 h -10.64295 q -2.82783,-0.61698 -5.03868,-1.74812 -2.15944,-1.18254 -4.01039,-2.67358 -1.85095,-1.54246 -3.49623,-3.29058 -1.59387,-1.74811 -3.18774,-3.44481 z m 0.10283,-24.98778 v 6.73539 h 4.67878 q 4.67878,0 6.47831,-0.77123 1.79953,-0.82264 1.79953,-2.87925 0,-0.6684 -0.3599,-1.23397 -0.35991,-0.56556 -1.3368,-0.97688 -0.92547,-0.41133 -2.57076,-0.61699 -1.59387,-0.25707 -4.11321,-0.25707 z" /><path
                     inkscape:connector-curvature="0"
                     id="path6044"
                     style="fill:#fdd039;fill-opacity:1;stroke-width:2.36630678px"
                     d="m 414.32134,611.9281 v 18.40663 l -16.70993,-0.0514 q -4.52454,0 -8.17502,-1.13114 -3.65047,-1.18255 -6.22123,-3.3934 -2.51935,-2.26227 -3.90756,-5.55284 -1.33679,-3.29057 -1.33679,-7.55803 0,-8.38067 4.98727,-12.90521 4.98727,-4.57595 14.08776,-4.57595 h 10.90002 v 7.86652 h -10.64294 q -2.31369,0.20566 -3.65048,0.82264 -1.3368,0.61699 -2.41652,2.05661 -1.54245,2.15944 -1.54245,6.63256 0,4.31887 1.59387,6.94105 1.64529,2.62217 5.60425,2.93066 h 7.66087 v -3.59906 h -5.3986 v -6.88963 z" /><path
                     inkscape:connector-curvature="0"
                     id="path6046"
                     style="fill:#fdd039;fill-opacity:1;stroke-width:2.36630678px"
                     d="m 444.8668,629.76917 -2.10802,-6.067 h -12.28823 l -1.74812,6.067 h -12.39106 l 9.25474,-33.88261 h 22.26277 l 9.51181,33.88261 z M 432.47574,616.3498 h 8.84341 l -4.7302,-13.36794 z" /><path
                     inkscape:connector-curvature="0"
                     id="path6048"
                     style="fill:#fdd039;fill-opacity:1;stroke-width:2.36630678px"
                     d="m 459.41167,629.76917 v -33.88261 h 11.8769 l 9.87172,17.48116 8.79199,-17.48116 h 11.87691 v 33.88261 h -11.87691 v -16.04154 l -8.79199,16.04154 -9.87172,-16.04154 v 16.04154 z" /><path
                     inkscape:connector-curvature="0"
                     id="path6050"
                     style="fill:#fdd039;fill-opacity:1;stroke-width:2.36630678px"
                     d="m 503.89784,630.07766 v -34.24251 h 31.26043 v 8.32926 H 515.6205 v 4.98727 h 18.09815 v 7.50661 H 515.6205 v 4.98728 h 24.11372 v 8.43209 z" /><path
                     inkscape:connector-curvature="0"
                     id="path6052"
                     style="fill:#fdd039;fill-opacity:1;stroke-width:2.36630678px"
                     d="m 531.1471,630.07766 v -8.17502 h 17.12125 q 1.02831,-0.30849 1.49104,-0.56556 0.46274,-0.3085 0,-1.54246 -0.41132,-1.28538 -1.95377,-4.11321 -1.54246,-2.82784 -4.57595,-8.22643 -1.13114,-2.31369 -1.18255,-4.42171 -0.0514,-2.15944 0.92547,-3.75331 0.97689,-1.59387 2.98208,-2.51934 2.00519,-0.97689 5.0901,-0.97689 l 18.97221,-0.0514 v 8.32925 h -12.59672 q -1.07972,-0.0514 -1.28538,0.41133 -0.15425,0.41132 0.66839,1.90236 0.82265,1.49104 2.67359,4.37029 1.90237,2.82783 4.98728,7.55803 1.0283,1.33679 1.43962,3.34199 0.46274,2.00519 -0.20566,3.90755 -0.61698,1.85095 -2.62217,3.18774 -2.0052,1.3368 -5.86133,1.3368 z" /></g></g></g><path
               sodipodi:nodetypes="ccccccccc"
               inkscape:connector-curvature="0"
               id="path6166"
               d="m 154.35547,408.56995 -10.79492,33.27539 v 53.32849 l 12.65625,36.30078 h 274.19319 l 12.65625,-36.30078 v -53.32849 l -10.79492,-33.27539 z"
               style="fill:#000000;fill-opacity:1;fill-rule:evenodd;stroke:none;stroke-width:1.28537953px;stroke-linecap:butt;stroke-linejoin:miter;stroke-opacity:1" /><g
               style="stroke-width:1.21270108"
               transform="matrix(0.26863756,-0.77972432,0.77949816,0.26869167,61.530684,603.65372)"
               id="g6164"><path
                 style="opacity:1;fill:#ca0000;stroke:#ca0000;stroke-width:0.19484763"
                 inkscape:connector-curvature="0"
                 d="m 299.52872,280.95801 c 0.77908,-0.45416 1.59526,-0.8388 2.45782,-1.09832 0.0928,0.74612 -0.2597,1.30686 -0.93212,1.58956 -6.19556,3.55912 -12.36793,7.15995 -18.56349,10.72371 -1.44687,0.75075 -1.97553,2.39128 -2.78244,3.69814 -2.87518,5.00965 -5.73646,10.02857 -8.63946,15.01969 -0.51012,0.90368 -1.06197,1.8537 -0.99241,2.92885 0.009,7.26191 0.009,14.52845 0,21.79036 -0.051,0.82953 0.26433,1.60346 0.67706,2.30786 3.3111,5.68626 6.57119,11.40959 9.82664,17.12828 0.43128,0.76465 0.98313,1.48297 1.77149,1.90932 5.96369,3.43863 11.93201,6.87263 17.87252,10.3576 0.76981,0.46806 1.63236,0.79246 2.55057,0.73685 6.65466,-0.005 13.31396,-0.0278 19.96862,0.005 0.9182,0.0463 1.84104,-0.11586 2.62013,-0.6349 5.27272,-3.06789 10.54543,-6.14041 15.83206,-9.18976 1.37731,-0.89905 3.1117,-1.43663 4.09019,-2.82691 4.01598,-6.72433 7.63315,-13.70355 11.8439,-20.30739 0.60286,1.00101 -0.0835,1.94177 -0.56112,2.81301 -3.09778,5.2877 -6.11673,10.62175 -9.15886,15.9419 -0.84864,1.39955 -1.43759,3.1374 -3.01894,3.88815 -5.87558,3.36449 -11.72797,6.77531 -17.58037,10.18614 -0.55185,0.25952 -1.08051,0.66733 -1.70656,0.6905 -7.60996,-0.24098 -15.22457,-0.0463 -22.83453,-0.11122 -0.76053,0.0324 -1.46078,-0.25952 -2.10074,-0.63489 -6.08426,-3.53596 -12.17316,-7.058 -18.2667,-10.58005 -1.28456,-0.70904 -1.81322,-2.15494 -2.54129,-3.34131 -2.80562,-4.9216 -5.64371,-9.8293 -8.44006,-14.75553 -0.57504,-1.01954 -1.22427,-1.99274 -1.96626,-2.89178 -0.10202,-7.18776 0.0139,-14.37552 -0.0603,-21.56328 0.0325,-0.95929 -0.10202,-1.99737 0.41736,-2.85471 3.73774,-6.46944 7.44766,-12.95743 11.15294,-19.45004 0.37099,-0.68588 1.09906,-1.04272 1.73438,-1.44126 5.79675,-3.31351 11.5703,-6.65945 17.32995,-10.0332 z"
                 id="path1159" /><path
                 style="opacity:1;fill:#ca0000;stroke:#ca0000;stroke-width:0.19484763"
                 inkscape:connector-curvature="0"
                 d="m 324.41298,279.94774 c 0.89038,0.15293 1.70192,0.55611 2.47173,1.01027 4.85535,2.85935 9.73389,5.67235 14.61243,8.48536 1.64628,0.9732 3.46414,1.76102 4.74406,3.23472 -1.05269,0.0649 -2.05437,-0.24562 -2.93084,-0.81563 -6.23729,-3.71669 -12.61835,-7.21093 -18.80927,-10.99713 -0.0186,-0.23172 -0.0649,-0.69051 -0.0881,-0.91759 z"
                 id="path1161" /><path
                 style="opacity:1;fill:#c8fb64;stroke:#c8fb64;stroke-width:0.19484763"
                 inkscape:connector-curvature="0"
                 d="m 311.53957,288.34504 c 0.8301,-0.21317 1.70656,-0.49123 2.55984,-0.19 5.1707,1.38565 10.34603,2.76666 15.526,4.11523 0.71416,0.21782 1.51643,0.36148 2.05437,0.93613 4.39625,4.2728 8.59773,8.75414 13.08673,12.93425 1.48396,5.48235 2.91228,10.9786 4.40088,16.46094 0.2226,0.88978 0.53331,1.82127 0.20405,2.72959 -1.41904,5.36185 -2.88446,10.70981 -4.2664,16.08093 -0.16231,0.90832 -0.7559,1.61272 -1.39586,2.24298 -3.93715,3.91597 -7.88821,7.82729 -11.77898,11.79423 -0.44983,0.53294 -1.09443,0.811 -1.75757,0.96393 -5.0965,1.34394 -10.19764,2.67397 -15.28486,4.06889 -0.79763,0.18074 -1.62309,0.52831 -2.43927,0.23172 -5.2588,-1.39029 -10.5037,-2.82691 -15.77178,-4.17548 -0.80227,-0.19001 -1.59063,-0.49124 -2.16103,-1.09833 -4.31741,-4.21719 -8.45397,-8.62438 -12.87804,-12.72571 -1.54425,-6.08944 -3.37603,-12.11399 -4.74406,-18.2405 1.25674,-5.67699 2.96794,-11.26129 4.38234,-16.91046 0.22723,-1.64054 1.71584,-2.54886 2.74534,-3.67498 3.67745,-3.71669 7.45693,-7.34069 11.05091,-11.13153 5.4814,-1.50613 10.99063,-2.89642 16.46739,-4.41183 m -15.19674,4.5694 c -0.71416,0.1622 -1.4005,0.45416 -1.8967,1.00564 -4.09945,4.10133 -8.19891,8.20266 -12.30764,12.29936 -1.27529,5.02818 -2.65723,10.02856 -3.97425,15.04748 -0.35708,1.49224 -1.11298,3.04472 -0.50084,4.5833 1.55817,5.5704 2.88446,11.21494 4.54929,16.7529 3.59398,3.84181 7.45693,7.438 11.11583,11.22884 0.80691,0.76929 1.54425,1.74712 2.69433,1.99274 5.2588,1.41808 10.53152,2.76666 15.78105,4.21255 0.67243,0.1344 1.36804,0.46806 2.05437,0.18537 5.4072,-1.45516 10.81904,-2.88252 16.23088,-4.30987 0.78372,-0.18074 1.51179,-0.54685 2.05437,-1.1493 3.30646,-3.33668 6.6222,-6.65945 9.96112,-9.95905 0.90429,-0.9871 2.18885,-1.81201 2.43464,-3.22083 1.25209,-4.9355 2.60157,-9.84319 3.91396,-14.76015 0.3107,-1.20955 0.80226,-2.46544 0.31998,-3.70279 -1.54426,-5.5843 -2.87983,-11.23811 -4.54929,-16.78534 -3.83512,-4.21255 -8.05979,-8.08217 -12.02013,-12.18814 -0.87183,-1.06588 -2.27232,-1.26052 -3.51978,-1.59882 -4.64203,-1.21881 -9.28406,-2.44689 -13.91682,-3.69815 -0.7188,-0.14366 -1.45614,-0.50514 -2.18885,-0.23635 -5.41648,1.42273 -10.81904,2.88716 -16.23552,4.30061 z"
                 id="path1163" /><path
                 style="opacity:1;fill:#c8fb64;stroke:#c8fb64;stroke-width:0.19484763"
                 inkscape:connector-curvature="0"
                 d="m 300.76227,300.69075 c 1.76684,-0.9871 3.42703,-2.17347 5.25417,-3.05862 4.48435,-0.12513 8.98727,0.0556 13.4809,-0.0788 1.23355,-0.0602 2.1332,0.96856 3.18589,1.46443 3.24618,1.77029 6.27904,3.95303 9.67825,5.43136 2.58302,4.10134 4.63275,8.55951 7.50794,12.46157 0.009,4.38402 0.005,8.76341 0.005,13.14743 0.15303,1.29759 -0.78836,2.28933 -1.3634,3.34594 -1.81322,3.11424 -3.60789,6.23774 -5.37474,9.37977 -0.26433,0.54685 -0.71879,0.96393 -1.23818,1.26979 -3.87687,2.22446 -7.73054,4.50452 -11.55175,6.81702 -4.81826,0.0463 -9.65506,0.0927 -14.47331,-0.0556 -3.74238,-2.62764 -7.84184,-4.71306 -11.78362,-7.03019 -0.56576,-0.53295 -0.89038,-1.25589 -1.27993,-1.91396 -1.75293,-3.16521 -3.63571,-6.2609 -5.42575,-9.40757 -0.48229,-0.72295 -0.37099,-1.61736 -0.39881,-2.43763 0.0278,-3.39692 0.005,-6.79385 0.0325,-10.18614 0.0185,-0.91758 -0.0835,-1.83053 -0.34317,-2.70641 2.43927,-4.28207 4.91564,-8.5456 7.36419,-12.82303 1.45614,-0.43563 2.7407,-1.26979 4.0438,-2.02982 -0.33389,-0.0185 -1.01095,-0.0463 -1.34484,-0.0602 l 0.005,-0.44026 c 0.63996,-0.009 1.28456,-0.0186 1.92915,-0.0278 -0.57504,-0.46806 -1.13616,-0.95003 -1.66946,-1.46443 0.4591,0.19464 1.3773,0.57465 1.83641,0.76929 -0.50548,-0.87588 -1.00632,-1.75639 -1.27992,-2.73423 0.79763,0.82027 1.37267,1.81201 1.95234,2.78984 0.009,-0.44489 0.0325,-1.33467 0.0417,-1.77956 0.15767,0.3244 0.47301,0.9732 0.62605,1.29759 0.38954,-0.81099 0.8069,-1.6498 1.55352,-2.19664 -0.29679,0.76002 -0.61677,1.51541 -0.96921,2.25689 m 5.31909,-2.623 c -1.8596,1.22345 -3.86295,2.23372 -5.55096,3.70278 0.50547,0 1.51179,0 2.01263,0 l 0.005,0.46807 c -0.44519,-0.005 -1.32629,-0.0139 -1.77148,-0.0186 0.35708,0.29659 1.0666,0.88978 1.41904,1.18174 -0.39881,-0.0973 -1.19181,-0.30123 -1.59063,-0.39855 0.41273,0.73222 0.793,1.4876 1.1408,2.25689 -0.74198,-0.4727 -1.15934,-1.24198 -1.57671,-1.97883 -0.15767,0.27342 -0.47301,0.8249 -0.63069,1.10295 -0.009,-0.40318 -0.0186,-1.21418 -0.0278,-1.61736 -0.5704,0.93149 -1.08979,1.93249 -1.97089,2.61837 0.3478,-0.90832 0.81618,-1.75639 1.28919,-2.59983 -1.61381,0.53294 -3.06995,1.41809 -4.56319,2.20591 -2.3558,4.03645 -4.64667,8.10998 -7.00247,12.14643 0.48693,4.61111 0.0417,9.27318 0.23187,13.90746 -0.0325,0.58391 0.31998,1.07515 0.57504,1.57565 2.05436,3.53132 4.12264,7.05337 6.13991,10.60785 3.85831,2.14104 7.61924,4.44427 11.44045,6.65019 0.52866,0.28732 1.08515,0.60245 1.72047,0.54684 4.30351,0.0139 8.60701,0.009 12.91051,-0.009 3.85832,-2.59982 7.96241,-4.81501 11.97375,-7.17385 1.90134,-3.35521 3.82122,-6.70579 5.76429,-10.03784 0.61677,-1.13076 1.54889,-2.22445 1.39121,-3.60083 -0.0139,-4.14304 0.005,-8.28608 -0.0232,-12.42912 -2.66187,-3.64717 -4.57711,-7.77631 -6.97465,-11.59031 -0.28751,-0.50978 -0.844,-0.75076 -1.30774,-1.05662 -3.46877,-1.9603 -6.87726,-4.02718 -10.33212,-6.01529 -0.79299,-0.55147 -1.78539,-0.44952 -2.69896,-0.46342 -3.99744,0.0417 -7.99487,0.0139 -11.99231,0.0185 z"
                 id="path1167" /><path
                 style="opacity:1;fill:#a58403;stroke:#a58403;stroke-width:0.15158764"
                 d="m 242.32422,26.621094 -7.06427,3.883012 -1.64831,5.679247 7.91961,-4.128665 -0.39258,2.171874 -9.12723,2.779005 0.13307,0.870017 9.58401,0.431057 0.79882,2.117187 -8.7207,-2.210937 3.36524,5.199218 7.62109,2.072266 -1.48047,-4.351563 3.75195,0.863282 -2.21875,-6.220703 0.71875,-6.388672 -3.41015,1.662109 z m -0.39258,0.748047 -0.39648,4.023437 -7.24219,4.023438 1.61719,-4.59375 z m 2.95508,2.847656 -0.51953,5.703125 1.90429,5.419922 -3.18554,-0.859375 -0.91992,-2.617188 -2.0918,-0.148437 -0.35742,-2.552735 1.84375,-0.503906 0.42773,-2.826172 z m -6.07422,5.214844 0.36328,2.291015 -6.74023,-0.316406 z m -3.98828,3.498047 7.79297,1.955078 1.47265,3.958984 -6.47656,-1.832031 z"
                 transform="matrix(1.2853795,0,0,1.2853795,2.4811338,275.28129)"
                 id="path1171"
                 inkscape:connector-curvature="0"
                 sodipodi:nodetypes="cccccccccccccccccccccccccccccccccccccccccc" /><path
                 style="opacity:1;fill:#4600b0;stroke:#4600b0;stroke-width:0.19484763"
                 inkscape:connector-curvature="0"
                 d="m 221.07327,324.55726 c 2.40681,1.19564 4.35451,3.11886 6.71031,4.38865 3.1627,0.80173 6.47844,0.68124 9.66897,1.34394 -2.73606,0.80637 -5.58342,-0.43562 -8.3705,-0.38001 0.90429,0.72758 1.81322,1.45053 2.69897,2.20592 -0.83474,0.71367 -1.6741,1.42735 -2.48565,2.16883 2.33261,-0.28269 4.61421,-0.88514 6.94218,-1.1771 0.48693,-0.0973 0.94603,0.11122 1.39586,0.26415 -3.09314,0.86661 -6.36715,0.93149 -9.42783,1.89542 -2.16566,1.30687 -3.8073,3.34131 -6.04716,4.55086 0.50548,-1.41345 1.16399,-2.76203 1.83641,-4.10597 l -1.21036,0.22245 c 0.90429,-0.6349 1.83641,-1.2837 2.36971,-2.2847 -1.05269,0.58392 -1.91988,1.43199 -2.60158,2.41909 -0.41273,-0.0278 -1.23818,-0.0834 -1.65555,-0.10659 1.64164,-1.43662 3.46413,-2.6369 5.26344,-3.85571 -2.0219,-1.20491 -4.24785,-2.1503 -5.93123,-3.83255 1.07588,0.0973 2.14712,0.25025 3.21836,0.40319 -0.86256,-1.33004 -1.70656,-2.67861 -2.37435,-4.11987 m 1.8596,2.002 c 1.1408,1.99274 2.5923,3.7862 3.97424,5.61211 -0.61213,0.94539 -1.21036,1.90468 -1.81786,2.85471 0.87647,-0.15293 1.75294,-0.30123 2.63404,-0.43099 1.05269,-0.81563 2.09147,-1.64053 3.12097,-2.47933 -1.68801,-1.06125 -3.21835,-3.13277 -5.46749,-2.38666 -0.051,-0.22244 -0.15303,-0.67196 -0.19941,-0.89904 l 1.2521,0.25488 c -1.08051,-0.95466 -2.25377,-1.7981 -3.49659,-2.52568 m -0.18086,2.63227 c -0.10666,0.64416 0.98776,1.10296 1.49788,0.79246 0.14376,-0.68587 -0.97849,-1.14003 -1.49788,-0.79246 m 2.13784,6.5575 c -0.56577,0.56538 -0.80227,1.37638 -1.18254,2.06688 1.13153,-0.72758 2.16566,-1.58955 3.12561,-2.52104 -0.48693,0.11122 -1.45615,0.3383 -1.94307,0.45416 z"
                 id="path1183" /><path
                 style="opacity:1;fill:#d7d4c5;stroke:#d7d4c5;stroke-width:0.19484763"
                 inkscape:connector-curvature="0"
                 d="m 250.41871,332.52357 c 0.0371,-0.99173 0.76517,-1.33467 1.58599,-1.51541 0.051,0.58392 0.0974,1.16321 0.14375,1.75176 -0.57967,-0.0742 -1.15471,-0.15293 -1.72974,-0.23635 z"
                 id="path1191" /></g><g
               style="stroke-width:3.90333724"
               transform="matrix(0.2562558,0,0,0.25612631,62.177703,473.76586)"
               id="g8367"><path
                 style="opacity:1;fill:#0806e5;stroke:#0806e5;stroke-width:0.62715864"
                 inkscape:connector-curvature="0"
                 d="m 769.74223,-116.14154 c 6.35835,-2.0052 12.78524,-3.94183 19.43494,-4.83303 -0.5827,0.77123 -1.71384,2.29654 -2.29654,3.05063 -25.63904,7.2324 -51.4666,13.76213 -77.05422,21.14878 61.48032,63.821889 110.54919,124.007517 167.73345,181.649828 1.21683,0.03428 3.65048,0.10283 4.86731,0.119968 -0.0514,0.75409 -0.13711,2.227991 -0.18853,2.964942 -0.78836,0.257076 -2.38223,0.736951 -3.18774,0.976889 -4.04466,4.233183 -6.68397,9.528946 -8.27784,15.116063 l -0.85692,-0.6684 c 0.0171,-1.01116 0.80553,-4.576038 0.82263,-5.587204 L 654.00666,-13.05411 c 0.18853,37.790156 0.17139,75.580313 0.0343,113.35333 l 214.77834,9.47755 1.07972,-2.63931 1.19969,-1.95378 c 1.0283,3.41054 2.19371,6.76967 3.63334,10.00882 l 0.30849,0.92548 c -0.82264,0.10283 -2.45079,0.30849 -3.27343,0.41132 -0.42846,-1.04544 -1.28538,-3.15346 -1.71384,-4.19891 l -214.02425,-9.61464 c 16.74421,26.23888 34.01971,52.11786 50.42115,78.57954 7.11243,-1.73098 13.98493,-4.26746 20.73745,-7.07816 0.85692,0.51415 2.53649,1.52532 3.37627,2.03947 -6.61542,2.41651 -13.17943,5.00441 -19.81199,7.43806 26.23888,5.89561 52.01503,13.77927 78.01397,20.6689 30.72914,-26.47881 62.62369,-51.6037 93.48993,-77.92827 0.27422,-0.90833 0.80551,-2.74214 1.06258,-3.65048 -0.4456,0.58271 -1.37107,1.76526 -1.81667,2.34796 -0.27421,-0.73695 -0.78836,-2.21085 -1.04544,-2.9478 l 0.2228,-1.54246 c 2.41651,0.47988 4.83303,0.94262 7.28382,1.26824 0.68553,-0.32562 2.0566,-0.95975 2.75928,-1.28537 0.41132,0.99402 1.2511,2.98208 1.66242,3.99324 -7.48947,10.95143 -17.17267,20.20617 -25.55334,30.4892 23.44532,0.0514 46.8735,-0.17138 70.30169,0.0857 -6.27265,-6.59828 -11.55128,-14.08776 -18.23525,-20.27471 0.73695,-0.95975 1.50818,-1.9195 2.26226,-2.87925 9.27188,11.00284 17.63541,23.49673 30.52348,30.60916 10.64294,6.35835 20.29186,14.37912 31.41468,19.88054 0,2.91353 3.37626,3.99325 5.79277,3.87328 -0.9774,1.04214 0.67324,0 0,0 -1.04544,-2.1423 -3.25629,-4.13036 -5.79277,-3.87328 L 964.10877,165.9393 c -14.87613,-12.83666 -30.60917,-24.66215 -45.14253,-37.87585 -0.8055,1.40535 -1.61101,2.79356 -2.41651,4.18177 -4.43885,-5.99844 -9.2376,-14.46481 -17.99532,-13.16229 -2.02233,1.86808 -4.06179,3.73617 -6.16982,5.5357 0.0857,-1.28538 0.29136,-3.85614 0.37705,-5.14152 1.6967,-0.95975 3.42768,-1.86808 5.15865,-2.75928 l 0.35991,0.0171 c 5.0901,0.30849 10.47156,0.53129 14.56763,3.97611 -0.27421,0.29135 -0.8055,0.89119 -1.07971,1.18255 0.27421,-0.29136 0.8055,-0.8912 1.07971,-1.18255 0.56557,0.32563 1.71384,0.95975 2.27941,1.28538 3.15346,-0.41132 6.28979,-0.99403 9.44326,-1.47391 0.89119,-1.09685 1.78239,-2.19371 2.65645,-3.29057 l 0.53129,1.47391 c 0.94261,2.33082 3.05063,3.59906 5.34717,4.28459 l 163.91159,58.27054 c 16.8299,-26.2046 33.6427,-52.44348 50.6611,-78.52812 l -214.02426,9.58036 c -0.61698,1.14828 -1.81667,3.42768 -2.43365,4.55882 -0.75409,-0.20566 -2.29654,-0.63412 -3.05063,-0.85692 1.09685,-1.5596 2.19371,-3.11919 3.30771,-4.66165 -0.23994,-5.63853 1.50818,-12.099701 -2.3651,-16.881312 -2.51934,-4.901581 -7.60945,-7.369509 -12.81952,-8.243567 -0.94261,0.359906 -2.84497,1.06258 -3.78758,1.422486 -1.59387,1.833808 -3.29058,3.581924 -4.98728,5.33004 -1.95377,-0.565567 -3.90755,-1.096857 -5.86133,-1.611009 l 1.26824,-0.942611 c 0.61699,-0.222799 1.81667,-0.651259 2.41652,-0.85692 6.73539,-30.317817 12.28823,-60.858433 18.64657,-91.2448041 4.2846,-22.5884019 9.52895,-44.9882819 13.4365,-67.6452369 -23.90806,-0.06855 -47.81612,0.10283 -71.72417,0 l -1.9195,-0.102831 1.23396,-1.576732 c 24.7307,-0.205661 49.47854,0.188523 74.20924,-0.188522 24.47363,-17.395469 50.24977,-32.905711 74.86048,-50.095521 10.4716,1.6967 20.309,6.37548 30.9005,7.30095 17.584,6.70112 36.3334,9.75175 54.1573,15.733048 13.745,23.668121 29.5981,46.068001 44.08,69.290523 2.7421,4.438844 5.6557,8.774857 8.672,13.025179 -0.4456,2.759281 -0.8569,5.535701 -0.8398,8.3292589 -0.051,33.1285141 -0.017,66.2398891 -0.034,99.3512641 -0.034,3.393402 0.2913,6.786804 0.8055,10.145927 -18.2353,27.45571 -35.8707,55.27132 -53.7289,82.96696 l -83.4126,23.22252 c -22.91397,-16.40144 -47.02768,-31.10618 -70.37018,-46.90778 -2.89638,-1.76525 -5.65567,-4.4217 -9.28901,-4.16463 -22.29704,-0.17138 -44.59409,-0.0514 -66.874,-0.0514 -2.27941,-0.27422 -4.18177,1.01116 -5.96417,2.21085 -24.42221,16.45286 -49.5985,31.84314 -73.60939,48.89584 -5.91275,-2.98208 -12.54531,-3.85614 -18.81796,-5.79278 -21.1145,-5.84419 -42.33183,-11.41417 -63.46347,-17.15553 -5.19293,-6.37548 -9.23759,-13.59075 -13.53933,-20.56607 -0.41132,0.0514 -1.21682,0.15424 -1.62815,0.20566 0.41133,-2.46793 -1.38821,-4.42171 -2.5022,-6.39262 -12.30537,-18.68085 -24.16514,-37.65305 -36.59047,-56.26535 0.59984,-38.869873 0.0514,-77.756887 0.27421,-116.626762 -0.10283,-2.639312 1.88523,-4.661643 3.06778,-6.838219 16.05867,-24.165134 31.38039,-48.810143 47.33624,-73.043831 1.76525,-2.87925 4.31887,-5.43287 7.8151,-5.947018 19.77771,-5.09011 39.38403,-10.88288 59.21315,-15.78446 m 246.14155,-1.21683 c -32.55565,66.864276 -68.94685,137.609983 -96.21511,196.577368 -3.08491,1.06258 -3.22201,2.45079 -0.39418,4.147491 0.46274,0.908335 1.37107,2.725004 1.83381,3.650478 l 1.54246,-1.953777 c 0.75408,0.137107 2.26226,0.411321 3.01635,0.548428 57.52969,-59.233333 115.85867,-127.325438 169.17307,-182.078287 -22.9483,-6.581141 -46.1023,-12.425331 -69.0506,-18.955061 -3.2563,-0.85692 -6.5126,-1.98806 -9.906,-1.93664 m -69.23907,44.217054 c -2.65646,1.953777 -6.47832,3.513371 -6.59829,7.335232 -10.21448,50.266907 -20.42896,100.550952 -30.35209,150.869274 -1.21683,2.759281 4.13035,0.976888 4.91872,-0.188522 1.38821,-1.576733 1.73098,-3.290572 1.01116,-5.141518 l 95.23807,-194.77784 c -21.64581,13.57361 -42.81172,27.952722 -64.21757,41.903374 M 706.46729,-95.335535 c -16.64138,26.924416 -34.60242,53.026188 -51.14097,80.036295 l 216.64643,110.91968 -0.39419,-2.570759 1.42249,-0.08569 c 0,-0.719812 -0.0171,-2.159438 -0.0343,-2.87925 1.45677,-0.634121 2.82784,-1.439625 4.13036,-2.399375 C 818.44869,29.066511 757.20594,-43.019754 706.46729,-95.335535 m 390.65251,0.359906 -169.12165,183.089453 c 1.5596,2.467928 3.08491,4.935857 4.59309,7.438062 l 215.39536,-110.79971 c -1.9024,-4.26746 -4.4046,-8.192152 -7.1982,-11.911184 M 933.41389,99.099534 c 0.0171,3.633336 0.0343,7.266676 0.0343,10.917156 l 215.84091,-9.90599 c -0.034,-37.670189 0.051,-75.357515 -0.051,-113.027703 L 933.41432,99.099534 m -13.38509,24.353656 0.4456,1.14827 -1.4739,-0.18852 c 3.65048,3.85614 7.83224,7.14671 12.13398,10.23162 0.61698,2.27941 2.1423,3.65048 4.55881,4.13035 26.25602,21.95428 53.11188,43.25731 78.88798,65.74288 L 1094.81,183.19567 944.3692,129.34684 c -2.24513,-1.71384 -6.96164,-2.89443 -9.17249,-4.64255 -0.80551,0.47988 -2.39938,1.45677 -3.20488,1.93664 -1.14827,-2.9478 -6.52973,-4.90158 -8.99766,-3.05063 l -1.23396,-0.94261 -1.73098,0.8055 m -93.79842,53.11188 c -2.34796,1.83381 -4.62737,3.80472 -6.32407,6.28979 8.36353,-4.14749 15.63021,-10.12879 23.6167,-14.9104 7.83225,-5.7585 17.17267,-9.68319 23.42819,-17.36119 7.14671,-8.17502 14.49908,-16.17865 21.26874,-24.66215 -21.28588,16.05867 -41.09786,34.07112 -61.98956,50.64395 m -11.12282,9.54608 c -1.13113,1.04545 -1.13113,1.04545 0,0 1.83381,0.68554 5.46715,-1.01116 4.79875,-3.25629 -1.90236,-0.95975 -5.0901,1.09686 -4.79875,3.25629 z"
                 id="path823"
                 sodipodi:nodetypes="ccccccccccccccccccccccccccccccccccccccccccccccccccccccccccccccccccccccccccccccccccccccccccccccccccccccccccccccccccccccccccccccccccccccccccccccccccccccccccccccccc" /><path
                 style="opacity:1;fill:#f3f417;stroke:#f3f417;stroke-width:0.62715864"
                 inkscape:connector-curvature="0"
                 d="m 789.17717,-120.97457 c 25.86184,6.01558 51.79222,12.0997 77.39698,19.10931 -0.27421,10.283033 0.6684,20.754591 -1.55959,30.866243 l -1.23396,1.576732 1.9195,0.102831 c 10.59152,53.026188 21.32016,106.018099 32.08307,159.01001 -1.14828,-0.08569 -3.42768,-0.239938 -4.57595,-0.32563 -0.18853,0.03428 -0.58271,0.08569 -0.77123,0.119969 l -2.15944,0.377045 c 0.0514,-0.891197 0.15425,-2.656451 0.2228,-3.547647 l 0.0514,-0.908335 c 2.60504,0.411321 4.86731,-2.742143 2.70787,-4.764474 -1.64528,-1.011165 -3.13632,-0.651258 -4.45598,1.062581 0.4456,0.925473 1.31966,2.776419 1.74811,3.701893 -1.62814,-0.925474 -3.29057,-1.799532 -4.98727,-2.587898 C 853.90473,14.296017 818.73051,-51.6078 788.69729,-116.96419 l -1.81667,-0.95975 2.29654,-3.05063 m 73.64368,31.003352 c 2.89697,-1.670301 1.06258,-6.61542 1.4739,-9.923129 l -62.97496,-15.163183 m -3.9298,1.02132 7.29743,6.54955 2.26226,4.93586 3.46196,6.83822 5.19293,8.072184 -3.22202,-0.805505 -12.47675,-16.058679 -6.46133,-8.03822 6.76983,13.368265 c 25.084,57.511785 59.34447,113.396332 82.65846,170.235658 0.15425,-0.565567 0.42846,-1.696701 0.56557,-2.262268 -2.1423,-3.119188 -2.60503,-8.055045 1.38821,-9.871714 1.59387,1.730977 2.38224,3.890415 2.84497,6.152683 1.13114,3.736169 2.8107,7.318093 3.27344,11.225647 l 1.52532,0.05142 c -0.46274,-2.776419 -0.78837,-5.569978 -1.61101,-8.260705 -2.77642,-8.997657 -3.95897,-18.389496 -5.9813,-27.575675 -7.40379,-36.4876383 -14.82471,-72.975277 -22.05711,-109.497192 -7.07816,-1.38821 -14.12204,-2.982081 -21.2002,-4.404567 l -12.54089,-4.086525 c 6.42689,-0.394183 12.85379,-0.171384 19.29783,-0.239938 1.33679,0.05142 4.36588,-0.12952 5.70267,-0.0781 1.31966,-2.999219 2.8107,-5.929884 4.01039,-8.997657 l -50.19835,-22.142802 -10.50231,-5.10994 m 59.45239,37.941419 -4.05606,0.111366 -13.62832,-0.140026 c 0,0 14.23673,2.502272 17.54444,3.136393 1.07972,0.119968 3.25629,0.342767 4.33601,0.462736 0.4407,-0.625757 0.72371,-0.582958 1.42249,-0.719812 l 0.25707,-14.584773 m 21.3373,150.886409 c 0.99403,0.95975 0.99403,0.95975 0,0 m 1.74812,13.813545 c 0.92547,0.85692 0.92547,0.85692 0,0 z"
                 id="path825"
                 sodipodi:nodetypes="ccccccccccccccccccccccccccccccccccccccccccccccccccccccccc" /><path
                 style="opacity:1;fill:#0806e5;stroke:#0806e5;stroke-width:0.62715864"
                 inkscape:connector-curvature="0"
                 d="m 797.38998,-114.03621 c 2.75928,0.95975 7.94869,3.6703 10.50232,5.10993 15.20175,10.677218 31.17472,20.20617 46.18795,31.140465 -1.33679,-0.05142 -4.01037,-0.137113 -5.34716,-0.188528 -14.17345,-10.574388 -29.66656,-19.229277 -44.04567,-29.512317 -1.19969,-1.26824 -6.11489,-5.29845 -7.29744,-6.54955 z"
                 id="path841"
                 sodipodi:nodetypes="cccccc" /><path
                 style="opacity:1;fill:#0806e5;stroke:#0806e5;stroke-width:0.62715864"
                 inkscape:connector-curvature="0"
                 d="m 851.56083,-75.983424 5.28154,-0.111371 4.74451,2.970617 -0.54843,0.599844 c -1.07972,-0.119969 -3.25629,-0.342768 -4.33601,-0.462736 z"
                 id="path853"
                 sodipodi:nodetypes="cccccc" /><path
                 style="opacity:1;fill:#f3f417;stroke:#f3f417;stroke-width:0.62715864"
                 inkscape:connector-curvature="0"
                 d="m 1004.8296,-35.094083 c 0.617,-0.359907 1.8681,-1.045442 2.485,-1.405349 l 0.3428,0.839782 c -0.5141,0.53129 -1.5253,1.576732 -2.0395,2.108022 z"
                 id="path859" /><path
                 style="opacity:1;fill:#1ad915;stroke:#1ad915;stroke-width:0.62715864"
                 inkscape:connector-curvature="0"
                 d="m 1007.3146,-36.499432 0.7713,-0.10283 c -0.1029,0.239937 -0.3257,0.702674 -0.4285,0.942612 z"
                 id="path861" /><path
                 style="opacity:1;fill:#1ad915;stroke:#1ad915;stroke-width:0.62715864"
                 inkscape:connector-curvature="0"
                 d="m 977.64808,2.4904124 c 9.30615,-12.3567814 17.15553,-25.8104194 27.18152,-37.5844954 l 0.7883,1.542455 c -3.4105,6.786804 -8.22639,12.682411 -12.51099,18.903647 -12.71669,18.166697 -25.67331,36.179148 -38.1672,54.482952 -2.45079,2.416513 1.09685,4.610227 2.12516,6.769665 -1.81667,4.336013 -4.90158,7.849384 -8.65489,10.625804 -1.4739,-0.599844 -2.9478,-1.18255 -4.42171,-1.782393 -7.50661,9.5975 -13.84782,20.017643 -21.33729,29.615143 l -1.54246,1.953777 c -0.46274,-0.925474 -1.37107,-2.742143 -1.83381,-3.650478 0.53129,-0.445598 1.61101,-1.353933 2.1423,-1.799531 8.07218,-9.5975 14.5505,-20.411826 21.98856,-30.489201 -2.67359,-4.661643 -1.21683,-9.426117 2.29654,-13.12801 1.98806,0.668398 3.95897,1.38821 5.92989,2.125161 8.00363,-12.973763 17.48116,-24.970638 26.01608,-37.5844956 M 945.80494,42.491422 c 0.92548,0.942611 0.92548,0.942611 0,0 m 3.44482,5.124379 c 0.95975,0.95975 0.95975,0.95975 0,0 z"
                 id="path863" /><path
                 style="opacity:1;fill:#000000;stroke:#000000;stroke-width:0.62715864"
                 inkscape:connector-curvature="0"
                 d="m 945.80494,42.491422 c 0.92548,0.942611 0.92548,0.942611 0,0 z"
                 id="path869" /><path
                 style="opacity:1;fill:#000000;stroke:#000000;stroke-width:0.62715864"
                 inkscape:connector-curvature="0"
                 d="m 949.24976,47.615801 c 0.95975,0.95975 0.95975,0.95975 0,0 z"
                 id="path871" /><path
                 style="opacity:1;fill:#f3f417;stroke:#f3f417;stroke-width:0.62715864"
                 inkscape:connector-curvature="0"
                 d="m 1073.5717,60.486734 c -2.5365,0.822643 -2.5365,-5.055826 -0.017,-4.250321 0.017,1.06258 0.017,3.187741 0.017,4.250321 z"
                 id="path873" /><path
                 style="opacity:1;fill:#f3f417;stroke:#f3f417;stroke-width:0.62715864"
                 inkscape:connector-curvature="0"
                 d="m 1062.346,64.068658 c -0.9597,-1.576732 -1.6281,-6.101267 0.8398,-6.238375 0.9083,1.576733 1.5939,6.08413 -0.8398,6.238375 z"
                 id="path875" /><path
                 style="opacity:1;fill:#f40412;stroke:#f40412;stroke-width:0.62715864"
                 inkscape:connector-curvature="0"
                 d="m 884.05531,63.057493 c 0.99403,0.95975 0.99403,0.95975 0,0 z"
                 id="path877" /><path
                 style="opacity:1;fill:#f40412;stroke:#f40412;stroke-width:0.62715864"
                 inkscape:connector-curvature="0"
                 d="m 1065.4138,67.307815 c -1.234,-1.782393 1.0626,-4.987273 3.1363,-4.301737 1.1826,1.782393 -1.0454,5.038688 -3.1363,4.301737 z"
                 id="path879" /><path
                 style="opacity:1;fill:#f40412;stroke:#f40412;stroke-width:0.62715864"
                 inkscape:connector-curvature="0"
                 d="m 947.67297,63.160313 0.78832,8.672518 7.11254,-6.992945 -3.68476,4.69592 -0.82264,0.359906 -1.30252,3.839 -0.61698,10.060237 -2.10226,-6.878484 -5.69571,8.917953 5.46715,-12.716688 z"
                 id="path881"
                 sodipodi:nodetypes="ccccccccccc" /><path
                 style="opacity:1;fill:#f40412;stroke:#f40412;stroke-width:0.62715864"
                 inkscape:connector-curvature="0"
                 d="m 1071.1723,64.548533 c 2.5879,0.736951 0.034,6.786804 -2.3308,6.358344 -0.9598,-2.227991 0.6169,-4.952995 2.3308,-6.358344 z"
                 id="path883" /><path
                 style="opacity:1;fill:#f3f417;stroke:#f3f417;stroke-width:0.62715864"
                 inkscape:connector-curvature="0"
                 d="m 1075.9539,68.233288 1.0454,0.01714 c 1.3883,2.279407 1.0283,3.701893 -1.0625,4.26746 0.017,-1.079719 0.017,-3.204879 0.017,-4.284598 z"
                 id="path885" /><path
                 style="opacity:1;fill:#f3f417;stroke:#f3f417;stroke-width:0.62715864"
                 inkscape:connector-curvature="0"
                 d="m 951.06643,69.895712 0.82264,-0.359906 0.59985,1.233964 c -0.0686,2.467929 0.61698,4.90158 1.64528,7.14671 l -0.78836,0.239937 c -0.8912,-1.096857 -2.69073,-3.307709 -3.58193,-4.421705 0.32563,-0.95975 0.97689,-2.87925 1.30252,-3.839 z"
                 id="path887" /><path
                 style="opacity:1;fill:#f3f417;stroke:#f3f417;stroke-width:0.62715864"
                 inkscape:connector-curvature="0"
                 d="m 953.29442,70.375587 c 0.46274,-0.239937 1.37107,-0.702674 1.83381,-0.942612 1.45676,1.885224 3.839,5.484286 1.13113,7.335233 -0.83978,-2.210853 -1.8338,-4.336014 -2.96494,-6.392621 z"
                 id="path889" /><path
                 style="opacity:1;fill:#f40412;stroke:#f40412;stroke-width:0.62715864"
                 inkscape:connector-curvature="0"
                 d="m 952.48892,70.76977 0.8055,-0.394183 c 1.13114,2.056607 2.12516,4.181768 2.96494,6.392621 -0.53129,0.291352 -1.59387,0.856919 -2.12516,1.148272 -1.0283,-2.24513 -1.71384,-4.678781 -1.64528,-7.14671 z"
                 id="path891" /><path
                 style="opacity:1;fill:#f3f417;stroke:#f3f417;stroke-width:0.62715864"
                 inkscape:connector-curvature="0"
                 d="m 1065.7737,77.796511 c -0.994,-1.576732 -1.6624,-6.066991 0.8055,-6.238375 0.9426,1.559594 1.611,6.049853 -0.8055,6.238375 z"
                 id="path893" /><path
                 style="opacity:1;fill:#1ad915;stroke:#1ad915;stroke-width:0.62715864"
                 inkscape:connector-curvature="0"
                 d="m 885.80343,76.871038 c 0.92547,0.85692 0.92547,0.85692 0,0 z"
                 id="path895" /><path
                 style="opacity:1;fill:#f40412;stroke:#f40412;stroke-width:0.62715864"
                 inkscape:connector-curvature="0"
                 d="m 909.69435,85.06319 c 1.97092,-1.782393 3.99325,-3.513371 5.92988,-5.33004 0.71982,1.850946 0.37705,3.564785 -1.01116,5.141518 -0.78837,1.16541 -6.13555,2.947803 -4.91872,0.188522 z"
                 id="path901" /><path
                 style="opacity:1;fill:#f40412;stroke:#f40412;stroke-width:0.62715864"
                 inkscape:connector-curvature="0"
                 d="m 919.27471,83.366489 c -2.82783,-1.696701 -2.69073,-3.084911 0.39418,-4.147491 0.42846,0.582705 1.30252,1.765254 1.74812,2.34796 -0.53129,0.445598 -1.61101,1.353933 -2.1423,1.799531 z"
                 id="path903" /><path
                 style="opacity:1;fill:#0806e5;stroke:#0806e5;stroke-width:0.62715864"
                 inkscape:connector-curvature="0"
                 d="m 883.79824,84.977498 c 0.4456,-0.53129 1.31965,-1.611009 1.76525,-2.159438 1.6967,0.788366 3.35913,1.662424 4.98727,2.587898 l -0.0514,0.908335 c -2.07375,0.839781 -4.13035,0.839781 -6.16982,0 z"
                 id="path905" /><path
                 style="opacity:1;fill:#f3f417;stroke:#f3f417;stroke-width:0.62715864"
                 inkscape:connector-curvature="0"
                 d="m 882.42717,84.994636 1.37107,-0.01714 0.53129,1.336795 c -0.53129,0.411321 -1.5596,1.233964 -2.09089,1.645285 0.0514,-0.736951 0.13711,-2.210852 0.18853,-2.964942 z"
                 id="path907" /><path
                 style="opacity:1;fill:#f40412;stroke:#f40412;stroke-width:0.62715864"
                 inkscape:connector-curvature="0"
                 d="m 892.43599,89.484895 c 0.18852,-0.03428 0.5827,-0.08569 0.77123,-0.119969 l -0.34277,0.531291 z"
                 id="path913" /><path
                 style="opacity:1;fill:#0806e5;stroke:#0806e5;stroke-width:0.62715864"
                 inkscape:connector-curvature="0"
                 d="m 893.20722,89.364926 c 1.14827,0.08569 3.42767,0.239938 4.57595,0.32563 0.54843,0.06855 1.64528,0.205661 2.19371,0.291353 l 0.29135,1.113995 c -1.38821,0.839781 -2.82783,1.525317 -4.35315,2.056607 -0.75409,-0.822643 -2.29654,-2.433651 -3.05063,-3.256294 z"
                 id="path915" /><path
                 style="opacity:1;fill:#f3f417;stroke:#f3f417;stroke-width:0.62715864"
                 inkscape:connector-curvature="0"
                 d="m 899.97688,89.981909 c 0.65126,-0.257076 1.95378,-0.771228 2.5879,-1.028304 l 0.3599,1.473902 -1.26824,0.942611 -1.38821,-0.274214 z"
                 id="path917" /><path
                 style="opacity:1;fill:#f3f417;stroke:#f3f417;stroke-width:0.62715864"
                 inkscape:connector-curvature="0"
                 d="m 871.71567,90.410368 1.2511,-0.325629 c 0.0171,0.719812 0.0343,2.159438 0.0343,2.87925 l -1.42249,0.08569 c 0.0343,-0.651259 0.10283,-1.970915 0.13711,-2.639313 z"
                 id="path919" /><path
                 style="opacity:1;fill:#f40412;stroke:#f40412;stroke-width:0.62715864"
                 inkscape:connector-curvature="0"
                 d="m 703.58497,102.35391 3.15091,-6.425012 0.33704,6.473262 c -1.42248,0.0171 -2.06551,-0.0653 -3.48795,-0.0482 z"
                 id="path921"
                 sodipodi:nodetypes="cccc" /><path
                 style="opacity:1;fill:#f3f417;stroke:#f3f417;stroke-width:0.62715864"
                 inkscape:connector-curvature="0"
                 d="m 868.2023,106.70898 c 0.42846,-0.82264 1.28538,-2.48507 1.71384,-3.32485 l 0.85692,0.6684 0.32563,1.13113 c -0.29135,0.49702 -0.90834,1.47391 -1.19969,1.95378 z"
                 id="path925" /><path
                 style="opacity:1;fill:#f40412;stroke:#f40412;stroke-width:0.62715864"
                 inkscape:connector-curvature="0"
                 d="m 707.23851,105.21794 c -0.51415,9.88885 1.28538,19.65774 1.73098,29.49517 -0.15424,5.45001 3.15347,9.99169 5.82705,14.44767 5.09011,8.08932 9.83744,16.3843 14.79044,24.54218 l 1.62815,2.34796 -0.65126,0.20566 c -0.83978,-0.51415 -2.51935,-1.52532 -3.37627,-2.03947 l -11.75693,-11.97974 -7.01537,13.32798 -1.43386,-34.73383 c -6.2041,-8.96338 -12.64814,-17.82393 -17.96104,-27.35287 4.38743,1.14827 8.63775,2.74214 12.83666,4.43884 0.0685,-4.31888 1.3794,-8.4873 1.44795,-12.80618 m 1.4313,10.57819 c -0.32563,1.52532 -1.01117,4.59309 -1.3368,6.1184 -2.57076,-0.99402 -5.12438,-1.97091 -7.69514,-2.93066 2.89639,5.22721 6.32407,10.12879 9.80317,14.96182 -0.0171,-6.04986 -0.11997,-12.11685 -0.77123,-18.14956 m 6.13554,50.09552 3.54796,-6.9124 8.09591,6.65612 c -3.15347,-4.09608 -10.61556,-15.87095 -12.96352,-20.46404 0.92547,6.8725 1.14827,13.79641 1.31965,20.72032 z"
                 id="path929"
                 sodipodi:nodetypes="ccccccccccccccccccccccc" /><path
                 style="opacity:1;fill:#f40412;stroke:#f40412;stroke-width:0.62715864"
                 inkscape:connector-curvature="0"
                 d="m 875.05766,108.20002 c 0.65126,0.61698 1.95377,1.83381 2.60503,2.45079 0.97689,-0.71981 2.94781,-2.15944 3.9247,-2.87925 -1.59388,3.42768 -3.06778,6.90677 -4.90158,10.21448 -1.21683,2.10803 -2.65646,4.23319 -5.22721,4.74734 0.0514,-0.83978 0.1371,-2.51935 0.18852,-3.35913 2.21085,-0.2228 3.34198,-1.31965 3.3934,-3.25629 l -0.30849,-0.92548 c 0.0685,-1.74811 0.23994,-5.24434 0.32563,-6.99246 z"
                 id="path933" /><path
                 style="opacity:1;fill:#f40412;stroke:#f40412;stroke-width:0.62715864"
                 inkscape:connector-curvature="0"
                 d="m 885.51208,110.94216 c 5.67281,0.20566 -2.62218,5.1758 0,0 z"
                 id="path935" /><path
                 style="opacity:1;fill:#f40412;stroke:#f40412;stroke-width:0.62715864"
                 inkscape:connector-curvature="0"
                 d="m 923.38793,110.80506 c 2.81069,-0.92548 3.77044,0.0171 2.89638,2.79355 -2.81069,0.90834 -3.77044,-0.0171 -2.89638,-2.79355 z"
                 id="path937" /><path
                 style="opacity:1;fill:#f3f417;stroke:#f3f417;stroke-width:0.62715864"
                 inkscape:connector-curvature="0"
                 d="m 871.76709,116.52928 c 0.82264,-0.10283 2.45079,-0.30849 3.27343,-0.41132 -0.0514,1.93664 -1.18255,3.03349 -3.3934,3.25629 0.0343,-0.71981 0.0857,-2.1423 0.11997,-2.84497 z"
                 id="path941" /><path
                 style="opacity:1;fill:#f3f417;stroke:#f3f417;stroke-width:0.62715864"
                 inkscape:connector-curvature="0"
                 d="m 928.16954,116.01513 c 0.75409,0.2228 2.29654,0.65126 3.05063,0.85692 -0.54843,0.5827 -1.66242,1.73097 -2.22799,2.29654 l -1.23396,-0.46273 -0.53129,-1.47391 z"
                 id="path945" /><path
                 style="opacity:1;fill:#0806e5;stroke:#0806e5;stroke-width:0.62715864"
                 inkscape:connector-curvature="0"
                 d="m 876.68581,117.98604 1.43962,1.67957 c 0.25708,0.75408 0.78837,2.24512 1.04544,2.99921 -49.18719,18.13242 -98.61431,35.68214 -147.95574,53.3861 l -1.62815,-2.34796 c 47.19913,-17.18981 94.43254,-34.37962 141.87162,-50.96958 2.57075,-0.51415 4.01038,-2.63931 5.22721,-4.74734 z"
                 id="path947" /><path
                 style="opacity:1;fill:#f40412;stroke:#f40412;stroke-width:0.62715864"
                 inkscape:connector-curvature="0"
                 d="m 878.12543,119.66561 c 0.63412,0.23993 1.9195,0.73695 2.55362,0.97688 l -0.2228,1.54246 -1.28538,0.47987 c -0.25707,-0.75409 -0.78836,-2.24513 -1.04544,-2.99921 z"
                 id="path949" /><path
                 style="opacity:1;fill:#f3f417;stroke:#f3f417;stroke-width:0.62715864"
                 inkscape:connector-curvature="0"
                 d="m 890.72215,120.62536 c 0.49701,-0.29136 1.52532,-0.87406 2.03947,-1.14828 -0.0857,1.28538 -0.29135,3.85614 -0.37705,5.14152 -0.41132,-1.01116 -1.2511,-2.99922 -1.66242,-3.99324 z"
                 id="path951" /><path
                 style="opacity:1;fill:#f3f417;stroke:#f3f417;stroke-width:0.62715864"
                 inkscape:connector-curvature="0"
                 d="m 881.50169,125.13275 c 0.4456,-0.5827 1.37107,-1.76525 1.81667,-2.34796 -0.25707,0.90834 -0.78836,2.74215 -1.06258,3.65048 z"
                 id="path959" /><path
                 style="opacity:1;fill:#1ad915;stroke:#1ad915;stroke-width:0.62715864"
                 inkscape:connector-curvature="0"
                 d="m 920.0288,123.45319 1.73098,-0.8055 1.23396,0.94261 0.10283,0.95975 c -0.65126,0.0171 -1.97091,0.0343 -2.62217,0.0514 z"
                 id="path961" /><path
                 style="opacity:1;fill:#1ad915;stroke:#1ad915;stroke-width:0.62715864"
                 inkscape:connector-curvature="0"
                 d="m 923.09657,124.55005 c 2.96495,0.3599 5.92989,3.34198 8.89483,2.09088 0.8055,-0.47987 2.39937,-1.45676 3.20488,-1.93664 2.21085,1.74812 4.43884,3.46196 6.68397,5.1758 -1.74811,3.18774 -3.25629,6.61542 -6.18696,8.89482 -2.41651,-0.47987 -3.94183,-1.85094 -4.55881,-4.13035 -1.31966,-4.30174 -5.14152,-6.92391 -8.03791,-10.09451 m 10.45442,5.36431 c -2.63931,5.19294 5.6214,0.27422 0,0 z"
                 id="path967" /><path
                 style="opacity:1;fill:#f3f417;stroke:#f3f417;stroke-width:0.62715864"
                 inkscape:connector-curvature="0"
                 d="m 933.55099,129.91436 c 5.6214,0.27422 -2.63931,5.19294 0,0 z"
                 id="path971" /><path
                 style="opacity:1;fill:#f3f417;stroke:#f3f417;stroke-width:0.62715864"
                 inkscape:connector-curvature="0"
                 d="m 1022.1393,166.72763 c -2.5364,0.77123 -2.5022,-5.0901 0.034,-4.23318 0,1.06258 -0.017,3.18774 -0.034,4.23318 z"
                 id="path977" /><path
                 style="opacity:1;fill:#f3f417;stroke:#f3f417;stroke-width:0.62715864"
                 inkscape:connector-curvature="0"
                 d="m 1011.0165,172.21192 c -0.8912,-2.26227 -1.7652,-7.19813 0.6856,-8.32926 0.8226,2.26227 1.7309,7.16385 -0.6856,8.32926 z"
                 id="path979" /><path
                 style="opacity:1;fill:#f40412;stroke:#f40412;stroke-width:0.62715864"
                 inkscape:connector-curvature="0"
                 d="m 1016.3808,169.12701 c 2.6565,0.83978 0.069,5.33004 -1.5253,6.40976 -2.6564,-0.80551 -0.1028,-5.34718 1.5253,-6.40976 z"
                 id="path981" /><path
                 style="opacity:1;fill:#f40412;stroke:#f40412;stroke-width:0.62715864"
                 inkscape:connector-curvature="0"
                 d="m 1020.9225,172.69179 c 5.6386,0.34277 -2.6736,5.15866 0,0 z"
                 id="path983" /><path
                 style="opacity:1;fill:#f3f417;stroke:#f3f417;stroke-width:0.62715864"
                 inkscape:connector-curvature="0"
                 d="m 1027.2637,180.48976 c -2.5365,0.77123 -2.5193,-5.10724 0.017,-4.25032 0,1.06258 0,3.18774 -0.017,4.25032 z"
                 id="path985" /><path
                 style="opacity:1;fill:#f40412;stroke:#f40412;stroke-width:0.62715864"
                 inkscape:connector-curvature="0"
                 d="m 1019.2944,177.88473 c 5.6556,0.34276 -2.6736,5.15865 0,0 z"
                 id="path987" /><path
                 style="opacity:1;fill:#f3f417;stroke:#f3f417;stroke-width:0.62715864"
                 inkscape:connector-curvature="0"
                 d="m 1015.3011,185.61414 c -2.5365,0.80551 -2.5193,-5.07296 0,-4.26746 0,1.06258 0,3.20488 0,4.26746 z"
                 id="path989" /><path
                 style="opacity:1;fill:#000000;stroke:#000000;stroke-width:0.62715864"
                 inkscape:connector-curvature="0"
                 d="m 815.10756,186.11115 c -1.13113,1.04545 -1.13113,1.04545 0,0 z"
                 id="path995" /><path
                 style="opacity:1;fill:#000000;stroke:#000000;stroke-width:0.62715864"
                 inkscape:connector-curvature="0"
                 d="m 988.89086,186.40251 0.32563,0.56556 c -0.18852,-0.0514 -0.54843,-0.1371 -0.73695,-0.18852 z"
                 id="path997" /></g><g
               style="stroke-width:7.5196805;stroke-miterlimit:4;stroke-dasharray:none"
               transform="matrix(0.16458941,-0.0491876,0.04873696,0.16296097,11.625911,386.63575)"
               id="g8200"><g
                 style="stroke-width:5.31035709"
                 transform="matrix(1.4145046,0,0,1.4175779,-288.67282,-214.11473)"
                 id="g8222"><path
                   inkscape:connector-curvature="0"
                   id="path8140"
                   d="m 696.06588,612.16508 2.48852,-99.18511 39.81624,87.45353 -3.55501,11.37607 6.75454,11.02057 -8.17656,79.27699 z"
                   style="fill:none;fill-rule:evenodd;stroke:#00e701;stroke-width:3.18621397;stroke-linecap:butt;stroke-linejoin:miter;stroke-miterlimit:4;stroke-dasharray:none;stroke-opacity:1" /><path
                   inkscape:connector-curvature="0"
                   id="path8142"
                   d="m 698.55442,512.97998 52.27903,13.97071 29.6626,84.58869 -2.2624,79.56115 -30.41674,-68.75189 0.62845,-10.80926 -6.03307,-11.18631 8.29546,-73.40238"
                   style="fill:none;fill-rule:evenodd;stroke:#00e701;stroke-width:3.18621397;stroke-linecap:butt;stroke-linejoin:miter;stroke-miterlimit:4;stroke-dasharray:none;stroke-opacity:1" /><path
                   inkscape:connector-curvature="0"
                   id="path8144"
                   d="m 733.39363,702.10713 44.84004,-11.00659"
                   style="fill:none;fill-rule:evenodd;stroke:#00e701;stroke-width:3.18621397;stroke-linecap:butt;stroke-linejoin:miter;stroke-miterlimit:4;stroke-dasharray:none;stroke-opacity:1" /><path
                   inkscape:connector-curvature="0"
                   id="path8146"
                   d="m 933.0825,513.87904 21.86988,13.32303 13.07166,78.17856 v 86.47403 l -20.36162,10.80926 -15.33405,-90.49609 z"
                   style="fill:none;fill-rule:evenodd;stroke:#00e701;stroke-width:3.18621397;stroke-linecap:butt;stroke-linejoin:miter;stroke-miterlimit:4;stroke-dasharray:none;stroke-opacity:1" /><path
                   inkscape:connector-curvature="0"
                   id="path8148"
                   d="m 933.08252,513.87905 34.94154,177.97561"
                   style="fill:none;fill-rule:evenodd;stroke:#00e701;stroke-width:3.18621397;stroke-linecap:butt;stroke-linejoin:miter;stroke-miterlimit:4;stroke-dasharray:none;stroke-opacity:1" /><path
                   inkscape:connector-curvature="0"
                   id="path8150"
                   d="m 947.66244,702.66393 7.28995,-175.46186"
                   style="fill:none;fill-rule:evenodd;stroke:#00e701;stroke-width:3.18621397;stroke-linecap:butt;stroke-linejoin:miter;stroke-miterlimit:4;stroke-dasharray:none;stroke-opacity:1" /><path
                   inkscape:connector-curvature="0"
                   id="path8152"
                   d="M 967.52129,611.66508 696.0659,612.16509"
                   style="fill:none;fill-rule:evenodd;stroke:#00e701;stroke-width:3.18621397;stroke-linecap:butt;stroke-linejoin:miter;stroke-miterlimit:4;stroke-dasharray:none;stroke-opacity:1" /><path
                   inkscape:connector-curvature="0"
                   id="path8154"
                   d="m 738.37065,600.43351 67.01182,0.17093"
                   style="fill:none;fill-rule:evenodd;stroke:#00e701;stroke-width:3.18621397;stroke-linecap:butt;stroke-linejoin:miter;stroke-miterlimit:4;stroke-dasharray:none;stroke-opacity:1" /><path
                   inkscape:connector-curvature="0"
                   id="path8156"
                   d="m 949.67344,600.85582 -64.35276,-0.25138"
                   style="fill:none;fill-rule:evenodd;stroke:#00e701;stroke-width:3.18621397;stroke-linecap:butt;stroke-linejoin:miter;stroke-miterlimit:4;stroke-dasharray:none;stroke-opacity:1" /><path
                   inkscape:connector-curvature="0"
                   id="path8158"
                   d="m 950.17619,622.47434 -62.59311,-0.25138"
                   style="fill:none;fill-rule:evenodd;stroke:#00e701;stroke-width:3.18621397;stroke-linecap:butt;stroke-linejoin:miter;stroke-miterlimit:4;stroke-dasharray:none;stroke-opacity:1" /><path
                   inkscape:connector-curvature="0"
                   id="path8160"
                   d="m 741.57018,622.83014 64.56643,-0.3558"
                   style="fill:none;fill-rule:evenodd;stroke:#00e701;stroke-width:3.18621397;stroke-linecap:butt;stroke-linejoin:miter;stroke-miterlimit:4;stroke-dasharray:none;stroke-opacity:1" /><path
                   inkscape:connector-curvature="0"
                   id="path8162"
                   d="m 805.38249,600.60444 17.59768,-21.50107 h 30.21768 l 10.30956,2.66626 21.81329,18.83481 2.53861,1.42883 3.02178,9.59856 -3.29799,10.59114 -17.4989,16.96027 -10.48731,3.02178 h -28.79568 l -23.9964,-17.41962 -5.68803,-12.97583 z"
                   style="fill:none;fill-rule:evenodd;stroke:#00e701;stroke-width:3.18621397;stroke-linecap:butt;stroke-linejoin:miter;stroke-miterlimit:4;stroke-dasharray:none;stroke-opacity:1"
                   sodipodi:nodetypes="cccccccccccccc" /><path
                   inkscape:connector-curvature="0"
                   id="path8164"
                   d="m 859.95239,611.80957 -19.19712,-16.7086 -21.50788,0.71101 -13.33133,15.99759 15.10884,16.3531 27.55142,-0.53325 z"
                   style="fill:none;fill-rule:evenodd;stroke:#00e701;stroke-width:3.18621397;stroke-linecap:butt;stroke-linejoin:miter;stroke-miterlimit:4;stroke-dasharray:none;stroke-opacity:1" /><path
                   inkscape:connector-curvature="0"
                   id="path8166"
                   d="m 834.53398,579.28113 13.50908,32.52844 -6.57678,30.39545"
                   style="fill:none;fill-rule:evenodd;stroke:#00e701;stroke-width:3.18621397;stroke-linecap:butt;stroke-linejoin:miter;stroke-miterlimit:4;stroke-dasharray:none;stroke-opacity:1" /><path
                   inkscape:connector-curvature="0"
                   id="path8168"
                   d="m 859.5969,642.20503 -11.02056,-14.5756"
                   style="fill:none;fill-rule:evenodd;stroke:#00e701;stroke-width:3.18621397;stroke-linecap:butt;stroke-linejoin:miter;stroke-miterlimit:4;stroke-dasharray:none;stroke-opacity:1" /><path
                   inkscape:connector-curvature="0"
                   id="path8170"
                   d="m 840.75528,595.10097 10.1318,-15.64209"
                   style="fill:none;fill-rule:evenodd;stroke:#00e701;stroke-width:3.18621397;stroke-linecap:butt;stroke-linejoin:miter;stroke-miterlimit:4;stroke-dasharray:none;stroke-opacity:1" /><path
                   inkscape:connector-curvature="0"
                   id="path8172"
                   d="m 863.50743,581.76963 9.42079,30.57319 -2.84401,26.84042"
                   style="fill:none;fill-rule:evenodd;stroke:#00e701;stroke-width:3.18621397;stroke-linecap:butt;stroke-linejoin:miter;stroke-miterlimit:4;stroke-dasharray:none;stroke-opacity:1" /><path
                   inkscape:connector-curvature="0"
                   id="path8174"
                   d="m 883.77103,599.36699 -1.59975,12.26484 5.41182,10.59114"
                   style="fill:none;fill-rule:evenodd;stroke:#00e701;stroke-width:3.18621397;stroke-linecap:butt;stroke-linejoin:miter;stroke-miterlimit:4;stroke-dasharray:none;stroke-opacity:1" /><path
                   inkscape:connector-curvature="0"
                   id="path8176"
                   d="m 819.2474,595.81198 0.88875,-12.79809"
                   style="fill:none;fill-rule:evenodd;stroke:#00e701;stroke-width:3.18621397;stroke-linecap:butt;stroke-linejoin:miter;stroke-miterlimit:4;stroke-dasharray:none;stroke-opacity:1" /><path
                   inkscape:connector-curvature="0"
                   id="path8178"
                   d="m 821.02491,628.16268 6.93229,11.73157"
                   style="fill:none;fill-rule:evenodd;stroke:#00e701;stroke-width:3.18621397;stroke-linecap:butt;stroke-linejoin:miter;stroke-miterlimit:4;stroke-dasharray:none;stroke-opacity:1" /></g></g></g><g
             id="g8692"><g
               id="g8590"
               transform="translate(-9.58416,508.70982)"
               style="stroke:#fcfc03;stroke-width:3.76928711;stroke-miterlimit:4;stroke-dasharray:none;stroke-opacity:1"><path
                 inkscape:connector-curvature="0"
                 id="path8578"
                 d="m -597.55816,-108.78428 67.62068,-80.44095"
                 style="fill:none;fill-rule:evenodd;stroke:#fcfc03;stroke-width:3.76928711;stroke-linecap:butt;stroke-linejoin:miter;stroke-miterlimit:4;stroke-dasharray:none;stroke-opacity:1" /><path
                 inkscape:connector-curvature="0"
                 id="path8580"
                 d="m -602.58571,-194.50417 45.75079,79.43545"
                 style="fill:none;fill-rule:evenodd;stroke:#fcfc03;stroke-width:3.76928711;stroke-linecap:butt;stroke-linejoin:miter;stroke-miterlimit:4;stroke-dasharray:none;stroke-opacity:1" /><path
                 inkscape:connector-curvature="0"
                 id="path8582"
                 d="m -631.49419,-141.46341 h 69.6317"
                 style="fill:none;fill-rule:evenodd;stroke:#fcfc03;stroke-width:3.76928711;stroke-linecap:butt;stroke-linejoin:miter;stroke-miterlimit:4;stroke-dasharray:none;stroke-opacity:1" /><path
                 inkscape:connector-curvature="0"
                 id="path8584"
                 d="m -572.67173,-156.79747 1.25688,16.08819"
                 style="fill:none;fill-rule:evenodd;stroke:#fcfc03;stroke-width:3.76928711;stroke-linecap:butt;stroke-linejoin:miter;stroke-miterlimit:4;stroke-dasharray:none;stroke-opacity:1" /></g><g
               transform="translate(-10.05512,508.78907)"
               id="g8481"
               style="stroke:#1ade00;stroke-width:3.76928711;stroke-miterlimit:4;stroke-dasharray:none;stroke-opacity:1"><path
                 inkscape:connector-curvature="0"
                 id="path8472"
                 d="m -618.22567,-242.46217 30.57319,78.92149"
                 style="fill:none;fill-rule:evenodd;stroke:#1ade00;stroke-width:3.76928711;stroke-linecap:butt;stroke-linejoin:miter;stroke-miterlimit:4;stroke-dasharray:none;stroke-opacity:1" /><path
                 inkscape:connector-curvature="0"
                 id="path8474"
                 d="m -631.73475,-164.96269 30.57319,-32.7062 13.50908,-29.15117"
                 style="fill:none;fill-rule:evenodd;stroke:#1ade00;stroke-width:3.76928711;stroke-linecap:butt;stroke-linejoin:miter;stroke-miterlimit:4;stroke-dasharray:none;stroke-opacity:1" /><path
                 inkscape:connector-curvature="0"
                 id="path8476"
                 d="m -616.80367,-196.24688 h 41.94926"
                 style="fill:none;fill-rule:evenodd;stroke:#1ade00;stroke-width:3.76928711;stroke-linecap:butt;stroke-linejoin:miter;stroke-miterlimit:4;stroke-dasharray:none;stroke-opacity:1" /></g><g
               transform="translate(-10.05512,508.78907)"
               id="g8513"
               style="stroke:#fa0100;stroke-width:3.76928711;stroke-miterlimit:4;stroke-dasharray:none;stroke-opacity:1"><path
                 inkscape:connector-curvature="0"
                 id="path8489"
                 d="m -582.31996,-77.15365 11.37607,-63.63488 52.61434,-40.17175"
                 style="fill:none;fill-rule:evenodd;stroke:#fa0100;stroke-width:3.76928711;stroke-linecap:butt;stroke-linejoin:miter;stroke-miterlimit:4;stroke-dasharray:none;stroke-opacity:1" /><g
                 id="g8503"
                 style="stroke:#fa0100;stroke-width:3.76928711;stroke-miterlimit:4;stroke-dasharray:none;stroke-opacity:1"><path
                   style="fill:none;fill-rule:evenodd;stroke:#fa0100;stroke-width:3.76928711;stroke-linecap:butt;stroke-linejoin:miter;stroke-miterlimit:4;stroke-dasharray:none;stroke-opacity:1"
                   d="m -620.71419,-181.31579 95.9856,81.0545"
                   id="path8483"
                   inkscape:connector-curvature="0" /><path
                   style="fill:none;fill-rule:evenodd;stroke:#fa0100;stroke-width:3.76928711;stroke-linecap:butt;stroke-linejoin:miter;stroke-miterlimit:4;stroke-dasharray:none;stroke-opacity:1"
                   d="m -612.89314,-92.440244 82.83201,-95.630086"
                   id="path8485"
                   inkscape:connector-curvature="0" /><path
                   style="fill:none;fill-rule:evenodd;stroke:#fa0100;stroke-width:3.76928711;stroke-linecap:butt;stroke-linejoin:miter;stroke-miterlimit:4;stroke-dasharray:none;stroke-opacity:1"
                   d="m -581.25344,-194.11387 23.10764,115.893715"
                   id="path8487"
                   inkscape:connector-curvature="0" /><path
                   style="fill:none;fill-rule:evenodd;stroke:#fa0100;stroke-width:3.76928711;stroke-linecap:butt;stroke-linejoin:miter;stroke-miterlimit:4;stroke-dasharray:none;stroke-opacity:1"
                   d="m -517.97405,-157.14165 -52.96985,16.35312 50.12584,13.50908"
                   id="path8491"
                   inkscape:connector-curvature="0" /><path
                   style="fill:none;fill-rule:evenodd;stroke:#fa0100;stroke-width:3.76928711;stroke-linecap:butt;stroke-linejoin:miter;stroke-miterlimit:4;stroke-dasharray:none;stroke-opacity:1"
                   d="m -515.84104,-136.87801 -55.10286,-3.91052 -33.06167,-1.06651"
                   id="path8493"
                   inkscape:connector-curvature="0" /><path
                   style="fill:none;fill-rule:evenodd;stroke:#fa0100;stroke-width:3.76928711;stroke-linecap:butt;stroke-linejoin:miter;stroke-miterlimit:4;stroke-dasharray:none;stroke-opacity:1"
                   d="m -606.4941,-125.14644 35.5502,-15.64209 -56.16931,-19.55262"
                   id="path8495"
                   inkscape:connector-curvature="0" /></g></g><g
               style="stroke:#1ade00;stroke-width:3.76928711;stroke-miterlimit:4;stroke-dasharray:none;stroke-opacity:1"
               id="g8521"
               transform="translate(-40.471858,565.85187)"><path
                 style="fill:none;fill-rule:evenodd;stroke:#1ade00;stroke-width:3.76928711;stroke-linecap:butt;stroke-linejoin:miter;stroke-miterlimit:4;stroke-dasharray:none;stroke-opacity:1"
                 d="m -618.22567,-242.46217 30.57319,78.92149"
                 id="path8515"
                 inkscape:connector-curvature="0" /><path
                 style="fill:none;fill-rule:evenodd;stroke:#1ade00;stroke-width:3.76928711;stroke-linecap:butt;stroke-linejoin:miter;stroke-miterlimit:4;stroke-dasharray:none;stroke-opacity:1"
                 d="m -631.73475,-164.96269 30.57319,-32.7062 13.50908,-29.15117"
                 id="path8517"
                 inkscape:connector-curvature="0" /><path
                 style="fill:none;fill-rule:evenodd;stroke:#1ade00;stroke-width:3.76928711;stroke-linecap:butt;stroke-linejoin:miter;stroke-miterlimit:4;stroke-dasharray:none;stroke-opacity:1"
                 d="m -616.80367,-196.24688 h 41.94926"
                 id="path8519"
                 inkscape:connector-curvature="0" /></g><g
               transform="translate(34.690163,630.95878)"
               id="g8529"
               style="stroke:#1ade00;stroke-width:3.76928711;stroke-miterlimit:4;stroke-dasharray:none;stroke-opacity:1"><path
                 inkscape:connector-curvature="0"
                 id="path8523"
                 d="m -618.22567,-242.46217 30.57319,78.92149"
                 style="fill:none;fill-rule:evenodd;stroke:#1ade00;stroke-width:3.76928711;stroke-linecap:butt;stroke-linejoin:miter;stroke-miterlimit:4;stroke-dasharray:none;stroke-opacity:1" /><path
                 inkscape:connector-curvature="0"
                 id="path8525"
                 d="m -631.73475,-164.96269 30.57319,-32.7062 13.50908,-29.15117"
                 style="fill:none;fill-rule:evenodd;stroke:#1ade00;stroke-width:3.76928711;stroke-linecap:butt;stroke-linejoin:miter;stroke-miterlimit:4;stroke-dasharray:none;stroke-opacity:1" /><path
                 inkscape:connector-curvature="0"
                 id="path8527"
                 d="m -616.80367,-196.24688 h 41.94926"
                 style="fill:none;fill-rule:evenodd;stroke:#1ade00;stroke-width:3.76928711;stroke-linecap:butt;stroke-linejoin:miter;stroke-miterlimit:4;stroke-dasharray:none;stroke-opacity:1" /></g><g
               style="stroke:#1ade00;stroke-width:3.76928711;stroke-miterlimit:4;stroke-dasharray:none;stroke-opacity:1"
               id="g8537"
               transform="translate(86.222652,570.87944)"><path
                 style="fill:none;fill-rule:evenodd;stroke:#1ade00;stroke-width:3.76928711;stroke-linecap:butt;stroke-linejoin:miter;stroke-miterlimit:4;stroke-dasharray:none;stroke-opacity:1"
                 d="m -618.22567,-242.46217 30.57319,78.92149"
                 id="path8531"
                 inkscape:connector-curvature="0" /><path
                 style="fill:none;fill-rule:evenodd;stroke:#1ade00;stroke-width:3.76928711;stroke-linecap:butt;stroke-linejoin:miter;stroke-miterlimit:4;stroke-dasharray:none;stroke-opacity:1"
                 d="m -631.73475,-164.96269 30.57319,-32.7062 13.50908,-29.15117"
                 id="path8533"
                 inkscape:connector-curvature="0" /><path
                 style="fill:none;fill-rule:evenodd;stroke:#1ade00;stroke-width:3.76928711;stroke-linecap:butt;stroke-linejoin:miter;stroke-miterlimit:4;stroke-dasharray:none;stroke-opacity:1"
                 d="m -616.80367,-196.24688 h 41.94926"
                 id="path8535"
                 inkscape:connector-curvature="0" /></g><g
               transform="translate(64.604144,513.56526)"
               id="g8545"
               style="stroke:#1ade00;stroke-width:3.76928711;stroke-miterlimit:4;stroke-dasharray:none;stroke-opacity:1"><path
                 inkscape:connector-curvature="0"
                 id="path8539"
                 d="m -618.22567,-242.46217 30.57319,78.92149"
                 style="fill:none;fill-rule:evenodd;stroke:#1ade00;stroke-width:3.76928711;stroke-linecap:butt;stroke-linejoin:miter;stroke-miterlimit:4;stroke-dasharray:none;stroke-opacity:1" /><path
                 inkscape:connector-curvature="0"
                 id="path8541"
                 d="m -631.73475,-164.96269 30.57319,-32.7062 13.50908,-29.15117"
                 style="fill:none;fill-rule:evenodd;stroke:#1ade00;stroke-width:3.76928711;stroke-linecap:butt;stroke-linejoin:miter;stroke-miterlimit:4;stroke-dasharray:none;stroke-opacity:1" /><path
                 inkscape:connector-curvature="0"
                 id="path8543"
                 d="m -616.80367,-196.24688 h 41.94926"
                 style="fill:none;fill-rule:evenodd;stroke:#1ade00;stroke-width:3.76928711;stroke-linecap:butt;stroke-linejoin:miter;stroke-miterlimit:4;stroke-dasharray:none;stroke-opacity:1" /></g></g></g></g></g></g></svg>