<?xml version="1.0" encoding="UTF-8" standalone="no"?>
<!-- Generator: Adobe Illustrator 16.0.3, SVG Export Plug-In . SVG Version: 6.00 Build 0)  -->

<svg
   xmlns:dc="http://purl.org/dc/elements/1.1/"
   xmlns:cc="http://creativecommons.org/ns#"
   xmlns:rdf="http://www.w3.org/1999/02/22-rdf-syntax-ns#"
   xmlns:svg="http://www.w3.org/2000/svg"
   xmlns="http://www.w3.org/2000/svg"
   xmlns:sodipodi="http://sodipodi.sourceforge.net/DTD/sodipodi-0.dtd"
   xmlns:inkscape="http://www.inkscape.org/namespaces/inkscape"
   version="1.1"
   id="Ebene_1"
   x="0px"
   y="0px"
   width="566.91827"
   height="555.22949"
   viewBox="0 0 566.91826 555.2295"
   enable-background="new 0 0 566.929 458.929"
   xml:space="preserve"
   inkscape:version="0.91 r13725"
   sodipodi:docname="lr-fba_system.svg"><metadata
     id="metadata4180"><rdf:RDF><cc:Work
         rdf:about=""><dc:format>image/svg+xml</dc:format><dc:type
           rdf:resource="http://purl.org/dc/dcmitype/StillImage" /><dc:title></dc:title></cc:Work></rdf:RDF></metadata><defs
     id="defs4178" /><sodipodi:namedview
     pagecolor="#ffffff"
     bordercolor="#666666"
     borderopacity="1"
     objecttolerance="10"
     gridtolerance="10"
     guidetolerance="10"
     inkscape:pageopacity="0"
     inkscape:pageshadow="2"
     inkscape:window-width="1920"
     inkscape:window-height="1137"
     id="namedview4176"
     showgrid="false"
     inkscape:zoom="0.51424078"
     inkscape:cx="283.45913"
     inkscape:cy="325.7513"
     inkscape:window-x="-8"
     inkscape:window-y="-8"
     inkscape:window-maximized="1"
     inkscape:current-layer="Ebene_1"
     fit-margin-top="0"
     fit-margin-left="0"
     fit-margin-right="0"
     fit-margin-bottom="0" /><g
     id="g4748"
     transform="translate(0,-2.877426e-6)"><g
       transform="translate(-81.659803,536.72791)"
       id="g4755"><path
         d="m 424.3308,-357.74056 c 0,49.428 0,98.422 0,147.984 16.679,0 33.029,0 49.629,0 0,43.619 0,86.669 0,129.985 -89.912,0 -179.575,0 -269.52,0 0,-22.296 0,-44.378 0,-66.882 21.748,-10.971 43.646,-22.016 65.864,-33.224 0,-75.393 0,-150.66 0,-226.685 51.631,16.366 102.62,32.527 154.027,48.822 z"
         id="path4166"
         inkscape:connector-curvature="0"
         style="clip-rule:evenodd;fill:#cf8a61;fill-rule:evenodd;stroke:#000000;stroke-width:4;stroke-miterlimit:4;stroke-dasharray:none;stroke-opacity:1" /><path
         d="m 646.5718,-354.01856 -178.77,-0.052 -384.141997,-121.739 c 0,0 0,-39.136 0,-58.88 1.717,-0.08 177.232997,-0.01 263.400997,-0.01 64.021,0 128.043,0.007 192.064,-0.003 24.292,-0.004 45.374,8.632 63.727,24.113 22.354,18.858 35.846,43.239 43.296,71.218 0.343,1.286 0.416,2.673 0.417,4.015 0.025,25.822 0.007,81.338 0.007,81.338 z"
         id="path4160"
         inkscape:connector-curvature="0"
         style="clip-rule:evenodd;fill:#cf8a61;fill-rule:evenodd;stroke:#000000;stroke-width:4;stroke-miterlimit:4;stroke-dasharray:none;stroke-opacity:1" /><path
         d="m 441.7788,-340.02356 c 68.27,0 136.276,0 204.543,0 0,38.092 0,75.923 0,114.012 -68.269,0 -136.276,0 -204.543,0 0,-38.092 0,-75.923 0,-114.012 z"
         id="path4172"
         inkscape:connector-curvature="0"
         style="clip-rule:evenodd;fill:#cf8a61;fill-rule:evenodd;stroke:#000000;stroke-width:4;stroke-miterlimit:4;stroke-dasharray:none;stroke-opacity:1" /></g><g
       transform="matrix(0.02118814,0,0,0.02118814,20.831308,581.73031)"
       id="g5777"><g
         id="g5771"
         transform="translate(0,-5640)"><path
           d="m 1910,4378 c -123,-19 -263,-125 -316,-240 l -29,-63 0,-1425 0,-1425 205,0 205,0 3,1574 c 1,866 -1,1578 -5,1581 -5,4 -33,3 -63,-2 z"
           id="path6"
           inkscape:connector-curvature="0"
           style="fill:#c0392b;stroke:none" /><path
           d="M 47,4343 C 43,4340 40,3465 40,2400 40,766 42,461 54,451 c 9,-8 74,-11 212,-9 l 199,3 3,1742 2,1741 248,4 248,3 66,33 c 122,60 229,209 232,325 l 1,52 -606,3 c -333,1 -609,-1 -612,-5 z"
           id="path8"
           inkscape:connector-curvature="0"
           style="fill:#c0392b;stroke:none" /><path
           d="m 2367,4343 c -4,-3 -7,-878 -7,-1943 0,-1634 2,-1939 14,-1949 9,-8 74,-11 212,-9 l 199,3 3,387 2,388 234,0 c 207,0 239,2 291,20 113,39 216,141 256,255 18,53 19,94 19,1288 0,1381 5,1287 -74,1394 -51,71 -120,122 -199,152 -56,20 -73,21 -501,21 -243,0 -446,-3 -449,-7 z m 803,-1558 0,-1145 -190,0 -190,0 0,1145 0,1145 190,0 190,0 0,-1145 z"
           id="path10"
           inkscape:connector-curvature="0"
           style="fill:#c0392b;stroke:none" /><path
           d="m 1565,857 c -3,-7 -4,-102 -3,-212 l 3,-200 205,0 205,0 0,210 0,210 -203,3 c -159,2 -204,0 -207,-11 z"
           id="path162"
           inkscape:connector-curvature="0"
           style="fill:#c0392b;stroke:none" /></g><g
         id="g172"
         transform="translate(0,-5640)"
         style="fill:#231f20;stroke:none"><path
           d="m 4015,4378 c -3,-7 -4,-890 -3,-1963 l 3,-1950 1670,0 1670,0 47,27 c 64,38 119,106 171,213 179,362 529,1114 539,1155 9,38 9,62 0,101 -11,47 -44,88 -402,505 -215,250 -393,460 -396,468 -3,8 177,335 401,727 223,392 402,716 397,721 -4,4 -282,7 -616,6 l -608,-3 -543,-900 C 5735,2477 5766,2537 5834,2462 l 34,-37 269,-5 c 234,-4 272,-7 303,-23 32,-17 413,-437 434,-477 6,-13 -19,-87 -89,-261 -53,-134 -107,-263 -120,-285 -45,-77 -11,-74 -754,-74 l -661,0 -2,1543 -3,1542 -613,3 c -485,2 -614,0 -617,-10 z"
           id="path174"
           inkscape:connector-curvature="0" /><path
           d="m 8344,4377 c -2,-7 -3,-609 -2,-1337 3,-1111 6,-1331 18,-1363 28,-77 608,-1123 640,-1154 17,-18 48,-38 68,-45 30,-10 367,-13 1712,-13 l 1675,0 0,415 0,415 -1265,5 -1265,5 -31,22 c -17,13 -39,38 -48,57 -28,59 -256,609 -256,618 0,4 552,9 1228,10 l 1227,3 0,410 0,410 -1232,3 -1233,2 0,355 0,355 1438,2 1437,3 0,415 0,415 -2053,3 c -1660,2 -2054,0 -2058,-11 z"
           id="path176"
           inkscape:connector-curvature="0" /><path
           d="m 13687,4383 c -4,-3 -7,-280 -7,-615 l 0,-608 -612,-2 -613,-3 0,-730 0,-730 612,-3 613,-2 2,-613 3,-612 730,0 730,0 3,612 2,613 608,2 607,3 0,730 0,730 -607,3 -608,2 -2,613 -3,612 -726,3 c -399,1 -729,-1 -732,-5 z m 943,-638 205,-205 -420,0 -420,0 205,205 c 113,113 209,205 215,205 6,0 102,-92 215,-205 z m -128,-906 c 173,-37 298,-169 328,-349 30,-178 -67,-368 -227,-442 -86,-41 -177,-54 -259,-39 -172,31 -297,144 -339,306 -80,310 185,590 497,524 z m -1202,-416 0,-418 -205,205 c -113,113 -205,209 -205,215 0,8 399,415 407,415 2,0 3,-188 3,-417 z m 2640,2 c 0,-6 -92,-102 -205,-215 l -205,-205 0,420 0,420 205,-205 c 113,-113 205,-209 205,-215 z M 14630,1105 c -113,-113 -209,-205 -215,-205 -6,0 -102,92 -215,205 l -205,205 420,0 420,0 -205,-205 z"
           id="path178"
           inkscape:connector-curvature="0" /><path
           d="m 16555,4378 c -3,-7 -4,-890 -3,-1963 l 3,-1950 1645,-3 c 1869,-2 1714,-9 1804,81 30,30 69,86 93,132 108,210 545,1144 555,1187 9,36 8,61 0,98 -11,46 -47,91 -408,511 -257,300 -394,467 -391,478 2,9 185,333 405,721 221,387 398,708 394,712 -5,5 -282,7 -617,6 l -608,-3 -543,-900 c -298,-495 -544,-909 -546,-920 -7,-35 10,-80 42,-110 l 31,-30 267,-5 c 211,-4 273,-8 297,-20 29,-15 445,-474 445,-491 0,-16 -202,-514 -221,-545 -40,-66 -17,-64 -748,-64 l -661,0 -2,1543 -3,1542 -613,3 c -485,2 -614,0 -617,-10 z"
           id="path180"
           inkscape:connector-curvature="0" /><path
           d="m 21410,4370 c -125,-33 -231,-93 -332,-188 -130,-124 -196,-239 -232,-402 -15,-68 -16,-197 -14,-1385 l 3,-1310 28,-80 c 74,-210 212,-368 402,-460 177,-85 64,-79 1455,-83 823,-2 1268,0 1333,8 197,21 339,89 478,230 66,67 96,107 132,178 93,180 87,66 87,1550 0,1465 5,1361 -75,1527 -24,50 -64,116 -89,147 -98,122 -263,230 -412,268 -75,19 -116,20 -1383,19 -1256,0 -1309,-1 -1381,-19 z m 1576,-795 c 485,-83 859,-450 950,-931 23,-122 21,-330 -4,-449 -96,-448 -421,-785 -865,-896 -121,-30 -334,-37 -467,-14 -774,129 -1193,960 -843,1671 158,323 467,551 833,618 102,19 289,19 396,1 z"
           id="path182"
           inkscape:connector-curvature="0" /></g></g></g></svg>