<?xml version="1.0" encoding="UTF-8" standalone="no"?>
<!-- Generator: Adobe Illustrator 16.0.3, SVG Export Plug-In . SVG Version: 6.00 Build 0)  -->

<svg
   xmlns:dc="http://purl.org/dc/elements/1.1/"
   xmlns:cc="http://creativecommons.org/ns#"
   xmlns:rdf="http://www.w3.org/1999/02/22-rdf-syntax-ns#"
   xmlns:svg="http://www.w3.org/2000/svg"
   xmlns="http://www.w3.org/2000/svg"
   xmlns:sodipodi="http://sodipodi.sourceforge.net/DTD/sodipodi-0.dtd"
   xmlns:inkscape="http://www.inkscape.org/namespaces/inkscape"
   version="1.1"
   id="Ebene_1"
   x="0px"
   y="0px"
   width="566.91827"
   height="538.03577"
   viewBox="0 0 566.91826 538.03577"
   enable-background="new 0 0 566.929 458.929"
   xml:space="preserve"
   inkscape:version="0.91 r13725"
   sodipodi:docname="pi-fba.svg"><metadata
     id="metadata4180"><rdf:RDF><cc:Work
         rdf:about=""><dc:format>image/svg+xml</dc:format><dc:type
           rdf:resource="http://purl.org/dc/dcmitype/StillImage" /><dc:title></dc:title></cc:Work></rdf:RDF></metadata><defs
     id="defs4178" /><sodipodi:namedview
     pagecolor="#ffffff"
     bordercolor="#666666"
     borderopacity="1"
     objecttolerance="10"
     gridtolerance="10"
     guidetolerance="10"
     inkscape:pageopacity="0"
     inkscape:pageshadow="2"
     inkscape:window-width="1920"
     inkscape:window-height="1137"
     id="namedview4176"
     showgrid="false"
     inkscape:zoom="0.51424078"
     inkscape:cx="-164.77448"
     inkscape:cy="308.55759"
     inkscape:window-x="-8"
     inkscape:window-y="-8"
     inkscape:window-maximized="1"
     inkscape:current-layer="Ebene_1"
     fit-margin-top="0"
     fit-margin-left="0"
     fit-margin-right="0"
     fit-margin-bottom="0" /><g
     id="g5303"><g
       transform="translate(-81.659803,536.72791)"
       id="g4755"><path
         d="m 424.3308,-357.74056 c 0,49.428 0,98.422 0,147.984 16.679,0 33.029,0 49.629,0 0,43.619 0,86.669 0,129.985 -89.912,0 -179.575,0 -269.52,0 0,-22.296 0,-44.378 0,-66.882 21.748,-10.971 43.646,-22.016 65.864,-33.224 0,-75.393 0,-150.66 0,-226.685 51.631,16.366 102.62,32.527 154.027,48.822 z"
         id="path4166"
         inkscape:connector-curvature="0"
         style="clip-rule:evenodd;fill:#cf8a61;fill-rule:evenodd;stroke:#000000;stroke-width:4;stroke-miterlimit:4;stroke-dasharray:none;stroke-opacity:1" /><path
         d="m 646.5718,-354.01856 -178.77,-0.052 -384.141997,-121.739 c 0,0 0,-39.136 0,-58.88 1.717,-0.08 177.232997,-0.01 263.400997,-0.01 64.021,0 128.043,0.007 192.064,-0.003 24.292,-0.004 45.374,8.632 63.727,24.113 22.354,18.858 35.846,43.239 43.296,71.218 0.343,1.286 0.416,2.673 0.417,4.015 0.025,25.822 0.007,81.338 0.007,81.338 z"
         id="path4160"
         inkscape:connector-curvature="0"
         style="clip-rule:evenodd;fill:#cf8a61;fill-rule:evenodd;stroke:#000000;stroke-width:4;stroke-miterlimit:4;stroke-dasharray:none;stroke-opacity:1" /><path
         d="m 441.7788,-340.02356 c 68.27,0 136.276,0 204.543,0 0,38.092 0,75.923 0,114.012 -68.269,0 -136.276,0 -204.543,0 0,-38.092 0,-75.923 0,-114.012 z"
         id="path4172"
         inkscape:connector-curvature="0"
         style="clip-rule:evenodd;fill:#cf8a61;fill-rule:evenodd;stroke:#000000;stroke-width:4;stroke-miterlimit:4;stroke-dasharray:none;stroke-opacity:1" /></g><g
       id="flowRoot4782"
       style="font-style:normal;font-weight:normal;font-size:40px;line-height:125%;font-family:Sans;letter-spacing:0px;word-spacing:0px;fill:#000000;fill-opacity:1;stroke:none;stroke-width:1px;stroke-linecap:butt;stroke-linejoin:miter;stroke-opacity:1"
       transform="matrix(1.5690905,0,0,1.5690905,17.041664,-276.43968)"><path
         inkscape:connector-curvature="0"
         id="path5275"
         d="m 25.074219,484.19207 -0.195313,0 q -0.605469,-0.17578 -1.582031,-0.35156 -0.976563,-0.19531 -1.71875,-0.19531 -2.363281,0 -3.4375,1.05468 -1.054688,1.03516 -1.054688,3.76953 l 0,0.74219 6.621094,0 0,3.08594 -6.503906,0 0,18.73047 -3.671875,0 0,-18.73047 -2.480469,0 0,-3.08594 2.480469,0 0,-0.72265 q 0,-3.88672 1.933594,-5.95704 1.933593,-2.08984 5.585937,-2.08984 1.230469,0 2.207031,0.11719 0.996094,0.11719 1.816407,0.27344 l 0,3.35937 z" /><path
         inkscape:connector-curvature="0"
         id="path5277"
         d="m 45.992187,500.12957 q 0,5.33203 -2.734375,8.41797 -2.734375,3.08594 -7.324218,3.08594 -4.628907,0 -7.363282,-3.08594 -2.714843,-3.08594 -2.714843,-8.41797 0,-5.33203 2.714843,-8.41797 2.734375,-3.10547 7.363282,-3.10547 4.589843,0 7.324218,3.10547 2.734375,3.08594 2.734375,8.41797 z m -3.789062,0 q 0,-4.23828 -1.660156,-6.28906 -1.660157,-2.07031 -4.609375,-2.07031 -2.988282,0 -4.648438,2.07031 -1.640625,2.05078 -1.640625,6.28906 0,4.10156 1.660156,6.23047 1.660157,2.10937 4.628907,2.10937 2.929687,0 4.589843,-2.08984 1.679688,-2.10937 1.679688,-6.25 z" /><path
         inkscape:connector-curvature="0"
         id="path5279"
         d="m 65.308594,493.21551 -0.195313,0 q -0.820312,-0.19531 -1.601562,-0.27344 -0.761719,-0.0977 -1.816407,-0.0977 -1.699218,0 -3.28125,0.76172 -1.582031,0.74219 -3.046875,1.9336 l 0,15.48828 -3.671875,0 0,-21.81641 3.671875,0 0,3.22266 q 2.1875,-1.75781 3.847657,-2.48047 1.679687,-0.74219 3.417968,-0.74219 0.957032,0 1.386719,0.0586 0.429688,0.0391 1.289063,0.17578 l 0,3.76953 z" /><path
         inkscape:connector-curvature="0"
         id="path5281"
         d="m 107.22266,511.02801 -5.01953,0 -9.726568,-11.5625 -5.449218,0 0,11.5625 -3.867188,0 0,-29.08203 8.144531,0 q 2.636719,0 4.394532,0.35156 1.757812,0.33203 3.164062,1.21094 1.582029,0.99609 2.460939,2.51953 0.89844,1.5039 0.89844,3.82812 0,3.14453 -1.58203,5.27344 -1.582036,2.10938 -4.355474,3.18359 l 10.937504,12.71485 z m -9.042973,-20.89844 q 0,-1.25 -0.449218,-2.20703 -0.429688,-0.97656 -1.445313,-1.64063 -0.839844,-0.5664 -1.992187,-0.78125 -1.152344,-0.23437 -2.714844,-0.23437 l -4.550781,0 0,10.97656 3.90625,0 q 1.835937,0 3.203125,-0.3125 1.367187,-0.33203 2.324218,-1.21094 0.878907,-0.82031 1.289063,-1.875 0.429687,-1.07421 0.429687,-2.71484 z" /><path
         inkscape:connector-curvature="0"
         id="path5283"
         d="m 126.85156,511.02801 -3.65234,0 0,-2.32422 q -0.48828,0.33203 -1.32813,0.9375 -0.82031,0.58594 -1.60156,0.9375 -0.91797,0.44922 -2.10937,0.74219 -1.19141,0.3125 -2.79297,0.3125 -2.94922,0 -5,-1.95313 -2.05078,-1.95312 -2.05078,-4.98047 0,-2.48047 1.05468,-4.0039 1.07422,-1.54297 3.04688,-2.42188 1.99219,-0.8789 4.78516,-1.1914 2.79296,-0.3125 5.99609,-0.46875 l 0,-0.56641 q 0,-1.25 -0.44922,-2.07031 -0.42969,-0.82032 -1.25,-1.28907 -0.78125,-0.44921 -1.875,-0.60546 -1.09375,-0.15625 -2.28516,-0.15625 -1.44531,0 -3.22265,0.39062 -1.77735,0.37109 -3.67188,1.09375 l -0.19531,0 0,-3.73047 q 1.07422,-0.29297 3.10547,-0.64453 2.03125,-0.35156 4.00391,-0.35156 2.30468,0 4.0039,0.39062 1.71875,0.3711 2.96875,1.28907 1.23047,0.89843 1.875,2.32421 0.64453,1.42579 0.64453,3.53516 l 0,14.80469 z m -3.65234,-5.3711 0,-6.07421 q -1.67969,0.0976 -3.96484,0.29296 -2.26563,0.19532 -3.59375,0.56641 -1.58204,0.44922 -2.5586,1.40625 -0.97656,0.9375 -0.97656,2.59766 0,1.875 1.13281,2.83203 1.13281,0.9375 3.45703,0.9375 1.9336,0 3.53516,-0.74219 1.60156,-0.76172 2.96875,-1.81641 z" /><path
         inkscape:connector-curvature="0"
         id="path5285"
         d="m 149.54687,504.73895 q 0,2.98828 -2.48046,4.90234 -2.46094,1.91406 -6.73829,1.91406 -2.42187,0 -4.45312,-0.5664 -2.01172,-0.58594 -3.37891,-1.26954 l 0,-4.12109 0.19532,0 q 1.73828,1.30859 3.86718,2.08984 2.12891,0.76172 4.08203,0.76172 2.42188,0 3.78907,-0.78125 1.36718,-0.78125 1.36718,-2.46093 0,-1.28907 -0.74218,-1.95313 -0.74219,-0.66406 -2.85157,-1.13281 -0.78125,-0.17578 -2.05078,-0.41016 -1.25,-0.23437 -2.28515,-0.50781 -2.8711,-0.76172 -4.08203,-2.22656 -1.19141,-1.48438 -1.19141,-3.63282 0,-1.34765 0.54687,-2.53906 0.56641,-1.1914 1.69922,-2.1289 1.09375,-0.91797 2.77344,-1.44532 1.69922,-0.54687 3.78906,-0.54687 1.95313,0 3.94532,0.48828 2.01171,0.46875 3.33984,1.15234 l 0,3.92578 -0.19531,0 q -1.40625,-1.03515 -3.41797,-1.73828 -2.01172,-0.72265 -3.94531,-0.72265 -2.01172,0 -3.39844,0.78125 -1.38672,0.76172 -1.38672,2.28515 0,1.34766 0.83984,2.03125 0.82032,0.6836 2.65625,1.11328 1.01563,0.23438 2.26563,0.46875 1.26953,0.23438 2.10937,0.42969 2.5586,0.58594 3.94532,2.01172 1.38671,1.44531 1.38671,3.82813 z" /><path
         inkscape:connector-curvature="0"
         id="path5287"
         d="m 174.01953,499.85613 q 0,2.65625 -0.76172,4.86328 -0.76172,2.1875 -2.14844,3.71094 -1.28906,1.44531 -3.04687,2.2461 -1.73828,0.78125 -3.69141,0.78125 -1.69922,0 -3.08593,-0.3711 -1.36719,-0.37109 -2.79297,-1.15234 l 0,9.14062 -3.67188,0 0,-29.86328 3.67188,0 0,2.28516 q 1.46484,-1.23047 3.28125,-2.05078 1.83593,-0.83985 3.90625,-0.83985 3.94531,0 6.13281,2.98828 2.20703,2.96875 2.20703,8.26172 z m -3.78906,0.0977 q 0,-3.94531 -1.34766,-5.89844 -1.34765,-1.95312 -4.14062,-1.95312 -1.58203,0 -3.1836,0.68359 -1.60156,0.68359 -3.0664,1.79688 l 0,12.36328 q 1.5625,0.70312 2.67578,0.95703 1.13281,0.2539 2.55859,0.2539 3.06641,0 4.78516,-2.07031 1.71875,-2.07031 1.71875,-6.13281 z" /><path
         inkscape:connector-curvature="0"
         id="path5289"
         d="m 198.94141,499.95379 q 0,2.73437 -0.78125,4.92187 -0.76172,2.1875 -2.07032,3.67188 -1.38672,1.54297 -3.04687,2.32422 -1.66016,0.76172 -3.65235,0.76172 -1.85546,0 -3.24218,-0.44922 -1.38672,-0.42969 -2.73438,-1.17188 l -0.23437,1.01563 -3.4375,0 0,-30.39063 3.67187,0 0,10.85938 q 1.54297,-1.26953 3.28125,-2.07031 1.73828,-0.82032 3.90625,-0.82032 3.86719,0 6.09375,2.96875 2.2461,2.96875 2.2461,8.37891 z m -3.78907,0.0977 q 0,-3.90625 -1.28906,-5.91797 -1.28906,-2.03125 -4.16016,-2.03125 -1.60156,0 -3.24218,0.70312 -1.64063,0.6836 -3.04688,1.77735 l 0,12.5 q 1.5625,0.70312 2.67578,0.97656 1.13282,0.27344 2.5586,0.27344 3.04687,0 4.76562,-1.99219 1.73828,-2.01172 1.73828,-6.28906 z" /><path
         inkscape:connector-curvature="0"
         id="path5291"
         d="m 222.92578,500.50066 -16.07422,0 q 0,2.01172 0.60547,3.51563 0.60547,1.48437 1.66016,2.44141 1.01562,0.9375 2.40234,1.40625 1.40625,0.46875 3.08594,0.46875 2.22656,0 4.47265,-0.87891 2.26563,-0.89844 3.22266,-1.75781 l 0.19531,0 0,4.0039 q -1.85547,0.78125 -3.78906,1.3086 -1.93359,0.52734 -4.0625,0.52734 -5.42969,0 -8.47656,-2.92969 -3.04688,-2.94922 -3.04688,-8.35937 0,-5.35156 2.91016,-8.4961 2.92969,-3.14453 7.69531,-3.14453 4.41406,0 6.79688,2.57813 2.40234,2.57812 2.40234,7.32422 l 0,1.99218 z m -3.57422,-2.8125 q -0.0195,-2.89062 -1.46484,-4.47265 -1.42578,-1.58203 -4.35547,-1.58203 -2.94922,0 -4.70703,1.73828 -1.73828,1.73828 -1.97266,4.3164 l 12.5,0 z" /><path
         inkscape:connector-curvature="0"
         id="path5293"
         d="m 242.10547,493.21551 -0.19531,0 q -0.82032,-0.19531 -1.60157,-0.27344 -0.76172,-0.0977 -1.8164,-0.0977 -1.69922,0 -3.28125,0.76172 -1.58203,0.74219 -3.04688,1.9336 l 0,15.48828 -3.67187,0 0,-21.81641 3.67187,0 0,3.22266 q 2.1875,-1.75781 3.84766,-2.48047 1.67969,-0.74219 3.41797,-0.74219 0.95703,0 1.38672,0.0586 0.42968,0.0391 1.28906,0.17578 l 0,3.76953 z" /><path
         inkscape:connector-curvature="0"
         id="path5295"
         d="m 259.21484,493.21551 -0.19531,0 q -0.82031,-0.19531 -1.60156,-0.27344 -0.76172,-0.0977 -1.81641,-0.0977 -1.69922,0 -3.28125,0.76172 -1.58203,0.74219 -3.04687,1.9336 l 0,15.48828 -3.67188,0 0,-21.81641 3.67188,0 0,3.22266 q 2.1875,-1.75781 3.84765,-2.48047 1.67969,-0.74219 3.41797,-0.74219 0.95703,0 1.38672,0.0586 0.42969,0.0391 1.28906,0.17578 l 0,3.76953 z" /><path
         inkscape:connector-curvature="0"
         id="path5297"
         d="m 281.57812,489.2116 -12.73437,29.86328 -3.92578,0 4.0625,-9.10156 -8.69141,-20.76172 3.98438,0 6.69922,16.17188 6.75781,-16.17188 3.84765,0 z" /><path
         inkscape:connector-curvature="0"
         id="path5299"
         d="m 319.76172,490.73504 q 0,1.93359 -0.6836,3.59375 -0.66406,1.64062 -1.875,2.85156 -1.5039,1.50391 -3.55468,2.26563 -2.05078,0.74218 -5.17578,0.74218 l -3.86719,0 0,10.83985 -3.86719,0 0,-29.08203 7.89063,0 q 2.61718,0 4.43359,0.44922 1.81641,0.42968 3.22266,1.36718 1.66015,1.11328 2.55859,2.77344 0.91797,1.66016 0.91797,4.19922 z m -4.02344,0.0977 q 0,-1.50391 -0.52734,-2.61719 -0.52735,-1.11328 -1.60157,-1.81641 -0.9375,-0.60547 -2.14843,-0.85937 -1.19141,-0.27344 -3.02735,-0.27344 l -3.82812,0 0,11.62109 3.26172,0 q 2.34375,0 3.80859,-0.41015 1.46484,-0.42969 2.38281,-1.34766 0.91797,-0.9375 1.28907,-1.97266 0.39062,-1.03515 0.39062,-2.32421 z" /><path
         inkscape:connector-curvature="0"
         id="path5301"
         d="m 328.53125,485.55926 -4.14063,0 0,-3.8086 4.14063,0 0,3.8086 z m -0.23438,25.46875 -3.67187,0 0,-21.81641 3.67187,0 0,21.81641 z" /></g></g></svg>