<?xml version="1.0" encoding="UTF-8" standalone="no"?>
<!-- Generator: Adobe Illustrator 16.0.3, SVG Export Plug-In . SVG Version: 6.00 Build 0)  -->

<svg
   xmlns:dc="http://purl.org/dc/elements/1.1/"
   xmlns:cc="http://creativecommons.org/ns#"
   xmlns:rdf="http://www.w3.org/1999/02/22-rdf-syntax-ns#"
   xmlns:svg="http://www.w3.org/2000/svg"
   xmlns="http://www.w3.org/2000/svg"
   xmlns:sodipodi="http://sodipodi.sourceforge.net/DTD/sodipodi-0.dtd"
   xmlns:inkscape="http://www.inkscape.org/namespaces/inkscape"
   version="1.1"
   id="Ebene_1"
   x="0px"
   y="0px"
   width="566.91827"
   height="458.95636"
   viewBox="0 0 566.91826 458.95637"
   enable-background="new 0 0 566.929 458.929"
   xml:space="preserve"
   inkscape:version="0.91 r13725"
   sodipodi:docname="system.svg"><metadata
     id="metadata4180"><rdf:RDF><cc:Work
         rdf:about=""><dc:format>image/svg+xml</dc:format><dc:type
           rdf:resource="http://purl.org/dc/dcmitype/StillImage" /><dc:title></dc:title></cc:Work></rdf:RDF></metadata><defs
     id="defs4178" /><sodipodi:namedview
     pagecolor="#ffffff"
     bordercolor="#666666"
     borderopacity="1"
     objecttolerance="10"
     gridtolerance="10"
     guidetolerance="10"
     inkscape:pageopacity="0"
     inkscape:pageshadow="2"
     inkscape:window-width="1920"
     inkscape:window-height="1137"
     id="namedview4176"
     showgrid="false"
     inkscape:zoom="0.51424078"
     inkscape:cx="283.45913"
     inkscape:cy="229.47818"
     inkscape:window-x="-8"
     inkscape:window-y="-8"
     inkscape:window-maximized="1"
     inkscape:current-layer="Ebene_1"
     fit-margin-top="0"
     fit-margin-left="0"
     fit-margin-right="0"
     fit-margin-bottom="0" /><g
     id="g4755"
     transform="translate(-81.659803,536.72791)"><path
       style="clip-rule:evenodd;fill:#cf8a61;fill-rule:evenodd;stroke:#000000;stroke-width:4;stroke-miterlimit:4;stroke-dasharray:none;stroke-opacity:1"
       inkscape:connector-curvature="0"
       id="path4166"
       d="m 424.3308,-357.74056 c 0,49.428 0,98.422 0,147.984 16.679,0 33.029,0 49.629,0 0,43.619 0,86.669 0,129.985 -89.912,0 -179.575,0 -269.52,0 0,-22.296 0,-44.378 0,-66.882 21.748,-10.971 43.646,-22.016 65.864,-33.224 0,-75.393 0,-150.66 0,-226.685 51.631,16.366 102.62,32.527 154.027,48.822 z" /><path
       style="clip-rule:evenodd;fill:#cf8a61;fill-rule:evenodd;stroke:#000000;stroke-width:4;stroke-miterlimit:4;stroke-dasharray:none;stroke-opacity:1"
       inkscape:connector-curvature="0"
       id="path4160"
       d="m 646.5718,-354.01856 -178.77,-0.052 -384.141997,-121.739 c 0,0 0,-39.136 0,-58.88 1.717,-0.08 177.232997,-0.01 263.400997,-0.01 64.021,0 128.043,0.007 192.064,-0.003 24.292,-0.004 45.374,8.632 63.727,24.113 22.354,18.858 35.846,43.239 43.296,71.218 0.343,1.286 0.416,2.673 0.417,4.015 0.025,25.822 0.007,81.338 0.007,81.338 z" /><path
       style="clip-rule:evenodd;fill:#cf8a61;fill-rule:evenodd;stroke:#000000;stroke-width:4;stroke-miterlimit:4;stroke-dasharray:none;stroke-opacity:1"
       inkscape:connector-curvature="0"
       id="path4172"
       d="m 441.7788,-340.02356 c 68.27,0 136.276,0 204.543,0 0,38.092 0,75.923 0,114.012 -68.269,0 -136.276,0 -204.543,0 0,-38.092 0,-75.923 0,-114.012 z" /></g></svg>