<?xml version="1.0" encoding="UTF-8" standalone="no"?>
<!-- Generator: Adobe Illustrator 16.0.3, SVG Export Plug-In . SVG Version: 6.00 Build 0)  -->

<svg
   xmlns:dc="http://purl.org/dc/elements/1.1/"
   xmlns:cc="http://creativecommons.org/ns#"
   xmlns:rdf="http://www.w3.org/1999/02/22-rdf-syntax-ns#"
   xmlns:svg="http://www.w3.org/2000/svg"
   xmlns="http://www.w3.org/2000/svg"
   xmlns:xlink="http://www.w3.org/1999/xlink"
   xmlns:sodipodi="http://sodipodi.sourceforge.net/DTD/sodipodi-0.dtd"
   xmlns:inkscape="http://www.inkscape.org/namespaces/inkscape"
   version="1.1"
   id="TEXT"
   x="0px"
   y="0px"
   width="566.929px"
   height="157.78px"
   viewBox="0 -0.001 566.929 157.78"
   enable-background="new 0 -0.001 566.929 157.78"
   xml:space="preserve"
   inkscape:version="0.92.3 (2405546, 2018-03-11)"
   sodipodi:docname="lr-rmame2003plus 2.svg"><metadata
     id="metadata5613"><rdf:RDF><cc:Work
         rdf:about=""><dc:format>image/svg+xml</dc:format><dc:type
           rdf:resource="http://purl.org/dc/dcmitype/StillImage" /><dc:title /></cc:Work></rdf:RDF></metadata><defs
     id="defs5611"><linearGradient
       id="linearGradient1222"
       inkscape:collect="always"><stop
         id="stop1216"
         offset="0"
         style="stop-color:#5dbcea;stop-opacity:1" /><stop
         style="stop-color:#4296c3;stop-opacity:1"
         offset="0.46177718"
         id="stop1218" /><stop
         id="stop1220"
         offset="1"
         style="stop-color:#06416e;stop-opacity:1" /></linearGradient><linearGradient
       inkscape:collect="always"
       id="linearGradient1098"><stop
         style="stop-color:#5dbcea;stop-opacity:1"
         offset="0"
         id="stop1094" /><stop
         id="stop1102"
         offset="0.45189309"
         style="stop-color:#4296c3;stop-opacity:1" /><stop
         style="stop-color:#06416e;stop-opacity:1"
         offset="1"
         id="stop1096" /></linearGradient><linearGradient
       inkscape:collect="always"
       xlink:href="#linearGradient1098"
       id="linearGradient1100"
       x1="306.31161"
       y1="177.97472"
       x2="543.38812"
       y2="177.821"
       gradientUnits="userSpaceOnUse" /><linearGradient
       inkscape:collect="always"
       xlink:href="#linearGradient1098"
       id="linearGradient4855"
       gradientUnits="userSpaceOnUse"
       x1="306.31161"
       y1="177.97472"
       x2="543.38812"
       y2="177.821"
       gradientTransform="translate(-22.120315,-9.5647533)" /><linearGradient
       inkscape:collect="always"
       xlink:href="#linearGradient1222"
       id="linearGradient4857"
       gradientUnits="userSpaceOnUse"
       x1="306.31161"
       y1="177.97472"
       x2="543.38812"
       y2="177.821"
       gradientTransform="translate(-22.120315,-9.5647533)" /><linearGradient
       inkscape:collect="always"
       xlink:href="#linearGradient1098"
       id="linearGradient4859"
       gradientUnits="userSpaceOnUse"
       x1="306.31161"
       y1="177.97472"
       x2="543.38812"
       y2="177.821"
       gradientTransform="translate(-22.120315,-9.5647533)" /><linearGradient
       inkscape:collect="always"
       xlink:href="#linearGradient1098"
       id="linearGradient4861"
       gradientUnits="userSpaceOnUse"
       x1="306.31161"
       y1="177.97472"
       x2="543.38812"
       y2="177.821"
       gradientTransform="translate(-22.120315,-9.5647533)" /><linearGradient
       inkscape:collect="always"
       xlink:href="#linearGradient1098"
       id="linearGradient4863"
       gradientUnits="userSpaceOnUse"
       x1="306.31161"
       y1="177.97472"
       x2="543.38812"
       y2="177.821"
       gradientTransform="translate(-22.120315,-9.5647533)" /><linearGradient
       inkscape:collect="always"
       xlink:href="#linearGradient1098"
       id="linearGradient4865"
       gradientUnits="userSpaceOnUse"
       x1="306.31161"
       y1="177.97472"
       x2="543.38812"
       y2="177.821"
       gradientTransform="translate(-22.120315,-9.5647533)" /><linearGradient
       inkscape:collect="always"
       xlink:href="#linearGradient1098"
       id="linearGradient4867"
       gradientUnits="userSpaceOnUse"
       x1="306.31161"
       y1="177.97472"
       x2="543.38812"
       y2="177.821"
       gradientTransform="translate(-22.120315,-9.5647533)" /><linearGradient
       inkscape:collect="always"
       xlink:href="#linearGradient1098"
       id="linearGradient4869"
       gradientUnits="userSpaceOnUse"
       x1="306.31161"
       y1="177.97472"
       x2="543.38812"
       y2="177.821"
       gradientTransform="translate(-22.120315,-9.5647533)" /><linearGradient
       inkscape:collect="always"
       xlink:href="#linearGradient1098"
       id="linearGradient4871"
       gradientUnits="userSpaceOnUse"
       x1="306.31161"
       y1="177.97472"
       x2="543.38812"
       y2="177.821" /><linearGradient
       inkscape:collect="always"
       xlink:href="#linearGradient1222"
       id="linearGradient1402"
       gradientUnits="userSpaceOnUse"
       gradientTransform="translate(-22.120315,-9.5647533)"
       x1="306.31161"
       y1="177.97472"
       x2="543.38812"
       y2="177.821" /></defs><sodipodi:namedview
     pagecolor="#ffffff"
     bordercolor="#666666"
     borderopacity="1"
     objecttolerance="10"
     gridtolerance="10"
     guidetolerance="10"
     inkscape:pageopacity="0"
     inkscape:pageshadow="2"
     inkscape:window-width="1920"
     inkscape:window-height="1137"
     id="namedview5609"
     showgrid="false"
     inkscape:zoom="1.6264245"
     inkscape:cx="312.35848"
     inkscape:cy="96.062042"
     inkscape:window-x="1912"
     inkscape:window-y="-8"
     inkscape:window-maximized="1"
     inkscape:current-layer="g1206" /><linearGradient
     id="SVGID_1_"
     gradientUnits="userSpaceOnUse"
     x1="558.1284"
     y1="955.5977"
     x2="11.77"
     y2="955.5977"
     gradientTransform="translate(-0.1797,-875.4102)"><stop
       offset="0"
       style="stop-color:#013A67"
       id="stop5278" /><stop
       offset="1"
       style="stop-color:#6CD1FF"
       id="stop5280" /></linearGradient><linearGradient
     id="SVGID_2_"
     gradientUnits="userSpaceOnUse"
     x1="64.7095"
     y1="938.7891"
     x2="60.765"
     y2="934.8448"
     gradientTransform="translate(-0.1797,-875.4102)"><stop
       offset="0"
       style="stop-color:#08406F"
       id="stop5285" /><stop
       offset="1"
       style="stop-color:#60C5F5"
       id="stop5287" /></linearGradient><linearGradient
     id="SVGID_3_"
     gradientUnits="userSpaceOnUse"
     x1="123.2954"
     y1="1013.9102"
     x2="119.6701"
     y2="1010.2849"
     gradientTransform="translate(-0.1797,-875.4102)"><stop
       offset="0"
       style="stop-color:#08406F"
       id="stop5292" /><stop
       offset="1"
       style="stop-color:#60C5F5"
       id="stop5294" /></linearGradient><linearGradient
     id="SVGID_4_"
     gradientUnits="userSpaceOnUse"
     x1="25.7236"
     y1="994.0508"
     x2="25.7236"
     y2="989.7383"
     gradientTransform="translate(-0.1797,-875.4102)"><stop
       offset="0"
       style="stop-color:#08406F"
       id="stop5299" /><stop
       offset="1"
       style="stop-color:#60C5F5"
       id="stop5301" /></linearGradient><linearGradient
     id="SVGID_5_"
     gradientUnits="userSpaceOnUse"
     x1="121.1855"
     y1="1033.1816"
     x2="121.1855"
     y2="1028.7246"
     gradientTransform="translate(-0.1797,-875.4102)"><stop
       offset="0"
       style="stop-color:#08406F"
       id="stop5306" /><stop
       offset="1"
       style="stop-color:#60C5F5"
       id="stop5308" /></linearGradient><linearGradient
     id="SVGID_6_"
     gradientUnits="userSpaceOnUse"
     x1="427.6938"
     y1="994.0234"
     x2="427.6938"
     y2="989.5566"
     gradientTransform="translate(-0.1797,-875.4102)"><stop
       offset="0"
       style="stop-color:#08406F"
       id="stop5313" /><stop
       offset="1"
       style="stop-color:#60C5F5"
       id="stop5315" /></linearGradient><linearGradient
     id="SVGID_7_"
     gradientUnits="userSpaceOnUse"
     x1="251.0645"
     y1="994.8945"
     x2="251.0645"
     y2="990.416"
     gradientTransform="translate(-0.1797,-875.4102)"><stop
       offset="0"
       style="stop-color:#08406F"
       id="stop5320" /><stop
       offset="1"
       style="stop-color:#60C5F5"
       id="stop5322" /></linearGradient><linearGradient
     id="SVGID_8_"
     gradientUnits="userSpaceOnUse"
     x1="522.2808"
     y1="882.1875"
     x2="522.2808"
     y2="877.3242"
     gradientTransform="translate(-0.1797,-875.4102)"><stop
       offset="0"
       style="stop-color:#08406F"
       id="stop5327" /><stop
       offset="1"
       style="stop-color:#60C5F5"
       id="stop5329" /></linearGradient><linearGradient
     id="SVGID_9_"
     gradientUnits="userSpaceOnUse"
     x1="515.0132"
     y1="906.7148"
     x2="515.0132"
     y2="902.5049"
     gradientTransform="translate(-0.1797,-875.4102)"><stop
       offset="0"
       style="stop-color:#08406F"
       id="stop5334" /><stop
       offset="1"
       style="stop-color:#60C5F5"
       id="stop5336" /></linearGradient><linearGradient
     id="SVGID_10_"
     gradientUnits="userSpaceOnUse"
     x1="459.3696"
     y1="950.2305"
     x2="459.3696"
     y2="946.5117"
     gradientTransform="translate(-0.1797,-875.4102)"><stop
       offset="0"
       style="stop-color:#08406F"
       id="stop5341" /><stop
       offset="1"
       style="stop-color:#60C5F5"
       id="stop5343" /></linearGradient><linearGradient
     id="SVGID_11_"
     gradientUnits="userSpaceOnUse"
     x1="490.1606"
     y1="925.1113"
     x2="490.1606"
     y2="919.5566"
     gradientTransform="translate(-0.1797,-875.4102)"><stop
       offset="0"
       style="stop-color:#08406F"
       id="stop5348" /><stop
       offset="1"
       style="stop-color:#60C5F5"
       id="stop5350" /></linearGradient><linearGradient
     id="SVGID_12_"
     gradientUnits="userSpaceOnUse"
     x1="74.3892"
     y1="968.8252"
     x2="70.846"
     y2="965.282"
     gradientTransform="translate(-0.1797,-875.4102)"><stop
       offset="0"
       style="stop-color:#08406F"
       id="stop5355" /><stop
       offset="1"
       style="stop-color:#60C5F5"
       id="stop5357" /></linearGradient><linearGradient
     id="SVGID_13_"
     gradientUnits="userSpaceOnUse"
     x1="120.2554"
     y1="904.3691"
     x2="114.8892"
     y2="904.3691"
     gradientTransform="translate(-0.1797,-875.4102)"><stop
       offset="0"
       style="stop-color:#08406F"
       id="stop5362" /><stop
       offset="1"
       style="stop-color:#60C5F5"
       id="stop5364" /></linearGradient><linearGradient
     id="SVGID_14_"
     gradientUnits="userSpaceOnUse"
     x1="173.0811"
     y1="919.9609"
     x2="166.4209"
     y2="919.9609"
     gradientTransform="translate(-0.1797,-875.4102)"><stop
       offset="0"
       style="stop-color:#08406F"
       id="stop5369" /><stop
       offset="1"
       style="stop-color:#60C5F5"
       id="stop5371" /></linearGradient><linearGradient
     id="SVGID_15_"
     gradientUnits="userSpaceOnUse"
     x1="255.9883"
     y1="925.2158"
     x2="249.9951"
     y2="925.2158"
     gradientTransform="translate(-0.1797,-875.4102)"><stop
       offset="0"
       style="stop-color:#08406F"
       id="stop5376" /><stop
       offset="1"
       style="stop-color:#60C5F5"
       id="stop5378" /></linearGradient><linearGradient
     id="SVGID_16_"
     gradientUnits="userSpaceOnUse"
     x1="349.2769"
     y1="904.625"
     x2="343.5757"
     y2="904.625"
     gradientTransform="translate(-0.1797,-875.4102)"><stop
       offset="0"
       style="stop-color:#08406F"
       id="stop5383" /><stop
       offset="1"
       style="stop-color:#60C5F5"
       id="stop5385" /></linearGradient><linearGradient
     id="SVGID_17_"
     gradientUnits="userSpaceOnUse"
     x1="400.9604"
     y1="918.4463"
     x2="395.1636"
     y2="918.4463"
     gradientTransform="translate(-0.1797,-875.4102)"><stop
       offset="0"
       style="stop-color:#08406F"
       id="stop5390" /><stop
       offset="1"
       style="stop-color:#60C5F5"
       id="stop5392" /></linearGradient><linearGradient
     id="SVGID_18_"
     gradientUnits="userSpaceOnUse"
     x1="101.7651"
     y1="968.9385"
     x2="96.6543"
     y2="968.9385"
     gradientTransform="translate(-0.1797,-875.4102)"><stop
       offset="0"
       style="stop-color:#08406F"
       id="stop5397" /><stop
       offset="1"
       style="stop-color:#60C5F5"
       id="stop5399" /></linearGradient><linearGradient
     id="SVGID_19_"
     gradientUnits="userSpaceOnUse"
     x1="121.2485"
     y1="973.8379"
     x2="117.6964"
     y2="970.2858"
     gradientTransform="translate(-0.1797,-875.4102)"><stop
       offset="0"
       style="stop-color:#08406F"
       id="stop5404" /><stop
       offset="1"
       style="stop-color:#60C5F5"
       id="stop5406" /></linearGradient><linearGradient
     id="SVGID_20_"
     gradientUnits="userSpaceOnUse"
     x1="553.436"
     y1="892.5"
     x2="549.7673"
     y2="888.8311"
     gradientTransform="translate(-0.1797,-875.4102)"><stop
       offset="0"
       style="stop-color:#08406F"
       id="stop5411" /><stop
       offset="1"
       style="stop-color:#60C5F5"
       id="stop5413" /></linearGradient><linearGradient
     id="SVGID_21_"
     gradientUnits="userSpaceOnUse"
     x1="145.9941"
     y1="969.8789"
     x2="140.5957"
     y2="969.8789"
     gradientTransform="translate(-0.1797,-875.4102)"><stop
       offset="0"
       style="stop-color:#08406F"
       id="stop5418" /><stop
       offset="1"
       style="stop-color:#60C5F5"
       id="stop5420" /></linearGradient><linearGradient
     id="SVGID_22_"
     gradientUnits="userSpaceOnUse"
     x1="148.7769"
     y1="907.0098"
     x2="144.2891"
     y2="902.522"
     gradientTransform="translate(-0.1797,-875.4102)"><stop
       offset="0"
       style="stop-color:#08406F"
       id="stop5425" /><stop
       offset="1"
       style="stop-color:#60C5F5"
       id="stop5427" /></linearGradient><linearGradient
     id="SVGID_23_"
     gradientUnits="userSpaceOnUse"
     x1="215.8457"
     y1="922.3213"
     x2="211.688"
     y2="918.1636"
     gradientTransform="translate(-0.1797,-875.4102)"><stop
       offset="0"
       style="stop-color:#08406F"
       id="stop5432" /><stop
       offset="1"
       style="stop-color:#60C5F5"
       id="stop5434" /></linearGradient><linearGradient
     id="SVGID_24_"
     gradientUnits="userSpaceOnUse"
     x1="304.3159"
     y1="927.8105"
     x2="299.9317"
     y2="923.4263"
     gradientTransform="translate(-0.1797,-875.4102)"><stop
       offset="0"
       style="stop-color:#08406F"
       id="stop5439" /><stop
       offset="1"
       style="stop-color:#60C5F5"
       id="stop5441" /></linearGradient><linearGradient
     id="SVGID_25_"
     gradientUnits="userSpaceOnUse"
     x1="376.9712"
     y1="906.8613"
     x2="372.7633"
     y2="902.653"
     gradientTransform="translate(-0.1797,-875.4102)"><stop
       offset="0"
       style="stop-color:#08406F"
       id="stop5446" /><stop
       offset="1"
       style="stop-color:#60C5F5"
       id="stop5448" /></linearGradient><linearGradient
     id="SVGID_26_"
     gradientUnits="userSpaceOnUse"
     x1="488.7378"
     y1="935.2646"
     x2="485.2816"
     y2="931.8086"
     gradientTransform="translate(-0.1797,-875.4102)"><stop
       offset="0"
       style="stop-color:#08406F"
       id="stop5453" /><stop
       offset="1"
       style="stop-color:#60C5F5"
       id="stop5455" /></linearGradient><linearGradient
     id="SVGID_27_"
     gradientUnits="userSpaceOnUse"
     x1="499.8081"
     y1="979.377"
     x2="495.8485"
     y2="975.4175"
     gradientTransform="translate(-0.1797,-875.4102)"><stop
       offset="0"
       style="stop-color:#08406F"
       id="stop5460" /><stop
       offset="1"
       style="stop-color:#60C5F5"
       id="stop5462" /></linearGradient><linearGradient
     id="SVGID_28_"
     gradientUnits="userSpaceOnUse"
     x1="441.8374"
     y1="921.6133"
     x2="437.5547"
     y2="917.3306"
     gradientTransform="translate(-0.1797,-875.4102)"><stop
       offset="0"
       style="stop-color:#08406F"
       id="stop5467" /><stop
       offset="1"
       style="stop-color:#60C5F5"
       id="stop5469" /></linearGradient><linearGradient
     id="SVGID_29_"
     gradientUnits="userSpaceOnUse"
     x1="486.8589"
     y1="916.6494"
     x2="481.7448"
     y2="911.5353"
     gradientTransform="translate(-0.1797,-875.4102)"><stop
       offset="0"
       style="stop-color:#08406F"
       id="stop5474" /><stop
       offset="1"
       style="stop-color:#60C5F5"
       id="stop5476" /></linearGradient><linearGradient
     id="SVGID_30_"
     gradientUnits="userSpaceOnUse"
     x1="185.9771"
     y1="992.3301"
     x2="182.3352"
     y2="988.6882"
     gradientTransform="translate(-0.1797,-875.4102)"><stop
       offset="0"
       style="stop-color:#08406F"
       id="stop5481" /><stop
       offset="1"
       style="stop-color:#60C5F5"
       id="stop5483" /></linearGradient><linearGradient
     id="SVGID_31_"
     gradientUnits="userSpaceOnUse"
     x1="303.0278"
     y1="969.1396"
     x2="299.3873"
     y2="965.4991"
     gradientTransform="translate(-0.1797,-875.4102)"><stop
       offset="0"
       style="stop-color:#08406F"
       id="stop5488" /><stop
       offset="1"
       style="stop-color:#60C5F5"
       id="stop5490" /></linearGradient><linearGradient
     id="SVGID_32_"
     gradientUnits="userSpaceOnUse"
     x1="349.8892"
     y1="973.085"
     x2="346.3799"
     y2="969.5756"
     gradientTransform="translate(-0.1797,-875.4102)"><stop
       offset="0"
       style="stop-color:#08406F"
       id="stop5495" /><stop
       offset="1"
       style="stop-color:#60C5F5"
       id="stop5497" /></linearGradient><linearGradient
     id="SVGID_33_"
     gradientUnits="userSpaceOnUse"
     x1="370.8042"
     y1="993.6396"
     x2="366.3813"
     y2="989.2169"
     gradientTransform="translate(-0.1797,-875.4102)"><stop
       offset="0"
       style="stop-color:#08406F"
       id="stop5502" /><stop
       offset="1"
       style="stop-color:#60C5F5"
       id="stop5504" /></linearGradient><linearGradient
     id="SVGID_34_"
     gradientUnits="userSpaceOnUse"
     x1="229.457"
     y1="971.7686"
     x2="223.4189"
     y2="971.7686"
     gradientTransform="translate(-0.1797,-875.4102)"><stop
       offset="0"
       style="stop-color:#08406F"
       id="stop5509" /><stop
       offset="1"
       style="stop-color:#60C5F5"
       id="stop5511" /></linearGradient><linearGradient
     id="SVGID_35_"
     gradientUnits="userSpaceOnUse"
     x1="330.3042"
     y1="968.5186"
     x2="325.0923"
     y2="968.5186"
     gradientTransform="translate(-0.1797,-875.4102)"><stop
       offset="0"
       style="stop-color:#08406F"
       id="stop5516" /><stop
       offset="1"
       style="stop-color:#60C5F5"
       id="stop5518" /></linearGradient><linearGradient
     id="SVGID_36_"
     gradientUnits="userSpaceOnUse"
     x1="374.9702"
     y1="967.8066"
     x2="368.7251"
     y2="967.8066"
     gradientTransform="translate(-0.1797,-875.4102)"><stop
       offset="0"
       style="stop-color:#08406F"
       id="stop5523" /><stop
       offset="1"
       style="stop-color:#60C5F5"
       id="stop5525" /></linearGradient><linearGradient
     id="SVGID_37_"
     gradientUnits="userSpaceOnUse"
     x1="440.6372"
     y1="959.6748"
     x2="436.2191"
     y2="955.2568"
     gradientTransform="translate(-0.1797,-875.4102)"><stop
       offset="0"
       style="stop-color:#08406F"
       id="stop5530" /><stop
       offset="1"
       style="stop-color:#60C5F5"
       id="stop5532" /></linearGradient><linearGradient
     id="SVGID_38_"
     gradientUnits="userSpaceOnUse"
     x1="472.9204"
     y1="969.5098"
     x2="472.9204"
     y2="963.708"
     gradientTransform="translate(-0.1797,-875.4102)"><stop
       offset="0"
       style="stop-color:#08406F"
       id="stop5537" /><stop
       offset="1"
       style="stop-color:#60C5F5"
       id="stop5539" /></linearGradient><g
     id="g4520"><g
   id="g1160"
   transform="matrix(0.90460494,0,0,0.90460494,-3.0788934,-22.521217)"><g
     id="g1206"
     transform="translate(0,-8.1703575)"><g
       id="g1507"><g
         transform="matrix(1.054179,0,0,1.054179,-10.63238,-2.2125566)"
         id="g1400"><g
           aria-label="2003 PLUS"
           style="font-style:normal;font-variant:normal;font-weight:normal;font-stretch:normal;font-size:40px;line-height:25px;font-family:'namco regular';-inkscape-font-specification:'namco regular, ';letter-spacing:0px;word-spacing:0px;fill:url(#linearGradient1100);fill-opacity:1;stroke:none;stroke-width:1px;stroke-linecap:butt;stroke-linejoin:miter;stroke-opacity:1"
           id="g1092"
           transform="translate(2.1871781,20.254038)"><g
             transform="matrix(1,0,-0.17632698,1,31.36458,0.61484563)"
             style="fill:url(#linearGradient4871)"
             id="g1132" /></g><g
           id="g5615"
           transform="matrix(0.81874674,0,0,0.81874674,78.481313,34.594333)"><polygon
             id="polygon5282"
             points="91.598,70.276 100.303,70.276 99.883,114.54 136.035,77.543 144.679,77.543 144.679,115.23 104.892,154.73 143.019,154.165 218.036,78.299 228.14,78.299 228.14,115.57 274.897,115.854 320.115,70.353 328.843,69.786 328.708,112.799 364.839,76.667 373.375,76.667 373.941,113.102 373.203,114.998 482.378,114.998 503.279,93.815 435.398,92.661 434.781,82.809 445.357,71.67 470.968,71.667 493.216,49.133 479.769,48.565 479.769,39.082 491.191,27.662 536.777,27.946 557.949,5.927 479.951,5.642 406.662,79.217 396.4,79.784 396.686,9.001 355.481,51.055 345.625,52.224 345.625,9.374 261.264,92.842 250.775,93.958 251.667,8.077 177.937,82.94 168.255,82.987 167.12,11.089 127.342,51.15 116.278,51.717 116.697,8.939 11.591,114.895 46.209,114.328 "
             style="fill:url(#SVGID_1_)" /><path
             id="path5289"
             d="M 114.692,13.213 13.577,114.328 2.106,118.641 c 0,0 -0.604,0.039 -0.271,-0.445 0,0 117.26,-117.292 117.472,-117.471 0.212,-0.181 0.467,-0.028 0.467,-0.028 z"
             style="fill:url(#SVGID_2_)"
             inkscape:connector-curvature="0" /><path
             id="path5296"
             d="m 145.814,115.797 -37.518,37.521 -11.065,4.457 c 0,0 -0.576,0.065 -0.236,-0.407 l 43.929,-43.749 z"
             style="fill:url(#SVGID_3_)"
             inkscape:connector-curvature="0" /><polygon
             id="polygon5303"
             points="2.106,118.641 13.603,114.328 46.209,114.328 48.982,118.641 "
             style="fill:url(#SVGID_4_)" /><polygon
             id="polygon5310"
             points="97.23,157.771 108.296,153.314 142.168,153.314 144.781,157.771 "
             style="fill:url(#SVGID_5_)" /><polygon
             id="polygon5317"
             points="370.242,118.584 374.052,114.148 481.529,114.146 484.787,118.613 "
             style="fill:url(#SVGID_6_)" /><path
             id="path5324"
             d="m 277.053,119.484 -51.527,-0.029 c -0.333,0.005 -0.81,-0.335 -0.81,-0.335 l 4.561,-4.115 h 45.054 z"
             style="fill:url(#SVGID_7_)"
             inkscape:connector-curvature="0" /><path
             id="path5331"
             d="m 477.382,1.913 h 88.652 c 0.785,0 0.785,0.313 0.785,0.313 l -10.572,4.55 h -75.164 z"
             style="fill:url(#SVGID_8_)"
             inkscape:connector-curvature="0" /><polygon
             id="polygon5338"
             points="492.697,31.304 490.625,27.094 535.927,27.094 539.042,31.304 "
             style="fill:url(#SVGID_9_)" /><polygon
             id="polygon5345"
             points="448.91,74.82 444.791,71.102 470.402,71.1 473.589,74.82 "
             style="fill:url(#SVGID_10_)" /><path
             id="path5352"
             d="m 491.8,49.7 h -13.58 l -1.193,-5.548 h 25.467 c 0.346,-0.043 0.441,0.146 0.441,0.146 z"
             style="fill:url(#SVGID_11_)"
             inkscape:connector-curvature="0" /><path
             id="path5359"
             d="M 96.872,70.634 48.982,118.643 46.209,114.33 92.81,67.965 c 2,-2.313 4.675,-1.731 4.675,-1.731 z"
             style="fill:url(#SVGID_12_)"
             inkscape:connector-curvature="0" /><path
             id="path5366"
             d="M 114.71,51.669 V 13.193 l 5.063,-12.499 c 0,0 0.303,0.075 0.303,0.571 0,0.493 0,53.647 0,53.647 l -0.315,2.311 c 0,10e-4 -4.496,0.025 -5.051,-5.554 z"
             style="fill:url(#SVGID_13_)"
             inkscape:connector-curvature="0" /><path
             id="path5373"
             d="m 172.902,88.843 c 0,0 -6.539,1.95 -6.621,-5.625 -0.08,-7.313 -0.013,-69.291 -0.013,-69.291 l 5.214,-13.896 c 0,0 0.182,-0.027 0.182,0.725 l -0.017,81.793 z"
             style="fill:url(#SVGID_14_)"
             inkscape:connector-curvature="0" /><path
             id="path5380"
             d="m 255.809,98.91 c 0,0 -5.889,0.577 -5.96,-6.088 l -0.033,-80.063 4.651,-12.071 c 0,0 0.583,0.153 0.583,0.907 l -0.016,91.14 z"
             style="fill:url(#SVGID_15_)"
             inkscape:connector-curvature="0" /><path
             id="path5387"
             d="m 349.097,57.425 c 0,0 -4.868,0.452 -5.701,-4.563 V 13.139 l 4.393,-12.147 c 0,0 0.563,0.134 0.563,0.886 v 49.667 z"
             style="fill:url(#SVGID_16_)"
             inkscape:connector-curvature="0" /><path
             id="path5394"
             d="m 400.781,85.333 c 0,0 -4.938,0.643 -5.797,-4.373 V 13.254 l 4.85,-12.544 c 0,0 0.268,0.221 0.268,1.708 v 77.226 z"
             style="fill:url(#SVGID_17_)"
             inkscape:connector-curvature="0" /><path
             id="path5401"
             d="m 97.759,120.82 c 0,0 -0.833,-0.069 -0.809,-1.149 -0.001,-0.917 -0.078,-49.036 -0.078,-49.036 0,0 -1.218,-1.577 0.613,-4.4 0.547,0.131 3.495,0.727 4.101,4.256 v 40.37 z"
             style="fill:url(#SVGID_18_)"
             inkscape:connector-curvature="0" /><path
             id="path5408"
             d="m 140.843,78.598 c 0,0 -41.489,41.548 -41.883,41.938 -0.346,0.379 -1.202,0.282 -1.202,0.282 l 3.827,-9.963 36.059,-36.088 c 0,0 1.34,-1.727 3.831,-1.637 z"
             style="fill:url(#SVGID_19_)"
             inkscape:connector-curvature="0" /><path
             id="path5415"
             d="M 566.609,3.639 539.043,31.304 535.928,27.093 556.24,6.769 566.822,2.227 c 0,0.001 0.349,0.847 -0.213,1.412 z"
             style="fill:url(#SVGID_20_)"
             inkscape:connector-curvature="0" /><path
             id="path5422"
             d="m 140.924,113.616 -0.079,-35.025 c 0,0 -1.301,-2.633 0.631,-5.456 0.593,-0.007 3.7,0.421 4.339,4.146 l -0.001,38.52 z"
             style="fill:url(#SVGID_21_)"
             inkscape:connector-curvature="0" /><path
             id="path5429"
             d="m 166.269,13.926 -41.462,41.463 c -1.987,1.986 -5.045,1.836 -5.045,1.836 -1.795,-3.531 0.315,-6.065 0.315,-6.065 0,0 50.503,-50.49 50.867,-50.87 0.331,-0.417 0.541,-0.264 0.541,-0.264 z"
             style="fill:url(#SVGID_22_)"
             inkscape:connector-curvature="0" /><path
             id="path5436"
             d="m 249.815,12.762 -74.376,74.375 c -1.55,1.551 -2.537,1.703 -2.537,1.703 -3.781,-1.878 -1.213,-6.255 -1.213,-6.255 0,0 80.652,-80.635 81.016,-81.015 0.943,-1.093 1.761,-0.883 1.761,-0.883 z"
             style="fill:url(#SVGID_23_)"
             inkscape:connector-curvature="0" /><path
             id="path5443"
             d="M 343.396,13.139 259.233,97.3 c -1.429,1.432 -3.424,1.608 -3.424,1.608 -3.115,-1.556 -0.776,-6.175 -0.776,-6.175 0,0 90.61,-90.5 90.974,-90.881 0.941,-1.098 1.781,-0.862 1.781,-0.862 z"
             style="fill:url(#SVGID_24_)"
             inkscape:connector-curvature="0" /><path
             id="path5450"
             d="m 394.984,13.254 -42.513,42.514 c -1.429,1.432 -3.374,1.657 -3.374,1.657 -2.932,-1.908 -0.588,-5.983 -0.588,-5.983 0,0 49.584,-49.69 49.947,-50.07 1.047,-1.033 1.377,-0.66 1.377,-0.66 z"
             style="fill:url(#SVGID_25_)"
             inkscape:connector-curvature="0" /><path
             id="path5457"
             d="M 502.958,45.453 473.589,74.82 470.401,71.098 491.8,49.7 502.935,44.299 c 0,0 0.414,0.294 0.023,1.154 z"
             style="fill:url(#SVGID_26_)"
             inkscape:connector-curvature="0" /><path
             id="path5464"
             d="m 513.634,89.96 -28.848,28.651 -3.258,-4.465 20.049,-20.049 12.289,-5.38 c 10e-4,0.003 0.397,0.435 -0.232,1.243 z"
             style="fill:url(#SVGID_27_)"
             inkscape:connector-curvature="0" /><path
             id="path5471"
             d="M 481.083,6.777 404.171,83.69 c -1.43,1.432 -3.395,1.644 -3.395,1.644 -2.449,-3.092 -0.686,-5.979 -0.686,-5.979 l 77.289,-77.44 z"
             style="fill:url(#SVGID_28_)"
             inkscape:connector-curvature="0" /><path
             id="path5478"
             d="M 492.697,31.304 480.021,44.09 c -2.771,2.282 -1.801,5.608 -1.801,5.608 -2.25,-0.21 -3.125,-2.065 -3.412,-3.695 -0.285,-1.63 0.303,-3.422 1.348,-4.467 l 14.469,-14.44 z"
             style="fill:url(#SVGID_29_)"
             inkscape:connector-curvature="0" /><path
             id="path5485"
             d="m 142.17,153.316 77.913,-77.943 c 0,0 1.437,-1.873 4.267,-1.771 l -0.456,5.223 c 0,0 -78.666,78.506 -79.113,78.948 z"
             style="fill:url(#SVGID_30_)"
             inkscape:connector-curvature="0" /><path
             id="path5492"
             d="m 274.33,115.004 47.643,-47.659 c 0,0 1.437,-1.871 4.267,-1.771 l -0.857,5.621 -48.325,48.29 z"
             style="fill:url(#SVGID_31_)"
             inkscape:connector-curvature="0" /><path
             id="path5499"
             d="m 330.125,110.25 36.779,-36.789 c 0.842,-0.843 1.779,-1.771 3.396,-1.771 l -0.107,5.501 -43.081,43.043 c -0.569,0.563 -1.019,0.399 -1.019,0.399 z"
             style="fill:url(#SVGID_32_)"
             inkscape:connector-curvature="0" /><path
             id="path5506"
             d="m 361.984,118.057 7.25,-7.281 5.557,2.326 -0.734,1.047 -3.813,4.437 -0.272,0.3 h -7.72 c -0.34,0.014 -0.521,-0.271 -0.521,-0.271 0,0 -0.155,-0.147 0.253,-0.558 z"
             style="fill:url(#SVGID_33_)"
             inkscape:connector-curvature="0" /><path
             id="path5513"
             d="m 223.983,117.338 -0.09,-38.515 c 0,0 -1.738,-2.016 0.457,-5.223 0.673,-0.01 4.202,0.478 4.928,4.707 l -0.001,36.694 -4.561,4.115 c 0,0.003 -0.73,-0.475 -0.733,-1.778 z"
             style="fill:url(#SVGID_34_)"
             inkscape:connector-curvature="0" /><path
             id="path5520"
             d="m 325.449,119.945 -0.08,-48.75 c 0,0 -1.472,-2.681 0.871,-5.621 0.596,-0.009 3.243,0.472 3.885,4.702 v 39.975 l -4.028,10.39 c -0.004,-0.002 -0.605,-0.143 -0.648,-0.696 z"
             style="fill:url(#SVGID_35_)"
             inkscape:connector-curvature="0" /><path
             id="path5527"
             d="M 369.234,110.775 V 78.146 c 0,0 -2.113,-3.379 1.064,-6.456 0.693,-0.008 4.132,0.24 4.492,4.323 v 37.088 z"
             style="fill:url(#SVGID_36_)"
             inkscape:connector-curvature="0" /><path
             id="path5534"
             d="m 448.91,74.82 -13.451,13.479 -3.844,4.809 c -3.896,-2.458 -1.953,-6.874 -0.912,-7.925 l 14.088,-14.079 z"
             style="fill:url(#SVGID_37_)"
             inkscape:connector-curvature="0" /><path
             id="path5541"
             d="m 501.58,94.098 h -66.391 c -2.502,-0.196 -3.574,-0.992 -3.574,-0.992 -0.012,-3.571 3.844,-4.809 3.844,-4.809 l 77.746,0.001 c 0.543,-0.001 0.662,0.422 0.662,0.422 z"
             style="fill:url(#SVGID_38_)"
             inkscape:connector-curvature="0" /><g
             id="g5543"><path
               id="path5545"
               d="m 0,142.055 v -9.521 h 2.876 l 1.728,6.494 1.708,-6.494 h 2.883 v 9.521 H 7.41 v -7.496 l -1.89,7.496 H 3.669 l -1.883,-7.496 v 7.496 z"
               inkscape:connector-curvature="0" /><path
               id="path5547"
               d="m 17.224,132.532 h 1.922 v 5.155 c 0,0.816 0.024,1.35 0.071,1.592 0.083,0.391 0.278,0.701 0.588,0.938 0.31,0.237 0.732,0.354 1.27,0.354 0.545,0 0.957,-0.11 1.234,-0.334 0.277,-0.223 0.443,-0.496 0.5,-0.821 0.056,-0.324 0.084,-0.863 0.084,-1.616 v -5.268 h 1.922 v 5.001 c 0,1.144 -0.052,1.95 -0.155,2.423 -0.104,0.472 -0.296,0.87 -0.575,1.193 -0.279,0.324 -0.652,0.582 -1.12,0.773 -0.468,0.192 -1.078,0.289 -1.832,0.289 -0.909,0 -1.599,-0.104 -2.068,-0.313 -0.47,-0.211 -0.841,-0.482 -1.114,-0.818 -0.273,-0.335 -0.452,-0.688 -0.539,-1.057 -0.125,-0.545 -0.188,-1.353 -0.188,-2.416 z"
               inkscape:connector-curvature="0" /><path
               id="path5549"
               d="m 33.025,142.055 v -9.443 h 1.922 v 7.84 h 4.78 v 1.604 h -6.702 z"
               inkscape:connector-curvature="0" /><path
               id="path5551"
               d="m 48.385,142.055 v -7.91 H 45.56 v -1.61 h 7.566 v 1.61 h -2.819 v 7.91 z"
               inkscape:connector-curvature="0" /><path
               id="path5553"
               d="m 60.438,142.055 v -9.521 h 1.922 v 9.521 z"
               inkscape:connector-curvature="0" /><path
               id="path5555"
               d="m 70.324,142.055 v -9.521 h 3.085 c 1.169,0 1.931,0.048 2.286,0.144 0.545,0.146 1.002,0.453 1.37,0.935 0.368,0.479 0.552,1.098 0.552,1.854 0,0.584 -0.106,1.075 -0.318,1.477 -0.212,0.396 -0.482,0.711 -0.809,0.938 -0.327,0.229 -0.659,0.378 -0.997,0.452 -0.459,0.09 -1.124,0.136 -1.994,0.136 h -1.253 v 3.594 z m 1.922,-7.91 v 2.701 h 1.052 c 0.757,0 1.264,-0.053 1.52,-0.15 0.256,-0.098 0.456,-0.254 0.601,-0.467 0.145,-0.213 0.217,-0.459 0.217,-0.74 0,-0.346 -0.102,-0.633 -0.305,-0.856 -0.204,-0.225 -0.461,-0.362 -0.773,-0.422 -0.229,-0.043 -0.691,-0.063 -1.383,-0.063 z"
               inkscape:connector-curvature="0" /><path
               id="path5557"
               d="m 85.378,142.055 v -9.443 H 87.3 v 7.84 h 4.78 v 1.604 h -6.702 z"
               inkscape:connector-curvature="0" /><path
               id="path5559"
               d="m 99.582,142.055 v -9.521 h 7.059 v 1.609 h -5.137 v 2.108 h 4.78 v 1.604 h -4.78 v 2.592 h 5.319 v 1.604 z"
               inkscape:connector-curvature="0" /></g><g
             id="g5561"><path
               id="path5563"
               d="m 189.966,142.055 h -2.091 l -0.831,-2.164 h -3.806 l -0.786,2.164 h -2.039 l 3.708,-9.521 h 2.032 z m -3.539,-3.769 -1.313,-3.532 -1.286,3.532 z"
               inkscape:connector-curvature="0" /><path
               id="path5565"
               d="m 197.124,142.055 v -9.521 h 4.046 c 1.018,0 1.757,0.086 2.218,0.258 0.461,0.171 0.83,0.477 1.107,0.912 0.277,0.438 0.416,0.938 0.416,1.5 0,0.714 -0.21,1.304 -0.63,1.771 -0.419,0.465 -1.047,0.758 -1.883,0.879 0.416,0.242 0.758,0.51 1.029,0.799 0.271,0.291 0.635,0.808 1.094,1.548 l 1.162,1.856 h -2.299 l -1.39,-2.072 c -0.493,-0.739 -0.832,-1.207 -1.013,-1.398 -0.181,-0.189 -0.375,-0.322 -0.578,-0.396 -0.203,-0.069 -0.526,-0.104 -0.968,-0.104 h -0.389 v 3.978 h -1.922 z m 1.922,-5.496 h 1.422 c 0.922,0 1.498,-0.037 1.727,-0.115 0.23,-0.077 0.409,-0.213 0.539,-0.402 0.13,-0.188 0.195,-0.43 0.195,-0.714 0,-0.32 -0.085,-0.579 -0.256,-0.776 -0.171,-0.193 -0.412,-0.318 -0.724,-0.371 -0.156,-0.021 -0.623,-0.031 -1.403,-0.031 h -1.5 z"
               inkscape:connector-curvature="0" /><path
               id="path5567"
               d="m 218.945,138.552 1.864,0.593 c -0.286,1.041 -0.761,1.813 -1.425,2.313 -0.664,0.504 -1.508,0.757 -2.53,0.757 -1.264,0 -2.303,-0.433 -3.117,-1.296 -0.814,-0.86 -1.221,-2.044 -1.221,-3.542 0,-1.585 0.409,-2.813 1.228,-3.689 0.818,-0.877 1.894,-1.313 3.228,-1.313 1.165,0 2.11,0.344 2.838,1.03 0.433,0.406 0.757,0.992 0.974,1.755 l -1.903,0.452 c -0.113,-0.491 -0.347,-0.881 -0.705,-1.168 -0.358,-0.284 -0.791,-0.428 -1.302,-0.428 -0.706,0 -1.278,0.252 -1.718,0.76 -0.44,0.507 -0.66,1.326 -0.66,2.461 0,1.203 0.217,2.062 0.65,2.572 0.433,0.51 0.996,0.767 1.688,0.767 0.511,0 0.95,-0.162 1.318,-0.486 0.369,-0.33 0.633,-0.84 0.793,-1.538 z"
               inkscape:connector-curvature="0" /><path
               id="path5569"
               d="m 237.175,142.055 h -2.091 l -0.832,-2.164 h -3.806 l -0.786,2.164 h -2.039 l 3.708,-9.521 h 2.033 z m -3.539,-3.769 -1.313,-3.532 -1.286,3.532 z"
               inkscape:connector-curvature="0" /><path
               id="path5571"
               d="m 244.32,132.532 h 3.514 c 0.792,0 1.396,0.062 1.812,0.183 0.559,0.165 1.037,0.457 1.435,0.877 0.398,0.419 0.702,0.936 0.91,1.542 0.208,0.608 0.312,1.358 0.312,2.251 0,0.782 -0.098,1.458 -0.292,2.025 -0.238,0.691 -0.578,1.254 -1.02,1.682 -0.333,0.325 -0.784,0.578 -1.351,0.762 -0.424,0.136 -0.991,0.203 -1.701,0.203 h -3.617 v -9.521 z m 1.922,1.613 v 6.307 h 1.435 c 0.537,0 0.924,-0.03 1.163,-0.092 0.312,-0.077 0.57,-0.211 0.776,-0.396 0.206,-0.188 0.374,-0.49 0.503,-0.92 0.13,-0.426 0.195,-1.007 0.195,-1.743 0,-0.733 -0.065,-1.301 -0.195,-1.692 -0.13,-0.396 -0.312,-0.701 -0.545,-0.924 -0.234,-0.223 -0.53,-0.369 -0.89,-0.447 -0.269,-0.063 -0.795,-0.09 -1.578,-0.09 z"
               inkscape:connector-curvature="0" /><path
               id="path5573"
               d="m 260.063,142.055 v -9.521 h 7.059 v 1.609 h -5.137 v 2.108 h 4.78 v 1.604 h -4.78 v 2.592 h 5.319 v 1.604 z"
               inkscape:connector-curvature="0" /></g><g
             id="g5575"><path
               id="path5577"
               d="m 283.18,142.055 v -9.521 h 2.877 l 1.729,6.494 1.707,-6.494 h 2.883 v 9.521 h -1.785 v -7.496 l -1.891,7.496 h -1.854 l -1.887,-7.496 v 7.496 z"
               inkscape:connector-curvature="0" /><path
               id="path5579"
               d="m 309.001,142.055 h -2.09 l -0.832,-2.164 h -3.809 l -0.782,2.164 h -2.04 l 3.709,-9.521 h 2.029 z m -3.539,-3.769 -1.313,-3.532 -1.286,3.532 z"
               inkscape:connector-curvature="0" /><path
               id="path5581"
               d="m 322.246,138.552 1.863,0.593 c -0.285,1.041 -0.761,1.813 -1.425,2.313 -0.665,0.505 -1.509,0.757 -2.53,0.757 -1.264,0 -2.303,-0.433 -3.115,-1.296 -0.813,-0.86 -1.223,-2.044 -1.223,-3.542 0,-1.585 0.409,-2.813 1.229,-3.689 0.818,-0.877 1.896,-1.313 3.229,-1.313 1.165,0 2.108,0.344 2.839,1.03 0.434,0.406 0.76,0.992 0.977,1.755 l -1.902,0.452 c -0.111,-0.491 -0.35,-0.881 -0.704,-1.168 -0.356,-0.284 -0.791,-0.428 -1.303,-0.428 -0.705,0 -1.277,0.252 -1.718,0.76 -0.439,0.507 -0.66,1.326 -0.66,2.461 0,1.203 0.218,2.062 0.648,2.572 0.434,0.51 0.994,0.767 1.688,0.767 0.51,0 0.946,-0.162 1.313,-0.486 0.369,-0.33 0.633,-0.84 0.794,-1.538 z"
               inkscape:connector-curvature="0" /><path
               id="path5583"
               d="m 331.897,142.055 v -9.521 h 1.923 v 3.748 h 3.766 v -3.748 h 1.924 v 9.521 h -1.924 v -4.164 h -3.766 v 4.164 z"
               inkscape:connector-curvature="0" /><path
               id="path5585"
               d="m 347.569,142.055 v -9.521 h 1.923 v 9.521 z"
               inkscape:connector-curvature="0" /><path
               id="path5587"
               d="m 357.472,142.055 v -9.521 h 1.871 l 3.896,6.357 v -6.357 h 1.786 v 9.521 h -1.929 l -3.839,-6.209 v 6.209 z"
               inkscape:connector-curvature="0" /><path
               id="path5589"
               d="m 373.19,142.055 v -9.521 h 7.06 v 1.609 h -5.138 v 2.108 h 4.78 v 1.604 h -4.78 v 2.592 h 5.319 v 1.604 z"
               inkscape:connector-curvature="0" /></g><g
             id="g5591"><path
               id="path5593"
               d="m 397.091,142.055 v -9.521 h 7.06 v 1.609 h -5.137 v 2.108 h 4.78 v 1.604 h -4.78 v 2.592 h 5.319 v 1.604 z"
               inkscape:connector-curvature="0" /><path
               id="path5595"
               d="m 412.069,142.055 v -9.521 h 2.877 l 1.728,6.494 1.709,-6.494 h 2.883 v 9.521 h -1.783 v -7.496 l -1.893,7.496 h -1.852 l -1.884,-7.496 v 7.496 z"
               inkscape:connector-curvature="0" /><path
               id="path5597"
               d="m 429.292,132.532 h 1.922 v 5.155 c 0,0.816 0.023,1.35 0.07,1.592 0.082,0.391 0.273,0.701 0.588,0.938 0.311,0.236 0.729,0.354 1.27,0.354 0.547,0 0.957,-0.11 1.234,-0.334 0.277,-0.223 0.443,-0.496 0.5,-0.821 0.057,-0.324 0.084,-0.863 0.084,-1.616 v -5.268 h 1.924 v 5.001 c 0,1.144 -0.053,1.95 -0.156,2.423 -0.104,0.472 -0.297,0.87 -0.574,1.193 -0.279,0.324 -0.652,0.582 -1.121,0.773 -0.467,0.192 -1.078,0.289 -1.83,0.289 -0.91,0 -1.6,-0.104 -2.068,-0.313 -0.471,-0.211 -0.842,-0.482 -1.109,-0.818 -0.271,-0.335 -0.451,-0.688 -0.537,-1.057 -0.127,-0.545 -0.189,-1.353 -0.189,-2.416 v -5.077 z"
               inkscape:connector-curvature="0" /><path
               id="path5599"
               d="m 445.093,142.055 v -9.443 h 1.922 v 7.84 h 4.781 v 1.604 h -6.703 z"
               inkscape:connector-curvature="0" /><path
               id="path5601"
               d="m 467.882,142.055 h -2.092 l -0.83,-2.164 h -3.807 l -0.785,2.164 h -2.039 l 3.707,-9.521 h 2.033 z m -3.539,-3.769 -1.313,-3.532 -1.285,3.532 z"
               inkscape:connector-curvature="0" /><path
               id="path5603"
               d="m 476.191,142.055 v -7.91 h -2.826 v -1.61 h 7.564 v 1.61 h -2.816 v 7.91 z"
               inkscape:connector-curvature="0" /><path
               id="path5605"
               d="m 487.671,137.352 c 0,-0.972 0.146,-1.783 0.438,-2.44 0.215,-0.484 0.51,-0.92 0.885,-1.308 0.375,-0.387 0.785,-0.67 1.23,-0.854 0.594,-0.251 1.277,-0.376 2.053,-0.376 1.402,0 2.525,0.438 3.367,1.305 0.842,0.87 1.264,2.081 1.264,3.633 0,1.535 -0.418,2.737 -1.254,3.605 -0.836,0.867 -1.953,1.302 -3.352,1.302 -1.416,0 -2.541,-0.433 -3.377,-1.296 -0.836,-0.863 -1.254,-2.057 -1.254,-3.571 z m 1.983,-0.066 c 0,1.078 0.248,1.896 0.746,2.45 0.498,0.558 1.131,0.834 1.896,0.834 0.768,0 1.396,-0.273 1.887,-0.825 0.492,-0.554 0.736,-1.381 0.736,-2.485 0,-1.09 -0.238,-1.902 -0.717,-2.439 -0.48,-0.535 -1.113,-0.805 -1.906,-0.805 -0.793,0 -1.43,0.271 -1.916,0.813 -0.486,0.542 -0.726,1.362 -0.726,2.457 z"
               inkscape:connector-curvature="0" /><path
               id="path5607"
               d="m 504.544,142.055 v -9.521 h 4.047 c 1.018,0 1.756,0.086 2.217,0.258 0.461,0.171 0.83,0.477 1.107,0.912 0.277,0.438 0.416,0.938 0.416,1.5 0,0.714 -0.211,1.304 -0.631,1.771 -0.42,0.465 -1.047,0.758 -1.883,0.879 0.416,0.242 0.76,0.51 1.021,0.799 0.271,0.291 0.645,0.808 1.102,1.548 l 1.156,1.856 H 510.8 l -1.391,-2.072 c -0.492,-0.739 -0.83,-1.207 -1.012,-1.398 -0.186,-0.189 -0.375,-0.322 -0.578,-0.396 -0.203,-0.069 -0.525,-0.104 -0.971,-0.104 h -0.391 v 3.978 h -1.92 v -0.006 h 0.004 v -0.002 h 0.003 z m 1.922,-5.496 h 1.424 c 0.922,0 1.498,-0.037 1.727,-0.115 0.23,-0.077 0.41,-0.213 0.541,-0.402 0.129,-0.188 0.193,-0.43 0.193,-0.714 0,-0.32 -0.086,-0.579 -0.258,-0.776 -0.17,-0.193 -0.41,-0.318 -0.723,-0.371 -0.156,-0.021 -0.623,-0.031 -1.402,-0.031 h -1.502 z"
               inkscape:connector-curvature="0" /></g></g><path
           d="m 286.36126,163.59262 q 0.16,-3.08 0.92,-4.88 1.36,-3.16 4.16,-4.92 2.8,-1.76 6.52,-1.76 5.04,0 8.28,3.04 3.28,3.04 3.28,7.68 0,2.48 -0.96,4.52 -0.96,2 -3.48,4.72 l -4.32,4.68 h 9.08 v 6.6 h -24.04 l 7.6,-7.96 q 1.8,-1.88 3.4,-3.88 1.88,-2.32 2.84,-3.76 1.8,-2.64 1.8,-5.12 0,-1.64 -1.04,-2.76 -1,-1.16 -2.48,-1.16 -2.16,0 -3,1.92 -0.44,0.96 -0.48,3.04 z"
           style="font-style:normal;font-variant:normal;font-weight:normal;font-stretch:normal;font-size:medium;line-height:25px;font-family:'C+BoldItal';-inkscape-font-specification:'C+BoldItal';letter-spacing:0px;word-spacing:0px;fill:none;fill-opacity:1;stroke:#175685;stroke-width:1px;stroke-linecap:butt;stroke-linejoin:miter;stroke-opacity:1"
           id="path1012"
           inkscape:connector-curvature="0"
           transform="matrix(1,0,-0.17632698,1,33.551758,12.698526)" /><path
           d="m 326.49564,152.15262 q 5.76,0 9.24,4.44 3.52,4.44 3.52,11.76 0,7.2 -3.52,11.64 -3.48,4.4 -9.16,4.4 -5.72,0 -9.24,-4.4 -3.48,-4.44 -3.48,-11.68 0,-7.2 3.48,-11.68 3.52,-4.48 9.16,-4.48 z m 0.12,6.96 q -2.4,0 -3.72,2.4 -1.28,2.4 -1.28,6.8 0,4.36 1.32,6.8 1.32,2.44 3.64,2.44 2.36,0 3.64,-2.4 1.28,-2.4 1.28,-6.84 0,-4.4 -1.28,-6.8 -1.28,-2.4 -3.6,-2.4 z"
           style="font-style:normal;font-variant:normal;font-weight:normal;font-stretch:normal;font-size:medium;line-height:25px;font-family:'C+BoldItal';-inkscape-font-specification:'C+BoldItal';letter-spacing:0px;word-spacing:0px;fill:none;fill-opacity:1;stroke:#175685;stroke-width:1px;stroke-linecap:butt;stroke-linejoin:miter;stroke-opacity:1"
           id="path1014"
           inkscape:connector-curvature="0"
           transform="matrix(1,0,-0.17632698,1,33.551758,12.698526)" /><path
           d="m 354.15189,152.15262 q 5.76,0 9.24,4.44 3.52,4.44 3.52,11.76 0,7.2 -3.52,11.64 -3.48,4.4 -9.16,4.4 -5.72,0 -9.24,-4.4 -3.48,-4.44 -3.48,-11.68 0,-7.2 3.48,-11.68 3.52,-4.48 9.16,-4.48 z m 0.12,6.96 q -2.4,0 -3.72,2.4 -1.28,2.4 -1.28,6.8 0,4.36 1.32,6.8 1.32,2.44 3.64,2.44 2.36,0 3.64,-2.4 1.28,-2.4 1.28,-6.84 0,-4.4 -1.28,-6.8 -1.28,-2.4 -3.6,-2.4 z"
           style="font-style:normal;font-variant:normal;font-weight:normal;font-stretch:normal;font-size:medium;line-height:25px;font-family:'C+BoldItal';-inkscape-font-specification:'C+BoldItal';letter-spacing:0px;word-spacing:0px;fill:none;fill-opacity:1;stroke:#175685;stroke-width:1px;stroke-linecap:butt;stroke-linejoin:miter;stroke-opacity:1"
           id="path1016"
           inkscape:connector-curvature="0"
           transform="matrix(1,0,-0.17632698,1,33.551758,12.698526)" /><path
           d="m 380.04814,170.07262 v -5.24 h 0.44 q 3.8,0 3.8,-3.12 0,-3.2 -3.04,-3.2 -3.12,0 -3.32,3.52 h -7.16 q 0.4,-2.92 1.32,-4.64 2.76,-5.2 9.56,-5.2 4.44,0 7.12,2.4 2.72,2.4 2.72,6.36 0,2.6 -1.44,4.52 -0.6,0.8 -1.8,1.6 1.64,0.56 2.48,1.4 2.44,2.4 2.44,6.28 0,4.4 -3.28,7.12 -3.24,2.72 -8.52,2.72 -4.2,0 -8,-2.64 -2.08,-1.44 -3.04,-3.36 -0.52,-1.08 -0.88,-2.6 -0.2,-0.96 -0.32,-2.32 h 7.96 q 0.28,2.2 1.32,3.16 1.28,1.2 3.04,1.2 1.72,0 2.8,-1.16 1.12,-1.2 1.12,-3 0,-3.84 -4.6,-3.84 -0.4,0 -0.72,0.04 z"
           style="font-style:normal;font-variant:normal;font-weight:normal;font-stretch:normal;font-size:medium;line-height:25px;font-family:'C+BoldItal';-inkscape-font-specification:'C+BoldItal';letter-spacing:0px;word-spacing:0px;fill:none;fill-opacity:1;stroke:#175685;stroke-width:1px;stroke-linecap:butt;stroke-linejoin:miter;stroke-opacity:1"
           id="path1018"
           inkscape:connector-curvature="0"
           transform="matrix(1,0,-0.17632698,1,33.551758,12.698526)" /><path
           d="m 413.22501,153.27262 h 10.12 q 5.2,0 7.72,1.8 3.44,2.44 3.44,7.44 0,4.68 -3.08,7.92 -1.6,1.68 -3.76,2.4 -2.12,0.68 -5.6,0.68 h -3.68 l -1.24,9.76 h -7.6 z m 6.84,6 -0.92,7.64 h 2.4 q 5.16,0 5.16,-4.12 0,-1.88 -1.08,-2.68 -1.04,-0.84 -3.44,-0.84 z"
           style="font-style:normal;font-variant:normal;font-weight:normal;font-stretch:normal;font-size:medium;line-height:25px;font-family:'C+BoldItal';-inkscape-font-specification:'C+BoldItal';letter-spacing:0px;word-spacing:0px;fill:none;fill-opacity:1;stroke:#266d9d;stroke-width:1px;stroke-linecap:butt;stroke-linejoin:miter;stroke-opacity:1"
           id="path1020"
           inkscape:connector-curvature="0"
           transform="matrix(1,0,-0.17632698,1,33.551758,12.698526)" /><path
           d="m 447.85626,153.27262 -2.88,23.4 h 9.56 l -0.8,6.6 h -17.16 l 3.68,-30 z"
           style="font-style:normal;font-variant:normal;font-weight:normal;font-stretch:normal;font-size:medium;line-height:25px;font-family:'C+BoldItal';-inkscape-font-specification:'C+BoldItal';letter-spacing:0px;word-spacing:0px;fill:none;fill-opacity:1;stroke:#469dcd;stroke-width:1px;stroke-linecap:butt;stroke-linejoin:miter;stroke-opacity:1"
           id="path1022"
           inkscape:connector-curvature="0"
           transform="matrix(1,0,-0.17632698,1,33.551758,12.698526)" /><path
           d="m 487.42439,153.27262 -2.12,17.36 q -0.52,4.24 -1.28,6.32 -0.72,2.08 -2.16,3.52 -3.48,3.4 -10.2,3.4 -5.84,0 -9.2,-2.72 -3.36,-2.72 -3.36,-7.44 0,-1.32 0.36,-4.24 l 2,-16.2 h 7.56 l -2,16.2 q -0.12,0.96 -0.12,2.28 0,4.92 5.16,4.92 2.72,0 4,-1.4 1.28,-1.44 1.68,-4.88 l 2.08,-17.12 z"
           style="font-style:normal;font-variant:normal;font-weight:normal;font-stretch:normal;font-size:medium;line-height:25px;font-family:'C+BoldItal';-inkscape-font-specification:'C+BoldItal';letter-spacing:0px;word-spacing:0px;fill:none;fill-opacity:1;stroke:#469dcd;stroke-width:1px;stroke-linecap:butt;stroke-linejoin:miter;stroke-opacity:1"
           id="path1024"
           inkscape:connector-curvature="0"
           transform="matrix(1,0,-0.17632698,1,33.551758,12.698526)" /><path
           d="m 512.03876,155.43262 -3.32,5.76 q -3,-2.24 -5.28,-2.24 -1.52,0 -2.44,0.72 -0.92,0.72 -0.92,1.92 0,0.64 0.28,1.16 0.56,1 3.52,2.4 3.76,1.76 5.2,3.64 1.44,1.84 1.44,4.8 0,4.52 -3.2,7.4 -3.2,2.88 -8.24,2.88 -2.72,0 -4.92,-0.72 -2.2,-0.72 -5.2,-2.6 l 3.4,-5.76 q 3.64,2.48 6.36,2.48 1.8,0 2.88,-0.84 1.12,-0.84 1.12,-2.2 0,-1 -0.72,-1.68 -0.68,-0.68 -2.76,-1.72 -4.04,-2.04 -5.52,-3.84 -1.44,-1.84 -1.44,-4.88 0,-4.08 3.12,-6.76 3.16,-2.68 7.92,-2.68 4.44,0 8.72,2.76 z"
           style="font-style:normal;font-variant:normal;font-weight:normal;font-stretch:normal;font-size:medium;line-height:25px;font-family:'C+BoldItal';-inkscape-font-specification:'C+BoldItal';letter-spacing:0px;word-spacing:0px;fill:none;fill-opacity:1;stroke:#469dcd;stroke-width:1px;stroke-linecap:butt;stroke-linejoin:miter;stroke-opacity:1"
           id="path1026"
           inkscape:connector-curvature="0"
           transform="matrix(1,0,-0.17632698,1,33.551758,12.698526)" /><path
           d="m 286.36126,163.59262 q 0.16,-3.08 0.92,-4.88 1.36,-3.16 4.16,-4.92 2.8,-1.76 6.52,-1.76 5.04,0 8.28,3.04 3.28,3.04 3.28,7.68 0,2.48 -0.96,4.52 -0.96,2 -3.48,4.72 l -4.32,4.68 h 9.08 v 6.6 h -24.04 l 7.6,-7.96 q 1.8,-1.88 3.4,-3.88 1.88,-2.32 2.84,-3.76 1.8,-2.64 1.8,-5.12 0,-1.64 -1.04,-2.76 -1,-1.16 -2.48,-1.16 -2.16,0 -3,1.92 -0.44,0.96 -0.48,3.04 z"
           style="font-style:normal;font-variant:normal;font-weight:normal;font-stretch:normal;font-size:40px;line-height:25px;font-family:'C+BoldItal';-inkscape-font-specification:'C+BoldItal';letter-spacing:0px;word-spacing:0px;fill:url(#linearGradient4855);fill-opacity:1;stroke:none;stroke-width:1px;stroke-linecap:butt;stroke-linejoin:miter;stroke-opacity:1"
           id="path1076"
           inkscape:connector-curvature="0"
           transform="matrix(1,0,-0.17632698,1,33.551758,12.698526)" /><path
           d="m 326.49564,152.15262 q 5.76,0 9.24,4.44 3.52,4.44 3.52,11.76 0,7.2 -3.52,11.64 -3.48,4.4 -9.16,4.4 -5.72,0 -9.24,-4.4 -3.48,-4.44 -3.48,-11.68 0,-7.2 3.48,-11.68 3.52,-4.48 9.16,-4.48 z m 0.12,6.96 q -2.4,0 -3.72,2.4 -1.28,2.4 -1.28,6.8 0,4.36 1.32,6.8 1.32,2.44 3.64,2.44 2.36,0 3.64,-2.4 1.28,-2.4 1.28,-6.84 0,-4.4 -1.28,-6.8 -1.28,-2.4 -3.6,-2.4 z"
           style="font-style:normal;font-variant:normal;font-weight:normal;font-stretch:normal;font-size:40px;line-height:25px;font-family:'C+BoldItal';-inkscape-font-specification:'C+BoldItal';letter-spacing:0px;word-spacing:0px;fill:url(#linearGradient1402);fill-opacity:1;stroke:none;stroke-width:1px;stroke-linecap:butt;stroke-linejoin:miter;stroke-opacity:1"
           id="path1078"
           inkscape:connector-curvature="0"
           transform="matrix(1,0,-0.17632698,1,33.551758,12.698526)" /><path
           d="m 354.15189,152.15262 q 5.76,0 9.24,4.44 3.52,4.44 3.52,11.76 0,7.2 -3.52,11.64 -3.48,4.4 -9.16,4.4 -5.72,0 -9.24,-4.4 -3.48,-4.44 -3.48,-11.68 0,-7.2 3.48,-11.68 3.52,-4.48 9.16,-4.48 z m 0.12,6.96 q -2.4,0 -3.72,2.4 -1.28,2.4 -1.28,6.8 0,4.36 1.32,6.8 1.32,2.44 3.64,2.44 2.36,0 3.64,-2.4 1.28,-2.4 1.28,-6.84 0,-4.4 -1.28,-6.8 -1.28,-2.4 -3.6,-2.4 z"
           style="font-style:normal;font-variant:normal;font-weight:normal;font-stretch:normal;font-size:40px;line-height:25px;font-family:'C+BoldItal';-inkscape-font-specification:'C+BoldItal';letter-spacing:0px;word-spacing:0px;fill:url(#linearGradient4859);fill-opacity:1;stroke:none;stroke-width:1px;stroke-linecap:butt;stroke-linejoin:miter;stroke-opacity:1"
           id="path1080"
           inkscape:connector-curvature="0"
           transform="matrix(1,0,-0.17632698,1,33.551758,12.698526)" /><path
           d="m 380.04814,170.07262 v -5.24 h 0.44 q 3.8,0 3.8,-3.12 0,-3.2 -3.04,-3.2 -3.12,0 -3.32,3.52 h -7.16 q 0.4,-2.92 1.32,-4.64 2.76,-5.2 9.56,-5.2 4.44,0 7.12,2.4 2.72,2.4 2.72,6.36 0,2.6 -1.44,4.52 -0.6,0.8 -1.8,1.6 1.64,0.56 2.48,1.4 2.44,2.4 2.44,6.28 0,4.4 -3.28,7.12 -3.24,2.72 -8.52,2.72 -4.2,0 -8,-2.64 -2.08,-1.44 -3.04,-3.36 -0.52,-1.08 -0.88,-2.6 -0.2,-0.96 -0.32,-2.32 h 7.96 q 0.28,2.2 1.32,3.16 1.28,1.2 3.04,1.2 1.72,0 2.8,-1.16 1.12,-1.2 1.12,-3 0,-3.84 -4.6,-3.84 -0.4,0 -0.72,0.04 z"
           style="font-style:normal;font-variant:normal;font-weight:normal;font-stretch:normal;font-size:40px;line-height:25px;font-family:'C+BoldItal';-inkscape-font-specification:'C+BoldItal';letter-spacing:0px;word-spacing:0px;fill:url(#linearGradient4861);fill-opacity:1;stroke:none;stroke-width:1px;stroke-linecap:butt;stroke-linejoin:miter;stroke-opacity:1"
           id="path1082"
           inkscape:connector-curvature="0"
           transform="matrix(1,0,-0.17632698,1,33.551758,12.698526)" /><path
           d="m 413.22501,153.27262 h 10.12 q 5.2,0 7.72,1.8 3.44,2.44 3.44,7.44 0,4.68 -3.08,7.92 -1.6,1.68 -3.76,2.4 -2.12,0.68 -5.6,0.68 h -3.68 l -1.24,9.76 h -7.6 z m 6.84,6 -0.92,7.64 h 2.4 q 5.16,0 5.16,-4.12 0,-1.88 -1.08,-2.68 -1.04,-0.84 -3.44,-0.84 z"
           style="font-style:normal;font-variant:normal;font-weight:normal;font-stretch:normal;font-size:40px;line-height:25px;font-family:'C+BoldItal';-inkscape-font-specification:'C+BoldItal';letter-spacing:0px;word-spacing:0px;fill:url(#linearGradient4863);fill-opacity:1;stroke:none;stroke-width:1px;stroke-linecap:butt;stroke-linejoin:miter;stroke-opacity:1"
           id="path1084"
           inkscape:connector-curvature="0"
           transform="matrix(1,0,-0.17632698,1,33.551758,12.698526)" /><path
           d="m 447.85626,153.27262 -2.88,23.4 h 9.56 l -0.8,6.6 h -17.16 l 3.68,-30 z"
           style="font-style:normal;font-variant:normal;font-weight:normal;font-stretch:normal;font-size:40px;line-height:25px;font-family:'C+BoldItal';-inkscape-font-specification:'C+BoldItal';letter-spacing:0px;word-spacing:0px;fill:url(#linearGradient4865);fill-opacity:1;stroke:none;stroke-width:1px;stroke-linecap:butt;stroke-linejoin:miter;stroke-opacity:1"
           id="path1086"
           inkscape:connector-curvature="0"
           transform="matrix(1,0,-0.17632698,1,33.551758,12.698526)" /><path
           d="m 487.42439,153.27262 -2.12,17.36 q -0.52,4.24 -1.28,6.32 -0.72,2.08 -2.16,3.52 -3.48,3.4 -10.2,3.4 -5.84,0 -9.2,-2.72 -3.36,-2.72 -3.36,-7.44 0,-1.32 0.36,-4.24 l 2,-16.2 h 7.56 l -2,16.2 q -0.12,0.96 -0.12,2.28 0,4.92 5.16,4.92 2.72,0 4,-1.4 1.28,-1.44 1.68,-4.88 l 2.08,-17.12 z"
           style="font-style:normal;font-variant:normal;font-weight:normal;font-stretch:normal;font-size:40px;line-height:25px;font-family:'C+BoldItal';-inkscape-font-specification:'C+BoldItal';letter-spacing:0px;word-spacing:0px;fill:url(#linearGradient4867);fill-opacity:1;stroke:none;stroke-width:1px;stroke-linecap:butt;stroke-linejoin:miter;stroke-opacity:1"
           id="path1088"
           inkscape:connector-curvature="0"
           transform="matrix(1,0,-0.17632698,1,33.551758,12.698526)" /><path
           d="m 512.03876,155.43262 -3.32,5.76 q -3,-2.24 -5.28,-2.24 -1.52,0 -2.44,0.72 -0.92,0.72 -0.92,1.92 0,0.64 0.28,1.16 0.56,1 3.52,2.4 3.76,1.76 5.2,3.64 1.44,1.84 1.44,4.8 0,4.52 -3.2,7.4 -3.2,2.88 -8.24,2.88 -2.72,0 -4.92,-0.72 -2.2,-0.72 -5.2,-2.6 l 3.4,-5.76 q 3.64,2.48 6.36,2.48 1.8,0 2.88,-0.84 1.12,-0.84 1.12,-2.2 0,-1 -0.72,-1.68 -0.68,-0.68 -2.76,-1.72 -4.04,-2.04 -5.52,-3.84 -1.44,-1.84 -1.44,-4.88 0,-4.08 3.12,-6.76 3.16,-2.68 7.92,-2.68 4.44,0 8.72,2.76 z"
           style="font-style:normal;font-variant:normal;font-weight:normal;font-stretch:normal;font-size:40px;line-height:25px;font-family:'C+BoldItal';-inkscape-font-specification:'C+BoldItal';letter-spacing:0px;word-spacing:0px;fill:url(#linearGradient4869);fill-opacity:1;stroke:none;stroke-width:1px;stroke-linecap:butt;stroke-linejoin:miter;stroke-opacity:1"
           id="path1090"
           inkscape:connector-curvature="0"
           transform="matrix(1,0,-0.17632698,1,33.551758,12.698526)" /><g
           transform="matrix(0.00648247,0,0,0.00648247,101.99176,201.83049)"
           id="g5777"><g
             id="g5771"
             transform="translate(0,-5640)"><path
               d="m 1910,4378 c -123,-19 -263,-125 -316,-240 l -29,-63 V 2650 1225 h 205 205 l 3,1574 c 1,866 -1,1578 -5,1581 -5,4 -33,3 -63,-2 z"
               id="path6"
               inkscape:connector-curvature="0"
               style="fill:#c0392b;stroke:none" /><path
               d="M 47,4343 C 43,4340 40,3465 40,2400 40,766 42,461 54,451 c 9,-8 74,-11 212,-9 l 199,3 3,1742 2,1741 248,4 248,3 66,33 c 122,60 229,209 232,325 l 1,52 -606,3 c -333,1 -609,-1 -612,-5 z"
               id="path8"
               inkscape:connector-curvature="0"
               style="fill:#c0392b;stroke:none" /><path
               d="m 2367,4343 c -4,-3 -7,-878 -7,-1943 0,-1634 2,-1939 14,-1949 9,-8 74,-11 212,-9 l 199,3 3,387 2,388 h 234 c 207,0 239,2 291,20 113,39 216,141 256,255 18,53 19,94 19,1288 0,1381 5,1287 -74,1394 -51,71 -120,122 -199,152 -56,20 -73,21 -501,21 -243,0 -446,-3 -449,-7 z M 3170,2785 V 1640 h -190 -190 v 1145 1145 h 190 190 z"
               id="path10"
               inkscape:connector-curvature="0"
               style="fill:#c0392b;stroke:none" /><path
               d="m 1565,857 c -3,-7 -4,-102 -3,-212 l 3,-200 h 205 205 v 210 210 l -203,3 c -159,2 -204,0 -207,-11 z"
               id="path162"
               inkscape:connector-curvature="0"
               style="fill:#c0392b;stroke:none" /></g><g
             id="g172"
             transform="translate(0,-5640)"
             style="fill:#231f20;stroke:none"><path
               d="m 4015,4378 c -3,-7 -4,-890 -3,-1963 l 3,-1950 h 1670 1670 l 47,27 c 64,38 119,106 171,213 179,362 529,1114 539,1155 9,38 9,62 0,101 -11,47 -44,88 -402,505 -215,250 -393,460 -396,468 -3,8 177,335 401,727 223,392 402,716 397,721 -4,4 -282,7 -616,6 l -608,-3 -543,-900 C 5735,2477 5766,2537 5834,2462 l 34,-37 269,-5 c 234,-4 272,-7 303,-23 32,-17 413,-437 434,-477 6,-13 -19,-87 -89,-261 -53,-134 -107,-263 -120,-285 -45,-77 -11,-74 -754,-74 h -661 l -2,1543 -3,1542 -613,3 c -485,2 -614,0 -617,-10 z"
               id="path174"
               inkscape:connector-curvature="0" /><path
               d="m 8344,4377 c -2,-7 -3,-609 -2,-1337 3,-1111 6,-1331 18,-1363 28,-77 608,-1123 640,-1154 17,-18 48,-38 68,-45 30,-10 367,-13 1712,-13 h 1675 v 415 415 l -1265,5 -1265,5 -31,22 c -17,13 -39,38 -48,57 -28,59 -256,609 -256,618 0,4 552,9 1228,10 l 1227,3 v 410 410 l -1232,3 -1233,2 v 355 355 l 1438,2 1437,3 v 415 415 l -2053,3 c -1660,2 -2054,0 -2058,-11 z"
               id="path176"
               inkscape:connector-curvature="0" /><path
               d="m 13687,4383 c -4,-3 -7,-280 -7,-615 v -608 l -612,-2 -613,-3 v -730 -730 l 612,-3 613,-2 2,-613 3,-612 h 730 730 l 3,612 2,613 608,2 607,3 v 730 730 l -607,3 -608,2 -2,613 -3,612 -726,3 c -399,1 -729,-1 -732,-5 z m 943,-638 205,-205 h -420 -420 l 205,205 c 113,113 209,205 215,205 6,0 102,-92 215,-205 z m -128,-906 c 173,-37 298,-169 328,-349 30,-178 -67,-368 -227,-442 -86,-41 -177,-54 -259,-39 -172,31 -297,144 -339,306 -80,310 185,590 497,524 z m -1202,-416 v -418 l -205,205 c -113,113 -205,209 -205,215 0,8 399,415 407,415 2,0 3,-188 3,-417 z m 2640,2 c 0,-6 -92,-102 -205,-215 l -205,-205 v 420 420 l 205,-205 c 113,-113 205,-209 205,-215 z M 14630,1105 c -113,-113 -209,-205 -215,-205 -6,0 -102,92 -215,205 l -205,205 h 420 420 z"
               id="path178"
               inkscape:connector-curvature="0" /><path
               d="m 16555,4378 c -3,-7 -4,-890 -3,-1963 l 3,-1950 1645,-3 c 1869,-2 1714,-9 1804,81 30,30 69,86 93,132 108,210 545,1144 555,1187 9,36 8,61 0,98 -11,46 -47,91 -408,511 -257,300 -394,467 -391,478 2,9 185,333 405,721 221,387 398,708 394,712 -5,5 -282,7 -617,6 l -608,-3 -543,-900 c -298,-495 -544,-909 -546,-920 -7,-35 10,-80 42,-110 l 31,-30 267,-5 c 211,-4 273,-8 297,-20 29,-15 445,-474 445,-491 0,-16 -202,-514 -221,-545 -40,-66 -17,-64 -748,-64 h -661 l -2,1543 -3,1542 -613,3 c -485,2 -614,0 -617,-10 z"
               id="path180"
               inkscape:connector-curvature="0" /><path
               d="m 21410,4370 c -125,-33 -231,-93 -332,-188 -130,-124 -196,-239 -232,-402 -15,-68 -16,-197 -14,-1385 l 3,-1310 28,-80 c 74,-210 212,-368 402,-460 177,-85 64,-79 1455,-83 823,-2 1268,0 1333,8 197,21 339,89 478,230 66,67 96,107 132,178 93,180 87,66 87,1550 0,1465 5,1361 -75,1527 -24,50 -64,116 -89,147 -98,122 -263,230 -412,268 -75,19 -116,20 -1383,19 -1256,0 -1309,-1 -1381,-19 z m 1576,-795 c 485,-83 859,-450 950,-931 23,-122 21,-330 -4,-449 -96,-448 -421,-785 -865,-896 -121,-30 -334,-37 -467,-14 -774,129 -1193,960 -843,1671 158,323 467,551 833,618 102,19 289,19 396,1 z"
               id="path182"
               inkscape:connector-curvature="0" /></g></g></g></g></g></g>

</g></svg>