<?xml version="1.0" encoding="UTF-8" standalone="no"?>
<!-- Generator: Adobe Illustrator 16.0.3, SVG Export Plug-In . SVG Version: 6.00 Build 0)  -->

<svg
   xmlns:dc="http://purl.org/dc/elements/1.1/"
   xmlns:cc="http://creativecommons.org/ns#"
   xmlns:rdf="http://www.w3.org/1999/02/22-rdf-syntax-ns#"
   xmlns:svg="http://www.w3.org/2000/svg"
   xmlns="http://www.w3.org/2000/svg"
   xmlns:sodipodi="http://sodipodi.sourceforge.net/DTD/sodipodi-0.dtd"
   xmlns:inkscape="http://www.inkscape.org/namespaces/inkscape"
   version="1.1"
   id="TEXT"
   x="0px"
   y="0px"
   width="566.929px"
   height="157.78px"
   viewBox="0 -0.001 566.929 157.78"
   enable-background="new 0 -0.001 566.929 157.78"
   xml:space="preserve"
   inkscape:version="0.91 r13725"
   sodipodi:docname="lr-rmame2010.svg"><metadata
     id="metadata5613"><rdf:RDF><cc:Work
         rdf:about=""><dc:format>image/svg+xml</dc:format><dc:type
           rdf:resource="http://purl.org/dc/dcmitype/StillImage" /><dc:title></dc:title></cc:Work></rdf:RDF></metadata><defs
     id="defs5611" /><sodipodi:namedview
     pagecolor="#ffffff"
     bordercolor="#666666"
     borderopacity="1"
     objecttolerance="10"
     gridtolerance="10"
     guidetolerance="10"
     inkscape:pageopacity="0"
     inkscape:pageshadow="2"
     inkscape:window-width="1920"
     inkscape:window-height="1137"
     id="namedview5609"
     showgrid="false"
     inkscape:zoom="1.6264245"
     inkscape:cx="267.83289"
     inkscape:cy="196.69408"
     inkscape:window-x="-8"
     inkscape:window-y="-8"
     inkscape:window-maximized="1"
     inkscape:current-layer="TEXT" /><linearGradient
     id="SVGID_1_"
     gradientUnits="userSpaceOnUse"
     x1="558.1284"
     y1="955.5977"
     x2="11.77"
     y2="955.5977"
     gradientTransform="translate(-0.1797,-875.4102)"><stop
       offset="0"
       style="stop-color:#013A67"
       id="stop5278" /><stop
       offset="1"
       style="stop-color:#6CD1FF"
       id="stop5280" /></linearGradient><linearGradient
     id="SVGID_2_"
     gradientUnits="userSpaceOnUse"
     x1="64.7095"
     y1="938.7891"
     x2="60.765"
     y2="934.8448"
     gradientTransform="translate(-0.1797,-875.4102)"><stop
       offset="0"
       style="stop-color:#08406F"
       id="stop5285" /><stop
       offset="1"
       style="stop-color:#60C5F5"
       id="stop5287" /></linearGradient><linearGradient
     id="SVGID_3_"
     gradientUnits="userSpaceOnUse"
     x1="123.2954"
     y1="1013.9102"
     x2="119.6701"
     y2="1010.2849"
     gradientTransform="translate(-0.1797,-875.4102)"><stop
       offset="0"
       style="stop-color:#08406F"
       id="stop5292" /><stop
       offset="1"
       style="stop-color:#60C5F5"
       id="stop5294" /></linearGradient><linearGradient
     id="SVGID_4_"
     gradientUnits="userSpaceOnUse"
     x1="25.7236"
     y1="994.0508"
     x2="25.7236"
     y2="989.7383"
     gradientTransform="translate(-0.1797,-875.4102)"><stop
       offset="0"
       style="stop-color:#08406F"
       id="stop5299" /><stop
       offset="1"
       style="stop-color:#60C5F5"
       id="stop5301" /></linearGradient><linearGradient
     id="SVGID_5_"
     gradientUnits="userSpaceOnUse"
     x1="121.1855"
     y1="1033.1816"
     x2="121.1855"
     y2="1028.7246"
     gradientTransform="translate(-0.1797,-875.4102)"><stop
       offset="0"
       style="stop-color:#08406F"
       id="stop5306" /><stop
       offset="1"
       style="stop-color:#60C5F5"
       id="stop5308" /></linearGradient><linearGradient
     id="SVGID_6_"
     gradientUnits="userSpaceOnUse"
     x1="427.6938"
     y1="994.0234"
     x2="427.6938"
     y2="989.5566"
     gradientTransform="translate(-0.1797,-875.4102)"><stop
       offset="0"
       style="stop-color:#08406F"
       id="stop5313" /><stop
       offset="1"
       style="stop-color:#60C5F5"
       id="stop5315" /></linearGradient><linearGradient
     id="SVGID_7_"
     gradientUnits="userSpaceOnUse"
     x1="251.0645"
     y1="994.8945"
     x2="251.0645"
     y2="990.416"
     gradientTransform="translate(-0.1797,-875.4102)"><stop
       offset="0"
       style="stop-color:#08406F"
       id="stop5320" /><stop
       offset="1"
       style="stop-color:#60C5F5"
       id="stop5322" /></linearGradient><linearGradient
     id="SVGID_8_"
     gradientUnits="userSpaceOnUse"
     x1="522.2808"
     y1="882.1875"
     x2="522.2808"
     y2="877.3242"
     gradientTransform="translate(-0.1797,-875.4102)"><stop
       offset="0"
       style="stop-color:#08406F"
       id="stop5327" /><stop
       offset="1"
       style="stop-color:#60C5F5"
       id="stop5329" /></linearGradient><linearGradient
     id="SVGID_9_"
     gradientUnits="userSpaceOnUse"
     x1="515.0132"
     y1="906.7148"
     x2="515.0132"
     y2="902.5049"
     gradientTransform="translate(-0.1797,-875.4102)"><stop
       offset="0"
       style="stop-color:#08406F"
       id="stop5334" /><stop
       offset="1"
       style="stop-color:#60C5F5"
       id="stop5336" /></linearGradient><linearGradient
     id="SVGID_10_"
     gradientUnits="userSpaceOnUse"
     x1="459.3696"
     y1="950.2305"
     x2="459.3696"
     y2="946.5117"
     gradientTransform="translate(-0.1797,-875.4102)"><stop
       offset="0"
       style="stop-color:#08406F"
       id="stop5341" /><stop
       offset="1"
       style="stop-color:#60C5F5"
       id="stop5343" /></linearGradient><linearGradient
     id="SVGID_11_"
     gradientUnits="userSpaceOnUse"
     x1="490.1606"
     y1="925.1113"
     x2="490.1606"
     y2="919.5566"
     gradientTransform="translate(-0.1797,-875.4102)"><stop
       offset="0"
       style="stop-color:#08406F"
       id="stop5348" /><stop
       offset="1"
       style="stop-color:#60C5F5"
       id="stop5350" /></linearGradient><linearGradient
     id="SVGID_12_"
     gradientUnits="userSpaceOnUse"
     x1="74.3892"
     y1="968.8252"
     x2="70.846"
     y2="965.282"
     gradientTransform="translate(-0.1797,-875.4102)"><stop
       offset="0"
       style="stop-color:#08406F"
       id="stop5355" /><stop
       offset="1"
       style="stop-color:#60C5F5"
       id="stop5357" /></linearGradient><linearGradient
     id="SVGID_13_"
     gradientUnits="userSpaceOnUse"
     x1="120.2554"
     y1="904.3691"
     x2="114.8892"
     y2="904.3691"
     gradientTransform="translate(-0.1797,-875.4102)"><stop
       offset="0"
       style="stop-color:#08406F"
       id="stop5362" /><stop
       offset="1"
       style="stop-color:#60C5F5"
       id="stop5364" /></linearGradient><linearGradient
     id="SVGID_14_"
     gradientUnits="userSpaceOnUse"
     x1="173.0811"
     y1="919.9609"
     x2="166.4209"
     y2="919.9609"
     gradientTransform="translate(-0.1797,-875.4102)"><stop
       offset="0"
       style="stop-color:#08406F"
       id="stop5369" /><stop
       offset="1"
       style="stop-color:#60C5F5"
       id="stop5371" /></linearGradient><linearGradient
     id="SVGID_15_"
     gradientUnits="userSpaceOnUse"
     x1="255.9883"
     y1="925.2158"
     x2="249.9951"
     y2="925.2158"
     gradientTransform="translate(-0.1797,-875.4102)"><stop
       offset="0"
       style="stop-color:#08406F"
       id="stop5376" /><stop
       offset="1"
       style="stop-color:#60C5F5"
       id="stop5378" /></linearGradient><linearGradient
     id="SVGID_16_"
     gradientUnits="userSpaceOnUse"
     x1="349.2769"
     y1="904.625"
     x2="343.5757"
     y2="904.625"
     gradientTransform="translate(-0.1797,-875.4102)"><stop
       offset="0"
       style="stop-color:#08406F"
       id="stop5383" /><stop
       offset="1"
       style="stop-color:#60C5F5"
       id="stop5385" /></linearGradient><linearGradient
     id="SVGID_17_"
     gradientUnits="userSpaceOnUse"
     x1="400.9604"
     y1="918.4463"
     x2="395.1636"
     y2="918.4463"
     gradientTransform="translate(-0.1797,-875.4102)"><stop
       offset="0"
       style="stop-color:#08406F"
       id="stop5390" /><stop
       offset="1"
       style="stop-color:#60C5F5"
       id="stop5392" /></linearGradient><linearGradient
     id="SVGID_18_"
     gradientUnits="userSpaceOnUse"
     x1="101.7651"
     y1="968.9385"
     x2="96.6543"
     y2="968.9385"
     gradientTransform="translate(-0.1797,-875.4102)"><stop
       offset="0"
       style="stop-color:#08406F"
       id="stop5397" /><stop
       offset="1"
       style="stop-color:#60C5F5"
       id="stop5399" /></linearGradient><linearGradient
     id="SVGID_19_"
     gradientUnits="userSpaceOnUse"
     x1="121.2485"
     y1="973.8379"
     x2="117.6964"
     y2="970.2858"
     gradientTransform="translate(-0.1797,-875.4102)"><stop
       offset="0"
       style="stop-color:#08406F"
       id="stop5404" /><stop
       offset="1"
       style="stop-color:#60C5F5"
       id="stop5406" /></linearGradient><linearGradient
     id="SVGID_20_"
     gradientUnits="userSpaceOnUse"
     x1="553.436"
     y1="892.5"
     x2="549.7673"
     y2="888.8311"
     gradientTransform="translate(-0.1797,-875.4102)"><stop
       offset="0"
       style="stop-color:#08406F"
       id="stop5411" /><stop
       offset="1"
       style="stop-color:#60C5F5"
       id="stop5413" /></linearGradient><linearGradient
     id="SVGID_21_"
     gradientUnits="userSpaceOnUse"
     x1="145.9941"
     y1="969.8789"
     x2="140.5957"
     y2="969.8789"
     gradientTransform="translate(-0.1797,-875.4102)"><stop
       offset="0"
       style="stop-color:#08406F"
       id="stop5418" /><stop
       offset="1"
       style="stop-color:#60C5F5"
       id="stop5420" /></linearGradient><linearGradient
     id="SVGID_22_"
     gradientUnits="userSpaceOnUse"
     x1="148.7769"
     y1="907.0098"
     x2="144.2891"
     y2="902.522"
     gradientTransform="translate(-0.1797,-875.4102)"><stop
       offset="0"
       style="stop-color:#08406F"
       id="stop5425" /><stop
       offset="1"
       style="stop-color:#60C5F5"
       id="stop5427" /></linearGradient><linearGradient
     id="SVGID_23_"
     gradientUnits="userSpaceOnUse"
     x1="215.8457"
     y1="922.3213"
     x2="211.688"
     y2="918.1636"
     gradientTransform="translate(-0.1797,-875.4102)"><stop
       offset="0"
       style="stop-color:#08406F"
       id="stop5432" /><stop
       offset="1"
       style="stop-color:#60C5F5"
       id="stop5434" /></linearGradient><linearGradient
     id="SVGID_24_"
     gradientUnits="userSpaceOnUse"
     x1="304.3159"
     y1="927.8105"
     x2="299.9317"
     y2="923.4263"
     gradientTransform="translate(-0.1797,-875.4102)"><stop
       offset="0"
       style="stop-color:#08406F"
       id="stop5439" /><stop
       offset="1"
       style="stop-color:#60C5F5"
       id="stop5441" /></linearGradient><linearGradient
     id="SVGID_25_"
     gradientUnits="userSpaceOnUse"
     x1="376.9712"
     y1="906.8613"
     x2="372.7633"
     y2="902.653"
     gradientTransform="translate(-0.1797,-875.4102)"><stop
       offset="0"
       style="stop-color:#08406F"
       id="stop5446" /><stop
       offset="1"
       style="stop-color:#60C5F5"
       id="stop5448" /></linearGradient><linearGradient
     id="SVGID_26_"
     gradientUnits="userSpaceOnUse"
     x1="488.7378"
     y1="935.2646"
     x2="485.2816"
     y2="931.8086"
     gradientTransform="translate(-0.1797,-875.4102)"><stop
       offset="0"
       style="stop-color:#08406F"
       id="stop5453" /><stop
       offset="1"
       style="stop-color:#60C5F5"
       id="stop5455" /></linearGradient><linearGradient
     id="SVGID_27_"
     gradientUnits="userSpaceOnUse"
     x1="499.8081"
     y1="979.377"
     x2="495.8485"
     y2="975.4175"
     gradientTransform="translate(-0.1797,-875.4102)"><stop
       offset="0"
       style="stop-color:#08406F"
       id="stop5460" /><stop
       offset="1"
       style="stop-color:#60C5F5"
       id="stop5462" /></linearGradient><linearGradient
     id="SVGID_28_"
     gradientUnits="userSpaceOnUse"
     x1="441.8374"
     y1="921.6133"
     x2="437.5547"
     y2="917.3306"
     gradientTransform="translate(-0.1797,-875.4102)"><stop
       offset="0"
       style="stop-color:#08406F"
       id="stop5467" /><stop
       offset="1"
       style="stop-color:#60C5F5"
       id="stop5469" /></linearGradient><linearGradient
     id="SVGID_29_"
     gradientUnits="userSpaceOnUse"
     x1="486.8589"
     y1="916.6494"
     x2="481.7448"
     y2="911.5353"
     gradientTransform="translate(-0.1797,-875.4102)"><stop
       offset="0"
       style="stop-color:#08406F"
       id="stop5474" /><stop
       offset="1"
       style="stop-color:#60C5F5"
       id="stop5476" /></linearGradient><linearGradient
     id="SVGID_30_"
     gradientUnits="userSpaceOnUse"
     x1="185.9771"
     y1="992.3301"
     x2="182.3352"
     y2="988.6882"
     gradientTransform="translate(-0.1797,-875.4102)"><stop
       offset="0"
       style="stop-color:#08406F"
       id="stop5481" /><stop
       offset="1"
       style="stop-color:#60C5F5"
       id="stop5483" /></linearGradient><linearGradient
     id="SVGID_31_"
     gradientUnits="userSpaceOnUse"
     x1="303.0278"
     y1="969.1396"
     x2="299.3873"
     y2="965.4991"
     gradientTransform="translate(-0.1797,-875.4102)"><stop
       offset="0"
       style="stop-color:#08406F"
       id="stop5488" /><stop
       offset="1"
       style="stop-color:#60C5F5"
       id="stop5490" /></linearGradient><linearGradient
     id="SVGID_32_"
     gradientUnits="userSpaceOnUse"
     x1="349.8892"
     y1="973.085"
     x2="346.3799"
     y2="969.5756"
     gradientTransform="translate(-0.1797,-875.4102)"><stop
       offset="0"
       style="stop-color:#08406F"
       id="stop5495" /><stop
       offset="1"
       style="stop-color:#60C5F5"
       id="stop5497" /></linearGradient><linearGradient
     id="SVGID_33_"
     gradientUnits="userSpaceOnUse"
     x1="370.8042"
     y1="993.6396"
     x2="366.3813"
     y2="989.2169"
     gradientTransform="translate(-0.1797,-875.4102)"><stop
       offset="0"
       style="stop-color:#08406F"
       id="stop5502" /><stop
       offset="1"
       style="stop-color:#60C5F5"
       id="stop5504" /></linearGradient><linearGradient
     id="SVGID_34_"
     gradientUnits="userSpaceOnUse"
     x1="229.457"
     y1="971.7686"
     x2="223.4189"
     y2="971.7686"
     gradientTransform="translate(-0.1797,-875.4102)"><stop
       offset="0"
       style="stop-color:#08406F"
       id="stop5509" /><stop
       offset="1"
       style="stop-color:#60C5F5"
       id="stop5511" /></linearGradient><linearGradient
     id="SVGID_35_"
     gradientUnits="userSpaceOnUse"
     x1="330.3042"
     y1="968.5186"
     x2="325.0923"
     y2="968.5186"
     gradientTransform="translate(-0.1797,-875.4102)"><stop
       offset="0"
       style="stop-color:#08406F"
       id="stop5516" /><stop
       offset="1"
       style="stop-color:#60C5F5"
       id="stop5518" /></linearGradient><linearGradient
     id="SVGID_36_"
     gradientUnits="userSpaceOnUse"
     x1="374.9702"
     y1="967.8066"
     x2="368.7251"
     y2="967.8066"
     gradientTransform="translate(-0.1797,-875.4102)"><stop
       offset="0"
       style="stop-color:#08406F"
       id="stop5523" /><stop
       offset="1"
       style="stop-color:#60C5F5"
       id="stop5525" /></linearGradient><linearGradient
     id="SVGID_37_"
     gradientUnits="userSpaceOnUse"
     x1="440.6372"
     y1="959.6748"
     x2="436.2191"
     y2="955.2568"
     gradientTransform="translate(-0.1797,-875.4102)"><stop
       offset="0"
       style="stop-color:#08406F"
       id="stop5530" /><stop
       offset="1"
       style="stop-color:#60C5F5"
       id="stop5532" /></linearGradient><linearGradient
     id="SVGID_38_"
     gradientUnits="userSpaceOnUse"
     x1="472.9204"
     y1="969.5098"
     x2="472.9204"
     y2="963.708"
     gradientTransform="translate(-0.1797,-875.4102)"><stop
       offset="0"
       style="stop-color:#08406F"
       id="stop5537" /><stop
       offset="1"
       style="stop-color:#60C5F5"
       id="stop5539" /></linearGradient><g
     id="g4621"><g
       id="g4338"><g
         id="g5615"
         transform="matrix(0.81874674,0,0,0.81874674,100.58394,26.423976)"><polygon
           id="polygon5282"
           points="345.625,9.374 261.264,92.842 250.775,93.958 251.667,8.077 177.937,82.94 168.255,82.987 167.12,11.089 127.342,51.15 116.278,51.717 116.697,8.939 11.591,114.895 46.209,114.328 91.598,70.276 100.303,70.276 99.883,114.54 136.035,77.543 144.679,77.543 144.679,115.23 104.892,154.73 143.019,154.165 218.036,78.299 228.14,78.299 228.14,115.57 274.897,115.854 320.115,70.353 328.843,69.786 328.708,112.799 364.839,76.667 373.375,76.667 373.941,113.102 373.203,114.998 482.378,114.998 503.279,93.815 435.398,92.661 434.781,82.809 445.357,71.67 470.968,71.667 493.216,49.133 479.769,48.565 479.769,39.082 491.191,27.662 536.777,27.946 557.949,5.927 479.951,5.642 406.662,79.217 396.4,79.784 396.686,9.001 355.481,51.055 345.625,52.224 "
           style="fill:url(#SVGID_1_)" /><path
           id="path5289"
           d="M 114.692,13.213 13.577,114.328 2.106,118.641 c 0,0 -0.604,0.039 -0.271,-0.445 0,0 117.26,-117.292 117.472,-117.471 0.212,-0.181 0.467,-0.028 0.467,-0.028 l -5.082,12.516 z"
           style="fill:url(#SVGID_2_)"
           inkscape:connector-curvature="0" /><path
           id="path5296"
           d="m 145.814,115.797 -37.518,37.521 -11.065,4.457 c 0,0 -0.576,0.065 -0.236,-0.407 l 43.929,-43.749 4.89,2.178 z"
           style="fill:url(#SVGID_3_)"
           inkscape:connector-curvature="0" /><polygon
           id="polygon5303"
           points="2.106,118.641 13.603,114.328 46.209,114.328 48.982,118.641 "
           style="fill:url(#SVGID_4_)" /><polygon
           id="polygon5310"
           points="97.23,157.771 108.296,153.314 142.168,153.314 144.781,157.771 "
           style="fill:url(#SVGID_5_)" /><polygon
           id="polygon5317"
           points="370.242,118.584 374.052,114.148 481.529,114.146 484.787,118.613 "
           style="fill:url(#SVGID_6_)" /><path
           id="path5324"
           d="m 277.053,119.484 -51.527,-0.029 c -0.333,0.005 -0.81,-0.335 -0.81,-0.335 l 4.561,-4.115 45.054,0 2.722,4.479 z"
           style="fill:url(#SVGID_7_)"
           inkscape:connector-curvature="0" /><path
           id="path5331"
           d="m 477.382,1.913 88.652,0 c 0.785,0 0.785,0.313 0.785,0.313 l -10.572,4.55 -75.164,0 -3.701,-4.863 z"
           style="fill:url(#SVGID_8_)"
           inkscape:connector-curvature="0" /><polygon
           id="polygon5338"
           points="492.697,31.304 490.625,27.094 535.927,27.094 539.042,31.304 "
           style="fill:url(#SVGID_9_)" /><polygon
           id="polygon5345"
           points="448.91,74.82 444.791,71.102 470.402,71.1 473.589,74.82 "
           style="fill:url(#SVGID_10_)" /><path
           id="path5352"
           d="m 491.8,49.7 -13.58,0 -1.193,-5.548 25.467,0 c 0.346,-0.043 0.441,0.146 0.441,0.146 L 491.8,49.7 Z"
           style="fill:url(#SVGID_11_)"
           inkscape:connector-curvature="0" /><path
           id="path5359"
           d="M 96.872,70.634 48.982,118.643 46.209,114.33 92.81,67.965 c 2,-2.313 4.675,-1.731 4.675,-1.731 l -0.613,4.4 z"
           style="fill:url(#SVGID_12_)"
           inkscape:connector-curvature="0" /><path
           id="path5366"
           d="m 114.71,51.669 0,-38.476 5.063,-12.499 c 0,0 0.303,0.075 0.303,0.571 0,0.493 0,53.647 0,53.647 l -0.315,2.311 c 0,10e-4 -4.496,0.025 -5.051,-5.554 z"
           style="fill:url(#SVGID_13_)"
           inkscape:connector-curvature="0" /><path
           id="path5373"
           d="m 172.902,88.843 c 0,0 -6.539,1.95 -6.621,-5.625 -0.08,-7.313 -0.013,-69.291 -0.013,-69.291 l 5.214,-13.896 c 0,0 0.182,-0.027 0.182,0.725 l -0.017,81.793 1.255,6.294 z"
           style="fill:url(#SVGID_14_)"
           inkscape:connector-curvature="0" /><path
           id="path5380"
           d="m 255.809,98.91 c 0,0 -5.889,0.577 -5.96,-6.088 l -0.033,-80.063 4.651,-12.071 c 0,0 0.583,0.153 0.583,0.907 l -0.016,91.14 0.775,6.175 z"
           style="fill:url(#SVGID_15_)"
           inkscape:connector-curvature="0" /><path
           id="path5387"
           d="m 349.097,57.425 c 0,0 -4.868,0.452 -5.701,-4.563 l 0,-39.723 4.393,-12.147 c 0,0 0.563,0.134 0.563,0.886 l 0,49.667 0.745,5.88 z"
           style="fill:url(#SVGID_16_)"
           inkscape:connector-curvature="0" /><path
           id="path5394"
           d="m 400.781,85.333 c 0,0 -4.938,0.643 -5.797,-4.373 l 0,-67.706 4.85,-12.544 c 0,0 0.268,0.221 0.268,1.708 l 0,77.226 0.679,5.689 z"
           style="fill:url(#SVGID_17_)"
           inkscape:connector-curvature="0" /><path
           id="path5401"
           d="m 97.759,120.82 c 0,0 -0.833,-0.069 -0.809,-1.149 -0.001,-0.917 -0.078,-49.036 -0.078,-49.036 0,0 -1.218,-1.577 0.613,-4.4 0.547,0.131 3.495,0.727 4.101,4.256 l 0,40.37 -3.827,9.959 z"
           style="fill:url(#SVGID_18_)"
           inkscape:connector-curvature="0" /><path
           id="path5408"
           d="m 140.843,78.598 c 0,0 -41.489,41.548 -41.883,41.938 -0.346,0.379 -1.202,0.282 -1.202,0.282 l 3.827,-9.963 36.059,-36.088 c 0,0 1.34,-1.727 3.831,-1.637 l -0.632,5.468 z"
           style="fill:url(#SVGID_19_)"
           inkscape:connector-curvature="0" /><path
           id="path5415"
           d="M 566.609,3.639 539.043,31.304 535.928,27.093 556.24,6.769 566.822,2.227 c 0,0.001 0.349,0.847 -0.213,1.412 z"
           style="fill:url(#SVGID_20_)"
           inkscape:connector-curvature="0" /><path
           id="path5422"
           d="m 140.924,113.616 -0.079,-35.025 c 0,0 -1.301,-2.633 0.631,-5.456 0.593,-0.007 3.7,0.421 4.339,4.146 l -0.001,38.52 -4.89,-2.185 z"
           style="fill:url(#SVGID_21_)"
           inkscape:connector-curvature="0" /><path
           id="path5429"
           d="m 166.269,13.926 -41.462,41.463 c -1.987,1.986 -5.045,1.836 -5.045,1.836 -1.795,-3.531 0.315,-6.065 0.315,-6.065 0,0 50.503,-50.49 50.867,-50.87 0.331,-0.417 0.541,-0.264 0.541,-0.264 l -5.216,13.9 z"
           style="fill:url(#SVGID_22_)"
           inkscape:connector-curvature="0" /><path
           id="path5436"
           d="m 249.815,12.762 -74.376,74.375 c -1.55,1.551 -2.537,1.703 -2.537,1.703 -3.781,-1.878 -1.213,-6.255 -1.213,-6.255 0,0 80.652,-80.635 81.016,-81.015 0.943,-1.093 1.761,-0.883 1.761,-0.883 l -4.651,12.075 z"
           style="fill:url(#SVGID_23_)"
           inkscape:connector-curvature="0" /><path
           id="path5443"
           d="M 343.396,13.139 259.233,97.3 c -1.429,1.432 -3.424,1.608 -3.424,1.608 -3.115,-1.556 -0.776,-6.175 -0.776,-6.175 0,0 90.61,-90.5 90.974,-90.881 0.941,-1.098 1.781,-0.862 1.781,-0.862 l -4.392,12.149 z"
           style="fill:url(#SVGID_24_)"
           inkscape:connector-curvature="0" /><path
           id="path5450"
           d="m 394.984,13.254 -42.513,42.514 c -1.429,1.432 -3.374,1.657 -3.374,1.657 -2.932,-1.908 -0.588,-5.983 -0.588,-5.983 0,0 49.584,-49.69 49.947,-50.07 1.047,-1.033 1.377,-0.66 1.377,-0.66 l -4.849,12.542 z"
           style="fill:url(#SVGID_25_)"
           inkscape:connector-curvature="0" /><path
           id="path5457"
           d="M 502.958,45.453 473.589,74.82 470.401,71.098 491.8,49.7 502.935,44.299 c 0,0 0.414,0.294 0.023,1.154 z"
           style="fill:url(#SVGID_26_)"
           inkscape:connector-curvature="0" /><path
           id="path5464"
           d="m 513.634,89.96 -28.848,28.651 -3.258,-4.465 20.049,-20.049 12.289,-5.38 c 10e-4,0.003 0.397,0.435 -0.232,1.243 z"
           style="fill:url(#SVGID_27_)"
           inkscape:connector-curvature="0" /><path
           id="path5471"
           d="M 481.083,6.777 404.171,83.69 c -1.43,1.432 -3.395,1.644 -3.395,1.644 -2.449,-3.092 -0.686,-5.979 -0.686,-5.979 l 77.289,-77.44 3.704,4.862 z"
           style="fill:url(#SVGID_28_)"
           inkscape:connector-curvature="0" /><path
           id="path5478"
           d="M 492.697,31.304 480.021,44.09 c -2.771,2.282 -1.801,5.608 -1.801,5.608 -2.25,-0.21 -3.125,-2.065 -3.412,-3.695 -0.285,-1.63 0.303,-3.422 1.348,-4.467 l 14.469,-14.44 2.072,4.208 z"
           style="fill:url(#SVGID_29_)"
           inkscape:connector-curvature="0" /><path
           id="path5485"
           d="m 142.17,153.316 77.913,-77.943 c 0,0 1.437,-1.873 4.267,-1.771 l -0.456,5.223 c 0,0 -78.666,78.506 -79.113,78.948 l -2.611,-4.457 z"
           style="fill:url(#SVGID_30_)"
           inkscape:connector-curvature="0" /><path
           id="path5492"
           d="m 274.33,115.004 47.643,-47.659 c 0,0 1.437,-1.871 4.267,-1.771 l -0.857,5.621 -48.325,48.29 -2.728,-4.481 z"
           style="fill:url(#SVGID_31_)"
           inkscape:connector-curvature="0" /><path
           id="path5499"
           d="m 330.125,110.25 36.779,-36.789 c 0.842,-0.843 1.779,-1.771 3.396,-1.771 l -0.107,5.501 -43.081,43.043 c -0.569,0.563 -1.019,0.399 -1.019,0.399 l 4.032,-10.383 z"
           style="fill:url(#SVGID_32_)"
           inkscape:connector-curvature="0" /><path
           id="path5506"
           d="m 361.984,118.057 7.25,-7.281 5.557,2.326 -0.734,1.047 -3.813,4.437 -0.272,0.3 -7.72,0 c -0.34,0.014 -0.521,-0.271 -0.521,-0.271 0,0 -0.155,-0.147 0.253,-0.558 z"
           style="fill:url(#SVGID_33_)"
           inkscape:connector-curvature="0" /><path
           id="path5513"
           d="m 223.983,117.338 -0.09,-38.515 c 0,0 -1.738,-2.016 0.457,-5.223 0.673,-0.01 4.202,0.478 4.928,4.707 l -0.001,36.694 -4.561,4.115 c 0,0.003 -0.73,-0.475 -0.733,-1.778 z"
           style="fill:url(#SVGID_34_)"
           inkscape:connector-curvature="0" /><path
           id="path5520"
           d="m 325.449,119.945 -0.08,-48.75 c 0,0 -1.472,-2.681 0.871,-5.621 0.596,-0.009 3.243,0.472 3.885,4.702 l 0,39.975 -4.028,10.39 c -0.004,-0.002 -0.605,-0.143 -0.648,-0.696 z"
           style="fill:url(#SVGID_35_)"
           inkscape:connector-curvature="0" /><path
           id="path5527"
           d="m 369.234,110.775 0,-32.629 c 0,0 -2.113,-3.379 1.064,-6.456 0.693,-0.008 4.132,0.24 4.492,4.323 l 0,37.088 -5.556,-2.326 z"
           style="fill:url(#SVGID_36_)"
           inkscape:connector-curvature="0" /><path
           id="path5534"
           d="m 448.91,74.82 -13.451,13.479 -3.844,4.809 c -3.896,-2.458 -1.953,-6.874 -0.912,-7.925 l 14.088,-14.079 4.119,3.716 z"
           style="fill:url(#SVGID_37_)"
           inkscape:connector-curvature="0" /><path
           id="path5541"
           d="m 501.58,94.098 -66.391,0 c -2.502,-0.196 -3.574,-0.992 -3.574,-0.992 -0.012,-3.571 3.844,-4.809 3.844,-4.809 l 77.746,0.001 c 0.543,-0.001 0.662,0.422 0.662,0.422 l -12.287,5.378 z"
           style="fill:url(#SVGID_38_)"
           inkscape:connector-curvature="0" /><g
           id="g5543"><path
             id="path5545"
             d="m 0,142.055 0,-9.521 2.876,0 1.728,6.494 1.708,-6.494 2.883,0 0,9.521 -1.785,0 0,-7.496 -1.89,7.496 -1.851,0 -1.883,-7.496 0,7.496 -1.786,0 z"
             inkscape:connector-curvature="0" /><path
             id="path5547"
             d="m 17.224,132.532 1.922,0 0,5.155 c 0,0.816 0.024,1.35 0.071,1.592 0.083,0.391 0.278,0.701 0.588,0.938 0.31,0.237 0.732,0.354 1.27,0.354 0.545,0 0.957,-0.11 1.234,-0.334 0.277,-0.223 0.443,-0.496 0.5,-0.821 0.056,-0.324 0.084,-0.863 0.084,-1.616 l 0,-5.268 1.922,0 0,5.001 c 0,1.144 -0.052,1.95 -0.155,2.423 -0.104,0.472 -0.296,0.87 -0.575,1.193 -0.279,0.324 -0.652,0.582 -1.12,0.773 -0.468,0.192 -1.078,0.289 -1.832,0.289 -0.909,0 -1.599,-0.104 -2.068,-0.313 -0.47,-0.211 -0.841,-0.482 -1.114,-0.818 -0.273,-0.335 -0.452,-0.688 -0.539,-1.057 -0.125,-0.545 -0.188,-1.353 -0.188,-2.416 l 0,-5.075 z"
             inkscape:connector-curvature="0" /><path
             id="path5549"
             d="m 33.025,142.055 0,-9.443 1.922,0 0,7.84 4.78,0 0,1.604 -6.702,0 0,-0.001 z"
             inkscape:connector-curvature="0" /><path
             id="path5551"
             d="m 48.385,142.055 0,-7.91 -2.825,0 0,-1.61 7.566,0 0,1.61 -2.819,0 0,7.91 -1.922,0 z"
             inkscape:connector-curvature="0" /><path
             id="path5553"
             d="m 60.438,142.055 0,-9.521 1.922,0 0,9.521 -1.922,0 z"
             inkscape:connector-curvature="0" /><path
             id="path5555"
             d="m 70.324,142.055 0,-9.521 3.085,0 c 1.169,0 1.931,0.048 2.286,0.144 0.545,0.146 1.002,0.453 1.37,0.935 0.368,0.479 0.552,1.098 0.552,1.854 0,0.584 -0.106,1.075 -0.318,1.477 -0.212,0.396 -0.482,0.711 -0.809,0.938 -0.327,0.229 -0.659,0.378 -0.997,0.452 -0.459,0.09 -1.124,0.136 -1.994,0.136 l -1.253,0 0,3.594 -1.922,-0.009 0,0 z m 1.922,-7.91 0,2.701 1.052,0 c 0.757,0 1.264,-0.053 1.52,-0.15 0.256,-0.098 0.456,-0.254 0.601,-0.467 0.145,-0.213 0.217,-0.459 0.217,-0.74 0,-0.346 -0.102,-0.633 -0.305,-0.856 -0.204,-0.225 -0.461,-0.362 -0.773,-0.422 -0.229,-0.043 -0.691,-0.063 -1.383,-0.063 l -0.929,-0.003 0,0 z"
             inkscape:connector-curvature="0" /><path
             id="path5557"
             d="m 85.378,142.055 0,-9.443 1.922,0 0,7.84 4.78,0 0,1.604 -6.702,0 0,-0.001 z"
             inkscape:connector-curvature="0" /><path
             id="path5559"
             d="m 99.582,142.055 0,-9.521 7.059,0 0,1.609 -5.137,0 0,2.108 4.78,0 0,1.604 -4.78,0 0,2.592 5.319,0 0,1.604 -7.241,0.004 0,0 z"
             inkscape:connector-curvature="0" /></g><g
           id="g5561"><path
             id="path5563"
             d="m 189.966,142.055 -2.091,0 -0.831,-2.164 -3.806,0 -0.786,2.164 -2.039,0 3.708,-9.521 2.032,0 3.813,9.521 z m -3.539,-3.769 -1.313,-3.532 -1.286,3.532 2.599,0 z"
             inkscape:connector-curvature="0" /><path
             id="path5565"
             d="m 197.124,142.055 0,-9.521 4.046,0 c 1.018,0 1.757,0.086 2.218,0.258 0.461,0.171 0.83,0.477 1.107,0.912 0.277,0.438 0.416,0.938 0.416,1.5 0,0.714 -0.21,1.304 -0.63,1.771 -0.419,0.465 -1.047,0.758 -1.883,0.879 0.416,0.242 0.758,0.51 1.029,0.799 0.271,0.291 0.635,0.808 1.094,1.548 l 1.162,1.856 -2.299,0 -1.39,-2.072 c -0.493,-0.739 -0.832,-1.207 -1.013,-1.398 -0.181,-0.189 -0.375,-0.322 -0.578,-0.396 -0.203,-0.069 -0.526,-0.104 -0.968,-0.104 l -0.389,0 0,3.978 -1.922,0 0,-0.01 z m 1.922,-5.496 1.422,0 c 0.922,0 1.498,-0.037 1.727,-0.115 0.23,-0.077 0.409,-0.213 0.539,-0.402 0.13,-0.188 0.195,-0.43 0.195,-0.714 0,-0.32 -0.085,-0.579 -0.256,-0.776 -0.171,-0.193 -0.412,-0.318 -0.724,-0.371 -0.156,-0.021 -0.623,-0.031 -1.403,-0.031 l -1.5,0 0,2.409 0,0 z"
             inkscape:connector-curvature="0" /><path
             id="path5567"
             d="m 218.945,138.552 1.864,0.593 c -0.286,1.041 -0.761,1.813 -1.425,2.313 -0.664,0.504 -1.508,0.757 -2.53,0.757 -1.264,0 -2.303,-0.433 -3.117,-1.296 -0.814,-0.86 -1.221,-2.044 -1.221,-3.542 0,-1.585 0.409,-2.813 1.228,-3.689 0.818,-0.877 1.894,-1.313 3.228,-1.313 1.165,0 2.11,0.344 2.838,1.03 0.433,0.406 0.757,0.992 0.974,1.755 l -1.903,0.452 c -0.113,-0.491 -0.347,-0.881 -0.705,-1.168 -0.358,-0.284 -0.791,-0.428 -1.302,-0.428 -0.706,0 -1.278,0.252 -1.718,0.76 -0.44,0.507 -0.66,1.326 -0.66,2.461 0,1.203 0.217,2.062 0.65,2.572 0.433,0.51 0.996,0.767 1.688,0.767 0.511,0 0.95,-0.162 1.318,-0.486 0.369,-0.33 0.633,-0.84 0.793,-1.538 z"
             inkscape:connector-curvature="0" /><path
             id="path5569"
             d="m 237.175,142.055 -2.091,0 -0.832,-2.164 -3.806,0 -0.786,2.164 -2.039,0 3.708,-9.521 2.033,0 3.813,9.521 z m -3.539,-3.769 -1.313,-3.532 -1.286,3.532 2.599,0 z"
             inkscape:connector-curvature="0" /><path
             id="path5571"
             d="m 244.32,132.532 3.514,0 c 0.792,0 1.396,0.062 1.812,0.183 0.559,0.165 1.037,0.457 1.435,0.877 0.398,0.419 0.702,0.936 0.91,1.542 0.208,0.608 0.312,1.358 0.312,2.251 0,0.782 -0.098,1.458 -0.292,2.025 -0.238,0.691 -0.578,1.254 -1.02,1.682 -0.333,0.325 -0.784,0.578 -1.351,0.762 -0.424,0.136 -0.991,0.203 -1.701,0.203 l -3.617,0 0,-9.521 -0.002,-0.004 0,0 z m 1.922,1.613 0,6.307 1.435,0 c 0.537,0 0.924,-0.03 1.163,-0.092 0.312,-0.077 0.57,-0.211 0.776,-0.396 0.206,-0.188 0.374,-0.49 0.503,-0.92 0.13,-0.426 0.195,-1.007 0.195,-1.743 0,-0.733 -0.065,-1.301 -0.195,-1.692 -0.13,-0.396 -0.312,-0.701 -0.545,-0.924 -0.234,-0.223 -0.53,-0.369 -0.89,-0.447 -0.269,-0.063 -0.795,-0.09 -1.578,-0.09 l -0.864,-0.003 0,0 z"
             inkscape:connector-curvature="0" /><path
             id="path5573"
             d="m 260.063,142.055 0,-9.521 7.059,0 0,1.609 -5.137,0 0,2.108 4.78,0 0,1.604 -4.78,0 0,2.592 5.319,0 0,1.604 -7.241,0.004 0,0 z"
             inkscape:connector-curvature="0" /></g><g
           id="g5575"><path
             id="path5577"
             d="m 283.18,142.055 0,-9.521 2.877,0 1.729,6.494 1.707,-6.494 2.883,0 0,9.521 -1.785,0 0,-7.496 -1.891,7.496 -1.854,0 -1.887,-7.496 0,7.496 -1.779,0 z"
             inkscape:connector-curvature="0" /><path
             id="path5579"
             d="m 309.001,142.055 -2.09,0 -0.832,-2.164 -3.809,0 -0.782,2.164 -2.04,0 3.709,-9.521 2.029,0 3.815,9.521 z m -3.539,-3.769 -1.313,-3.532 -1.286,3.532 2.599,0 z"
             inkscape:connector-curvature="0" /><path
             id="path5581"
             d="m 322.246,138.552 1.863,0.593 c -0.285,1.041 -0.761,1.813 -1.425,2.313 -0.665,0.505 -1.509,0.757 -2.53,0.757 -1.264,0 -2.303,-0.433 -3.115,-1.296 -0.813,-0.86 -1.223,-2.044 -1.223,-3.542 0,-1.585 0.409,-2.813 1.229,-3.689 0.818,-0.877 1.896,-1.313 3.229,-1.313 1.165,0 2.108,0.344 2.839,1.03 0.434,0.406 0.76,0.992 0.977,1.755 l -1.902,0.452 c -0.111,-0.491 -0.35,-0.881 -0.704,-1.168 -0.356,-0.284 -0.791,-0.428 -1.303,-0.428 -0.705,0 -1.277,0.252 -1.718,0.76 -0.439,0.507 -0.66,1.326 -0.66,2.461 0,1.203 0.218,2.062 0.648,2.572 0.434,0.51 0.994,0.767 1.688,0.767 0.51,0 0.946,-0.162 1.313,-0.486 0.369,-0.33 0.633,-0.84 0.794,-1.538 z"
             inkscape:connector-curvature="0" /><path
             id="path5583"
             d="m 331.897,142.055 0,-9.521 1.923,0 0,3.748 3.766,0 0,-3.748 1.924,0 0,9.521 -1.924,0 0,-4.164 -3.766,0 0,4.164 -1.923,0 z"
             inkscape:connector-curvature="0" /><path
             id="path5585"
             d="m 347.569,142.055 0,-9.521 1.923,0 0,9.521 -1.923,0 z"
             inkscape:connector-curvature="0" /><path
             id="path5587"
             d="m 357.472,142.055 0,-9.521 1.871,0 3.896,6.357 0,-6.357 1.786,0 0,9.521 -1.929,0 -3.839,-6.209 0,6.209 -1.785,0 z"
             inkscape:connector-curvature="0" /><path
             id="path5589"
             d="m 373.19,142.055 0,-9.521 7.06,0 0,1.609 -5.138,0 0,2.108 4.78,0 0,1.604 -4.78,0 0,2.592 5.319,0 0,1.604 -7.241,0.004 0,0 z"
             inkscape:connector-curvature="0" /></g><g
           id="g5591"><path
             id="path5593"
             d="m 397.091,142.055 0,-9.521 7.06,0 0,1.609 -5.137,0 0,2.108 4.78,0 0,1.604 -4.78,0 0,2.592 5.319,0 0,1.604 -7.242,0.004 0,0 z"
             inkscape:connector-curvature="0" /><path
             id="path5595"
             d="m 412.069,142.055 0,-9.521 2.877,0 1.728,6.494 1.709,-6.494 2.883,0 0,9.521 -1.783,0 0,-7.496 -1.893,7.496 -1.852,0 -1.884,-7.496 0,7.496 -1.785,0 z"
             inkscape:connector-curvature="0" /><path
             id="path5597"
             d="m 429.292,132.532 1.922,0 0,5.155 c 0,0.816 0.023,1.35 0.07,1.592 0.082,0.391 0.273,0.701 0.588,0.938 0.311,0.236 0.729,0.354 1.27,0.354 0.547,0 0.957,-0.11 1.234,-0.334 0.277,-0.223 0.443,-0.496 0.5,-0.821 0.057,-0.324 0.084,-0.863 0.084,-1.616 l 0,-5.268 1.924,0 0,5.001 c 0,1.144 -0.053,1.95 -0.156,2.423 -0.104,0.472 -0.297,0.87 -0.574,1.193 -0.279,0.324 -0.652,0.582 -1.121,0.773 -0.467,0.192 -1.078,0.289 -1.83,0.289 -0.91,0 -1.6,-0.104 -2.068,-0.313 -0.471,-0.211 -0.842,-0.482 -1.109,-0.818 -0.271,-0.335 -0.451,-0.688 -0.537,-1.057 -0.127,-0.545 -0.189,-1.353 -0.189,-2.416 l 0,-5.077 -0.008,0.002 0,0 z"
             inkscape:connector-curvature="0" /><path
             id="path5599"
             d="m 445.093,142.055 0,-9.443 1.922,0 0,7.84 4.781,0 0,1.604 -6.703,0 0,-0.001 z"
             inkscape:connector-curvature="0" /><path
             id="path5601"
             d="m 467.882,142.055 -2.092,0 -0.83,-2.164 -3.807,0 -0.785,2.164 -2.039,0 3.707,-9.521 2.033,0 3.813,9.521 z m -3.539,-3.769 -1.313,-3.532 -1.285,3.532 2.598,0 z"
             inkscape:connector-curvature="0" /><path
             id="path5603"
             d="m 476.191,142.055 0,-7.91 -2.826,0 0,-1.61 7.564,0 0,1.61 -2.816,0 0,7.91 -1.922,0 z"
             inkscape:connector-curvature="0" /><path
             id="path5605"
             d="m 487.671,137.352 c 0,-0.972 0.146,-1.783 0.438,-2.44 0.215,-0.484 0.51,-0.92 0.885,-1.308 0.375,-0.387 0.785,-0.67 1.23,-0.854 0.594,-0.251 1.277,-0.376 2.053,-0.376 1.402,0 2.525,0.438 3.367,1.305 0.842,0.87 1.264,2.081 1.264,3.633 0,1.535 -0.418,2.737 -1.254,3.605 -0.836,0.867 -1.953,1.302 -3.352,1.302 -1.416,0 -2.541,-0.433 -3.377,-1.296 -0.836,-0.863 -1.254,-2.057 -1.254,-3.571 z m 1.983,-0.066 c 0,1.078 0.248,1.896 0.746,2.45 0.498,0.558 1.131,0.834 1.896,0.834 0.768,0 1.396,-0.273 1.887,-0.825 0.492,-0.554 0.736,-1.381 0.736,-2.485 0,-1.09 -0.238,-1.902 -0.717,-2.439 -0.48,-0.535 -1.113,-0.805 -1.906,-0.805 -0.793,0 -1.43,0.271 -1.916,0.813 -0.486,0.542 -0.726,1.362 -0.726,2.457 z"
             inkscape:connector-curvature="0" /><path
             id="path5607"
             d="m 504.544,142.055 0,-9.521 4.047,0 c 1.018,0 1.756,0.086 2.217,0.258 0.461,0.171 0.83,0.477 1.107,0.912 0.277,0.438 0.416,0.938 0.416,1.5 0,0.714 -0.211,1.304 -0.631,1.771 -0.42,0.465 -1.047,0.758 -1.883,0.879 0.416,0.242 0.76,0.51 1.021,0.799 0.271,0.291 0.645,0.808 1.102,1.548 l 1.156,1.856 -2.296,0 -1.391,-2.072 c -0.492,-0.739 -0.83,-1.207 -1.012,-1.398 -0.186,-0.189 -0.375,-0.322 -0.578,-0.396 -0.203,-0.069 -0.525,-0.104 -0.971,-0.104 l -0.391,0 0,3.978 -1.92,0 0,-0.006 0.004,0 0,-0.002 0.003,0 z m 1.922,-5.496 1.424,0 c 0.922,0 1.498,-0.037 1.727,-0.115 0.23,-0.077 0.41,-0.213 0.541,-0.402 0.129,-0.188 0.193,-0.43 0.193,-0.714 0,-0.32 -0.086,-0.579 -0.258,-0.776 -0.17,-0.193 -0.41,-0.318 -0.723,-0.371 -0.156,-0.021 -0.623,-0.031 -1.402,-0.031 l -1.502,0 0,2.409 0,0 z"
             inkscape:connector-curvature="0" /></g></g><g
         id="g5777"
         transform="matrix(0.00747947,0,0,0.00747947,3.501995,42.888333)"><g
           transform="translate(0,-5640)"
           id="g5771"><path
             style="fill:#c0392b;stroke:none"
             inkscape:connector-curvature="0"
             id="path6"
             d="m 1910,4378 c -123,-19 -263,-125 -316,-240 l -29,-63 0,-1425 0,-1425 205,0 205,0 3,1574 c 1,866 -1,1578 -5,1581 -5,4 -33,3 -63,-2 z" /><path
             style="fill:#c0392b;stroke:none"
             inkscape:connector-curvature="0"
             id="path8"
             d="M 47,4343 C 43,4340 40,3465 40,2400 40,766 42,461 54,451 c 9,-8 74,-11 212,-9 l 199,3 3,1742 2,1741 248,4 248,3 66,33 c 122,60 229,209 232,325 l 1,52 -606,3 c -333,1 -609,-1 -612,-5 z" /><path
             style="fill:#c0392b;stroke:none"
             inkscape:connector-curvature="0"
             id="path10"
             d="m 2367,4343 c -4,-3 -7,-878 -7,-1943 0,-1634 2,-1939 14,-1949 9,-8 74,-11 212,-9 l 199,3 3,387 2,388 234,0 c 207,0 239,2 291,20 113,39 216,141 256,255 18,53 19,94 19,1288 0,1381 5,1287 -74,1394 -51,71 -120,122 -199,152 -56,20 -73,21 -501,21 -243,0 -446,-3 -449,-7 z m 803,-1558 0,-1145 -190,0 -190,0 0,1145 0,1145 190,0 190,0 0,-1145 z" /><path
             style="fill:#c0392b;stroke:none"
             inkscape:connector-curvature="0"
             id="path162"
             d="m 1565,857 c -3,-7 -4,-102 -3,-212 l 3,-200 205,0 205,0 0,210 0,210 -203,3 c -159,2 -204,0 -207,-11 z" /></g><g
           style="fill:#231f20;stroke:none"
           transform="translate(0,-5640)"
           id="g172"><path
             inkscape:connector-curvature="0"
             id="path174"
             d="m 4015,4378 c -3,-7 -4,-890 -3,-1963 l 3,-1950 1670,0 1670,0 47,27 c 64,38 119,106 171,213 179,362 529,1114 539,1155 9,38 9,62 0,101 -11,47 -44,88 -402,505 -215,250 -393,460 -396,468 -3,8 177,335 401,727 223,392 402,716 397,721 -4,4 -282,7 -616,6 l -608,-3 -543,-900 C 5735,2477 5766,2537 5834,2462 l 34,-37 269,-5 c 234,-4 272,-7 303,-23 32,-17 413,-437 434,-477 6,-13 -19,-87 -89,-261 -53,-134 -107,-263 -120,-285 -45,-77 -11,-74 -754,-74 l -661,0 -2,1543 -3,1542 -613,3 c -485,2 -614,0 -617,-10 z" /><path
             inkscape:connector-curvature="0"
             id="path176"
             d="m 8344,4377 c -2,-7 -3,-609 -2,-1337 3,-1111 6,-1331 18,-1363 28,-77 608,-1123 640,-1154 17,-18 48,-38 68,-45 30,-10 367,-13 1712,-13 l 1675,0 0,415 0,415 -1265,5 -1265,5 -31,22 c -17,13 -39,38 -48,57 -28,59 -256,609 -256,618 0,4 552,9 1228,10 l 1227,3 0,410 0,410 -1232,3 -1233,2 0,355 0,355 1438,2 1437,3 0,415 0,415 -2053,3 c -1660,2 -2054,0 -2058,-11 z" /><path
             inkscape:connector-curvature="0"
             id="path178"
             d="m 13687,4383 c -4,-3 -7,-280 -7,-615 l 0,-608 -612,-2 -613,-3 0,-730 0,-730 612,-3 613,-2 2,-613 3,-612 730,0 730,0 3,612 2,613 608,2 607,3 0,730 0,730 -607,3 -608,2 -2,613 -3,612 -726,3 c -399,1 -729,-1 -732,-5 z m 943,-638 205,-205 -420,0 -420,0 205,205 c 113,113 209,205 215,205 6,0 102,-92 215,-205 z m -128,-906 c 173,-37 298,-169 328,-349 30,-178 -67,-368 -227,-442 -86,-41 -177,-54 -259,-39 -172,31 -297,144 -339,306 -80,310 185,590 497,524 z m -1202,-416 0,-418 -205,205 c -113,113 -205,209 -205,215 0,8 399,415 407,415 2,0 3,-188 3,-417 z m 2640,2 c 0,-6 -92,-102 -205,-215 l -205,-205 0,420 0,420 205,-205 c 113,-113 205,-209 205,-215 z M 14630,1105 c -113,-113 -209,-205 -215,-205 -6,0 -102,92 -215,205 l -205,205 420,0 420,0 -205,-205 z" /><path
             inkscape:connector-curvature="0"
             id="path180"
             d="m 16555,4378 c -3,-7 -4,-890 -3,-1963 l 3,-1950 1645,-3 c 1869,-2 1714,-9 1804,81 30,30 69,86 93,132 108,210 545,1144 555,1187 9,36 8,61 0,98 -11,46 -47,91 -408,511 -257,300 -394,467 -391,478 2,9 185,333 405,721 221,387 398,708 394,712 -5,5 -282,7 -617,6 l -608,-3 -543,-900 c -298,-495 -544,-909 -546,-920 -7,-35 10,-80 42,-110 l 31,-30 267,-5 c 211,-4 273,-8 297,-20 29,-15 445,-474 445,-491 0,-16 -202,-514 -221,-545 -40,-66 -17,-64 -748,-64 l -661,0 -2,1543 -3,1542 -613,3 c -485,2 -614,0 -617,-10 z" /><path
             inkscape:connector-curvature="0"
             id="path182"
             d="m 21410,4370 c -125,-33 -231,-93 -332,-188 -130,-124 -196,-239 -232,-402 -15,-68 -16,-197 -14,-1385 l 3,-1310 28,-80 c 74,-210 212,-368 402,-460 177,-85 64,-79 1455,-83 823,-2 1268,0 1333,8 197,21 339,89 478,230 66,67 96,107 132,178 93,180 87,66 87,1550 0,1465 5,1361 -75,1527 -24,50 -64,116 -89,147 -98,122 -263,230 -412,268 -75,19 -116,20 -1383,19 -1256,0 -1309,-1 -1381,-19 z m 1576,-795 c 485,-83 859,-450 950,-931 23,-122 21,-330 -4,-449 -96,-448 -421,-785 -865,-896 -121,-30 -334,-37 -467,-14 -774,129 -1193,960 -843,1671 158,323 467,551 833,618 102,19 289,19 396,1 z" /></g></g></g><g
       id="text4331"
       style="font-style:normal;font-weight:normal;font-size:35.98617172px;line-height:125%;font-family:Sans;letter-spacing:0px;word-spacing:0px;fill:#333333;fill-opacity:1;stroke:none;stroke-width:1px;stroke-linecap:butt;stroke-linejoin:miter;stroke-opacity:1"><path
         id="path4613"
         style="font-style:normal;font-variant:normal;font-weight:normal;font-stretch:normal;font-family:'Roboto Slab';-inkscape-font-specification:'Roboto Slab';fill:#333333"
         d="m 4.1734509,63.998802 0,-2.372135 8.3815451,-9.312828 q 2.249136,-2.512706 3.039847,-3.988701 0.808283,-1.475996 0.808283,-3.022277 0,-1.915279 -1.124567,-3.215561 -1.124568,-1.317853 -2.969562,-1.317853 -2.6532777,0 -3.9008452,1.352996 -1.2475675,1.352996 -1.2475675,3.830559 l -3.3209895,0 -0.035143,-0.105428 q -0.087857,-3.303418 2.1788502,-5.552554 2.2842785,-2.249136 6.3256947,-2.249136 3.46156,0 5.499839,2.020708 2.055851,2.003137 2.055851,5.11327 0,2.090993 -1.247568,4.181987 -1.229996,2.090993 -3.479131,4.515842 l -6.7298362,7.327263 0.035143,0.08786 9.0843995,0 0.281142,-2.93442 2.93442,0 0,5.640411 -16.5698051,0 z" /><path
         id="path4615"
         style="font-style:normal;font-variant:normal;font-weight:normal;font-stretch:normal;font-family:'Roboto Slab';-inkscape-font-specification:'Roboto Slab';fill:#333333"
         d="m 40.774621,54.24669 q 0,4.902413 -2.17885,7.520548 -2.17885,2.600563 -5.956695,2.600563 -3.760274,0 -5.956696,-2.618135 -2.196421,-2.618134 -2.196421,-7.502976 l 0,-6.062123 q 0,-4.884842 2.17885,-7.502977 2.17885,-2.635706 5.939124,-2.635706 3.777845,0 5.974267,2.635706 2.196421,2.618135 2.196421,7.502977 l 0,6.062123 z m -3.46156,-6.800121 q 0,-3.32099 -1.212425,-4.99027 -1.194853,-1.686852 -3.496703,-1.686852 -2.266707,0 -3.461561,1.686852 -1.194853,1.66928 -1.194853,4.99027 l 0,7.502976 q 0,3.32099 1.212425,5.025413 1.212425,1.686852 3.479132,1.686852 2.30185,0 3.479132,-1.686852 1.194853,-1.686852 1.194853,-5.025413 l 0,-7.502976 z" /><path
         id="path4617"
         style="font-style:normal;font-variant:normal;font-weight:normal;font-stretch:normal;font-family:'Roboto Slab';-inkscape-font-specification:'Roboto Slab';fill:#333333"
         d="m 45.009322,61.784809 3.953559,-0.491998 0,-19.170368 -4.023845,0.07029 0,-2.161278 7.485405,-1.616567 0,22.877928 3.935988,0.491998 0,2.213993 -11.351107,0 0,-2.213993 z" /><path
         id="path4619"
         style="font-style:normal;font-variant:normal;font-weight:normal;font-stretch:normal;font-family:'Roboto Slab';-inkscape-font-specification:'Roboto Slab';fill:#333333"
         d="m 76.128223,54.24669 q 0,4.902413 -2.17885,7.520548 -2.178851,2.600563 -5.956696,2.600563 -3.760274,0 -5.956695,-2.618135 Q 59.83956,59.131532 59.83956,54.24669 l 0,-6.062123 q 0,-4.884842 2.17885,-7.502977 2.178851,-2.635706 5.939124,-2.635706 3.777846,0 5.974267,2.635706 2.196422,2.618135 2.196422,7.502977 l 0,6.062123 z m -3.461561,-6.800121 q 0,-3.32099 -1.212424,-4.99027 -1.194854,-1.686852 -3.496704,-1.686852 -2.266707,0 -3.46156,1.686852 -1.194853,1.66928 -1.194853,4.99027 l 0,7.502976 q 0,3.32099 1.212424,5.025413 1.212425,1.686852 3.479132,1.686852 2.30185,0 3.479132,-1.686852 1.194853,-1.686852 1.194853,-5.025413 l 0,-7.502976 z" /></g></g></svg>