<?xml version="1.0" encoding="UTF-8" standalone="no"?>
<!-- Created with Inkscape (http://www.inkscape.org/) -->

<svg
   xmlns:dc="http://purl.org/dc/elements/1.1/"
   xmlns:cc="http://creativecommons.org/ns#"
   xmlns:rdf="http://www.w3.org/1999/02/22-rdf-syntax-ns#"
   xmlns:svg="http://www.w3.org/2000/svg"
   xmlns="http://www.w3.org/2000/svg"
   xmlns:xlink="http://www.w3.org/1999/xlink"
   xmlns:sodipodi="http://sodipodi.sourceforge.net/DTD/sodipodi-0.dtd"
   xmlns:inkscape="http://www.inkscape.org/namespaces/inkscape"
   width="210.51382mm"
   height="40.976852mm"
   viewBox="0 0 210.51382 40.976853"
   version="1.1"
   id="svg5331"
   inkscape:version="0.92.0 r15299"
   sodipodi:docname="megaman logo udb red.svg">
  <defs
     id="defs5325">
    <linearGradient
       inkscape:collect="always"
       xlink:href="#linearGradient4625"
       id="linearGradient4639"
       gradientUnits="userSpaceOnUse"
       x1="48.567127"
       y1="311.68964"
       x2="48.567127"
       y2="338.36124"
       gradientTransform="matrix(1.0332847,0,0,1.0332847,-707.82181,-509.12307)" />
    <linearGradient
       inkscape:collect="always"
       id="linearGradient4625">
      <stop
         style="stop-color:#027ac6;stop-opacity:1"
         offset="0"
         id="stop4621" />
      <stop
         id="stop4633"
         offset="0.18727511"
         style="stop-color:#26aae1;stop-opacity:1" />
      <stop
         id="stop4629"
         offset="0.44432148"
         style="stop-color:#b1dff6;stop-opacity:1" />
      <stop
         style="stop-color:#e3f3fc;stop-opacity:1"
         offset="0.56097198"
         id="stop4631" />
      <stop
         style="stop-color:#ffffff;stop-opacity:1"
         offset="1"
         id="stop4623" />
    </linearGradient>
  </defs>
  <sodipodi:namedview
     id="base"
     pagecolor="#ffffff"
     bordercolor="#666666"
     borderopacity="1.0"
     inkscape:pageopacity="0.0"
     inkscape:pageshadow="2"
     inkscape:zoom="1.4"
     inkscape:cx="301.0168"
     inkscape:cy="13.528395"
     inkscape:document-units="mm"
     inkscape:current-layer="layer1"
     showgrid="false"
     fit-margin-top="0"
     fit-margin-left="0"
     fit-margin-right="0"
     fit-margin-bottom="0"
     inkscape:window-width="1920"
     inkscape:window-height="1137"
     inkscape:window-x="1912"
     inkscape:window-y="-8"
     inkscape:window-maximized="1" />
  <metadata
     id="metadata5328">
    <rdf:RDF>
      <cc:Work
         rdf:about="">
        <dc:format>image/svg+xml</dc:format>
        <dc:type
           rdf:resource="http://purl.org/dc/dcmitype/StillImage" />
        <dc:title />
      </cc:Work>
    </rdf:RDF>
  </metadata>
  <g
     inkscape:label="Layer 1"
     inkscape:groupmode="layer"
     id="layer1"
     transform="translate(684.53344,188.19091)">
    <g
       id="g4507">
      <path
         sodipodi:nodetypes="cccc"
         inkscape:connector-curvature="0"
         id="path4641"
         d="m -684.53344,-180.58416 37.52061,33.3701 172.99322,-33.3701 z"
         style="fill:#e70012;fill-opacity:1;fill-rule:evenodd;stroke:none;stroke-width:0.26458335px;stroke-linecap:butt;stroke-linejoin:miter;stroke-opacity:1" />
      <path
         style="fill:#88deff;fill-opacity:1;stroke:#333333;stroke-width:0.21166667;stroke-miterlimit:4;stroke-dasharray:none"
         d="m -505.94381,-188.14892 c -0.31669,-0.0103 -0.55545,0.0171 -0.8234,0.0242 -0.001,4e-5 -0.003,-3e-5 -0.004,0 h -1.62258 c -0.19423,3.9e-4 -0.38786,0.0571 -0.55297,0.15944 -0.48693,0.30092 -0.44168,0.4461 -0.52875,0.59736 -0.0996,0.17307 -0.20063,0.37568 -0.32089,0.63168 -0.24069,0.51236 -0.55011,1.23262 -0.9465,2.20381 -0.7928,1.94246 -1.92738,4.87867 -3.46917,8.99684 -0.38254,1.02175 -0.72978,1.96218 -0.98283,2.6599 -0.12652,0.3488 -0.22959,0.63747 -0.30272,0.84762 -0.0365,0.10484 -0.0658,0.18949 -0.0888,0.26033 -0.0117,0.036 -0.0218,0.066 -0.0322,0.10292 -0.005,0.0187 -0.0104,0.0412 -0.0182,0.0747 -0.003,0.0145 -0.008,0.0349 -0.0141,0.0686 -0.004,0.0237 -0.007,0.0627 -0.0103,0.10096 -0.003,0.0382 -0.006,0.0761 -0.006,0.0767 v 0.002 c 0,0.001 0.11857,0.48539 0.11907,0.48637 1.3e-4,2.5e-4 0.0207,0.0338 0.0424,0.0686 0.0217,0.0348 0.0454,0.074 0.0666,0.10095 0.0368,0.0468 0.0725,0.0846 0.10696,0.11705 0.13501,0.12702 0.23781,0.17216 0.30474,0.20181 0.13897,0.0616 0.21284,0.0708 0.26437,0.0807 0.11319,0.0219 0.18429,0.027 0.26438,0.0322 0.16287,0.0108 0.34905,0.0148 0.57315,0.0142 0.44807,-0.001 1.04023,-0.0197 1.69321,-0.0545 0.76109,-0.0405 1.27149,-0.0481 1.73156,-0.0989 0.46264,-0.0511 0.97363,-0.18733 1.36628,-0.52674 0.38579,-0.33345 0.59973,-0.67153 0.82542,-1.10593 0.22568,-0.43441 0.46533,-0.96682 0.90815,-1.70734 a 0.05803513,0.05803513 0 0 0 0.002,-0.002 l 0.56104,-0.93641 3.57816,3.30773 c 0.20184,0.18677 0.47995,0.29039 0.75477,0.28051 l 2.19573,-0.0787 c 0.003,2e-5 0.006,2e-5 0.0103,0 a 0.05803513,0.05803513 0 0 0 0.002,0 c 1.2149,-0.0578 1.7297,-0.0448 2.18967,-0.10292 0.23236,-0.0293 0.57033,-0.10773 0.85166,-0.36125 0.13844,-0.12473 0.22327,-0.23569 0.27648,-0.32694 0.0532,-0.0912 0.0779,-0.16452 0.0928,-0.19374 0.12172,-0.23795 0.18844,-0.4235 0.36529,-0.85568 0.1772,-0.43306 0.41274,-1.01686 0.68616,-1.70129 0.54684,-1.36885 1.245,-3.14081 1.92934,-4.90205 0.68433,-1.76122 1.35333,-3.50926 1.84255,-4.83948 0.24461,-0.66509 0.44393,-1.22522 0.58123,-1.64075 0.0686,-0.20775 0.12168,-0.37702 0.16145,-0.52875 0.0195,-0.0744 0.0375,-0.14277 0.0525,-0.24621 0.007,-0.0496 0.0181,-0.11247 0.0141,-0.22603 -0.002,-0.0558 -0.006,-0.13114 -0.0364,-0.2442 -0.0151,-0.057 -0.0379,-0.12669 -0.0787,-0.20786 -0.0245,-0.0488 -0.0724,-0.1113 -0.11504,-0.16751 -0.0213,-0.0281 -0.0397,-0.054 -0.0544,-0.0726 -0.007,-0.009 -0.0138,-0.0168 -0.0182,-0.0222 -0.004,-0.005 -0.012,-0.012 -0.0121,-0.0121 -0.19499,-0.19546 -0.4686,-0.31053 -0.74469,-0.31079 h -4.87985 c -0.18463,2.8e-4 -0.36916,0.0504 -0.52875,0.14329 -0.15959,0.0929 -0.29397,0.22913 -0.38547,0.3895 l -2.2381,3.90912 c -0.49723,-0.45979 -1.14769,-1.10485 -1.82036,-1.8143 -1.27179,-1.34132 -1.91682,-1.98732 -2.66192,-2.36727 -0.37597,-0.19172 -0.78524,-0.2739 -1.11603,-0.28455 z m -123.09206,0.0161 a 0.05803513,0.05803513 0 0 0 -0.0101,0.004 c -0.002,-1e-5 -0.002,0 -0.004,0 -0.10493,7e-5 -0.24458,0.008 -0.38345,0.0485 -0.27947,0.0801 -0.63125,0.31369 -0.82743,0.66195 -0.11616,0.20619 -0.10795,0.2313 -0.14935,0.34107 -0.0436,0.11552 -0.0944,0.25739 -0.15539,0.42985 -0.12209,0.34512 -0.27978,0.80588 -0.46014,1.334 -0.3607,1.05623 -0.81164,2.38999 -1.23106,3.61245 -0.83864,2.44436 -2.61261,7.52284 -3.9394,11.27532 -0.66586,1.88322 -1.27102,3.64435 -1.71137,4.96663 -0.22018,0.66114 -0.39818,1.2128 -0.52472,1.62257 -0.0632,0.20476 -0.11559,0.37182 -0.15338,0.51059 -0.0188,0.069 -0.0342,0.13116 -0.0484,0.19577 -0.0117,0.0528 -0.0383,0.0907 -0.0383,0.30473 0,0.25557 0.10424,0.52107 0.2563,0.74873 0.15206,0.22766 0.35148,0.4183 0.55499,0.51664 0.39107,0.18898 0.74112,0.20988 1.11401,0.20988 0.51589,0 1.72719,-0.0746 3.43083,-0.18364 1.70376,-0.10912 3.82949,-0.25423 5.92322,-0.40565 2.09371,-0.15142 4.1537,-0.30827 5.72343,-0.43592 0.78483,-0.0639 1.44658,-0.11953 1.93337,-0.16548 0.24362,-0.023 0.4409,-0.0447 0.59535,-0.0626 0.14529,-0.0168 0.13558,0.0182 0.45004,-0.0787 0.56547,-0.17427 0.62651,-0.41499 0.74268,-0.56912 0.12945,-0.17175 0.2403,-0.35225 0.35519,-0.557 0.23001,-0.40989 0.46537,-0.91023 0.6902,-1.4349 0.22487,-0.52475 0.43533,-1.06934 0.59535,-1.56405 0.15202,-0.46999 0.27756,-0.84244 0.28859,-1.31986 1.3e-4,3e-5 0.002,0 0.002,0 1.7e-4,-5.4e-4 0.002,-0.009 0.002,-0.0121 0.003,-0.0209 0.007,-0.0561 0.0121,-0.13521 0.006,-0.089 -0.006,-0.24104 -0.0525,-0.41171 -0.0466,-0.17066 -0.1284,-0.35899 -0.27043,-0.50856 -0.27617,-0.29083 -0.55327,-0.35015 -0.75479,-0.39152 -0.20575,-0.0423 -0.40383,-0.0584 -0.65589,-0.0686 -1.00978,-0.0409 -2.94333,0.0372 -7.23905,0.2442 -1.10487,0.0532 -1.90312,0.0858 -2.41974,0.0787 -0.0944,-0.001 -0.12467,0.002 -0.13723,0.002 -3.8e-4,0 -0.002,-1e-5 -0.002,0 0.0441,-0.16461 0.078,-0.29538 0.15338,-0.58325 l 0.002,-0.004 v -0.002 a 0.05803513,0.05803513 0 0 0 0.002,-0.004 c 0.23242,-0.86801 0.37648,-1.49876 0.49646,-1.85871 0.0606,-0.18187 0.10227,-0.27432 0.12714,-0.31886 0.0124,-0.0223 0.0204,-0.0325 0.0242,-0.0364 0.004,-0.004 8.7e-4,-0.002 0.0101,-0.008 -0.009,0.005 0.0127,-0.005 0.0424,-0.0142 0.0297,-0.009 0.074,-0.022 0.13521,-0.0343 0.12235,-0.0247 0.3113,-0.0503 0.58526,-0.0625 0.54923,-0.0245 1.38472,-0.008 2.54487,-0.008 1.21032,0 2.3554,0.0188 3.22901,0.0283 0.43692,0.005 0.80354,0.006 1.08979,0.002 0.1432,-0.002 0.26456,-0.005 0.3774,-0.0121 0.0937,-0.006 0.13402,0.0416 0.47426,-0.0888 0.27897,-0.10726 0.50811,-0.33912 0.61149,-0.61956 l 1.54791,-4.19974 c 0.0599,-0.1623 0.0596,-0.36561 0.0242,-0.557 -0.0354,-0.19138 -0.10602,-0.36981 -0.20181,-0.48638 -0.17751,-0.21596 -0.32945,-0.27278 -0.41372,-0.30876 -0.17983,-0.0768 -0.25983,-0.0798 -0.3229,-0.0888 -0.13967,-0.0199 -0.24282,-0.0231 -0.3673,-0.0263 -0.25118,-0.006 -0.57182,-0.003 -0.96467,0.004 -0.78559,0.0143 -1.84966,0.0424 -3.005,0.0424 -1.39912,0 -2.42103,0.0112 -3.116,-0.0103 -0.39819,-0.0122 -0.49491,-0.0329 -0.60746,-0.0545 0.0526,-0.21481 0.1153,-0.45468 0.23612,-0.90412 v -0.002 c 0.20794,-0.69451 0.28083,-1.20399 0.33098,-1.40664 0.0678,-0.0171 0.2052,-0.0433 0.44802,-0.0646 0.26027,-0.0228 0.622,-0.0411 1.09383,-0.0464 0.97362,-0.0109 2.38934,0.007 4.39953,0.006 1.61648,-0.001 3.1222,-0.0276 4.25625,-0.0666 0.56701,-0.0195 1.03866,-0.0418 1.39856,-0.0686 0.17958,-0.0134 0.33182,-0.0278 0.46821,-0.0464 0.0681,-0.009 0.13018,-0.0188 0.20787,-0.0364 0.03,-0.007 0.0708,-0.007 0.1332,-0.0262 0.0624,-0.019 0.14443,-0.0563 0.27043,-0.13723 0.25379,-0.16302 0.29837,-0.26653 0.35721,-0.34511 0.0661,-0.0883 0.12027,-0.17121 0.17557,-0.26235 0.11094,-0.18284 0.22573,-0.39611 0.34914,-0.63975 0.24691,-0.48744 0.52337,-1.09369 0.77295,-1.69928 0.2495,-0.60542 0.4705,-1.19962 0.60544,-1.7154 0.067,-0.256 0.12385,-0.48195 0.12108,-0.79112 -10e-4,-0.14999 -0.002,-0.35465 -0.15539,-0.63772 -0.0818,-0.15094 -0.23975,-0.29643 -0.42381,-0.40969 -0.18406,-0.11326 -0.39352,-0.19374 -0.58526,-0.19374 h -9.27938 -9.15426 a 0.05803513,0.05803513 0 0 0 -0.006,0 z m -31.76947,0.008 c -0.19473,-1.7e-4 -0.3893,0.0551 -0.55498,0.15742 -0.16568,0.1023 -0.30247,0.25163 -0.3895,0.42583 l -6.7325,13.47507 a 0.05803513,0.05803513 0 0 0 -0.004,0.0121 0.05803513,0.05803513 0 0 0 0,0.004 c -1.84731,3.53404 -3.51261,6.79171 -4.70629,9.20066 -0.59872,1.2083 -1.07951,2.20205 -1.41067,2.92025 -0.16558,0.35909 -0.29353,0.64638 -0.38546,0.87385 -0.0459,0.11349 -0.0817,0.21012 -0.11504,0.31685 -0.0166,0.0532 -0.0326,0.11005 -0.0484,0.19778 -0.005,0.0254 -0.0359,0.0771 -0.0424,0.16952 -0.007,0.0924 0.0122,0.22187 0.0928,0.43188 0.13832,0.36045 0.4972,0.67142 0.80523,0.79514 0.29847,0.1199 0.56423,0.14977 0.87385,0.17154 0.62179,0.0437 1.46595,0.0178 2.83346,-0.0464 0.93348,-0.0438 1.83482,-0.11003 2.55092,-0.18568 0.35817,-0.0378 0.67033,-0.0805 0.92835,-0.1231 0.24928,-0.0411 0.37375,-0.0108 0.7568,-0.20787 0.37948,-0.19525 0.39759,-0.31599 0.48031,-0.41774 0.0946,-0.11632 0.18622,-0.24189 0.28658,-0.38951 0.20086,-0.29544 0.43649,-0.6759 0.70634,-1.13016 0.53986,-0.90879 1.20534,-2.1089 1.88091,-3.40055 0.66117,-1.26413 1.30729,-2.41209 1.80017,-3.22498 0.0656,-0.10811 0.108,-0.17218 0.15943,-0.25024 0.0616,0.0874 0.1211,0.1622 0.17962,0.26639 0.24857,0.44258 0.51883,0.83888 0.79514,1.16244 0.13786,0.16142 0.27523,0.30477 0.44399,0.43996 0.15696,0.12572 0.34488,0.34473 0.88193,0.34509 0.4577,3.2e-4 0.45958,-0.0874 0.557,-0.12512 0.12181,-0.0471 0.25255,-0.10337 0.40565,-0.17356 0.30596,-0.14026 0.69582,-0.33156 1.15841,-0.5671 0.92527,-0.47111 2.13169,-1.11479 3.40862,-1.82237 1.22337,-0.6779 2.37167,-1.27455 3.24315,-1.69725 -0.30479,1.09367 -0.84599,2.82233 -1.891,6.03019 -0.23683,0.72696 -0.39417,1.29179 -0.47224,1.77595 -0.0389,0.24151 -0.0635,0.46536 -0.0424,0.71846 0.021,0.25157 0.0845,0.59709 0.39555,0.90816 0.20355,0.20355 0.34226,0.28706 0.45408,0.31886 0.11182,0.0318 0.18742,0.0124 0.24016,0.0222 0.14156,0.0264 0.26836,0.0387 0.4117,0.0485 0.28755,0.0194 0.63235,0.0255 1.03126,0.0222 0.7977,-0.007 1.80704,-0.0493 2.81934,-0.11302 1.01233,-0.0636 2.02138,-0.14846 2.82135,-0.24217 0.39992,-0.0469 0.74424,-0.0962 1.03127,-0.15136 0.1435,-0.0276 0.27279,-0.0575 0.40766,-0.0989 0.0553,-0.0169 0.12398,-0.0153 0.21998,-0.0545 0.096,-0.0393 0.2138,-0.11733 0.37941,-0.29061 0.29882,-0.31266 0.22582,-0.33517 0.25024,-0.38749 0.039,-0.0837 0.0771,-0.17328 0.12109,-0.28051 0.0884,-0.21533 0.19791,-0.5004 0.33098,-0.85367 0.26612,-0.70653 0.62215,-1.68234 1.03732,-2.84356 0.8303,-2.32234 1.89804,-5.37907 2.95051,-8.43176 1.05247,-3.05268 2.08859,-6.09924 2.85364,-8.4035 0.38252,-1.15213 0.69731,-2.11748 0.91422,-2.81127 0.1085,-0.34706 0.19181,-0.62487 0.25024,-0.83551 0.029,-0.1046 0.053,-0.19124 0.0726,-0.28254 0.01,-0.0448 0.0197,-0.09 0.0283,-0.16548 0.004,-0.0373 0.009,-0.0855 0.006,-0.16953 -10e-4,-0.041 -0.004,-0.0974 -0.0202,-0.17759 -0.0105,-0.0537 -0.0435,-0.13089 -0.0747,-0.20585 -0.0156,-0.0375 -0.0291,-0.0732 -0.0404,-0.0989 -0.006,-0.0129 -0.0108,-0.0228 -0.0141,-0.0303 -0.002,-0.004 -0.003,-0.006 -0.004,-0.008 -4.7e-4,-0.001 -0.002,-0.003 -0.002,-0.004 l -0.004,-0.006 c -0.0937,-0.15242 -0.22526,-0.27993 -0.38142,-0.3673 -0.15616,-0.0874 -0.33569,-0.13505 -0.51463,-0.13522 h -3.73153 -3.57613 c -0.18268,5.9e-4 -0.36444,0.05 -0.5227,0.14127 l -9.94133,5.69316 -2.98885,-5.29761 c -0.0913,-0.16176 -0.22706,-0.29989 -0.38749,-0.39352 -0.16042,-0.0936 -0.34501,-0.14334 -0.53077,-0.1433 z m 62.68326,0 c -4.91467,-0.002 -9.44993,3.0239 -12.27834,8.76678 -1.38497,2.8121 -1.79698,4.50849 -1.80623,7.4449 -0.0125,3.952 1.59013,7.09897 4.60539,8.62348 2.36088,1.19366 5.5297,1.05492 8.21582,-0.19172 2.17408,-1.00901 4.6218,-3.23898 6.01404,-5.4086 0.54556,-0.85016 1.23422,-2.26351 1.83046,-3.61246 0.29817,-0.67466 0.56616,-1.32542 0.76688,-1.86678 0.10033,-0.27069 0.1844,-0.51354 0.24824,-0.73258 0.0625,-0.21432 0.12512,-0.37152 0.12512,-0.69625 0,-0.0484 0.007,-0.13376 -0.0121,-0.29667 -0.0204,-0.16888 -0.0996,-0.46271 -0.31281,-0.69827 -0.41602,-0.45974 -0.82553,-0.43751 -1.1342,-0.45812 -0.63677,-0.0425 -1.59017,-0.002 -3.64676,-0.002 h -4.0504 c -0.20896,9e-5 -0.41827,0.0645 -0.59131,0.18163 -0.17305,0.11713 -0.30975,0.28636 -0.38748,0.48032 l -0.42382,1.05549 c -0.13478,0.3363 -0.23938,0.66263 -0.30877,0.96062 -0.0346,0.14867 -0.0621,0.29095 -0.0747,0.45206 -0.005,0.0671 -0.0352,0.14981 -0.0282,0.27447 0.007,0.12467 0.0524,0.2857 0.19374,0.51866 0.1654,0.2725 0.30784,0.39848 0.43391,0.46014 0.12606,0.0617 0.22942,0.0579 0.29464,0.0787 0.16341,0.0523 0.31386,0.0804 0.47427,0.10494 0.0887,0.0136 0.18653,0.0176 0.28253,0.0222 -0.4965,0.56515 -1.05261,1.2011 -1.44095,1.40261 -0.005,0.001 -0.0118,0.002 -0.0202,0.004 -0.0221,0.005 -0.0536,0.0109 -0.0948,0.0202 -0.0825,0.0185 -0.19925,0.0446 -0.33097,0.0707 -0.26345,0.0521 -0.58935,0.10495 -0.81331,0.10495 -0.68308,0 -1.1657,-0.29043 -1.55598,-0.89808 -0.38841,-0.60473 -0.61314,-1.54631 -0.46215,-2.672 0.0899,-0.67022 0.49216,-1.70486 0.97879,-2.66193 0.48663,-0.95706 1.06205,-1.843 1.47929,-2.21994 0.88164,-0.79652 1.56205,-1.14845 2.07465,-1.22905 0.51656,-0.0812 0.9745,0.0324 1.67909,0.52068 0.58695,0.40675 1.21523,0.64575 1.84659,0.67002 0.62434,0.024 1.24984,-0.0504 2.52872,-0.0504 h 2.71237 c 0.30175,-1.9e-4 0.60013,-0.13877 0.79717,-0.3673 0.19704,-0.22853 0.28843,-0.54308 0.24419,-0.84156 l -0.17961,-1.22501 a 0.05803513,0.05803513 0 0 0 0,-0.002 c -6.9e-4,-0.004 -10e-4,-0.008 -0.002,-0.0121 -0.31385,-1.96274 -1.26821,-3.54809 -2.67605,-4.5751 -1.40719,-1.02656 -3.20925,-1.49835 -5.19467,-1.49949 z m 19.96741,0 c -0.18101,1.9e-4 -0.36121,0.0479 -0.51866,0.13724 -0.15743,0.0893 -0.29246,0.22008 -0.38546,0.37537 l -1.41269,2.35718 c -1.63329,2.52469 -4.46831,6.98804 -6.9222,10.87976 -1.23044,1.9514 -2.36216,3.75573 -3.19673,5.09579 -0.41732,0.6701 -0.76063,1.22451 -1.00503,1.6246 -0.12211,0.19991 -0.22008,0.35954 -0.29263,0.48234 -0.0363,0.0614 -0.0648,0.11294 -0.0908,0.15942 -0.0208,0.037 -0.0346,0.033 -0.10095,0.20585 -0.0508,0.1325 -0.10814,0.3286 -0.0807,0.58526 0.028,0.26237 0.17227,0.54338 0.34711,0.71644 0.3365,0.33306 0.62032,0.35766 0.85368,0.39959 0.48282,0.0867 1.05021,0.0968 2.02014,0.0968 0.76978,0 1.33885,0.0283 1.82238,0 0.48353,-0.0283 0.88298,-0.1155 1.29968,-0.34712 0.4163,-0.2314 0.68171,-0.50718 0.93641,-0.85165 0.2547,-0.34448 0.50037,-0.75778 0.88596,-1.27546 0.0906,-0.12167 0.15829,-0.2044 0.20384,-0.25832 0.0227,-0.027 0.0408,-0.0478 0.0525,-0.0606 0.006,-0.006 0.009,-0.0112 0.0121,-0.0142 3e-5,-2e-5 -1.5e-4,-0.002 0,-0.002 2.5e-4,-1.3e-4 0.002,1.7e-4 0.002,0 0.0117,-0.004 0.0544,-0.0153 0.15539,-0.0303 0.39294,-0.0585 1.48457,-0.0606 3.61044,-0.15338 l 3.26938,-0.14328 0.0888,0.91623 c 0.0251,0.25912 0.15169,0.50586 0.34509,0.68011 0.19341,0.17426 0.45209,0.27439 0.71241,0.27244 l 2.62761,-0.0222 c 1.44637,-0.0127 2.29665,0.0223 3.13012,-0.39959 0.42679,-0.21602 0.81433,-0.68042 0.92835,-1.14832 0.10679,-0.43816 0.0557,-0.80581 -0.008,-1.1685 4e-5,-1.6e-4 0.002,-0.006 0.002,-0.006 1.3e-4,-8.7e-4 -3e-5,-0.009 0,-0.0121 6e-5,-0.006 4.1e-4,-0.0124 0,-0.0202 -0.002,-0.0313 -0.006,-0.0888 -0.0121,-0.16548 -0.0123,-0.1534 -0.0306,-0.38348 -0.0424,-0.62764 -0.0237,-0.49019 -0.0513,-1.16338 -0.0787,-1.96364 -0.0548,-1.60068 -0.11328,-3.71876 -0.16145,-5.95956 -0.0484,-2.24916 -0.10662,-4.34693 -0.16348,-5.92322 -0.0284,-0.78817 -0.0568,-1.44516 -0.0828,-1.92934 -0.0129,-0.24184 -0.0237,-0.43959 -0.0363,-0.59737 -0.012,-0.14923 0.0159,-0.1687 -0.0686,-0.4682 -0.07,-0.24798 -0.26729,-0.6142 -0.57113,-0.84359 -0.29847,-0.22531 -0.6176,-0.32614 -0.97073,-0.39959 -0.70718,-0.14709 -1.67084,-0.19374 -3.35818,-0.19374 z m 21.84429,0 c -0.78392,-4.3e-4 -1.42926,0.1852 -1.90713,0.51867 -0.47836,0.33379 -0.73521,0.78717 -0.85771,1.09786 -0.42162,1.06917 -2.13776,5.58962 -3.76181,9.88482 -0.81202,2.14759 -1.59973,4.23268 -2.18362,5.788 -0.29196,0.77772 -0.53142,1.42192 -0.70029,1.87687 -0.0844,0.22743 -0.1513,0.40687 -0.19778,0.53481 -0.0235,0.0645 -0.0404,0.11688 -0.0544,0.15741 -0.006,0.0178 -0.0139,0.0345 -0.0222,0.0605 -0.003,0.011 -0.009,0.0233 -0.0161,0.0485 -0.003,0.0122 -0.007,0.0303 -0.0141,0.0606 -0.003,0.0148 -0.005,0.0302 -0.008,0.0525 -0.003,0.0223 -0.005,0.0471 -0.008,0.0726 -0.005,0.0511 -0.0103,0.10478 -0.0103,0.10494 0,9.7e-4 0.13871,0.52174 0.13926,0.5227 1.3e-4,2.4e-4 0.0213,0.0325 0.0444,0.0667 0.0231,0.0341 0.0487,0.0731 0.0707,0.0989 0.0377,0.0442 0.0737,0.0797 0.10695,0.10898 0.13099,0.11534 0.22407,0.15187 0.28254,0.17759 0.12469,0.0549 0.18953,0.066 0.23814,0.0767 0.10495,0.0229 0.17606,0.0316 0.25832,0.0404 0.16607,0.0177 0.36281,0.0316 0.60141,0.0424 0.47681,0.0216 1.11204,0.0343 1.81229,0.0343 0.85938,0 1.5376,-0.0285 2.07665,-0.0968 0.26926,-0.0342 0.5036,-0.078 0.73864,-0.15338 0.22843,-0.0733 0.51312,-0.15374 0.79111,-0.5227 0.23028,-0.30559 0.22278,-0.38165 0.32088,-0.60342 0.10096,-0.2283 0.22111,-0.5171 0.35721,-0.85568 0.2723,-0.67742 0.60687,-1.55304 0.94247,-2.47222 0.34097,-0.93391 0.61789,-1.6418 0.83954,-2.11097 0.0495,-0.10478 0.0607,-0.11145 0.0787,-0.13723 0.0668,0.0777 0.1082,0.11565 0.21998,0.28456 l 0.74469,1.12611 c 0.14568,0.22056 0.37663,0.38247 0.6337,0.44399 0.25706,0.0615 0.53714,0.0217 0.76689,-0.10898 l 1.58222,-0.89807 c 0.8866,-0.50316 2.3889,-1.38613 3.3723,-1.98382 0.27237,-0.16554 0.50173,-0.29186 0.73863,-0.42381 -0.0485,0.51673 -0.11171,1.09851 -0.32896,2.33094 -0.17367,0.98537 -0.31365,1.89925 -0.39959,2.59533 -0.043,0.34796 -0.0726,0.63874 -0.0868,0.87788 -0.007,0.11919 -0.0112,0.22433 -0.006,0.3451 0.002,0.0591 0.006,0.12495 0.0262,0.22603 0.007,0.0364 0.004,0.10919 0.0383,0.20585 0.0345,0.0966 0.10729,0.21627 0.26437,0.37336 0.12023,0.12005 0.21438,0.18513 0.29263,0.22199 0.0782,0.0369 0.14014,0.0471 0.1776,0.0585 0.091,0.0278 0.15279,0.036 0.20787,0.0444 0.11216,0.0171 0.20791,0.0253 0.3128,0.0303 0.21047,0.0103 0.45767,0.008 0.75076,0.002 0.58658,-0.0131 1.34392,-0.0536 2.16141,-0.11907 l 2.91015,-0.23208 c 0.22275,-0.0175 0.44065,-0.10794 0.60948,-0.2543 0.16884,-0.14634 0.28809,-0.34908 0.33703,-0.56708 l 0.34712,-1.54791 c 0.45972,-2.04601 1.23502,-6.04355 1.88695,-9.58009 0.32597,-1.76827 0.61936,-3.41625 0.82542,-4.6417 0.10302,-0.61278 0.1831,-1.12034 0.23612,-1.49141 0.0265,-0.18546 0.048,-0.33375 0.0606,-0.46215 0.006,-0.063 0.0123,-0.12044 0.0142,-0.19576 8.8e-4,-0.0364 0.002,-0.0801 -0.004,-0.15135 -0.003,-0.0356 -0.009,-0.0814 -0.0242,-0.14936 -0.007,-0.0335 -0.0174,-0.076 -0.0364,-0.12916 -0.0118,-0.033 -0.0353,-0.0789 -0.0565,-0.12108 -0.0212,-0.0421 -0.0422,-0.0804 -0.0424,-0.0807 -0.0937,-0.15242 -0.22527,-0.27992 -0.38143,-0.3673 -0.15616,-0.0874 -0.33568,-0.13505 -0.51462,-0.13521 h -5.54987 c -0.21732,4.4e-4 -0.43467,0.0714 -0.6115,0.19778 l -3.57612,2.53679 -2.48433,1.53581 -2.94647,-3.85464 c -0.19581,-0.25636 -0.51496,-0.41555 -0.83753,-0.41574 z m 30.37493,0 c -0.2404,-5e-5 -0.47963,0.0863 -0.66598,0.23814 -0.57795,0.4708 -0.98026,1.10431 -1.63267,2.04841 -0.65371,0.946 -1.42015,2.12625 -2.18968,3.33396 -1.53908,2.41547 -3.08742,4.9531 -3.65685,5.8647 -1.15652,1.73805 -2.20946,3.33954 -2.97474,4.52263 -0.38478,0.59488 -0.69788,1.08542 -0.91825,1.43893 -0.11027,0.1769 -0.19649,0.31712 -0.26235,0.42986 -0.0328,0.056 -0.0618,0.10556 -0.0908,0.16145 -0.0139,0.0267 -0.0272,0.0551 -0.0485,0.10495 -0.0106,0.025 -0.0239,0.0565 -0.0404,0.10898 -0.008,0.026 -0.0185,0.0593 -0.0282,0.10696 -0.006,0.0306 -0.0117,0.0795 -0.0161,0.12513 -0.004,0.0457 -0.008,0.0904 -0.008,0.0908 0,0.21624 0.0848,0.42037 0.19374,0.58526 0.10887,0.1649 0.24001,0.29127 0.34914,0.35519 0.2013,0.11792 0.33073,0.13245 0.41977,0.14732 0.18841,0.0315 0.30686,0.0276 0.42986,0.0242 0.25009,-0.007 0.51432,-0.0318 0.8012,-0.0545 l 2.24821,-0.17759 c 0.008,-6.3e-4 0.0164,-0.001 0.0242,-0.002 0.61042,-0.0622 0.85354,-0.0601 1.21492,-0.15338 0.18939,-0.0489 0.45792,-0.17726 0.63168,-0.34712 0.13624,-0.13317 0.17011,-0.2015 0.19778,-0.24621 0.56955,-0.7019 0.90509,-1.14149 1.07566,-1.29968 0.11394,-0.10551 0.17137,-0.15479 0.20585,-0.1776 0.0345,-0.0228 0.0454,-0.0227 0.0929,-0.0343 0.0354,-0.008 0.13213,-0.0185 0.28052,-0.0283 0.1484,-0.009 0.3504,-0.0201 0.61351,-0.0322 0.54396,-0.0251 1.26249,-0.0564 2.25023,-0.10494 l 2.76484,-0.13723 v 0.66396 c -2.1e-4,0.27626 0.11342,0.55136 0.30878,0.74671 0.19534,0.19535 0.47044,0.30898 0.7467,0.30877 h 2.05648 c 0.9718,0 1.49075,0.0158 1.9697,-0.0424 0.49109,-0.0596 1.01631,-0.35638 1.2795,-0.61957 0.21883,-0.21883 0.41415,-0.58733 0.49646,-0.94852 0.0811,-0.35593 0.11138,-0.74735 0.12714,-1.3239 0.0315,-1.15383 -0.0151,-3.05046 -0.13522,-6.46005 -0.0733,-2.08099 -0.11866,-4.12849 -0.17154,-5.66692 -0.0265,-0.76918 -0.054,-1.40801 -0.0908,-1.88292 -0.0184,-0.23719 -0.0382,-0.42901 -0.0707,-0.61352 -0.0158,-0.0897 -0.0282,-0.17816 -0.0828,-0.3229 -0.026,-0.0689 -0.0606,-0.16834 -0.17356,-0.3128 -0.1173,-0.14992 -0.41037,-0.41776 -0.84963,-0.41776 z m 1.25529,7.27739 c -0.005,0.47468 -0.003,0.81892 -0.0485,2.07868 l -0.0485,1.3683 h -1.28152 -0.83551 c 0.29098,-0.51029 0.61504,-1.06397 1.00907,-1.67909 0.41262,-0.64414 0.82629,-1.24109 1.20483,-1.76789 z m -52.12437,1.34189 c 0.0147,0.51414 0.0319,0.81554 0.0464,1.98585 0.0159,1.28425 -0.005,1.79643 -0.0283,2.13316 -0.0585,0.003 -0.10999,0.005 -0.18567,0.008 -0.46029,0.0148 -1.06283,0.0303 -1.68918,0.0646 -0.32909,0.018 -0.47916,0.0325 -0.69424,0.0504 0.36793,-0.68556 0.86208,-1.5429 1.3804,-2.39956 0.4102,-0.67793 0.8018,-1.28477 1.17053,-1.84256 z"
         id="path4615"
         inkscape:connector-curvature="0" />
      <path
         sodipodi:nodetypes="csccccccccscsscsscccscszccscccsscscsscssscscscssscscccscccssssssscscscscccscscssscssssccccccscscsscsccccsccsscsssscccscssccsssscscssscccccccscccssss"
         inkscape:connector-curvature="0"
         id="path4589"
         d="m -674.11634,-160.31634 c -0.0843,-0.21973 2.87634,-6.1946 6.57922,-13.27751 l 6.73252,-13.47483 h 4.72603 l 3.51012,6.22035 10.86055,-6.22035 h 3.57663 3.73175 c 0.14989,0.24252 -8.15214,24.32586 -8.52346,24.71436 -0.33981,0.35556 -7.99345,0.83646 -8.30788,0.52203 -0.19961,-0.19961 -0.0825,-0.9289 0.37458,-2.33181 2.27299,-6.97741 2.50346,-7.84433 2.12409,-7.98992 -0.20782,-0.0799 -2.45207,1.00439 -4.98723,2.40919 -2.53515,1.40478 -4.7943,2.55403 -5.02032,2.55387 -0.22602,-1.5e-4 -0.76659,-0.63347 -1.20125,-1.40738 -0.43467,-0.77391 -0.96382,-1.4071 -1.1759,-1.4071 -0.21273,0 -1.47411,2.0812 -2.81382,4.64264 -1.33552,2.55347 -2.64301,4.75318 -2.90553,4.88826 -0.26251,0.13507 -1.97344,0.31581 -3.80205,0.40163 -2.71588,0.1275 -3.35283,0.0829 -3.47805,-0.24343 z m 36.49868,-2.50833 c 0,-0.23049 1.08654,-3.49212 2.41453,-7.24804 1.32801,-3.7559 3.10284,-8.8351 3.9441,-11.28707 0.84125,-2.45197 1.80059,-5.33783 1.9161,-5.54288 0.11551,-0.20505 0.31218,-0.1738 0.31218,-0.1738 h 9.15607 9.27886 c 0.60052,0 -1.4365,4.52556 -1.78913,4.75207 -0.17707,0.11375 -2.95024,0.20873 -6.16261,0.2111 -8.01283,0.006 -6.51107,-0.31425 -7.28432,2.2662 -0.67111,2.50464 -1.07426,2.32731 4.49981,2.32731 2.34464,0 4.30404,-0.11327 4.26227,0 l -1.54879,4.20021 c -0.19616,0.0752 -2.35068,0 -4.79298,0 -4.5984,0 -4.07471,-0.27747 -4.98756,3.12934 -0.51517,1.97054 -0.95353,2.04595 3.47485,1.83262 8.58439,-0.41355 7.85448,-0.29035 7.85448,0.16567 0,0.88899 -1.49016,4.36709 -1.92897,4.50232 -0.47738,0.14712 -16.19216,1.28406 -17.74811,1.28406 -0.5835,0 -0.87078,-0.13827 -0.87078,-0.41911 z m 30.49285,-1.40613 c -2.6454,-1.33751 -4.03872,-3.99389 -4.02708,-7.67764 0.009,-2.85415 0.34489,-4.23531 1.69816,-6.98304 2.70002,-5.48222 6.84085,-8.17956 11.33252,-8.1772 3.63852,0.002 6.27689,1.72438 6.83054,5.18673 l 0.17959,1.22476 h -2.71169 c -2.63346,0 -2.7453,0.28166 -3.7761,-0.43268 -1.69007,-1.17121 -3.13635,-0.94414 -5.06093,0.79462 -1.19436,1.07902 -2.56112,3.77936 -2.79483,5.52182 -0.35802,2.66928 0.98969,4.76799 3.06182,4.76799 0.61752,0 1.39944,-0.14216 1.73758,-0.31588 0.91417,-0.46966 2.15912,-1.69167 2.61752,-2.56927 l 0.40432,-0.77407 h -1.25727 c -0.6915,0 -1.3149,-0.0951 -1.38533,-0.2111 -0.0705,-0.11614 0.0623,-0.6861 0.29498,-1.26664 l 0.42302,-1.05554 h 4.05132 c 4.13635,0 4.05131,-0.13458 4.05131,0.39992 0,0.65809 -1.86617,4.87728 -2.80296,6.33711 -1.251,1.94953 -3.69274,4.15119 -5.57024,5.02255 -2.41038,1.11867 -5.32992,1.20173 -7.29625,0.20756 z m 16.03058,-2.19848 c 0.12916,-0.33655 8.27716,-13.25947 11.52782,-18.28336 l 1.41148,-2.35604 h 3.74549 c 3.32652,0 3.76105,0.22969 3.88452,0.66717 0.0765,0.27092 0.21798,4.16586 0.31445,8.65543 0.0965,4.48957 0.23222,8.47951 0.30165,8.86655 0.23287,1.29808 -0.16637,1.50004 -3.01486,1.52505 l -2.62819,0.023 -0.0912,-0.95556 -0.0912,-0.95559 -4.27166,0.18649 c -4.21304,0.18392 -4.09002,-0.0574 -4.83462,0.94229 -1.61266,2.16508 -0.98898,2.04902 -4.09875,2.04902 -1.90944,0 -2.2623,-0.0846 -2.15485,-0.36451 z m 15.06341,-7.95617 c 0.27294,-0.0869 0.36708,0.0109 0.32796,-3.14591 -0.0528,-4.25971 0.0263,-4.29615 -0.65693,-4.29615 -0.43762,0 -4.74944,7.12816 -4.58118,7.56647 0.0953,0.24807 0.75861,0.0865 2.33878,0 1.21323,-0.0663 2.37034,-0.0603 2.57137,-0.12441 z m 11.03435,6.51933 c 0,-0.0884 6.08788,-16.18705 6.90294,-18.25392 0.15305,-0.38815 0.53098,-0.94935 1.78262,-0.94864 h 1.58838 l 3.52544,4.61239 3.32596,-2.05307 3.60397,-2.55932 h 5.55028 c 0.12023,0.19457 -2.08969,12.206 -2.99133,16.21876 l -0.34784,1.54814 -2.91003,0.23313 c -1.60051,0.12822 -2.98472,0.15843 -3.07601,0.0673 -0.0913,-0.0913 0.11389,-1.75356 0.45589,-3.69391 0.59636,-3.3831 0.60134,-4.06552 0.0296,-4.06552 -0.14293,0 -1.05377,0.48253 -2.02408,1.07226 -0.9703,0.58975 -2.47584,1.47617 -3.34564,1.96981 l -1.58145,0.89754 -0.74473,-1.12537 c -1.24254,-1.87758 -1.62868,-1.59752 -3.0086,2.18198 -0.66414,1.81906 -1.32684,3.4657 -1.47265,3.65921 -0.17718,0.23515 -1.09392,0.35185 -2.76397,0.35185 -1.37434,0 -2.49882,-0.0506 -2.49882,-0.11245 z m 27.58481,-1.68397 c 0,-0.0997 1.9017,-3.03884 4.22603,-6.53146 1.16014,-1.85725 6.16055,-10.09868 7.2512,-10.98713 h 6.67146 c 0.20384,0 0.23692,4.01674 0.38414,8.19669 0.23987,6.81028 0.18125,7.59141 -0.17908,7.95174 -0.37708,0.37708 -0.55047,0.35185 -2.50407,0.35185 h -2.05728 v -0.88538 -0.88536 l -3.87032,0.18999 c -0.98503,0.0483 -1.70271,0.0801 -2.24884,0.10527 -1.02137,0.0471 -1.27686,0.009 -1.86248,0.55192 -0.31071,0.28815 -0.62316,0.73199 -1.17847,1.41614 -0.1882,0.26616 -0.0914,0.22873 -1.33003,0.35495 l -2.24672,0.17757 c -0.58662,0.0464 -1.05554,0.0928 -1.05554,-0.007 z m 13.7373,-9.18116 c 0.16407,-4.57145 0.22577,-4.22293 -0.59099,-4.22163 -0.52979,0.001 -4.74091,6.60773 -4.25106,6.60773 h 2.45763 2.29878 z m 9.06238,7.38818 c 0,-0.0652 0.62422,-1.78595 1.38717,-3.82377 3.07978,-8.22619 4.53164,-11.71643 4.83163,-11.90184 h 1.6224 c 1.29587,-0.0272 1.32806,-0.35057 3.84013,2.29883 1.39331,1.46949 2.69576,2.66934 2.89435,2.66633 l 2.84328,-4.96516 h 4.87939 c 0.19385,0.19386 -5.22316,13.87711 -5.51197,14.44177 -0.20796,0.40659 -0.0587,0.29512 -2.51901,0.41206 l -2.19908,0.078 -4.5326,-4.19229 -1.22816,2.0526 c -1.84493,3.08339 -0.87983,2.76318 -3.98534,2.92847 -1.27721,0.068 -2.32219,0.0702 -2.32219,0.005 z"
         style="fill:url(#linearGradient4639);fill-opacity:1;stroke:#000000;stroke-width:0.26458333;stroke-miterlimit:4;stroke-dasharray:none" />
    </g>
  </g>
</svg>
