<?xml version="1.0" encoding="UTF-8" standalone="no"?>
<!-- Created with Inkscape (http://www.inkscape.org/) -->

<svg
   xmlns:dc="http://purl.org/dc/elements/1.1/"
   xmlns:cc="http://creativecommons.org/ns#"
   xmlns:rdf="http://www.w3.org/1999/02/22-rdf-syntax-ns#"
   xmlns:svg="http://www.w3.org/2000/svg"
   xmlns="http://www.w3.org/2000/svg"
   xmlns:sodipodi="http://sodipodi.sourceforge.net/DTD/sodipodi-0.dtd"
   xmlns:inkscape="http://www.inkscape.org/namespaces/inkscape"
   width="148.38087mm"
   height="45.583523mm"
   viewBox="0 0 148.38087 45.583523"
   version="1.1"
   id="svg5331"
   inkscape:version="0.92.0 r15299"
   sodipodi:docname="megaman logo udb.svg">
  <defs
     id="defs5325" />
  <sodipodi:namedview
     id="base"
     pagecolor="#ffffff"
     bordercolor="#666666"
     borderopacity="1.0"
     inkscape:pageopacity="0.0"
     inkscape:pageshadow="2"
     inkscape:zoom="0.7"
     inkscape:cx="821.47423"
     inkscape:cy="-289.98794"
     inkscape:document-units="mm"
     inkscape:current-layer="layer1"
     showgrid="false"
     fit-margin-top="0"
     fit-margin-left="0"
     fit-margin-right="0"
     fit-margin-bottom="0"
     inkscape:window-width="1920"
     inkscape:window-height="1137"
     inkscape:window-x="1912"
     inkscape:window-y="-8"
     inkscape:window-maximized="1" />
  <metadata
     id="metadata5328">
    <rdf:RDF>
      <cc:Work
         rdf:about="">
        <dc:format>image/svg+xml</dc:format>
        <dc:type
           rdf:resource="http://purl.org/dc/dcmitype/StillImage" />
        <dc:title></dc:title>
      </cc:Work>
    </rdf:RDF>
  </metadata>
  <g
     inkscape:label="Layer 1"
     inkscape:groupmode="layer"
     id="layer1"
     transform="translate(680.65595,186.81102)">
    <g
       id="g4975"
       transform="matrix(0.69885916,0,0,0.69885916,-787.27917,-504.35455)"
       style="stroke-width:0.29453808">
      <path
         sodipodi:nodetypes="ccccccsccccccccccccccccccc"
         inkscape:connector-curvature="0"
         id="path1008"
         d="m 265.86367,474.17115 0.38414,6.85006 0.2828,0.56561 1.6968,1.82248 4.46197,3.1108 1.50114,0.12571 c 17.76707,0.28461 19.8524,0.31326 17.43517,-4.84232 l -7.95157,-16.95951 h -10.614 l 2.17745,9.62295 h 1.33313 l 1.15539,0.0888 0.62212,0.35551 0.44446,0.71107 1.55524,4.31039 0.0445,0.9332 -0.48882,0.88875 -0.57769,0.9332 -0.88876,0.22218 -0.84431,-0.0888 -0.84432,-0.3555 -1.02207,-0.84433 -0.39994,-1.0665 -0.97762,-2.84402 -6.09462,-5.9991 z"
         style="fill:#005a00;fill-opacity:1;fill-rule:evenodd;stroke:none;stroke-width:0.37859324px;stroke-linecap:butt;stroke-linejoin:miter;stroke-opacity:1" />
      <path
         sodipodi:nodetypes="cccccccccccccccc"
         inkscape:connector-curvature="0"
         id="path975"
         d="m 285.62887,463.55817 -0.63014,0.8248 -0.0627,0.94145 12.81974,21.42215 9.10705,-0.20553 -3.26007,-5.19956 h 4.77541 l 3.19267,4.65073 h 12.75148 L 303.8969,463.55817 Z m 10.6822,2.07253 h 2.32724 c 0,0 5.40353,9.17436 5.52924,9.48856 l -4.5867,0.25357 z"
         style="fill:#005a00;fill-opacity:1;fill-rule:evenodd;stroke:none;stroke-width:0.37859324px;stroke-linecap:butt;stroke-linejoin:miter;stroke-opacity:1" />
      <path
         sodipodi:nodetypes="ccccccccccccccccccc"
         inkscape:connector-curvature="0"
         id="path943"
         d="m 212.94908,486.24036 1.31434,-12.33639 -11.72049,12.16041 c 0,0 -8.70397,0.0943 -8.48402,0 0.21997,-0.0942 18.50772,-20.4873 18.50772,-20.4873 h 10.33792 l -0.85459,8.7798 8.69217,-5.12106 8.0633,-5.09506 h 5.93416 l -0.0733,0.80977 0.0222,0.33327 -8.95421,19.70816 H 224.7817 l 3.2884,-4.51044 0.62875,-5.93243 -16.27766,12.16808 0.83318,0.0294 z"
         style="fill:#005a00;fill-opacity:1;fill-rule:evenodd;stroke:none;stroke-width:0.37859324px;stroke-linecap:butt;stroke-linejoin:miter;stroke-opacity:1" />
      <path
         sodipodi:nodetypes="ccccccccccscccccc"
         inkscape:connector-curvature="0"
         id="path1004"
         d="m 261.6051,476.87998 c 0.0942,-0.18852 0.50276,-0.53417 0.50276,-0.53417 v -2.95185 l -0.62844,-0.56559 h -8.5303 l 0.74204,-3.48264 h 8.65292 l -0.0477,-0.9741 -0.40849,-0.65986 -0.47133,-0.2828 c 0,0 -13.80142,-5.0891 -15.47461,-0.5656 l -6.91289,18.68916 0.21995,0.75414 0.59702,0.4399 h 10.05512 l 2.29382,-9.898 z"
         style="fill:#005a00;fill-opacity:1;fill-rule:evenodd;stroke:none;stroke-width:0.37859324px;stroke-linecap:butt;stroke-linejoin:miter;stroke-opacity:1" />
      <path
         sodipodi:nodetypes="ccccccccccccccccc"
         inkscape:connector-curvature="0"
         id="path929"
         d="m 249.0117,486.00577 -17.77438,32.70438 0.53473,0.88961 h 16.52918 l 2.93227,-5.77756 h 18.66562 l 3.02014,5.77756 h 15.64296 l 0.88873,-0.71137 -18.397,-32.70688 -7.288,-2.03601 -9.95416,0.0879 z m 11.37763,6.70808 7.28799,13.68298 h -15.73083 z"
         style="fill:#005a00;fill-opacity:1;fill-rule:evenodd;stroke:none;stroke-width:0.37859324px;stroke-linecap:butt;stroke-linejoin:miter;stroke-opacity:1" />
      <path
         sodipodi:nodetypes="cccscccccsccscccc"
         inkscape:connector-curvature="0"
         id="path927"
         d="m 154.24708,519.59975 c 0,-0.17775 -0.88875,-1.24426 -0.88875,-1.24426 l 31.68498,-33.47619 c 0,0 11.81476,-0.87981 11.81476,0 0,0.87983 1.38258,12.56891 1.38258,12.56891 l 21.49283,-11.31201 18.72766,0.87981 -10.55788,32.58374 h -18.97904 c 0,0 -0.75413,-0.28166 -0.75413,-0.78441 0,-0.50276 9.1753,-20.36162 9.1753,-20.36162 l -28.78279,18.09921 c 0,0 -0.60425,0.1692 -1.28941,-0.0773 -0.51679,-0.18589 -0.47023,-0.4255 -0.47023,-0.4255 l -2.89085,-16.71664 -20.11025,20.26621 z"
         style="fill:#005a00;fill-opacity:1;fill-rule:evenodd;stroke:none;stroke-width:0.37859324px;stroke-linecap:butt;stroke-linejoin:miter;stroke-opacity:1" />
      <path
         sodipodi:nodetypes="ccccccccccccccccccc"
         inkscape:connector-curvature="0"
         id="path939"
         d="m 312.6223,518.81534 -0.69129,0.78441 h -19.29326 l -0.50275,-0.3445 -10.18081,-31.4851 0.25136,-0.75414 26.9603,1.19406 15.58543,5.84453 -4.71333,-5.53031 v -0.75414 l 0.50275,-0.94266 13.88864,0.18852 19.79183,21.91867 10.66506,9.95407 -1.24425,0.711 h -18.30837 l -52.43656,-25.0629 15.99759,16.88635 z"
         style="fill:#005a00;fill-opacity:1;fill-rule:evenodd;stroke:none;stroke-width:0.37859324px;stroke-linecap:butt;stroke-linejoin:miter;stroke-opacity:1" />
      <path
         inkscape:connector-curvature="0"
         id="path941"
         d="m 364.19539,514.58425 0.62214,-0.53325 v -0.88875 l -30.57319,-31.19532 -13.15358,-0.0888 -0.62213,0.53326 0.17774,0.79988 14.04234,17.0641 -36.3501,-18.39724 -14.84221,-0.0888 -0.71101,0.53326 -0.0888,0.711 9.95406,30.92869 1.0665,0.88875 h 18.84162 l 0.71101,-0.71099 0.3555,-0.53326 -8.44317,-18.84162 40.79387,19.90813 z"
         style="fill:#ffffff;fill-opacity:1;fill-rule:evenodd;stroke:#4d4d4d;stroke-width:0.03785932;stroke-linecap:butt;stroke-linejoin:miter;stroke-miterlimit:4;stroke-dasharray:none;stroke-opacity:1" />
      <path
         sodipodi:nodetypes="ccccccccccccccccccc"
         inkscape:connector-curvature="0"
         id="path934"
         d="m 249.63431,481.8788 -18.39699,31.72778 0.0904,0.60001 0.26611,0.37658 0.42177,0.24602 15.75343,0.28871 3.28876,-6.04279 18.75098,-0.0904 2.93478,5.59843 0.44436,0.17825 h 15.37434 l 0.62261,-0.62262 v -0.79833 L 270.07485,481.8788 Z m 10.93326,6.22103 7.19762,14.57599 H 251.8561 Z"
         style="fill:#ffffff;fill-opacity:1;fill-rule:evenodd;stroke:#4d4d4d;stroke-width:0.03785932;stroke-linecap:butt;stroke-linejoin:miter;stroke-miterlimit:4;stroke-dasharray:none;stroke-opacity:1" />
      <path
         sodipodi:nodetypes="csscccccssscccccsscccccsscccccccccssccccccccccccccccccccc"
         inkscape:connector-curvature="0"
         id="path1033"
         transform="matrix(1.2853795,0,0,1.2853795,26.646071,324.0608)"
         d="m 233.25781,134.05469 v 0.23047 c 0,0.50475 -0.34114,0.91211 -0.76367,0.91211 H 222.4375 l 3.13672,1.61718 13.18164,0.0332 z m 16.60938,0.0195 v 0.15039 c 0,0.49773 -0.40071,0.89844 -0.89844,0.89844 h -10.27344 c -0.2259,0 -0.42449,-0.0918 -0.58203,-0.22852 l 1.61914,1.95313 12.81836,-0.0332 z m -32.83399,0.043 c -0.0821,0.65043 -0.61417,1.15039 -1.26953,1.15039 h -11.70703 c -0.46734,0 -0.85685,-0.26691 -1.08203,-0.64844 l 0.70703,2.19531 h 14.56055 z m -21.02539,0.11523 c -0.0195,0.53654 -0.45067,0.96485 -0.99219,0.96485 h -8.49414 c -0.26935,0 -0.51,-0.10925 -0.68945,-0.28125 l 0.9375,1.89843 h 10.80664 z m -28.8457,0.0899 -1.44531,2.49218 h 10.55859 c 0.36823,-0.58393 0.72315,-1.18325 1.01758,-1.80859 0.39999,-0.8752 0.34182,-0.73915 -0.006,-0.0527 -0.17533,0.1521 -0.40489,0.24415 -0.65625,0.24415 h -8.49414 c -0.50965,0 -0.91092,-0.38325 -0.97461,-0.875 z m 86.18359,3.34179 -26.01367,0.008 2.23633,1.09179 h 24.89258 z m -88.125,0.008 -0.63281,1.09179 h 10.5293 l 0.62109,-1.03906 z m 21.95118,0 0.53906,1.09179 h 11.04883 l -0.66407,-1.09179 z m 16.78515,0 0.35156,1.09179 h 14.80664 l -0.48828,-1.09179 z"
         style="fill:#005a00;fill-opacity:1;fill-rule:evenodd;stroke:none;stroke-width:0.02945381;stroke-linecap:butt;stroke-linejoin:miter;stroke-miterlimit:4;stroke-dasharray:none;stroke-opacity:1" />
      <path
         sodipodi:nodetypes="cccccczcsscsasccsccccccc"
         inkscape:connector-curvature="0"
         id="path925"
         d="m 184.63714,481.87266 14.20287,0.12571 1.1312,1.00551 0.62844,12.31752 20.86437,-13.57441 14.957,0.12571 c 0,0 0.6059,-0.007 1.02553,0.43082 0.41964,0.4378 0.35705,0.82608 0.35705,0.82608 l -10.55789,30.7938 c -0.0588,0.17141 -0.22158,0.40127 -0.36738,0.58772 -0.1913,0.24463 -0.54386,0.41779 -0.54386,0.41779 l -18.56292,-0.23612 c -0.26514,-0.003 -0.49015,-0.28962 -0.58759,-0.53623 -0.10867,-0.27504 -0.0535,-0.61558 0.0696,-0.88447 l 8.68015,-18.95617 -27.90295,17.47076 c 0,0 -1.01377,0.33913 -1.88533,-0.25136 -0.31024,-0.21019 -0.50276,-1.00552 -0.50276,-1.00552 l -2.89085,-16.46526 -19.73317,20.73869 h -9.80374 l -0.62845,-0.62845 v -1.1312 z"
         style="fill:#ffffff;fill-rule:evenodd;stroke:#4d4d4d;stroke-width:0.03785932;stroke-linecap:butt;stroke-linejoin:miter;stroke-miterlimit:4;stroke-dasharray:none;stroke-opacity:1" />
      <path
         id="path1247-0"
         transform="matrix(1.2853795,0,0,1.2853795,26.646071,324.0608)"
         d="m 146.73047,134.35938 -1.22852,2.43945 h 13.95508 l 0.85352,-2.43945 h -0.11719 c -0.22423,0.50556 -0.59928,0.83789 -1.02734,0.83789 h -11.34571 c -0.42805,0 -0.80311,-0.33235 -1.02734,-0.83789 z m 12.43945,3.27539 -14.01758,0.0117 -0.5664,1.19532 14.20117,-0.0352 z"
         style="fill:#005800;fill-opacity:1;fill-rule:evenodd;stroke:none;stroke-width:0.02945381;stroke-linecap:butt;stroke-linejoin:miter;stroke-miterlimit:4;stroke-dasharray:none;stroke-opacity:1"
         inkscape:connector-curvature="0" />
      <path
         id="path1264"
         transform="matrix(1.2853795,0,0,1.2853795,26.646071,324.0608)"
         d="m 122.10742,134.3418 0.45117,2.47461 17.49024,-0.0586 3.78906,-2.41601 h -0.65625 c -0.3452,0.51585 -0.93357,0.85547 -1.60352,0.85547 H 124.0332 c -0.66994,0 -1.25831,-0.33963 -1.60351,-0.85547 z m 0.58008,3.27734 0.22266,1.17969 13.93359,-0.0352 1.74414,-1.09179 z"
         style="fill:#005800;fill-opacity:1;fill-rule:evenodd;stroke:none;stroke-width:0.02945381;stroke-linecap:butt;stroke-linejoin:miter;stroke-miterlimit:4;stroke-dasharray:none;stroke-opacity:1"
         inkscape:connector-curvature="0" />
      <path
         sodipodi:nodetypes="ccccccccccccccc"
         inkscape:connector-curvature="0"
         id="path4521"
         d="m 213.70013,499.84649 -0.50392,1.14159 18.02855,0.0333 0.40419,-1.17492 z m -1.16568,2.57829 -1.18747,2.59586 18.5272,-0.0301 0.88873,-2.56573 z m -1.55944,3.46449 -0.53725,1.17493 h 18.75852 l 0.40168,-1.17493 z"
         style="fill:#35bcf8;fill-opacity:1;fill-rule:evenodd;stroke:none;stroke-width:0.03785932;stroke-linecap:butt;stroke-linejoin:miter;stroke-miterlimit:4;stroke-dasharray:none;stroke-opacity:1" />
      <path
         sodipodi:nodetypes="ccccccccccccccc"
         inkscape:connector-curvature="0"
         style="fill:#35bcf8;fill-opacity:1;fill-rule:evenodd;stroke:none;stroke-width:0.03785932;stroke-linecap:butt;stroke-linejoin:miter;stroke-miterlimit:4;stroke-dasharray:none;stroke-opacity:1"
         d="m 184.16379,499.84649 0.20585,1.17492 20.41356,-4e-5 1.87785,-1.17488 z m 0.45189,2.57829 0.45691,2.59586 h 13.29548 l 4.17324,-2.5959 z m 0.58164,3.46449 0.20587,1.17493 h 9.67282 l 1.87784,-1.17493 z"
         id="path4523" />
      <path
         sodipodi:nodetypes="ccccccccccccccc"
         inkscape:connector-curvature="0"
         id="path4527"
         d="m 288.42917,499.84649 0.37909,1.17492 h 18.85641 l -0.5272,-1.17492 z m 0.83097,2.57829 0.836,2.59586 h 19.35852 l -1.16236,-2.59586 z m 1.11467,3.46449 0.37909,1.17493 h 19.6171 l -0.52469,-1.17493 z"
         style="fill:#35bcf8;fill-opacity:1;fill-rule:evenodd;stroke:none;stroke-width:0.03785932;stroke-linecap:butt;stroke-linejoin:miter;stroke-miterlimit:4;stroke-dasharray:none;stroke-opacity:1" />
      <path
         sodipodi:nodetypes="ccccccccccccccc"
         inkscape:connector-curvature="0"
         id="path4525"
         d="m 166.6327,499.84649 -1.23517,1.17492 h 10.23252 l 1.11718,-1.17492 z m -2.7264,2.57829 -2.67119,2.59586 h 10.59107 l 2.47034,-2.59586 z m -3.56242,3.46449 -1.21005,1.17493 h 10.74671 l 1.11968,-1.17493 z"
         style="fill:#35bcf8;fill-opacity:1;fill-rule:evenodd;stroke:none;stroke-width:0.03785932;stroke-linecap:butt;stroke-linejoin:miter;stroke-miterlimit:4;stroke-dasharray:none;stroke-opacity:1" />
      <path
         id="path1266"
         transform="matrix(1.2853795,0,0,1.2853795,26.646071,324.0608)"
         d="m 111.38477,134.35938 -2.47852,2.39843 7.83008,0.0391 2.28515,-2.4375 h -0.23828 c -0.24505,0.49555 -0.74953,0.83789 -1.34179,0.83789 h -4.65039 c -0.59227,0 -1.09674,-0.34234 -1.3418,-0.83789 z m -3.44336,3.3125 -1.15625,1.09179 8.0332,0.0547 1.08789,-1.14648 z"
         style="fill:#005a00;fill-opacity:1;fill-rule:evenodd;stroke:none;stroke-width:0.02945381;stroke-linecap:butt;stroke-linejoin:miter;stroke-miterlimit:4;stroke-dasharray:none;stroke-opacity:1"
         inkscape:connector-curvature="0" />
      <path
         sodipodi:nodetypes="cccccccccccccccccccccccc"
         inkscape:connector-curvature="0"
         style="fill:#35bcf8;fill-opacity:1;fill-rule:evenodd;stroke:none;stroke-width:0.03785932;stroke-linecap:butt;stroke-linejoin:miter;stroke-miterlimit:4;stroke-dasharray:none;stroke-opacity:1"
         d="m 239.69772,499.84649 -0.68035,1.17492 13.51658,0.0727 0.69289,-1.17492 z m 26.95315,0 0.58243,1.17492 h 14.04166 l -0.71298,-1.17492 z m -28.4469,2.57829 -1.5063,2.59586 h 47.00746 l -1.57659,-2.59586 H 267.9262 l 0.29343,0.58299 h -16.83219 l 0.35047,-0.58299 z m -2.01091,3.46449 -0.68035,1.17493 h 49.43261 l -0.71298,-1.17493 z"
         id="path4529" />
      <path
         style="fill:#35bcf8;fill-opacity:1;fill-rule:evenodd;stroke:none;stroke-width:0.03785932;stroke-linecap:butt;stroke-linejoin:miter;stroke-miterlimit:4;stroke-dasharray:none;stroke-opacity:1"
         d="m 316.59558,499.91929 2.25834,1.10212 33.43679,-0.0104 -1.09304,-1.16455 -16.47692,0.0347 0.22009,0.30567 -0.10881,0.20151 -0.19859,0.093 -1.09639,-0.51942 -0.1525,-0.0775 z m 5.13399,2.50549 5.3192,2.59586 h 29.22146 l -2.54409,-2.59586 z m 7.09911,3.46449 2.40756,1.17493 h 27.03679 l -1.15149,-1.17493 z"
         id="path4539"
         inkscape:connector-curvature="0"
         sodipodi:nodetypes="ccccccccccccccccccccc" />
      <path
         id="path951"
         d="m 305.62615,454.86072 -15.99696,0.0427 -0.53473,0.53473 -0.0879,0.3113 -0.0452,0.48705 10.13241,22.66485 0.17825,0.26611 0.48955,0.26611 h 6.3541 l 0.5774,-0.17824 0.22093,-0.31131 0.13557,-0.30878 -0.0904,-0.6678 -3.19839,-5.55575 8.08635,-0.0879 5.734,6.88883 0.53223,0.22092 11.10899,-0.0451 0.17825,-0.13307 0.44435,-0.48703 0.0453,-0.48955 -0.26863,-0.53223 -23.59626,-22.75273 z m -10.69728,3.38164 h 6.22103 l 8.79934,10.5592 h -9.05038 z"
         style="fill:#ffffff;fill-opacity:1;fill-rule:evenodd;stroke:#4d4d4d;stroke-width:0.03785932;stroke-linecap:butt;stroke-linejoin:miter;stroke-miterlimit:4;stroke-dasharray:none;stroke-opacity:1"
         inkscape:connector-curvature="0" />
      <path
         inkscape:connector-curvature="0"
         id="path981"
         d="m 292.73946,461.41446 h 4.06605 l 0.57769,0.99985 h -4.22158 z"
         style="opacity:1;vector-effect:none;fill:#fb2186;fill-opacity:1;fill-rule:evenodd;stroke:none;stroke-width:0.37859324px;stroke-linecap:butt;stroke-linejoin:miter;stroke-miterlimit:4;stroke-dasharray:none;stroke-dashoffset:0;stroke-opacity:1" />
      <path
         inkscape:connector-curvature="0"
         id="path945"
         d="m 196.89182,479.32746 -6.72436,0.0629 -0.65986,-0.53417 -0.18854,-0.59704 0.25138,-0.47132 23.18962,-22.96967 h 6.72436 l 0.62845,0.40848 0.18853,0.4085 v 9.6152 l 14.89415,-10.40076 h 1.25689 7.22771 l 0.51104,0.29921 0.2444,0.37772 0.0667,0.51103 -0.0445,0.26662 -10.64285,23.2965 -12.47663,-0.2103 -0.37706,-0.0785 -0.32208,-0.30637 -0.13355,-0.29065 -0.0707,-0.69915 7.73642,-13.15719 -16.53084,12.48701 -0.23948,0.11247 h -1.0605 l -0.20424,-0.13354 -0.40662,-0.51215 0.53326,-11.82045 -7.02117,7.59886 z"
         style="fill:#ffffff;fill-opacity:1;fill-rule:evenodd;stroke:#4d4d4d;stroke-width:0.03785932;stroke-linecap:butt;stroke-linejoin:miter;stroke-miterlimit:4;stroke-dasharray:none;stroke-opacity:1" />
      <path
         inkscape:connector-curvature="0"
         id="path947"
         d="m 262.56621,479.47841 h -22.88545 l -0.53326,-0.48881 -0.13332,-0.26663 -0.17774,-0.44438 9.37637,-22.97432 0.39993,-0.44438 h 14.04234 l 0.62213,0.22219 0.17776,0.48881 0.0445,2.31077 -0.31106,0.44437 -0.44438,0.22219 h -8.62093 l -1.02206,4.26603 9.50967,0.0445 0.53325,0.26662 0.22219,0.39994 v 2.97733 l -0.1333,0.39995 -0.5777,0.39993 h -10.75394 l -1.91082,7.50999 h 12.57588 l 0.44439,0.35549 0.26662,0.39995 -0.0888,3.2884 -0.26662,0.31106 z"
         style="fill:#ffffff;fill-rule:evenodd;stroke:#4d4d4d;stroke-width:0.03785932;stroke-linecap:butt;stroke-linejoin:miter;stroke-miterlimit:4;stroke-dasharray:none;stroke-opacity:1" />
      <path
         inkscape:connector-curvature="0"
         id="path949"
         d="m 296.16117,478.01196 0.0445,0.66657 -0.31106,0.48882 -0.44438,0.31106 -21.59676,-0.0888 -1.59975,-0.39994 -1.73308,-0.71101 -1.46645,-0.84431 -1.11094,-0.84432 -0.88876,-0.9332 -0.79988,-1.15537 -0.48882,-0.9332 -0.3555,-12.13152 0.22219,-1.51087 0.79988,-1.9997 0.9332,-1.24426 2.31077,-1.68863 h 12.48701 l 0.48881,0.17774 0.26663,0.39995 0.711,1.33313 -0.13331,0.48881 -0.26663,0.31107 -0.35551,0.22219 h -8.97642 l 4.04383,15.73097 0.5777,1.15538 0.75544,0.48882 0.84432,0.35549 h 1.24426 l 0.79988,-0.39993 0.39993,-1.06651 0.13332,-1.51088 -0.31106,-1.51089 -0.53325,-1.64419 -0.71101,-1.33315 -0.71101,-0.84431 -1.86638,-0.31106 -0.44439,-0.17776 -0.35549,-0.35549 -0.62214,-2.31077 0.0889,-0.53325 0.48882,-0.62213 h 9.4208 l 0.31106,0.17775 z"
         style="fill:#ffffff;fill-opacity:1;fill-rule:evenodd;stroke:#4d4d4d;stroke-width:0.03785932;stroke-linecap:butt;stroke-linejoin:miter;stroke-miterlimit:4;stroke-dasharray:none;stroke-opacity:1" />
      <path
         inkscape:connector-curvature="0"
         id="path997"
         d="m 305.22647,462.41431 -0.77766,-0.99985 h 7.13226 l 0.9332,0.95541 z"
         style="opacity:1;vector-effect:none;fill:#fb2186;fill-opacity:1;fill-rule:evenodd;stroke:none;stroke-width:0.37859324px;stroke-linecap:butt;stroke-linejoin:miter;stroke-miterlimit:4;stroke-dasharray:none;stroke-dashoffset:0;stroke-opacity:1" />
      <path
         style="fill:#ffffff;fill-opacity:1;fill-rule:evenodd;stroke:#4d4d4d;stroke-width:0.03785932;stroke-linecap:butt;stroke-linejoin:miter;stroke-miterlimit:4;stroke-dasharray:none;stroke-opacity:1"
         d="m 196.89182,479.32746 -6.72436,0.0629 -0.65986,-0.53417 -0.18854,-0.59704 0.25138,-0.47132 23.18962,-22.96967 h 6.72436 l 0.62845,0.40848 0.18853,0.4085 v 9.6152 l 14.89415,-10.40076 h 1.25689 7.22771 l 0.51104,0.29921 0.2444,0.37772 0.0667,0.51103 -0.0445,0.26662 -10.64285,23.2965 -12.47663,-0.2103 -0.37706,-0.0785 -0.32208,-0.30637 -0.13355,-0.29065 -0.0707,-0.69915 7.73642,-13.15719 -16.53084,12.48701 -0.23948,0.11247 h -1.0605 l -0.20424,-0.13354 -0.40662,-0.51215 0.53326,-11.82045 -7.02117,7.59886 z"
         id="path4555"
         inkscape:connector-curvature="0" />
      <path
         style="fill:#ffffff;fill-rule:evenodd;stroke:#4d4d4d;stroke-width:0.03785932;stroke-linecap:butt;stroke-linejoin:miter;stroke-miterlimit:4;stroke-dasharray:none;stroke-opacity:1"
         d="m 262.56621,479.47841 h -22.88545 l -0.53326,-0.48881 -0.13332,-0.26663 -0.17774,-0.44438 9.37637,-22.97432 0.39993,-0.44438 h 14.04234 l 0.62213,0.22219 0.17776,0.48881 0.0445,2.31077 -0.31106,0.44437 -0.44438,0.22219 h -8.62093 l -1.02206,4.26603 9.50967,0.0445 0.53325,0.26662 0.22219,0.39994 v 2.97733 l -0.1333,0.39995 -0.5777,0.39993 h -10.75394 l -1.91082,7.50999 h 12.57588 l 0.44439,0.35549 0.26662,0.39995 -0.0888,3.2884 -0.26662,0.31106 z"
         id="path4557"
         inkscape:connector-curvature="0" />
      <path
         style="fill:#ffffff;fill-opacity:1;fill-rule:evenodd;stroke:#4d4d4d;stroke-width:0.03785932;stroke-linecap:butt;stroke-linejoin:miter;stroke-miterlimit:4;stroke-dasharray:none;stroke-opacity:1"
         d="m 296.16117,478.01196 0.0445,0.66657 -0.31106,0.48882 -0.44438,0.31106 -21.59676,-0.0888 -1.59975,-0.39994 -1.73308,-0.71101 -1.46645,-0.84431 -1.11094,-0.84432 -0.88876,-0.9332 -0.79988,-1.15537 -0.48882,-0.9332 -0.3555,-12.13152 0.22219,-1.51087 0.79988,-1.9997 0.9332,-1.24426 2.31077,-1.68863 h 12.48701 l 0.48881,0.17774 0.26663,0.39995 0.711,1.33313 -0.13331,0.48881 -0.26663,0.31107 -0.35551,0.22219 h -8.97642 l 4.04383,15.73097 0.5777,1.15538 0.75544,0.48882 0.84432,0.35549 h 1.24426 l 0.79988,-0.39993 0.39993,-1.06651 0.13332,-1.51088 -0.31106,-1.51089 -0.53325,-1.64419 -0.71101,-1.33315 -0.71101,-0.84431 -1.86638,-0.31106 -0.44439,-0.17776 -0.35549,-0.35549 -0.62214,-2.31077 0.0889,-0.53325 0.48882,-0.62213 h 9.4208 l 0.31106,0.17775 z"
         id="path4559"
         inkscape:connector-curvature="0" />
      <path
         style="fill:#ffffff;fill-opacity:1;fill-rule:evenodd;stroke:#4d4d4d;stroke-width:0.03785932;stroke-linecap:butt;stroke-linejoin:miter;stroke-miterlimit:4;stroke-dasharray:none;stroke-opacity:1"
         d="m 305.62615,454.86072 -15.99696,0.0427 -0.53473,0.53473 -0.0879,0.3113 -0.0452,0.48705 10.13241,22.66485 0.17825,0.26611 0.48955,0.26611 h 6.3541 l 0.5774,-0.17824 0.22093,-0.31131 0.13557,-0.30878 -0.0904,-0.6678 -3.19839,-5.55575 8.08635,-0.0879 5.734,6.88883 0.53223,0.22092 11.10899,-0.0451 0.17825,-0.13307 0.44435,-0.48703 0.0453,-0.48955 -0.26863,-0.53223 -23.59626,-22.75273 z m -10.69728,3.38164 h 6.22103 l 8.79934,10.5592 h -9.05038 z"
         id="path4561"
         inkscape:connector-curvature="0" />
      <path
         d="m 305.62615,454.86072 -15.99696,0.0427 -0.53473,0.53473 -0.0879,0.3113 -0.0452,0.48705 10.13241,22.66485 0.17825,0.26611 0.48955,0.26611 h 6.3541 l 0.5774,-0.17824 0.22093,-0.31131 0.13557,-0.30878 -0.0904,-0.6678 -3.19839,-5.55575 8.08635,-0.0879 5.734,6.88883 0.53223,0.22092 11.10899,-0.0451 0.17825,-0.13307 0.44435,-0.48703 0.0453,-0.48955 -0.26863,-0.53223 -23.59626,-22.75273 z m -10.69728,3.38164 h 6.22103 l 8.79934,10.5592 h -9.05038 z m 1.2323,19.7696 0.0445,0.66657 -0.31106,0.48882 -0.44437,0.31106 -21.59677,-0.0888 -1.59974,-0.39993 -1.73309,-0.71101 -1.46645,-0.84431 -1.11093,-0.84433 -0.88876,-0.9332 -0.79988,-1.15536 -0.48883,-0.9332 -0.3555,-12.13153 0.22219,-1.51086 0.79988,-1.9997 0.9332,-1.24426 2.31078,-1.68863 h 12.48701 l 0.4888,0.17774 0.26663,0.39995 0.71101,1.33313 -0.13332,0.4888 -0.26663,0.31108 -0.35551,0.22219 h -8.97642 l 4.04383,15.73096 0.5777,1.15539 0.75544,0.48882 0.84432,0.35548 h 1.24426 l 0.79989,-0.39992 0.39992,-1.06652 0.13332,-1.51087 -0.31105,-1.5109 -0.53325,-1.64418 -0.71101,-1.33316 -0.71102,-0.8443 -1.86637,-0.31106 -0.4444,-0.17777 -0.35548,-0.35548 -0.62215,-2.31077 0.0889,-0.53325 0.48882,-0.62214 h 9.4208 l 0.31105,0.17776 z m -33.59496,1.46645 h -22.88545 l -0.53326,-0.48881 -0.13332,-0.26663 -0.17774,-0.44438 9.37637,-22.97432 0.39993,-0.44438 h 14.04234 l 0.62213,0.22219 0.17776,0.48881 0.0445,2.31077 -0.31106,0.44437 -0.44438,0.22219 h -8.62093 l -1.02205,4.26603 9.50966,0.0445 0.53325,0.26661 0.22219,0.39995 v 2.97732 l -0.13329,0.39996 -0.5777,0.39992 h -10.75395 l -1.91082,7.51 h 12.57588 l 0.4444,0.35548 0.26661,0.39996 -0.0888,3.2884 -0.26662,0.31106 z m -65.67439,-0.15095 -6.72436,0.0629 -0.65986,-0.53417 -0.18854,-0.59704 0.25138,-0.47132 23.18962,-22.96967 h 6.72436 l 0.62845,0.40848 0.18853,0.4085 v 9.6152 l 14.89415,-10.40076 h 1.25689 7.22771 l 0.51104,0.29921 0.2444,0.37772 0.0667,0.51103 -0.0445,0.26662 -10.64285,23.2965 -12.47663,-0.2103 -0.37706,-0.0785 -0.32208,-0.30637 -0.13355,-0.29065 -0.0707,-0.69915 7.73642,-13.15719 -16.53084,12.48701 -0.23948,0.11247 h -1.0605 l -0.20424,-0.13354 -0.40662,-0.51215 0.53326,-11.82045 -7.02117,7.59886 z"
         style="fill:#ffffff;fill-opacity:1;fill-rule:evenodd;stroke:#4d4d4d;stroke-width:0.03785932;stroke-linecap:butt;stroke-linejoin:miter;stroke-miterlimit:4;stroke-dasharray:none;stroke-opacity:1"
         id="path4609"
         inkscape:connector-curvature="0" />
      <path
         id="path4612"
         style="fill:#ffffff;fill-opacity:1;fill-rule:evenodd;stroke:#4d4d4d;stroke-width:0.03785932;stroke-linecap:butt;stroke-linejoin:miter;stroke-miterlimit:4;stroke-dasharray:none;stroke-opacity:1"
         d="m 305.62615,454.86072 -15.99696,0.0427 -0.53473,0.53473 -0.0879,0.3113 -0.0452,0.48705 10.13241,22.66485 0.17825,0.26611 0.48955,0.26611 h 6.3541 l 0.5774,-0.17824 0.22093,-0.31131 0.13557,-0.30878 -0.0904,-0.6678 -3.19839,-5.55575 8.08635,-0.0879 5.734,6.88883 0.53223,0.22092 11.10899,-0.0451 0.17825,-0.13307 0.44435,-0.48703 0.0453,-0.48955 -0.26863,-0.53223 -23.59626,-22.75273 z m -10.69728,3.38164 h 6.22103 l 8.79934,10.5592 h -9.05038 z m 1.2323,19.7696 0.0445,0.66657 -0.31106,0.48882 -0.44437,0.31106 -21.59677,-0.0888 -1.59974,-0.39993 -1.73309,-0.71101 -1.46645,-0.84431 -1.11093,-0.84433 -0.88876,-0.9332 -0.79988,-1.15536 -0.48883,-0.9332 -0.3555,-12.13153 0.22219,-1.51086 0.79988,-1.9997 0.9332,-1.24426 2.31078,-1.68863 h 12.48701 l 0.4888,0.17774 0.26663,0.39995 0.71101,1.33313 -0.13332,0.4888 -0.26663,0.31108 -0.35551,0.22219 h -8.97642 l 4.04383,15.73096 0.5777,1.15539 0.75544,0.48882 0.84432,0.35548 h 1.24426 l 0.79989,-0.39992 0.39992,-1.06652 0.13332,-1.51087 -0.31105,-1.5109 -0.53325,-1.64418 -0.71101,-1.33316 -0.71102,-0.8443 -1.86637,-0.31106 -0.4444,-0.17777 -0.35548,-0.35548 -0.62215,-2.31077 0.0889,-0.53325 0.48882,-0.62214 h 9.4208 l 0.31105,0.17776 z m -33.59496,1.46645 h -22.88545 l -0.53326,-0.48881 -0.13332,-0.26663 -0.17774,-0.44438 9.37637,-22.97432 0.39993,-0.44438 h 14.04234 l 0.62213,0.22219 0.17776,0.48881 0.0445,2.31077 -0.31106,0.44437 -0.44438,0.22219 h -8.62093 l -1.02205,4.26603 9.50966,0.0445 0.53325,0.26661 0.22219,0.39995 v 2.97732 l -0.13329,0.39996 -0.5777,0.39992 h -10.75395 l -1.91082,7.51 h 12.57588 l 0.4444,0.35548 0.26661,0.39996 -0.0888,3.2884 -0.26662,0.31106 z m -65.67439,-0.15095 -6.72436,0.0629 -0.65986,-0.53417 -0.18854,-0.59704 0.25138,-0.47132 23.18962,-22.96967 h 6.72436 l 0.62845,0.40848 0.18853,0.4085 v 9.6152 l 14.89415,-10.40076 h 1.25689 7.22771 l 0.51104,0.29921 0.2444,0.37772 0.0667,0.51103 -0.0445,0.26662 -10.64285,23.2965 -12.47663,-0.2103 -0.37706,-0.0785 -0.32208,-0.30637 -0.13355,-0.29065 -0.0707,-0.69915 7.73642,-13.15719 -16.53084,12.48701 -0.23948,0.11247 h -1.0605 l -0.20424,-0.13354 -0.40662,-0.51215 0.53326,-11.82045 -7.02117,7.59886 z"
         inkscape:connector-curvature="0" />
      <path
         d="m 305.62615,454.86072 -15.99696,0.0427 -0.53473,0.53473 -0.0879,0.3113 -0.0452,0.48705 10.13241,22.66485 0.17825,0.26611 0.48955,0.26611 h 6.3541 l 0.5774,-0.17824 0.22093,-0.31131 0.13557,-0.30878 -0.0904,-0.6678 -3.19839,-5.55575 8.08635,-0.0879 5.734,6.88883 0.53223,0.22092 11.10899,-0.0451 0.17825,-0.13307 0.44435,-0.48703 0.0453,-0.48955 -0.26863,-0.53223 -23.59626,-22.75273 z m -10.69728,3.38164 h 6.22103 l 8.79934,10.5592 h -9.05038 z m 1.2323,19.7696 0.0445,0.66657 -0.31106,0.48882 -0.44437,0.31106 -21.59677,-0.0888 -1.59974,-0.39993 -1.73309,-0.71101 -1.46645,-0.84431 -1.11093,-0.84433 -0.88876,-0.9332 -0.79988,-1.15536 -0.48883,-0.9332 -0.3555,-12.13153 0.22219,-1.51086 0.79988,-1.9997 0.9332,-1.24426 2.31078,-1.68863 h 12.48701 l 0.4888,0.17774 0.26663,0.39995 0.71101,1.33313 -0.13332,0.4888 -0.26663,0.31108 -0.35551,0.22219 h -8.97642 l 4.04383,15.73096 0.5777,1.15539 0.75544,0.48882 0.84432,0.35548 h 1.24426 l 0.79989,-0.39992 0.39992,-1.06652 0.13332,-1.51087 -0.31105,-1.5109 -0.53325,-1.64418 -0.71101,-1.33316 -0.71102,-0.8443 -1.86637,-0.31106 -0.4444,-0.17777 -0.35548,-0.35548 -0.62215,-2.31077 0.0889,-0.53325 0.48882,-0.62214 h 9.4208 l 0.31105,0.17776 z m -33.59496,1.46645 h -22.88545 l -0.53326,-0.48881 -0.13332,-0.26663 -0.17774,-0.44438 9.37637,-22.97432 0.39993,-0.44438 h 14.04234 l 0.62213,0.22219 0.17776,0.48881 0.0445,2.31077 -0.31106,0.44437 -0.44438,0.22219 h -8.62093 l -1.02205,4.26603 9.50966,0.0445 0.53325,0.26661 0.22219,0.39995 v 2.97732 l -0.13329,0.39996 -0.5777,0.39992 h -10.75395 l -1.91082,7.51 h 12.57588 l 0.4444,0.35548 0.26661,0.39996 -0.0888,3.2884 -0.26662,0.31106 z m -65.67439,-0.15095 -6.72436,0.0629 -0.65986,-0.53417 -0.18854,-0.59704 0.25138,-0.47132 23.18962,-22.96967 h 6.72436 l 0.62845,0.40848 0.18853,0.4085 v 9.6152 l 14.89415,-10.40076 h 1.25689 7.22771 l 0.51104,0.29921 0.2444,0.37772 0.0667,0.51103 -0.0445,0.26662 -10.64285,23.2965 -12.47663,-0.2103 -0.37706,-0.0785 -0.32208,-0.30637 -0.13355,-0.29065 -0.0707,-0.69915 7.73642,-13.15719 -16.53084,12.48701 -0.23948,0.11247 h -1.0605 l -0.20424,-0.13354 -0.40662,-0.51215 0.53326,-11.82045 -7.02117,7.59886 z"
         style="fill:#ffffff;fill-opacity:1;fill-rule:evenodd;stroke:#4d4d4d;stroke-width:0.03785932;stroke-linecap:butt;stroke-linejoin:miter;stroke-miterlimit:4;stroke-dasharray:none;stroke-opacity:1"
         id="path4614"
         inkscape:connector-curvature="0" />
      <path
         id="path4616"
         style="fill:#ffffff;fill-opacity:1;fill-rule:evenodd;stroke:#4d4d4d;stroke-width:0.03785932;stroke-linecap:butt;stroke-linejoin:miter;stroke-miterlimit:4;stroke-dasharray:none;stroke-opacity:1"
         d="m 305.62615,454.86072 -15.99696,0.0427 -0.53473,0.53473 -0.0879,0.3113 -0.0452,0.48705 10.13241,22.66485 0.17825,0.26611 0.48955,0.26611 h 6.3541 l 0.5774,-0.17824 0.22093,-0.31131 0.13557,-0.30878 -0.0904,-0.6678 -3.19839,-5.55575 8.08635,-0.0879 5.734,6.88883 0.53223,0.22092 11.10899,-0.0451 0.17825,-0.13307 0.44435,-0.48703 0.0453,-0.48955 -0.26863,-0.53223 -23.59626,-22.75273 z m -10.69728,3.38164 h 6.22103 l 8.79934,10.5592 h -9.05038 z m 1.2323,19.7696 0.0445,0.66657 -0.31106,0.48882 -0.44437,0.31106 -21.59677,-0.0888 -1.59974,-0.39993 -1.73309,-0.71101 -1.46645,-0.84431 -1.11093,-0.84433 -0.88876,-0.9332 -0.79988,-1.15536 -0.48883,-0.9332 -0.3555,-12.13153 0.22219,-1.51086 0.79988,-1.9997 0.9332,-1.24426 2.31078,-1.68863 h 12.48701 l 0.4888,0.17774 0.26663,0.39995 0.71101,1.33313 -0.13332,0.4888 -0.26663,0.31108 -0.35551,0.22219 h -8.97642 l 4.04383,15.73096 0.5777,1.15539 0.75544,0.48882 0.84432,0.35548 h 1.24426 l 0.79989,-0.39992 0.39992,-1.06652 0.13332,-1.51087 -0.31105,-1.5109 -0.53325,-1.64418 -0.71101,-1.33316 -0.71102,-0.8443 -1.86637,-0.31106 -0.4444,-0.17777 -0.35548,-0.35548 -0.62215,-2.31077 0.0889,-0.53325 0.48882,-0.62214 h 9.4208 l 0.31105,0.17776 z m -33.59496,1.46645 h -22.88545 l -0.53326,-0.48881 -0.13332,-0.26663 -0.17774,-0.44438 9.37637,-22.97432 0.39993,-0.44438 h 14.04234 l 0.62213,0.22219 0.17776,0.48881 0.0445,2.31077 -0.31106,0.44437 -0.44438,0.22219 h -8.62093 l -1.02205,4.26603 9.50966,0.0445 0.53325,0.26661 0.22219,0.39995 v 2.97732 l -0.13329,0.39996 -0.5777,0.39992 h -10.75395 l -1.91082,7.51 h 12.57588 l 0.4444,0.35548 0.26661,0.39996 -0.0888,3.2884 -0.26662,0.31106 z m -65.67439,-0.15095 -6.72436,0.0629 -0.65986,-0.53417 -0.18854,-0.59704 0.25138,-0.47132 23.18962,-22.96967 h 6.72436 l 0.62845,0.40848 0.18853,0.4085 v 9.6152 l 14.89415,-10.40076 h 1.25689 7.22771 l 0.51104,0.29921 0.2444,0.37772 0.0667,0.51103 -0.0445,0.26662 -10.64285,23.2965 -12.47663,-0.2103 -0.37706,-0.0785 -0.32208,-0.30637 -0.13355,-0.29065 -0.0707,-0.69915 7.73642,-13.15719 -16.53084,12.48701 -0.23948,0.11247 h -1.0605 l -0.20424,-0.13354 -0.40662,-0.51215 0.53326,-11.82045 -7.02117,7.59886 z"
         inkscape:connector-curvature="0" />
      <path
         sodipodi:nodetypes="cccccccccccccccccccccccccccccccccccccccccccccccccccccccccccccccccccccccccccccccccccccccccccccccccccccccccccccccccccccccccccccccccccccccc"
         inkscape:connector-curvature="0"
         d="m 305.62615,454.86072 -15.99696,0.0427 -0.53473,0.53473 -0.0879,0.3113 -0.0452,0.48705 10.13241,22.66485 0.17825,0.26611 0.48955,0.26611 h 6.3541 l 0.5774,-0.17824 0.22093,-0.31131 0.13557,-0.30878 -0.0904,-0.6678 -3.19839,-5.55575 8.08635,-0.0879 5.734,6.88883 0.53223,0.22092 11.10899,-0.0451 0.17825,-0.13307 0.44435,-0.48703 0.0453,-0.48955 -0.26863,-0.53223 -23.59626,-22.75273 z m -10.69728,3.38164 h 6.22103 l 8.79934,10.5592 h -9.05038 z m 1.2323,19.7696 0.0445,0.66657 -0.31106,0.48882 -0.44437,0.31106 -21.59677,-0.0888 -1.59974,-0.39993 -1.73309,-0.71101 -1.46645,-0.84431 -1.11093,-0.84433 -0.88876,-0.9332 -0.79988,-1.15536 -0.48883,-0.9332 -0.3555,-12.13153 0.22219,-1.51086 0.79988,-1.9997 0.9332,-1.24426 2.31078,-1.68863 h 12.48701 l 0.4888,0.17774 0.26663,0.39995 0.71101,1.33313 -0.13332,0.4888 -0.26663,0.31108 -0.35551,0.22219 h -8.97642 l 4.04383,15.73096 0.5777,1.15539 0.75544,0.48882 0.84432,0.35548 h 1.24426 l 0.79989,-0.39992 0.39992,-1.06652 0.13332,-1.51087 -0.31105,-1.5109 -0.53325,-1.64418 -0.71101,-1.33316 -0.71102,-0.8443 -1.86637,-0.31106 -0.4444,-0.17777 -0.35548,-0.35548 -0.62215,-2.31077 0.0889,-0.53325 0.48882,-0.62214 h 9.4208 l 0.31105,0.17776 z m -33.59496,1.46645 h -22.88545 l -0.53326,-0.48881 -0.13332,-0.26663 -0.17774,-0.44438 9.37637,-22.97432 0.39993,-0.44438 h 14.04234 l 0.62213,0.22219 0.17776,0.48881 0.0445,2.31077 -0.31106,0.44437 -0.44438,0.22219 h -8.62093 l -1.02205,4.26603 9.50966,0.0445 0.53325,0.26661 0.22219,0.39995 v 2.97732 l -0.13329,0.39996 -0.5777,0.39992 h -10.75395 l -1.91082,7.51 h 12.57588 l 0.4444,0.35548 0.26661,0.39996 -0.0888,3.2884 -0.26662,0.31106 z m -65.67439,-0.15095 -6.72436,0.0629 -0.65986,-0.53417 -0.18854,-0.59704 0.25138,-0.47132 23.18962,-22.96967 h 6.72436 l 0.62845,0.40848 0.18853,0.4085 v 9.6152 l 14.89415,-10.40076 h 1.25689 7.22771 l 0.51104,0.29921 0.2444,0.37772 0.0667,0.51103 -0.0445,0.26662 -10.64285,23.2965 -12.47663,-0.2103 -0.37706,-0.0785 -0.32208,-0.30637 -0.13355,-0.29065 -0.0707,-0.69915 7.73642,-13.15719 -16.53084,12.48701 -0.23948,0.11247 h -1.0605 l -0.20424,-0.13354 -0.40662,-0.51215 0.53326,-11.82045 -7.02117,7.59886 z"
         style="fill:#ffffff;fill-opacity:1;fill-rule:evenodd;stroke:#4d4d4d;stroke-width:0.03785932;stroke-linecap:butt;stroke-linejoin:miter;stroke-miterlimit:4;stroke-dasharray:none;stroke-opacity:1"
         id="path4618" />
      <path
         sodipodi:nodetypes="cccccccccccccccccccccccccccccccccccccccccccccccc"
         inkscape:connector-curvature="0"
         id="rect4582"
         d="m 212.56918,455.56366 -4.71974,4.67456 h 12.13077 v -4.60426 l -0.0326,-0.0703 z m 22.32845,0 -6.69552,4.67456 h 13.976 l 1.79751,-3.93397 0.0453,-0.26611 -0.0627,-0.47448 z m 13.60794,0 -1.90799,4.67456 h 6.78048 l 0.42427,-1.91048 h 8.65782 l 0.44435,-0.12301 0.31131,-0.32385 -0.0452,-2.30968 -0.003,-0.008 z m 20.73019,0 -1.5289,1.11717 -0.9339,1.24521 -0.80086,2.00088 -0.0452,0.3113 h 8.24509 l -0.59499,-2.53309 h 9.05539 0.3565 l 0.26612,-0.31131 0.13305,-0.48955 -0.71047,-1.33308 -0.005,-0.008 z m 20.22119,0 -0.0527,0.18577 -0.0453,0.48705 1.79,4.00174 h 4.62587 l -1.24772,-2.21678 h 6.80692 l 1.83927,2.21678 h 7.89205 l -4.84779,-4.67456 z"
         style="color:#000000;clip-rule:nonzero;display:inline;overflow:visible;visibility:visible;opacity:1;isolation:auto;mix-blend-mode:normal;color-interpolation:sRGB;color-interpolation-filters:linearRGB;solid-color:#000000;solid-opacity:1;vector-effect:none;fill:#e20256;fill-opacity:1;fill-rule:nonzero;stroke:none;stroke-width:0.03785932;stroke-linecap:butt;stroke-linejoin:miter;stroke-miterlimit:4;stroke-dasharray:none;stroke-dashoffset:0;stroke-opacity:1;color-rendering:auto;image-rendering:auto;shape-rendering:auto;text-rendering:auto;enable-background:accumulate" />
      <path
         sodipodi:nodetypes="ccccccccccccccccccccccccccccc"
         inkscape:connector-curvature="0"
         id="rect4584"
         d="m 211.75829,456.36702 -1.39333,1.38078 h 9.61525 v -1.38078 z m 21.98953,0 -1.97828,1.38078 h 11.54582 l 0.63265,-1.38078 z m 14.42887,0 -0.56235,1.38078 h 15.59895 l -0.0276,-1.38078 z m 19.93998,0 -0.42931,0.31381 -0.80085,1.06697 h 16.03461 l 0.0677,-0.0427 0.26612,-0.31131 0.13305,-0.48955 -0.28619,-0.53725 z m 21.30011,0 0.61759,1.38078 h 18.45026 l -1.43351,-1.38078 z"
         style="color:#000000;clip-rule:nonzero;display:inline;overflow:visible;visibility:visible;opacity:1;isolation:auto;mix-blend-mode:normal;color-interpolation:sRGB;color-interpolation-filters:linearRGB;solid-color:#000000;solid-opacity:1;vector-effect:none;fill:#bd0a16;fill-opacity:1;fill-rule:nonzero;stroke:none;stroke-width:0.03785933;stroke-linecap:butt;stroke-linejoin:miter;stroke-miterlimit:4;stroke-dasharray:none;stroke-dashoffset:0;stroke-opacity:1;color-rendering:auto;image-rendering:auto;shape-rendering:auto;text-rendering:auto;enable-background:accumulate" />
      <path
         sodipodi:nodetypes="ccccccccccccccccccccccccccccccc"
         inkscape:connector-curvature="0"
         id="rect4580"
         d="m 206.86281,461.2148 -1.39082,1.37828 h 14.50822 v -1.37828 z m 19.94095,0 -1.97577,1.37828 h 16.27562 l 0.63013,-1.37828 z m 19.39465,0 -0.56235,1.37828 h 7.17714 l 0.33138,-1.37828 z m 19.64221,0 -0.0326,0.22093 0.0351,1.15735 h 8.93392 l -0.354,-1.37828 z m 25.74524,0 0.61508,1.37828 h 4.90705 l -0.78076,-1.37828 z m 12.40344,0 1.1473,1.37828 h 8.37155 l -1.42848,-1.37828 z"
         style="color:#000000;clip-rule:nonzero;display:inline;overflow:visible;visibility:visible;opacity:1;isolation:auto;mix-blend-mode:normal;color-interpolation:sRGB;color-interpolation-filters:linearRGB;solid-color:#000000;solid-opacity:1;vector-effect:none;fill:#e20256;fill-opacity:1;fill-rule:nonzero;stroke:none;stroke-width:0.03785933;stroke-linecap:butt;stroke-linejoin:miter;stroke-miterlimit:4;stroke-dasharray:none;stroke-dashoffset:0;stroke-opacity:1;color-rendering:auto;image-rendering:auto;shape-rendering:auto;text-rendering:auto;enable-background:accumulate" />
      <path
         sodipodi:nodetypes="cccccccccccccccccccccccccccccccccccccccccccc"
         inkscape:connector-curvature="0"
         id="rect4572"
         d="m 200.90036,467.12203 -3.61513,3.57998 h 7.2202 l 3.30635,-3.57998 z m 9.66795,0 -0.16067,3.57998 h 9.46461 l 4.73984,-3.57998 z m 16.67479,0 -2.10631,3.57998 h 12.26131 l 1.63686,-3.57998 z m 16.52012,0.0577 -1.46111,3.57997 8.39473,-0.0577 0.86361,-3.61225 h 10.81183 l 0.26109,-0.18075 z m 22.21297,-0.0577 0.10296,3.57998 h 10.78165 l -0.91885,-3.57998 z m 13.24947,-0.17071 1.5063,0.17071 0.77073,1.06948 0.71046,1.33308 0.38411,1.17742 h 8.89975 l -2.10631,-3.57998 z m 14.99875,0.17071 1.6017,3.57998 h 26.09224 l -3.71304,-3.57998 h -9.29291 l 1.57248,1.90616 h -9.69619 l -1.11998,-1.90617 z"
         style="color:#000000;clip-rule:nonzero;display:inline;overflow:visible;visibility:visible;opacity:1;isolation:auto;mix-blend-mode:normal;color-interpolation:sRGB;color-interpolation-filters:linearRGB;solid-color:#000000;solid-opacity:1;vector-effect:none;fill:#40bffd;fill-opacity:1;fill-rule:nonzero;stroke:none;stroke-width:0.03785933;stroke-linecap:butt;stroke-linejoin:miter;stroke-miterlimit:4;stroke-dasharray:none;stroke-dashoffset:0;stroke-opacity:1;color-rendering:auto;image-rendering:auto;shape-rendering:auto;text-rendering:auto;enable-background:accumulate" />
      <path
         sodipodi:nodetypes="ccccccccccccccccccccccccccccccccccccccc"
         inkscape:connector-curvature="0"
         id="rect4578"
         d="m 199.75556,468.25678 -1.15232,1.13977 h 7.10724 l 1.0519,-1.13977 z m 10.76004,0 -0.0503,1.13977 h 11.1341 l 1.50882,-1.13977 z m 16.05971,0 -0.67031,1.13977 h 12.0906 l 0.51968,-1.13977 z m 16.74857,0 -0.46444,1.13977 h 8.16879 l 0.28871,-1.13977 z m 22.68494,0 0.0326,1.13977 h 10.4854 l -0.29373,-1.13977 z m 15.52901,0 0.60755,1.13977 h 8.58341 l -0.6703,-1.13977 z m 13.1937,0 0.50963,1.13977 h 25.32403 l -1.18246,-1.13977 -9.52998,0.005 0.63213,0.76627 h -9.69619 l -0.45318,-0.77129 z"
         style="color:#000000;clip-rule:nonzero;display:inline;overflow:visible;visibility:visible;opacity:1;isolation:auto;mix-blend-mode:normal;color-interpolation:sRGB;color-interpolation-filters:linearRGB;solid-color:#000000;solid-opacity:1;vector-effect:none;fill:#005800;fill-opacity:1;fill-rule:nonzero;stroke:none;stroke-width:0.03785933;stroke-linecap:butt;stroke-linejoin:miter;stroke-miterlimit:4;stroke-dasharray:none;stroke-dashoffset:0;stroke-opacity:1;color-rendering:auto;image-rendering:auto;shape-rendering:auto;text-rendering:auto;enable-background:accumulate" />
      <path
         sodipodi:nodetypes="ccccccccccccccccccccccccccccccccccccccccccccccc"
         inkscape:connector-curvature="0"
         id="rect4574"
         d="m 195.43247,472.5372 -2.52557,2.30212 h 7.54407 l 2.35735,-2.30211 v 0 z m 14.89233,0 -0.11299,2.30212 h 3.91639 l 3.31387,-2.30212 z m 13.73246,0 -1.47115,2.30212 h 12.8312 l 1.14227,-2.30212 z m 17.5193,0 -1.01925,2.30212 h 9.07844 l 0.59413,-2.30212 z m 24.55778,0 0.0301,1.03181 0.48704,0.9314 0.37406,0.33891 h 11.14316 l -0.13055,-0.22845 -0.41674,-0.95399 -0.28871,-1.11968 z m 16.89473,0 0.0301,0.1431 -0.13555,1.51132 -0.31884,0.6477 h 11.3249 l -1.35065,-2.30212 z m 13.65814,0 1.07701,2.30212 h 7.00836 l -1.34063,-2.30212 z m 15.7198,0 1.94314,2.30212 h 11.88627 l -2.41511,-2.30212 z"
         style="color:#000000;clip-rule:nonzero;display:inline;overflow:visible;visibility:visible;opacity:1;isolation:auto;mix-blend-mode:normal;color-interpolation:sRGB;color-interpolation-filters:linearRGB;solid-color:#000000;solid-opacity:1;vector-effect:none;fill:#40bffd;fill-opacity:1;fill-rule:nonzero;stroke:none;stroke-width:0.03785933;stroke-linecap:butt;stroke-linejoin:miter;stroke-miterlimit:4;stroke-dasharray:none;stroke-dashoffset:0;stroke-opacity:1;color-rendering:auto;image-rendering:auto;shape-rendering:auto;text-rendering:auto;enable-background:accumulate" />
      <path
         sodipodi:nodetypes="cssscccccccccccccccsscccccssccccssscccccsscccscccccssccsssccccccccssccccccccsscssc"
         inkscape:connector-curvature="0"
         id="rect4576"
         transform="matrix(1.2853795,0,0,1.2853795,26.646071,324.0608)"
         d="m 193.32422,109 v 0.0703 c 0,0.28252 -0.29007,0.50977 -0.65039,0.50977 h -5.91992 c -0.31341,0 -0.56059,-0.17553 -0.62305,-0.40625 l 0.0625,2.16992 h 7.76562 L 193.35547,109 Z m 1.8418,0 -0.004,0.0195 0.008,0.0293 V 109 Z m 22.51562,0 1.95313,2.34375 H 226.875 L 224.44336,109 h -0.002 v 0.0703 c 0,0.28252 -0.26367,0.50977 -0.58985,0.50977 h -5.35937 c -0.3696,-0.23456 -0.595,-0.38934 -0.81055,-0.58008 z m -65.68359,0.0176 -1.4375,1.03711 v -0.96289 c -0.0156,0.27186 -0.30509,0.48828 -0.66797,0.48828 h -6.12696 c -0.25834,0 -0.47494,-0.11247 -0.58789,-0.27344 l -0.0898,1.99219 h 10.92578 l 2.43164,-1.72656 c -0.0122,0.001 -0.0226,0.008 -0.0352,0.008 h -3.97461 c -0.24197,0 -0.4375,-0.22725 -0.4375,-0.50977 z m -14.19922,0.0703 -2.27735,2.25586 5.42188,-0.0449 1.67773,-1.84375 c -0.0782,0.0751 -0.17419,0.125 -0.28515,0.125 h -4.0918 c -0.24345,0 -0.43667,-0.21843 -0.44531,-0.49219 z m 32.0332,0.002 -0.91992,2.25391 6.04492,0.0195 0.0215,-0.0898 h 8.4121 l 0.31055,-0.21485 0.24219,-0.24218 v -1.71485 c -0.0422,0.26703 -0.58002,0.47852 -1.25781,0.47852 H 171.0957 c -0.68816,0 -1.23676,-0.21738 -1.26367,-0.49024 z m 33.28125,0.004 c -0.0182,0.27076 -0.32409,0.48633 -0.70898,0.48633 h -6.51758 c -0.29507,0 -0.54635,-0.12592 -0.65625,-0.30664 l 0.41601,1.54297 0.18164,0.1914 c 0.30619,0.12418 0.63124,0.12746 0.95118,0.17969 l 0.82422,0.10352 0.0996,0.0527 h 6.73438 z m 8.05664,0.0195 c -0.0162,0.26122 -0.16684,0.4668 -0.35742,0.4668 h -3.31055 c -0.0405,0 -0.19215,-0.27986 -0.22851,-0.29688 l 0.91797,2.06055 h 4.24023 z m -54.00195,0.0488 -1.13477,2.18164 h 9.17969 l 0.9375,-2.05273 c -0.13249,0.17022 -0.40698,0.28906 -0.73242,0.28906 h -7.45899 c -0.40181,0 -0.71982,-0.18119 -0.79101,-0.41797 z"
         style="color:#000000;clip-rule:nonzero;display:inline;overflow:visible;visibility:visible;opacity:1;isolation:auto;mix-blend-mode:normal;color-interpolation:sRGB;color-interpolation-filters:linearRGB;solid-color:#000000;solid-opacity:1;vector-effect:none;fill:#005800;fill-opacity:1;fill-rule:nonzero;stroke:none;stroke-width:0.02945381;stroke-linecap:butt;stroke-linejoin:miter;stroke-miterlimit:4;stroke-dasharray:none;stroke-dashoffset:0;stroke-opacity:1;color-rendering:auto;image-rendering:auto;shape-rendering:auto;text-rendering:auto;enable-background:accumulate" />
      <path
         sodipodi:nodetypes="cccccccc"
         inkscape:connector-curvature="0"
         id="path4641"
         d="m 281.98877,454.37414 h -10.56598 l -0.73847,0.25222 -0.71009,0.34083 -0.56806,0.42605 -0.17041,0.17042 13.44179,0.008 z"
         style="fill:#bd0a16;fill-opacity:1;fill-rule:evenodd;stroke:none;stroke-width:0.37859324px;stroke-linecap:butt;stroke-linejoin:miter;stroke-opacity:1" />
      <path
         sodipodi:nodetypes="ccccc"
         inkscape:connector-curvature="0"
         id="path4643"
         d="m 263.16799,455.56349 -0.32664,-1.18935 h -13.6369 l -0.69888,1.18952 z"
         style="opacity:1;vector-effect:none;fill:#bd0a16;fill-opacity:1;fill-rule:evenodd;stroke:none;stroke-width:0.37859324px;stroke-linecap:butt;stroke-linejoin:miter;stroke-miterlimit:4;stroke-dasharray:none;stroke-dashoffset:0;stroke-opacity:1" />
      <path
         sodipodi:nodetypes="ccccc"
         inkscape:connector-curvature="0"
         id="path4659"
         d="m 243.95814,455.56366 -0.099,-1.18952 h -7.62625 l -1.33522,1.18952 z"
         style="opacity:1;vector-effect:none;fill:#bd0a16;fill-opacity:1;fill-rule:evenodd;stroke:none;stroke-width:0.37859324px;stroke-linecap:butt;stroke-linejoin:miter;stroke-miterlimit:4;stroke-dasharray:none;stroke-dashoffset:0;stroke-opacity:1" />
      <path
         sodipodi:nodetypes="ccccc"
         inkscape:connector-curvature="0"
         id="path4666"
         d="m 219.98021,455.63396 -1.14428,-1.25982 h -5.06995 l -1.1968,1.18952 z"
         style="opacity:1;vector-effect:none;fill:#bd0a16;fill-opacity:1;fill-rule:evenodd;stroke:none;stroke-width:0.37859324px;stroke-linecap:butt;stroke-linejoin:miter;stroke-miterlimit:4;stroke-dasharray:none;stroke-dashoffset:0;stroke-opacity:1" />
      <path
         sodipodi:nodetypes="ccccc"
         inkscape:connector-curvature="0"
         id="path979"
         d="m 289.45695,455.56366 0.19336,-1.18952 h 14.79988 l 1.76741,1.18952 z"
         style="fill:#bd0a16;fill-opacity:1;fill-rule:evenodd;stroke:none;stroke-width:0.37859324px;stroke-linecap:butt;stroke-linejoin:miter;stroke-opacity:1" />
    </g>
  </g>
</svg>
