<?xml version="1.0" encoding="UTF-8" standalone="no"?>
<!DOCTYPE svg PUBLIC "-//W3C//DTD SVG 1.1//EN" "http://www.w3.org/Graphics/SVG/1.1/DTD/svg11.dtd">
<svg width="100%" height="100%" viewBox="0 0 95 80" version="1.1" xmlns="http://www.w3.org/2000/svg" xmlns:xlink="http://www.w3.org/1999/xlink" xml:space="preserve" style="fill-rule:evenodd;clip-rule:evenodd;stroke-linejoin:round;stroke-miterlimit:1.41421;">
    <g id="g4946" transform="matrix(0.614313,0,0,0.614313,-130.837,-179.902)">
        <rect id="path4924" x="212.981" y="292.851" width="153.211" height="129.808" style="fill:rgb(35,31,32);fill-rule:nonzero;"/>
        <g id="g4831">
            <path id="path5070" d="M282.392,299.126C275.894,300.049 270.422,301.79 265.367,304.124C258.715,307.196 253.204,311.406 248.255,316.36C243.366,321.247 239.486,327.044 236.467,333.92C234.995,337.27 233.785,340.919 232.894,345.018C231.627,350.861 231.23,358.72 232.151,365.199C233.073,371.686 234.779,377.193 237.153,382.228C240.282,388.869 244.425,394.38 249.384,399.34C254.256,404.208 260.108,408.096 266.945,411.126C270.289,412.608 273.965,413.828 278.047,414.695C283.915,415.944 291.71,416.362 298.227,415.441C304.721,414.52 310.195,412.771 315.252,410.44C321.907,407.368 327.42,403.151 332.364,398.206C337.222,393.354 341.155,387.464 344.151,380.647C345.633,377.274 346.855,373.622 347.724,369.543C348.967,363.697 349.388,355.872 348.468,349.368C347.548,342.89 345.83,337.362 343.467,332.341C340.336,325.681 336.197,320.19 331.233,315.227C326.372,310.37 320.51,306.441 313.675,303.443C308.688,301.248 302.827,299.505 296.23,298.886C293.968,298.676 291.607,298.507 289.207,298.617C286.802,298.733 284.562,298.82 282.392,299.126L282.392,299.126ZM288.642,295.257C293.749,295.012 298.549,295.637 302.871,296.506C311.494,298.239 318.515,301.488 324.745,305.645C330.972,309.793 336.197,314.866 340.548,320.852C345.954,328.283 350.109,337.228 351.742,348.44C352.069,350.707 352.219,353.058 352.335,355.589C352.571,360.631 351.969,365.512 351.118,369.813C349.41,378.414 346.094,385.458 341.978,391.689C340.958,393.24 339.829,394.723 338.674,396.154C332.89,403.314 325.858,409.115 317.069,413.299C313.609,414.941 309.851,416.366 305.696,417.433C301.57,418.494 296.925,419.246 292.006,419.252C289.332,419.252 286.812,419.276 284.417,419.071C277.383,418.471 271.33,416.675 265.873,414.342C262.285,412.805 258.895,411.006 255.814,408.894C246.524,402.521 239.398,394.468 234.235,383.95C232.533,380.483 231.147,376.663 230.127,372.554C229.611,370.47 229.156,368.32 228.848,366.064C228.535,363.788 228.402,361.411 228.283,358.891C228.043,353.871 228.681,348.992 229.531,344.692C231.235,336.09 234.552,328.994 238.67,322.815C244.862,313.534 253.181,306.284 263.61,301.241C268.853,298.704 274.73,296.812 281.499,295.852C283.772,295.527 286.118,295.378 288.642,295.257" style="fill:white;"/>
            <path id="path5072" d="M304.119,304.541C304.147,304.541 304.143,304.58 304.15,304.599C302.881,305.367 301.476,305.996 300.546,307.099C300.893,307.471 301.251,307.83 301.621,308.171C300.447,309.266 299.183,310.264 298.048,311.386C299.616,311.627 301.092,311.953 302.663,312.188C300.006,313.98 297.229,315.601 294.506,317.311C291.783,319.018 289.06,320.724 286.349,322.433C292.412,322.433 298.472,322.433 304.535,322.433C304.557,322.558 304.394,322.586 304.327,322.639C298.041,327.366 291.487,332.032 285.19,336.776C285.045,338.226 285.562,340.041 284.802,340.97C286.735,341.99 289.606,341.442 291.618,340.943C293.748,340.414 295.922,339.719 298.553,339.902C298.637,340.015 298.429,340.088 298.375,340.142C297.786,340.671 297.092,341.318 296.5,341.865C296.676,342.681 297.833,342.359 298.613,342.46C298.101,342.862 297.503,343.175 296.946,343.529C297.497,344.294 299.078,343.799 300.072,343.949C300.13,344.043 299.914,344.108 299.805,344.189C294.21,348.2 288.522,352.27 282.865,356.271C280.945,357.629 279.063,359.045 277.123,360.318C277.441,344.463 277.843,328.699 278.165,312.846C287.32,310.582 295.095,306.937 304.119,304.541" style="fill:rgb(255,242,0);"/>
            <path id="path5074" d="M268.374,316.864C269.192,316.611 270.059,316.147 270.931,315.853C270.931,316.186 270.931,316.529 270.931,316.864C271.745,316.486 272.678,315.814 273.492,315.434C273.492,329.048 273.492,342.662 273.492,356.271C273.345,356.329 273.252,356.157 273.165,356.092C265.781,350.885 259.747,344.146 251.974,339.306C249.138,345.946 246.301,352.584 243.49,359.247C243.906,349.162 244.386,338.478 244.891,328.173C244.909,327.813 244.874,327.378 244.947,327.19C245.013,327.032 245.307,326.92 245.515,326.777C246.828,325.866 247.889,324.516 248.997,323.531C253.929,327.253 258.775,331.055 263.703,334.784C265.627,328.088 266.987,320.825 267.838,313.054C267.922,314.377 268.725,315.395 268.374,316.864" style="fill:rgb(255,242,0);"/>
            <path id="path5076" d="M329.834,349.099C329.568,349.635 329.286,350.323 328.973,350.737C327.421,352.761 323.967,353.299 320.548,353.145C321.909,353.799 323.115,354.575 324.864,354.726C326.695,354.88 328.251,354.045 329.271,353.265C331.496,351.561 332.354,348.35 332.277,344.425C332.272,344.407 332.27,344.391 332.247,344.395C331.486,345.98 330.597,347.557 329.834,349.1L329.834,349.099ZM311.292,337.045C311.323,337.321 311.512,337.727 311.888,337.817C312.167,337.886 312.706,337.843 313.049,337.817C313.551,337.783 314.05,337.615 314.328,337.401C314.487,337.277 314.787,336.93 314.832,336.686C315.024,335.672 314.061,335.772 313.347,335.495C313.107,335.404 312.977,335.246 312.78,335.259C312.128,335.306 311.198,336.241 311.292,337.045L311.292,337.045ZM321.559,329.097C320.827,329.752 320,330.537 319.895,331.745C319.872,331.994 319.835,332.364 319.923,332.667C320.086,333.228 320.865,333.768 321.532,333.828C321.838,333.858 322.149,333.742 322.483,333.772C322.725,333.789 323.044,333.969 323.376,333.858C323.857,333.704 324.062,333.003 324.062,332.311C324.06,332.1 323.972,331.857 324.002,331.625C324.047,331.28 324.358,330.863 324.212,330.378C324.082,329.95 323.528,329.667 323.137,329.513C322.61,329.303 322.181,329.264 321.649,329.037C321.616,329.052 321.581,329.067 321.559,329.097L321.559,329.097ZM310.787,317.338C316.057,318.719 321.238,320.18 326.5,321.568C326.502,321.598 326.539,321.593 326.561,321.598C329.488,325.926 332.872,329.735 335.61,334.338C336.937,336.566 338.168,338.979 338.912,341.926C339.432,343.984 339.698,346.751 339.36,349.275C339.313,349.631 339.233,350.029 339.152,350.439C339.077,350.798 339.064,351.307 338.912,351.568C338.796,351.763 338.411,351.988 338.198,352.161C335.583,354.302 334.269,357.773 332.364,360.734C331.69,361.787 330.893,362.852 329.984,363.562C328.9,364.406 327.563,364.821 325.965,364.428C325.292,364.26 324.685,364.003 324.092,363.682C323.797,363.523 323.534,363.348 323.229,363.236C320.3,362.194 318.279,360.408 316.441,358.263C313.234,354.53 311.057,349.734 308.377,345.406C307.7,344.318 306.866,343.319 306.412,342.132C304.993,338.446 303.509,334.539 302.037,330.824C302.303,330.205 302.749,329.686 303.108,329.125C304.895,326.346 306.761,323.552 308.555,320.732C309.272,319.606 310.076,318.367 310.787,317.338" style="fill:rgb(255,242,0);"/>
            <path id="path5078" d="M300.546,381.868C294.64,381.593 288.618,381.176 282.69,380.827C285.505,387.751 288.522,394.736 291.38,401.721C290.669,401.721 289.953,401.721 289.237,401.721C289.237,402.058 289.237,402.493 289.237,402.942C289.237,403.362 289.147,403.905 289.237,404.158C289.31,404.359 289.561,404.299 289.623,404.486C288.878,404.193 288.181,403.848 287.778,403.209C286.988,403.734 287.489,405.298 287.335,406.306C287.26,406.352 287.166,406.146 287.095,406.035C282.227,398.322 277.295,390.474 272.423,382.759C279.699,372.706 287.047,362.723 294.358,352.699C299.016,356.063 303.586,359.521 308.229,362.91C307.301,362.584 306.658,363.395 306.292,364.009C306.759,365.526 308.319,365.948 308.852,367.404C308.495,367.637 308.096,367.701 307.661,367.609C306.914,367.456 305.872,366.506 305.429,367.345C305.365,367.465 305.234,367.778 305.249,367.937C305.281,368.237 305.752,368.527 305.992,368.773C306.283,369.059 306.566,369.342 306.68,369.514C301.72,367.697 296.784,365.859 291.856,364.009C294.675,369.918 297.653,375.933 300.546,381.868" style="fill:rgb(11,142,216);"/>
            <path id="path5080" d="M273.909,371.66C272.286,371.118 271.015,370.139 269.742,369.218C268.487,368.31 267.217,367.379 265.841,366.54C263.964,365.388 261.453,364.024 258.284,364.249C257.348,364.311 256.341,364.466 255.604,364.843C255.004,365.151 254.458,365.739 253.997,366.24C252.577,367.802 251.521,369.771 251.199,372.402C250.739,376.207 251.996,379.511 253.253,382.135C254.535,384.809 256.302,387.091 258.284,389.071C260.281,391.068 262.672,392.73 265.339,393.981C264.51,390.234 265.241,384.925 261.558,383.979C260.374,383.676 258.784,383.843 257.155,383.8C257.1,383.667 257.406,383.513 257.569,383.419C258.108,383.091 258.863,382.855 259.178,382.313C258.342,381.808 257.488,381.324 256.648,380.827C257.979,380.301 258.617,379.086 259.623,378.238C259.131,377.906 258.524,377.531 258.165,377.167C261.734,376.335 265.249,375.457 268.821,374.632C270.353,386.375 271.93,398.078 273.492,409.785C268.733,407.848 264.29,405.397 260.279,402.586C256.313,399.801 252.675,396.595 249.892,392.553C247.809,389.533 246.083,386.153 245.426,381.687C245.204,380.188 245.307,378.525 245.307,376.721C245.307,370.884 246.207,365.727 248.403,361.925C248.713,361.389 249.005,360.806 249.384,360.379C249.669,360.058 250.094,359.765 250.457,359.456C252.227,357.958 254.033,356.418 256.409,355.441C257.331,355.056 258.415,354.691 259.534,354.606C262.091,354.405 264.242,355.233 265.726,356.271C270.349,359.512 271.137,366.625 273.909,371.66" style="fill:rgb(11,142,216);"/>
            <path id="path5082" d="M305.191,392.076C304.955,392.428 304.577,393.159 304.565,393.621C304.545,394.328 304.951,395.227 305.369,395.769C306.472,397.2 308.533,397.59 309.981,398.533C310.264,398.721 310.5,399.024 310.815,399.192C311.4,399.498 312.272,399.614 313.019,399.637C315.651,399.71 317.497,398.605 319.092,397.671C318.268,396.072 318.47,393.451 316.977,392.524C316.671,392.721 316.473,392.897 316.174,393.056C313.5,394.478 310.067,392.448 309.714,389.966C309.694,389.966 309.675,389.966 309.656,389.966C307.774,390.3 306.112,390.699 305.191,392.076L305.191,392.076ZM328.732,383.681C329.055,382.446 328.013,381.59 326.77,381.718C325.789,381.818 324.782,382.654 325.013,383.745C325.211,384.661 326.256,385.745 327.574,385.316C327.856,384.732 328.562,384.344 328.732,383.681L328.732,383.681ZM321.44,378.266C321.718,377.868 322.056,377.287 322.068,376.749C322.078,376.207 321.81,375.607 321.62,375.29C320.833,373.979 318.843,373.966 316.949,374.184C316.4,375.894 315.153,379.044 316.977,380.201C318.804,379.903 320.555,379.558 321.44,378.266L321.44,378.266ZM314.417,368.444C321.371,368.444 328.325,368.444 335.282,368.444C334.783,374.998 334.318,381.558 333.823,388.209C333.804,388.439 333.839,388.744 333.794,388.86C333.742,388.996 333.356,389.202 333.112,389.37C327.786,393.018 324.319,398.635 319.627,402.912C317.194,405.131 314.438,407.237 310.461,407.822C309.073,408.024 307.483,407.989 306.084,407.732C302.194,407.012 299.273,405.136 298.793,400.945C298.326,396.883 299.851,392.931 299.269,388.86C299.222,388.548 299.037,388.16 299.058,387.909C299.084,387.635 299.798,386.894 299.98,386.658C304.137,381.396 308.258,376.183 312.423,370.945C313.09,370.105 313.718,369.242 314.417,368.444" style="fill:rgb(11,142,216);"/>
            <path id="path5084" d="M312.423,370.945C308.258,376.183 304.137,381.396 299.98,386.658C299.798,386.894 299.084,387.635 299.058,387.909C299.037,388.16 299.222,388.548 299.269,388.86C299.851,392.931 298.326,396.883 298.793,400.945C299.273,405.136 302.194,407.012 306.084,407.732C307.483,407.989 309.073,408.024 310.461,407.822C314.438,407.237 317.194,405.131 319.627,402.912C324.319,398.635 327.786,393.018 333.112,389.371C333.356,389.202 333.743,388.996 333.794,388.86C333.839,388.744 333.804,388.439 333.823,388.209C334.318,381.558 334.783,374.998 335.282,368.444C328.325,368.444 321.371,368.444 314.417,368.444C313.718,369.242 313.09,370.105 312.423,370.945L312.423,370.945ZM265.726,356.271C264.242,355.233 262.091,354.405 259.534,354.606C258.415,354.691 257.331,355.056 256.409,355.441C254.033,356.418 252.227,357.958 250.457,359.456C250.094,359.765 249.669,360.058 249.384,360.379C249.005,360.806 248.713,361.389 248.403,361.925C246.207,365.727 245.307,370.884 245.307,376.721C245.307,378.525 245.204,380.188 245.426,381.687C246.083,386.153 247.809,389.533 249.892,392.553C252.675,396.595 256.313,399.801 260.279,402.586C264.29,405.397 268.733,407.848 273.492,409.785C271.93,398.078 270.353,386.375 268.821,374.632C265.249,375.457 261.734,376.335 258.165,377.167C258.524,377.531 259.131,377.906 259.623,378.238C258.617,379.086 257.979,380.301 256.648,380.827C257.488,381.324 258.342,381.808 259.178,382.313C258.863,382.855 258.108,383.091 257.569,383.419C257.406,383.513 257.1,383.667 257.155,383.8C258.784,383.843 260.374,383.676 261.558,383.979C265.241,384.925 264.51,390.234 265.339,393.981C262.672,392.73 260.281,391.068 258.284,389.071C256.302,387.091 254.535,384.809 253.253,382.135C251.996,379.511 250.739,376.207 251.199,372.402C251.521,369.771 252.577,367.802 253.997,366.24C254.458,365.739 255.004,365.151 255.604,364.843C256.341,364.466 257.348,364.311 258.284,364.249C261.453,364.024 263.964,365.388 265.841,366.54C267.217,367.379 268.487,368.31 269.742,369.218C271.015,370.139 272.286,371.118 273.909,371.66C271.137,366.625 270.349,359.512 265.726,356.271ZM291.856,364.009C296.784,365.859 301.72,367.697 306.68,369.514C306.566,369.342 306.283,369.059 305.992,368.773C305.752,368.527 305.281,368.237 305.249,367.937C305.234,367.778 305.365,367.465 305.429,367.345C305.872,366.506 306.914,367.456 307.661,367.609C308.096,367.701 308.495,367.637 308.852,367.404C308.319,365.948 306.759,365.526 306.292,364.009C306.658,363.395 307.301,362.584 308.229,362.91C303.586,359.521 299.016,356.063 294.358,352.699C287.047,362.723 279.699,372.706 272.423,382.759C277.295,390.474 282.227,398.322 287.095,406.035C287.166,406.146 287.26,406.352 287.335,406.306C287.489,405.298 286.988,403.734 287.778,403.209C288.181,403.848 288.878,404.193 289.623,404.486C289.561,404.299 289.31,404.359 289.237,404.158C289.147,403.905 289.237,403.362 289.237,402.942C289.237,402.493 289.237,402.058 289.237,401.721C289.953,401.721 290.669,401.721 291.38,401.721C288.522,394.736 285.505,387.751 282.69,380.827C288.618,381.176 294.64,381.593 300.546,381.868C297.653,375.933 294.675,369.918 291.856,364.009L291.856,364.009ZM308.555,320.732C306.761,323.552 304.895,326.346 303.108,329.125C302.749,329.686 302.303,330.205 302.037,330.824C303.509,334.539 304.993,338.446 306.412,342.132C306.866,343.319 307.7,344.318 308.377,345.406C311.057,349.734 313.234,354.53 316.441,358.263C318.279,360.408 320.3,362.194 323.229,363.236C323.534,363.348 323.797,363.523 324.092,363.682C324.685,364.003 325.292,364.26 325.965,364.428C327.563,364.821 328.9,364.406 329.984,363.562C330.893,362.852 331.689,361.787 332.364,360.734C334.269,357.773 335.583,354.302 338.198,352.161C338.411,351.988 338.796,351.763 338.912,351.568C339.064,351.307 339.077,350.798 339.152,350.439C339.233,350.029 339.313,349.631 339.36,349.275C339.698,346.751 339.432,343.984 338.912,341.926C338.168,338.979 336.937,336.566 335.61,334.338C332.872,329.735 329.487,325.926 326.561,321.598C326.539,321.593 326.503,321.598 326.5,321.568C321.238,320.18 316.057,318.719 310.787,317.338C310.076,318.367 309.272,319.606 308.555,320.732L308.555,320.732ZM267.838,313.054C266.987,320.825 265.627,328.088 263.703,334.784C258.775,331.055 253.929,327.253 248.997,323.531C247.889,324.516 246.828,325.866 245.515,326.777C245.307,326.92 245.013,327.032 244.947,327.19C244.874,327.378 244.909,327.813 244.891,328.173C244.386,338.477 243.906,349.162 243.49,359.247C246.301,352.584 249.138,345.946 251.974,339.306C259.748,344.146 265.781,350.885 273.165,356.092C273.252,356.157 273.345,356.329 273.492,356.271C273.492,342.662 273.492,329.048 273.492,315.434C272.678,315.814 271.745,316.486 270.931,316.864C270.931,316.529 270.931,316.186 270.931,315.853C270.059,316.147 269.192,316.611 268.374,316.864C268.725,315.395 267.922,314.377 267.838,313.054L267.838,313.054ZM278.165,312.846C277.843,328.699 277.441,344.463 277.123,360.318C279.063,359.045 280.945,357.629 282.865,356.271C288.522,352.27 294.21,348.2 299.805,344.189C299.914,344.108 300.13,344.044 300.072,343.949C299.078,343.799 297.497,344.294 296.946,343.529C297.503,343.175 298.101,342.862 298.613,342.46C297.833,342.359 296.676,342.681 296.5,341.865C297.092,341.318 297.786,340.671 298.375,340.142C298.429,340.088 298.637,340.015 298.553,339.902C295.922,339.719 293.748,340.414 291.618,340.943C289.606,341.442 286.735,341.99 284.802,340.971C285.562,340.041 285.045,338.226 285.19,336.776C291.487,332.032 298.041,327.366 304.327,322.64C304.394,322.586 304.557,322.558 304.535,322.433C298.472,322.433 292.413,322.433 286.35,322.433C289.06,320.724 291.783,319.018 294.506,317.311C297.229,315.601 300.006,313.98 302.663,312.188C301.092,311.953 299.616,311.627 298.048,311.386C299.183,310.264 300.447,309.266 301.621,308.171C301.251,307.83 300.893,307.471 300.546,307.099C301.476,305.996 302.881,305.367 304.15,304.599C304.143,304.58 304.148,304.541 304.119,304.541C295.095,306.937 287.32,310.582 278.165,312.846L278.165,312.846ZM289.207,298.617C291.607,298.507 293.968,298.676 296.23,298.886C302.827,299.505 308.688,301.248 313.675,303.443C320.51,306.441 326.372,310.37 331.233,315.227C336.197,320.19 340.336,325.681 343.467,332.341C345.83,337.362 347.548,342.89 348.468,349.368C349.388,355.872 348.967,363.697 347.724,369.543C346.855,373.622 345.633,377.274 344.151,380.647C341.155,387.464 337.222,393.354 332.364,398.206C327.42,403.151 321.907,407.368 315.252,410.44C310.195,412.771 304.721,414.52 298.227,415.441C291.71,416.362 283.915,415.944 278.047,414.695C273.965,413.828 270.289,412.609 266.945,411.126C260.108,408.096 254.256,404.208 249.384,399.34C244.425,394.38 240.282,388.869 237.153,382.228C234.779,377.193 233.073,371.686 232.151,365.199C231.23,358.72 231.627,350.861 232.894,345.018C233.785,340.919 234.995,337.27 236.467,333.92C239.486,327.044 243.366,321.247 248.255,316.36C253.204,311.406 258.715,307.196 265.367,304.124C270.422,301.79 275.894,300.049 282.392,299.126C284.562,298.82 286.802,298.733 289.207,298.617" style="fill:rgb(35,31,32);"/>
        </g>
    </g>
</svg>
