<?xml version="1.0" encoding="UTF-8" standalone="no"?>
<!DOCTYPE svg PUBLIC "-//W3C//DTD SVG 1.1//EN" "http://www.w3.org/Graphics/SVG/1.1/DTD/svg11.dtd">
<svg width="100%" height="100%" viewBox="0 0 240 81" version="1.1" xmlns="http://www.w3.org/2000/svg" xmlns:xlink="http://www.w3.org/1999/xlink" xml:space="preserve" style="fill-rule:evenodd;clip-rule:evenodd;stroke-linejoin:round;stroke-miterlimit:1.41421;">
    <g id="NeoGeo" transform="matrix(0.460624,0,0,-0.460624,-24.2399,348.994)">
        <path id="path14" d="M52.624,582.192L572.176,582.192L572.176,757.656L52.624,757.656L52.624,582.192L52.624,582.192Z" style="fill:rgb(244,23,28);"/>
        <path id="path16" d="M465.04,605.376L410.32,605.376C408.376,605.376 406.504,605.448 404.632,605.736C402.832,605.952 401.176,606.312 399.664,606.744C397.504,607.248 395.92,608.328 394.912,609.192C394.048,609.984 393.616,610.848 393.616,611.712L393.616,621.216C393.832,622.008 394.408,623.016 395.344,623.736C396.28,624.456 397.576,625.104 399.088,625.536C400.672,625.968 402.4,626.328 404.344,626.544C406.36,626.76 408.448,626.904 410.752,626.904L465.04,626.904L465.04,624.024L410.752,624.024C408.448,624.024 406.432,623.952 404.632,623.736C402.904,623.52 401.176,623.16 399.592,622.728C397.432,622.08 397,621.288 396.568,620.208L396.496,617.976L464.968,617.976L465.04,615.024L396.568,615.024L396.568,611.928C396.568,611.136 397.144,610.344 400.024,609.552C401.464,609.192 403.048,608.904 404.848,608.688C406.648,608.4 408.448,608.328 410.248,608.328L465.04,608.328L465.04,605.376L465.04,605.376Z" style="fill:white;fill-rule:nonzero;"/>
        <path id="path18" d="M352,605.376L351.856,605.376L352,605.376Z" style="fill:white;fill-rule:nonzero;"/>
        <path id="path20" d="M384.976,623.88L350.488,623.88L350.488,605.376L347.464,605.376L347.464,623.88L313.048,623.88L313.048,626.904L384.976,626.904L384.976,623.88L384.976,623.88Z" style="fill:white;fill-rule:nonzero;"/>
        <path id="path22" d="M212.968,614.304L193.024,614.304L193.024,605.376L190,605.376L190,614.304L164.224,614.304C160.336,614.304 155.512,614.808 155.512,620.568L155.512,626.904L158.68,626.904L158.68,620.856C158.68,617.04 162.352,617.4 164.728,617.4L218.944,617.4C221.392,617.4 225.064,617.04 225.064,620.856L225.064,626.904L228.088,626.904L228.088,620.568C228.088,614.808 223.264,614.304 219.376,614.304L212.968,614.304L212.968,614.304Z" style="fill:white;fill-rule:nonzero;"/>
        <path id="path24" d="M147.736,623.808L90.136,623.808C87.256,623.808 84.664,623.304 82.792,622.512C81.352,621.936 80.488,621.288 80.488,620.712C80.488,620.136 81.352,619.488 82.792,618.912C84.664,618.192 87.256,617.688 90.136,617.688L135.064,617.688C137.224,617.688 139.312,617.472 141.04,617.04C141.976,616.824 142.768,616.536 143.56,616.248C144.352,615.888 145.072,615.528 145.648,615.168C147.016,614.16 147.808,612.936 147.808,611.568L147.808,611.496C147.808,609.552 146.152,607.896 143.56,606.816C141.328,605.952 138.304,605.376 135.064,605.376L78.256,605.376L78.256,608.472L135.064,608.472C137.944,608.472 140.536,608.976 142.408,609.696C143.776,610.344 144.712,610.992 144.712,611.496L144.712,611.568C144.712,611.856 144.352,612.216 143.848,612.576C143.416,612.864 142.912,613.08 142.408,613.368C141.76,613.584 141.112,613.8 140.32,614.016C138.808,614.376 137.008,614.592 135.064,614.592L115.12,614.592L90.136,614.592C86.896,614.592 83.872,615.096 81.64,616.032C79.048,617.112 77.392,618.768 77.392,620.712C77.392,622.728 79.048,624.384 81.64,625.464C83.872,626.328 86.896,626.904 90.136,626.904L147.736,626.904L147.736,623.808L147.736,623.808Z" style="fill:white;fill-rule:nonzero;"/>
        <path id="path26" d="M305.776,623.808L248.248,623.808C245.368,623.808 242.776,623.304 240.904,622.512C239.464,621.936 238.6,621.288 238.6,620.712C238.6,620.136 239.464,619.488 240.904,618.912C242.776,618.192 245.368,617.688 248.248,617.688L293.176,617.688C295.336,617.688 297.424,617.472 299.08,617.04C300.016,616.824 300.808,616.536 301.6,616.248C302.392,615.888 303.112,615.528 303.688,615.168L303.616,615.168C305.056,614.16 305.848,612.936 305.848,611.568L305.848,611.496C305.848,609.552 304.192,607.896 301.6,606.816C299.368,605.952 296.416,605.376 293.176,605.376L236.368,605.376L236.368,608.472L293.176,608.472C296.056,608.472 298.576,608.976 300.376,609.696C301.816,610.344 302.752,610.992 302.752,611.496L302.752,611.568C302.752,611.856 302.392,612.216 301.888,612.576C301.456,612.864 300.952,613.08 300.448,613.368C299.8,613.584 299.152,613.8 298.432,614.016C296.92,614.376 295.12,614.592 293.176,614.592L273.232,614.592L248.248,614.592C245.008,614.592 241.984,615.096 239.752,616.032C237.16,617.112 235.504,618.768 235.504,620.712C235.504,622.728 237.088,624.384 239.752,625.464C241.984,626.328 245.008,626.904 248.248,626.904L305.776,626.904L305.776,623.808L305.776,623.808Z" style="fill:white;fill-rule:nonzero;"/>
        <path id="path28" d="M545.824,626.904C546.616,626.904 547.408,626.328 547.408,625.392L547.408,605.376L544.456,605.376L544.456,622.728L511.768,606.24L511.336,606.096C509.536,605.376 509.032,605.52 507.736,606.096L507.304,606.312L474.904,622.8L474.904,605.376L471.808,605.376L471.808,625.464C471.808,626.4 472.6,626.904 473.32,626.904C473.752,626.904 473.968,626.832 474.328,626.616L508.024,609.264C509.32,608.688 509.536,608.4 511.12,609.192L540.928,624.384L545.176,626.688C545.392,626.832 545.68,626.904 545.824,626.904L545.824,626.904Z" style="fill:white;fill-rule:nonzero;"/>
        <path id="path30" d="M397.288,724.248L397.288,698.544L395.272,698.544C392.896,705.6 389.296,710.928 384.472,714.528C379.72,718.2 376.84,720.072 371.152,720.072C365.752,720.072 361.216,718.488 357.616,715.464C353.944,712.368 351.424,708.12 349.912,702.648C348.4,697.176 347.68,691.56 347.68,685.8C347.68,678.816 348.472,672.696 350.128,667.44C351.784,662.112 354.448,659.304 358.12,656.856C361.792,654.408 364.744,653.184 369.784,653.184C371.584,653.184 373.384,653.328 375.184,653.688C377.056,654.12 378.496,654.624 380.44,655.344L380.44,673.92C380.44,676.8 380.224,678.672 379.864,679.536C379.432,680.328 378.64,681.12 377.416,681.768C376.192,682.488 374.68,682.848 372.88,682.848L371.008,682.848L371.008,684.792L406.432,684.792L406.432,682.848C403.768,682.632 401.896,682.272 400.816,681.696C399.736,681.192 398.944,680.256 398.368,678.96C398.08,678.24 397.936,676.584 397.864,673.92L397.72,655.92C393.112,653.904 388.864,652.176 383.824,651.096C378.784,650.088 373.528,649.224 368.128,649.224C361.216,649.224 356.824,649.728 352.288,651.6C347.68,653.472 343.72,655.2 340.192,658.224C336.736,661.32 334,664.776 331.984,668.592C329.536,673.56 328.24,679.032 328.24,685.224C328.24,696.168 332.128,705.384 339.832,712.944C347.464,720.504 357.184,724.248 368.848,724.248C374.176,724.248 378.928,722.88 383.896,721.008C387.424,719.64 389.512,718.992 390.16,718.992C391.168,718.992 392.032,719.352 392.896,720.072C393.76,720.792 394.552,722.16 395.272,724.248L397.288,724.248Z" style="fill:white;fill-rule:nonzero;"/>
        <path id="path32" d="M266.536,719.568C259.696,719.496 254.584,716.256 251.056,709.776C248.104,704.52 246.664,696.816 246.664,686.88C246.664,675 248.752,666.072 253.216,660.456C256.384,656.496 260.92,654.624 266.536,654.624L266.536,649.08L266.464,649.08C252.64,649.08 241.912,653.472 234.352,662.256C228.376,669.168 225.352,677.376 225.352,686.88C225.352,697.536 229.24,706.464 237.016,713.52C244.792,720.648 254.368,724.032 265.744,723.6C266.032,723.6 266.248,723.6 266.536,723.6L266.536,719.568L266.536,719.568ZM266.68,719.568C266.608,719.568 266.536,719.568 266.536,719.568L266.536,723.6C278.416,723.888 288.208,720.504 295.696,713.592C303.328,706.464 307.144,697.608 307.144,686.952C307.144,677.808 304.264,669.816 298.576,662.832C291.016,653.688 280.36,649.08 266.536,649.08L266.536,654.624C270.352,654.624 273.664,655.632 276.184,657.36C279.424,659.52 281.512,663.048 283.312,667.872C285.112,672.624 286.336,678.744 286.336,686.448C286.336,695.664 285.4,702.504 283.528,707.04C281.728,711.648 279.352,714.816 276.544,716.76C273.664,718.632 270.352,719.568 266.68,719.568L266.68,719.568Z" style="fill:white;fill-rule:nonzero;"/>
        <path id="path34" d="M187.048,718.344L187.048,689.616L188.632,689.616C193.6,689.616 195.544,691.056 197.776,694.008C200.008,696.888 201.448,701.136 202.024,706.824L204.256,706.824L204.256,668.664L202.024,668.664C201.592,672.84 200.584,676.224 199.144,678.888C197.632,681.552 195.904,683.352 193.96,684.216C192.016,685.152 190.792,685.584 187.048,685.584L187.048,664.2C187.048,660.168 187.264,657.72 187.624,656.856C187.984,655.92 188.632,655.2 189.64,654.624C190.648,654.048 192.232,653.76 194.536,653.76L199.216,653.76C206.488,653.76 208.576,655.344 212.968,658.512C217.36,661.608 220.384,665.208 222.328,671.688L224.488,671.688L221.104,649.728L157.096,649.728L157.096,651.744L159.76,651.744C161.992,651.744 163.864,652.104 165.232,652.824C166.24,653.328 167.032,654.192 167.536,655.416C167.968,656.28 168.184,658.512 168.184,662.184L168.184,710.136C168.184,713.376 168.112,715.392 167.896,716.184C167.536,717.408 166.816,718.416 165.736,719.064C164.296,720.072 162.28,720.576 159.76,720.576L157.096,720.576L157.096,722.592L222.76,722.592L222.76,701.064L220.6,701.064C219.448,706.32 217.936,710.064 215.848,712.368C213.832,714.672 211.024,716.328 207.28,717.408C205.12,718.056 201.088,718.344 195.112,718.344L187.048,718.344L187.048,718.344Z" style="fill:white;fill-rule:nonzero;"/>
        <path id="path36" d="M101.944,722.592L142.336,677.376L142.336,708.696C142.336,713.088 141.688,716.04 140.248,717.552C138.304,719.64 136,720.648 131.392,720.576L131.392,722.592L155.8,722.592L155.8,720.576C152.344,720.216 151.768,719.64 150.616,719.064C149.392,718.416 148.456,717.408 147.808,715.968C147.16,714.6 146.8,712.152 146.8,708.696L146.8,648.072L144.784,648.072L89.344,708.696L89.344,662.4C89.344,658.224 90.424,655.416 92.584,653.904C94.744,652.464 97.192,651.744 100,651.744L101.944,651.744L101.944,649.728L72.856,649.728L72.856,651.744C77.392,651.744 80.488,652.608 82.288,654.192C84.016,655.776 84.952,658.512 84.952,662.4L84.952,713.808L83.152,715.752C81.424,717.696 79.912,718.92 78.616,719.568C77.248,720.144 78.472,720.504 76.024,720.576L76.024,722.592L101.944,722.592Z" style="fill:white;fill-rule:nonzero;"/>
        <path id="path38" d="M511.264,719.568C504.424,719.496 499.312,716.256 495.784,709.776C492.832,704.52 491.392,696.816 491.392,686.88C491.392,675 493.48,666.072 497.944,660.456C501.112,656.496 505.648,654.624 511.264,654.624L511.264,649.08L511.192,649.08C497.368,649.08 486.64,653.472 479.08,662.256C473.104,669.168 470.08,677.376 470.08,686.88C470.08,697.536 473.968,706.464 481.744,713.52C489.52,720.648 499.096,724.032 510.472,723.6C510.76,723.6 510.976,723.6 511.264,723.6L511.264,719.568L511.264,719.568ZM511.408,719.568C511.336,719.568 511.264,719.568 511.264,719.568L511.264,723.6C523.144,723.888 532.936,720.504 540.424,713.592C548.128,706.464 551.944,697.608 551.944,686.952C551.944,677.808 549.064,669.816 543.376,662.832C535.744,653.688 525.088,649.08 511.264,649.08L511.264,654.624C515.08,654.624 518.392,655.632 520.912,657.36C524.152,659.52 526.24,663.048 528.04,667.872C529.84,672.624 531.064,678.744 531.064,686.448C531.064,695.664 530.128,702.504 528.256,707.04C526.456,711.648 524.08,714.816 521.272,716.76C518.392,718.632 515.08,719.568 511.408,719.568L511.408,719.568Z" style="fill:white;fill-rule:nonzero;"/>
        <path id="path40" d="M431.776,718.344L431.776,689.616L433.36,689.616C438.328,689.616 440.272,691.056 442.504,694.008C444.736,696.888 446.176,701.136 446.752,706.824L448.984,706.824L448.984,668.664L446.752,668.664C446.32,672.84 445.312,676.224 443.872,678.888C442.36,681.552 440.632,683.352 438.688,684.216C436.744,685.152 435.52,685.584 431.776,685.584L431.776,664.2C431.776,660.168 431.992,657.72 432.352,656.856C432.712,655.92 433.36,655.2 434.368,654.624C435.376,654.048 436.96,653.76 439.264,653.76L443.944,653.76C451.216,653.76 453.304,655.344 457.696,658.512C462.088,661.608 465.112,665.208 467.056,671.688L469.216,671.688L465.832,649.728L401.824,649.728L401.824,651.744L404.488,651.744C406.72,651.744 408.592,652.104 409.96,652.824C410.968,653.328 411.76,654.192 412.264,655.416C412.696,656.28 412.912,658.512 412.912,662.184L412.912,710.136C412.912,713.376 412.84,715.392 412.624,716.184C412.264,717.408 411.544,718.416 410.464,719.064C409.024,720.072 407.008,720.576 404.488,720.576L401.824,720.576L401.824,722.592L467.488,722.592L467.488,701.064L465.328,701.064C464.176,706.32 462.664,710.064 460.576,712.368C458.56,714.672 455.752,716.328 452.008,717.408C449.848,718.056 445.816,718.344 439.84,718.344L431.776,718.344L431.776,718.344Z" style="fill:white;fill-rule:nonzero;"/>
        <path id="path42" d="M317.224,693.72L317.656,693.72C321.76,693.72 325.072,690.48 325.072,686.592C325.072,682.704 321.76,679.536 317.656,679.536L317.224,679.536C313.12,679.536 309.808,682.704 309.808,686.592C309.808,690.48 313.12,693.72 317.224,693.72L317.224,693.72Z" style="fill:white;"/>
    </g>
</svg>
