<?xml version="1.0" encoding="UTF-8" standalone="no"?>
<!-- Generator: Adobe Illustrator 13.0.0, SVG Export Plug-In . SVG Version: 6.00 Build 14948)  -->

<svg
   xmlns:ns="&amp;#38;#38;#38;#38;ns_sfw;"
   xmlns:dc="http://purl.org/dc/elements/1.1/"
   xmlns:cc="http://creativecommons.org/ns#"
   xmlns:rdf="http://www.w3.org/1999/02/22-rdf-syntax-ns#"
   xmlns:svg="http://www.w3.org/2000/svg"
   xmlns="http://www.w3.org/2000/svg"
   xmlns:sodipodi="http://sodipodi.sourceforge.net/DTD/sodipodi-0.dtd"
   xmlns:inkscape="http://www.inkscape.org/namespaces/inkscape"
   version="1.1"
   id="svg2"
   x="0px"
   y="0px"
   width="94.119766"
   height="79.742737"
   viewBox="0.25 0 94.119765 79.742741"
   enable-background="new 0.25 0 567.927 113.032"
   xml:space="preserve"
   inkscape:version="0.91 r13725"
   sodipodi:docname="neo_geo_color.svg"><defs
     id="defs21" /><sodipodi:namedview
     pagecolor="#ffffff"
     bordercolor="#666666"
     borderopacity="1"
     objecttolerance="10"
     gridtolerance="10"
     guidetolerance="10"
     inkscape:pageopacity="0"
     inkscape:pageshadow="2"
     inkscape:window-width="1920"
     inkscape:window-height="1137"
     id="namedview19"
     showgrid="false"
     inkscape:zoom="2.5566666"
     inkscape:cx="32.750678"
     inkscape:cy="0.44550028"
     inkscape:window-x="-8"
     inkscape:window-y="-8"
     inkscape:window-maximized="1"
     inkscape:current-layer="g4889"
     fit-margin-top="0"
     fit-margin-left="0"
     fit-margin-right="0"
     fit-margin-bottom="0" /><metadata
     id="metadata3"><ns:sfw><ns:slices /><ns:sliceSourceBounds
         x="677.036"
         y="482.984"
         width="567.927"
         height="113.032"
         bottomLeftOrigin="true" /></ns:sfw><rdf:RDF><cc:Work
         rdf:about=""><dc:format>image/svg+xml</dc:format><dc:type
           rdf:resource="http://purl.org/dc/dcmitype/StillImage" /><dc:title></dc:title><dc:creator><cc:Agent><dc:title>UDb23</dc:title></cc:Agent></dc:creator></cc:Work></rdf:RDF></metadata><g
     transform="matrix(0.77798037,0,0,0.77798037,-45.508686,-226.95769)"
     id="g4889"><g
       id="g4946"
       transform="matrix(0.78962579,0,0,0.78962579,-109.35768,60.484066)"><path
         inkscape:connector-curvature="0"
         id="path4924"
         style="fill:#231f20;fill-opacity:1;fill-rule:nonzero;stroke:none"
         d="m 212.98057,292.85098 153.21134,0 0,129.80793 -153.21134,0 0,-129.80793 z" /><g
         id="g4831"><path
           d="m 282.39236,299.12605 c -6.49853,0.92311 -11.97013,2.66443 -17.02521,4.998 -6.65175,3.07221 -12.16318,7.28216 -17.11177,12.23592 -4.88977,4.88711 -8.76978,10.68432 -11.78832,17.56037 -1.47203,3.35009 -2.68252,6.99904 -3.57355,11.09727 -1.26681,5.84304 -1.66334,13.70194 -0.74206,20.18139 0.92129,6.48728 2.62711,11.99354 5.00142,17.02871 3.12937,6.64142 7.27175,12.15193 12.23159,17.11269 4.87152,4.86718 10.72323,8.75594 17.56037,11.78565 3.34409,1.48245 7.02063,2.7016 11.10251,3.56922 5.86813,1.24864 13.66296,1.66683 20.17965,0.74555 6.4942,-0.92128 11.96838,-2.66952 17.02521,-5.0005 6.65442,-3.07221 12.16759,-7.28916 17.11177,-12.23425 4.85769,-4.85245 8.79144,-10.74231 11.78657,-17.55946 1.48244,-3.37266 2.70418,-7.0242 3.57355,-11.10342 1.24256,-5.84647 1.66425,-13.67155 0.74381,-20.17532 -0.91954,-6.47778 -2.63753,-12.00562 -5.00051,-17.02695 -3.13111,-6.65959 -7.27008,-12.1511 -12.23425,-17.11436 -4.86111,-4.85686 -10.72323,-8.78543 -17.55771,-11.78399 -4.98759,-2.19417 -10.84796,-3.93724 -17.44522,-4.55632 -2.26258,-0.21046 -4.62298,-0.37927 -7.02321,-0.26929 -2.40547,0.11598 -4.64471,0.20347 -6.81464,0.50909 z m 6.24915,-3.86876 c 5.1079,-0.24504 9.9076,0.38011 14.22928,1.24857 8.62346,1.73266 15.64409,4.98242 21.87423,9.13955 6.22666,4.14763 11.45229,9.22087 15.80339,15.20681 5.40578,7.4303 9.5604,16.3758 11.19342,27.58745 0.32736,2.26691 0.47717,4.61865 0.59315,7.14968 0.23555,5.04125 -0.36627,9.92227 -1.2174,14.22404 -1.70758,8.60089 -5.02392,15.645 -9.13955,21.87598 -1.02001,1.55077 -2.14917,3.03405 -3.30425,4.46451 -5.78414,7.16009 -12.81609,12.96072 -21.60494,17.14468 -3.46007,1.64267 -7.21809,3.06788 -11.37263,4.13471 -4.12597,1.06068 -8.77152,1.81315 -13.6907,1.81923 -2.67386,0 -5.19364,0.0233 -7.5887,-0.18188 -7.03362,-0.6 -13.08713,-2.3959 -18.54398,-4.72863 -3.58822,-1.53694 -6.97737,-3.33626 -10.05908,-5.44819 -9.29019,-6.37296 -16.41563,-14.42584 -21.57894,-24.94385 -1.7015,-3.46699 -3.08779,-7.28649 -4.1078,-11.39604 -0.51609,-2.08419 -0.97069,-4.23421 -1.27898,-6.48987 -0.31254,-2.27557 -0.44593,-4.6533 -0.56541,-7.17309 -0.2398,-5.01958 0.39835,-9.89886 1.24864,-14.19888 1.70324,-8.6018 5.02042,-15.69782 9.13864,-21.87682 6.19199,-9.28152 14.51066,-16.53169 24.94035,-21.57468 5.24297,-2.5362 11.11984,-4.42817 17.88849,-5.38845 2.273,-0.32553 4.61956,-0.47451 7.14277,-0.59483"
           style="fill:#ffffff;fill-opacity:1;fill-rule:evenodd;stroke:none"
           id="path5070"
           inkscape:connector-curvature="0" /><path
           d="m 304.11936,304.54141 c 0.0278,0 0.0234,0.0389 0.0303,0.058 -1.26848,0.76721 -2.67385,1.3967 -3.6038,2.49987 0.3472,0.37145 0.70481,0.73081 1.07542,1.07193 -1.17415,1.0945 -2.43838,2.09285 -3.57354,3.2151 1.5681,0.24071 3.04446,0.56625 4.61522,0.8018 -2.65743,1.79156 -5.43352,3.41332 -8.15677,5.12265 -2.72319,1.70749 -5.44644,3.41332 -8.1567,5.12264 6.063,0 12.12252,0 18.18553,0 0.0217,0.12466 -0.14115,0.1524 -0.20781,0.20606 -6.28639,4.72604 -12.84041,9.39235 -19.13714,14.13656 -0.14547,1.44953 0.37229,3.26534 -0.38794,4.19445 1.93271,1.02001 4.80396,0.47192 6.81548,-0.0278 2.1301,-0.52908 4.30436,-1.22348 6.93489,-1.04076 0.0841,0.1134 -0.12382,0.18614 -0.17748,0.2398 -0.58882,0.52909 -1.28323,1.17674 -1.87464,1.72316 0.17573,0.81563 1.33256,0.49442 2.11277,0.59483 -0.51259,0.40269 -1.11008,0.71523 -1.66683,1.06942 0.55067,0.76455 2.13184,0.27013 3.12586,0.41994 0.058,0.0944 -0.15847,0.15847 -0.26754,0.23988 -5.59458,4.01081 -11.28264,8.08137 -16.93955,12.08178 -1.91963,1.35862 -3.8021,2.77433 -5.74172,4.04722 0.31778,-15.85454 0.71956,-31.61902 1.04167,-47.47181 9.15513,-2.26433 16.92997,-5.90887 25.95429,-8.30476"
           style="fill:#fff200;fill-opacity:1;fill-rule:evenodd;stroke:none"
           id="path5072"
           inkscape:connector-curvature="0" /><path
           d="m 268.37354,316.8639 c 0.81829,-0.2528 1.68591,-0.7169 2.55786,-1.01135 0,0.33337 0,0.67631 0,1.01135 0.81396,-0.37753 1.7465,-1.05027 2.56046,-1.42954 0,13.61355 0,27.22718 0,40.8364 -0.14723,0.0581 -0.23988,-0.11424 -0.32729,-0.17832 -7.38348,-5.20754 -13.41707,-11.94679 -21.19017,-16.78623 -2.83673,6.63967 -5.67339,13.2776 -8.48406,19.94068 0.41561,-10.08507 0.89537,-20.76939 1.40104,-31.07352 0.0172,-0.36019 -0.0173,-0.79488 0.0554,-0.98368 0.0667,-0.15756 0.3602,-0.26929 0.568,-0.41302 1.31355,-0.91087 2.37431,-2.26083 3.48173,-3.24535 4.93218,3.72161 9.77862,7.52379 14.70638,11.25231 1.92405,-6.69599 3.28435,-13.95908 4.13464,-21.72966 0.084,1.32313 0.88753,2.3414 0.536,3.80993"
           style="fill:#fff200;fill-opacity:1;fill-rule:evenodd;stroke:none"
           id="path5074"
           inkscape:connector-curvature="0" /><path
           d="m 329.83385,349.09949 c -0.2658,0.53593 -0.54809,1.22349 -0.8607,1.63734 -1.55169,2.02445 -5.00575,2.5622 -8.42516,2.40806 1.36121,0.65374 2.56737,1.43045 4.31568,1.58118 1.83132,0.15406 3.38733,-0.68148 4.40735,-1.46078 2.22533,-1.70408 3.08262,-4.91569 3.00554,-8.83993 -0.005,-0.0182 -0.007,-0.0347 -0.0294,-0.0303 -0.76113,1.58543 -1.65042,3.16228 -2.4133,4.70446 z m -18.5414,-12.05419 c 0.0303,0.27537 0.21906,0.68148 0.59575,0.77155 0.27879,0.0692 0.81829,0.026 1.16116,0 0.50134,-0.0337 1.00101,-0.20173 1.27897,-0.41561 0.1584,-0.12381 0.45885,-0.47109 0.50393,-0.71523 0.19222,-1.01401 -0.77155,-0.91353 -1.48503,-1.19148 -0.23988,-0.0901 -0.37061,-0.24855 -0.56716,-0.23555 -0.65199,0.0467 -1.58202,0.98194 -1.48762,1.78632 z m 10.26696,-7.94798 c -0.73255,0.65457 -1.55951,1.43995 -1.66425,2.64785 -0.0234,0.24855 -0.0598,0.61916 0.0277,0.92136 0.16281,0.56109 0.94211,1.10142 1.60884,1.16116 0.30654,0.0302 0.61741,-0.0857 0.95161,-0.0554 0.24163,0.0164 0.56109,0.19656 0.89278,0.0857 0.48052,-0.15406 0.68574,-0.85546 0.68574,-1.54735 -0.002,-0.21039 -0.0901,-0.45369 -0.0598,-0.68574 0.0451,-0.34461 0.35587,-0.76197 0.21047,-1.24689 -0.13081,-0.42777 -0.68407,-0.7109 -1.0755,-0.86504 -0.52734,-0.21039 -0.95594,-0.24854 -1.48761,-0.47626 -0.0337,0.0156 -0.0684,0.0303 -0.09,0.0607 z m -10.77263,-11.75891 c 5.27071,1.38029 10.45135,2.84191 15.7134,4.22995 0.002,0.0294 0.039,0.0251 0.0606,0.0294 2.92673,4.32777 6.31155,8.1377 9.04948,12.73993 1.32655,2.22792 2.55786,4.64114 3.30167,7.5887 0.52042,2.05736 0.78621,4.82478 0.44768,7.34882 -0.0468,0.35586 -0.1264,0.75422 -0.20781,1.16374 -0.0745,0.35936 -0.0875,0.86762 -0.23987,1.12916 -0.11607,0.19481 -0.50135,0.41994 -0.71348,0.59316 -2.61586,2.14044 -3.92942,5.61183 -5.83446,8.57231 -0.67448,1.05384 -1.47111,2.11885 -2.38031,2.82799 -1.08409,0.84429 -2.42105,1.2599 -4.01865,0.86595 -0.67274,-0.16714 -1.27973,-0.42427 -1.87289,-0.74555 -0.29528,-0.15931 -0.55766,-0.3342 -0.86329,-0.44593 -2.92931,-1.04168 -4.94942,-2.828 -6.78773,-4.97284 -3.20727,-3.7337 -5.38419,-8.52906 -8.06412,-12.85766 -0.67708,-1.08759 -1.51095,-2.08678 -1.96471,-3.27393 -1.41921,-3.68528 -2.90332,-7.5922 -4.37535,-11.30773 0.2658,-0.61915 0.71173,-1.13782 1.07109,-1.69891 1.78723,-2.77866 3.65321,-5.57291 5.44652,-8.39308 0.71781,-1.12566 1.52136,-2.36481 2.23225,-3.39349"
           style="fill:#fff200;fill-opacity:1;fill-rule:evenodd;stroke:none"
           id="path5076"
           inkscape:connector-curvature="0" /><path
           d="m 300.54589,381.86751 c -5.90545,-0.27454 -11.92771,-0.69189 -17.85566,-1.04084 2.815,6.92455 5.8318,13.90891 8.69012,20.89404 -0.71173,0 -1.42696,0 -2.1431,0 0,0.3377 0,0.77238 0,1.2209 0,0.42002 -0.0901,0.96377 0,1.21657 0.0727,0.20089 0.32387,0.14115 0.38536,0.3282 -0.74472,-0.29354 -1.4417,-0.63816 -1.84439,-1.27715 -0.79055,0.52468 -0.28921,2.08852 -0.44335,3.09638 -0.0753,0.0468 -0.16881,-0.15931 -0.2398,-0.27013 -4.8681,-7.71343 -9.8002,-15.56184 -14.67172,-23.27694 7.27524,-10.05224 14.62406,-20.036 21.9348,-30.05958 4.65764,3.36399 9.22787,6.82156 13.87076,10.21147 -0.92819,-0.32637 -1.57068,0.48409 -1.93696,1.09884 0.46668,1.5171 2.02703,1.93878 2.56045,3.39432 -0.35761,0.23296 -0.7568,0.29787 -1.19149,0.20522 -0.7473,-0.15239 -1.78898,-1.10317 -2.23225,-0.26413 -0.0641,0.1204 -0.19488,0.43302 -0.18014,0.59233 0.0321,0.29954 0.50309,0.58966 0.74381,0.83554 0.29095,0.28663 0.57408,0.56975 0.68748,0.74122 -4.95984,-1.81664 -9.89627,-3.65495 -14.82404,-5.5045 2.81933,5.90886 5.79714,11.92338 8.69012,17.85824"
           style="fill:#0b8ed8;fill-opacity:1;fill-rule:evenodd;stroke:none"
           id="path5078"
           inkscape:connector-curvature="0" /><path
           d="m 273.90921,371.66037 c -1.62359,-0.54209 -2.89382,-1.52144 -4.16671,-2.44272 -1.25556,-0.90745 -2.52579,-1.83831 -3.90167,-2.67735 -1.87639,-1.15249 -4.38751,-2.51629 -7.5567,-2.29116 -0.93603,0.0623 -1.94304,0.21647 -2.67993,0.594 -0.60008,0.30828 -1.14642,0.89536 -1.6071,1.39671 -1.42004,1.56209 -2.47646,3.53113 -2.79858,6.16166 -0.45976,3.8056 0.79747,7.10902 2.05478,9.73354 1.28155,2.67386 3.04879,4.95551 5.03083,6.9358 1.99678,1.99678 4.38835,3.65929 7.05536,4.91051 -0.82954,-3.7476 -0.0987,-9.05639 -3.78143,-10.00192 -1.18449,-0.30311 -2.77426,-0.13681 -4.40301,-0.1793 -0.0554,-0.13332 0.25105,-0.28746 0.41385,-0.38095 0.5395,-0.3282 1.29365,-0.56458 1.60885,-1.10575 -0.83563,-0.50567 -1.69025,-0.98976 -2.53013,-1.48677 1.33089,-0.52559 1.96904,-1.74041 2.97522,-2.58903 -0.49184,-0.33162 -1.09883,-0.70656 -1.45819,-1.07109 3.56921,-0.83122 7.08477,-1.70925 10.65657,-2.53446 1.53177,11.74325 3.10854,23.44583 4.67064,35.15274 -4.75896,-1.93704 -9.20188,-4.38751 -13.21269,-7.19908 -3.96583,-2.78475 -7.60428,-5.99027 -10.38728,-10.03309 -2.08245,-3.01938 -3.8091,-6.39987 -4.46542,-10.86529 -0.22255,-1.49969 -0.11948,-3.1622 -0.11948,-4.96592 0,-5.83696 0.89969,-10.9942 3.09554,-14.79637 0.31087,-0.53601 0.60266,-1.11875 0.98193,-1.54561 0.28488,-0.32128 0.70922,-0.61482 1.07284,-0.92303 1.7699,-1.49886 3.57614,-3.03846 5.95219,-4.01515 0.92128,-0.38535 2.00537,-0.74988 3.12412,-0.83562 2.55787,-0.20089 4.70872,0.62774 6.19199,1.66509 4.62306,3.24109 5.41186,10.35437 8.18361,15.38961"
           style="fill:#0b8ed8;fill-opacity:1;fill-rule:evenodd;stroke:none"
           id="path5080"
           inkscape:connector-curvature="0" /><path
           d="m 305.19053,392.0764 c -0.23555,0.35153 -0.61307,1.08234 -0.62516,1.54477 -0.02,0.70656 0.38528,1.60534 0.80355,2.14743 1.10309,1.43128 3.16395,1.82097 4.61256,2.76392 0.2823,0.18872 0.51868,0.49184 0.83388,0.65981 0.58449,0.30563 1.45645,0.42169 2.20367,0.44503 2.63152,0.0727 4.47841,-1.0321 6.07259,-1.96646 -0.82354,-1.59843 -0.62174,-4.22037 -2.11452,-5.14682 -0.30654,0.19739 -0.504,0.3732 -0.80355,0.53167 -2.67393,1.42263 -6.10633,-0.6079 -6.45961,-3.08954 -0.0199,0 -0.039,0 -0.058,0 -1.88163,0.33421 -3.54414,0.73256 -4.46542,2.11019 z m 23.5419,-8.39574 c 0.32212,-1.23474 -0.71956,-2.09111 -1.96212,-1.96296 -0.98103,0.1004 -1.98804,0.93603 -1.75691,2.02703 0.19747,0.91611 1.24257,2.0002 2.56045,1.5716 0.2823,-0.58442 0.98802,-0.97236 1.15858,-1.63567 z m -7.29257,-5.41444 c 0.27795,-0.39828 0.61657,-0.97928 0.62781,-1.51703 0.0104,-0.54208 -0.2572,-1.14208 -0.44768,-1.45903 -0.78713,-1.31097 -2.77692,-1.32397 -4.67063,-1.10575 -0.549,1.70925 -1.7959,4.85944 0.0277,6.01626 1.82698,-0.29787 3.57781,-0.64248 4.46276,-1.93445 z m -7.02321,-9.82179 c 6.95396,0 13.90884,0 20.86539,0 -0.49869,6.55394 -0.9637,13.11396 -1.45904,19.76488 -0.019,0.22947 0.0157,0.53509 -0.0294,0.65115 -0.0511,0.13507 -0.43727,0.3412 -0.68148,0.51001 -5.32612,3.64713 -8.79311,9.2642 -13.4854,13.54173 -2.43314,2.21841 -5.18847,4.3251 -9.16547,4.9096 -1.38804,0.2018 -2.9778,0.16714 -4.37709,-0.0901 -3.8905,-0.71956 -6.81115,-2.59595 -7.29083,-6.78682 -0.4676,-4.06198 1.05809,-8.01389 0.47535,-12.08445 -0.0467,-0.31261 -0.23122,-0.70048 -0.21039,-0.9516 0.0259,-0.27363 0.73947,-1.01485 0.92128,-1.2504 4.15713,-5.26204 8.27884,-10.4756 12.4438,-15.71332 0.66674,-0.83995 1.29448,-1.70324 1.99329,-2.50071"
           style="fill:#0b8ed8;fill-opacity:1;fill-rule:evenodd;stroke:none"
           id="path5082"
           inkscape:connector-curvature="0" /><path
           d="m 312.42336,370.94514 c -4.16496,5.23772 -8.28667,10.45128 -12.4438,15.71332 -0.18181,0.23555 -0.89536,0.97677 -0.92128,1.2504 -0.0208,0.25112 0.16364,0.63899 0.21039,0.9516 0.58274,4.07056 -0.94295,8.02247 -0.47535,12.08445 0.47968,4.19087 3.40033,6.06726 7.29083,6.78682 1.39929,0.25721 2.98905,0.29187 4.37709,0.0901 3.977,-0.5845 6.73233,-2.69119 9.16547,-4.9096 4.69229,-4.27753 8.15928,-9.8946 13.4854,-13.54173 0.24421,-0.16881 0.6304,-0.37494 0.68148,-0.51001 0.0451,-0.11606 0.0104,-0.42168 0.0294,-0.65115 0.49534,-6.65092 0.96035,-13.21094 1.45904,-19.76488 -6.95655,0 -13.91143,0 -20.86539,0 -0.69881,0.79747 -1.32655,1.66076 -1.99329,2.50071 z M 265.7256,356.27076 c -1.48327,-1.03735 -3.63412,-1.86598 -6.19199,-1.66509 -1.11875,0.0857 -2.20284,0.45027 -3.12412,0.83562 -2.37605,0.97669 -4.18229,2.51629 -5.95219,4.01515 -0.36362,0.30821 -0.78796,0.60175 -1.07284,0.92303 -0.37927,0.42686 -0.67106,1.0096 -0.98193,1.54561 -2.19585,3.80217 -3.09554,8.95941 -3.09554,14.79637 0,1.80372 -0.10307,3.46623 0.11948,4.96592 0.65632,4.46542 2.38297,7.84591 4.46542,10.86529 2.783,4.04282 6.42145,7.24834 10.38728,10.03309 4.01081,2.81157 8.45373,5.26204 13.21269,7.19908 -1.5621,-11.70691 -3.13887,-23.40949 -4.67064,-35.15274 -3.5718,0.82521 -7.08736,1.70324 -10.65657,2.53446 0.35936,0.36453 0.96635,0.73947 1.45819,1.07109 -1.00618,0.84862 -1.64433,2.06344 -2.97522,2.58903 0.83988,0.49701 1.6945,0.9811 2.53013,1.48677 -0.3152,0.54117 -1.06935,0.77755 -1.60885,1.10575 -0.1628,0.0935 -0.46926,0.24763 -0.41385,0.38095 1.62875,0.0425 3.21852,-0.12381 4.40301,0.1793 3.6827,0.94553 2.95189,6.25432 3.78143,10.00192 -2.66701,-1.25122 -5.05858,-2.91373 -7.05536,-4.91051 -1.98204,-1.98029 -3.74928,-4.26194 -5.03083,-6.9358 -1.25731,-2.62452 -2.51454,-5.92794 -2.05478,-9.73354 0.32212,-2.63053 1.37854,-4.59957 2.79858,-6.16166 0.46068,-0.50135 1.00702,-1.08843 1.6071,-1.39671 0.73689,-0.37753 1.7439,-0.53167 2.67993,-0.594 3.16919,-0.22513 5.68031,1.13867 7.5567,2.29116 1.37588,0.83904 2.64611,1.7699 3.90167,2.67735 1.27289,0.92128 2.54312,1.90063 4.16671,2.44272 -2.77175,-5.03524 -3.56055,-12.14852 -8.18361,-15.38961 z m 26.13017,7.73851 c 4.92777,1.84955 9.8642,3.68786 14.82404,5.5045 -0.1134,-0.17147 -0.39653,-0.45459 -0.68748,-0.74122 -0.24072,-0.24588 -0.71173,-0.536 -0.74381,-0.83554 -0.0147,-0.15931 0.11607,-0.47193 0.18014,-0.59233 0.44327,-0.83904 1.48495,0.11174 2.23225,0.26413 0.43469,0.0926 0.83388,0.0277 1.19149,-0.20522 -0.53342,-1.45554 -2.09377,-1.87722 -2.56045,-3.39432 0.36628,-0.61475 1.00877,-1.42521 1.93696,-1.09884 -4.64289,-3.38991 -9.21312,-6.84748 -13.87076,-10.21147 -7.31074,10.02358 -14.65956,20.00734 -21.9348,30.05958 4.87152,7.7151 9.80362,15.56351 14.67172,23.27694 0.071,0.11082 0.16448,0.31695 0.2398,0.27013 0.15414,-1.00786 -0.3472,-2.5717 0.44335,-3.09638 0.40269,0.63899 1.09967,0.98361 1.84439,1.27715 -0.0615,-0.18705 -0.31262,-0.12731 -0.38536,-0.3282 -0.0901,-0.2528 0,-0.79655 0,-1.21657 0,-0.44852 0,-0.8832 0,-1.2209 0.71614,0 1.43137,0 2.1431,0 -2.85832,-6.98513 -5.87512,-13.96949 -8.69012,-20.89404 5.92795,0.34895 11.95021,0.7663 17.85566,1.04084 -2.89298,-5.93486 -5.87079,-11.94938 -8.69012,-17.85824 z m 16.69876,-43.27737 c -1.79331,2.82017 -3.65929,5.61442 -5.44652,8.39308 -0.35936,0.56109 -0.80529,1.07976 -1.07109,1.69891 1.47203,3.71553 2.95614,7.62245 4.37535,11.30773 0.45376,1.18715 1.28763,2.18634 1.96471,3.27393 2.67993,4.3286 4.85685,9.12396 8.06412,12.85766 1.83831,2.14484 3.85842,3.93116 6.78773,4.97284 0.30563,0.11173 0.56801,0.28662 0.86329,0.44593 0.59316,0.32128 1.20015,0.57841 1.87289,0.74555 1.5976,0.39395 2.93456,-0.0217 4.01865,-0.86595 0.9092,-0.70914 1.70583,-1.77415 2.38031,-2.82799 1.90504,-2.96048 3.2186,-6.43187 5.83446,-8.57231 0.21213,-0.17322 0.59741,-0.39835 0.71348,-0.59316 0.15239,-0.26154 0.16539,-0.7698 0.23987,-1.12916 0.0814,-0.40952 0.16106,-0.80788 0.20781,-1.16374 0.33853,-2.52404 0.0727,-5.29146 -0.44768,-7.34882 -0.74381,-2.94756 -1.97512,-5.36078 -3.30167,-7.5887 -2.73793,-4.60223 -6.12275,-8.41216 -9.04948,-12.73993 -0.0216,-0.005 -0.058,0 -0.0606,-0.0294 -5.26205,-1.38804 -10.44269,-2.84966 -15.7134,-4.22995 -0.71089,1.02868 -1.51444,2.26783 -2.23225,3.39349 z m -40.71699,-7.67793 c -0.85029,7.77058 -2.21059,15.03367 -4.13464,21.72966 -4.92776,-3.72852 -9.7742,-7.5307 -14.70638,-11.25231 -1.10742,0.98452 -2.16818,2.33448 -3.48173,3.24535 -0.2078,0.14373 -0.50134,0.25546 -0.568,0.41302 -0.0727,0.1888 -0.0382,0.62349 -0.0554,0.98368 -0.50567,10.30413 -0.98543,20.98845 -1.40104,31.07352 2.81067,-6.66308 5.64733,-13.30101 8.48406,-19.94068 7.7731,4.83944 13.80669,11.57869 21.19017,16.78623 0.0874,0.0641 0.18006,0.23639 0.32729,0.17832 0,-13.60922 0,-27.22285 0,-40.8364 -0.81396,0.37927 -1.7465,1.05201 -2.56046,1.42954 0,-0.33504 0,-0.67798 0,-1.01135 -0.87195,0.29445 -1.73957,0.75855 -2.55786,1.01135 0.35153,-1.46853 -0.45202,-2.4868 -0.536,-3.80993 z m 10.32753,-0.2078 c -0.32211,15.85279 -0.72389,31.61727 -1.04167,47.47181 1.93962,-1.27289 3.82209,-2.6886 5.74172,-4.04722 5.65691,-4.00041 11.34497,-8.07097 16.93955,-12.08178 0.10907,-0.0814 0.32554,-0.14548 0.26754,-0.23988 -0.99402,-0.14981 -2.57519,0.34461 -3.12586,-0.41994 0.55675,-0.35419 1.15424,-0.66673 1.66683,-1.06942 -0.78021,-0.10041 -1.93704,0.2208 -2.11277,-0.59483 0.59141,-0.54642 1.28582,-1.19407 1.87464,-1.72316 0.0537,-0.0537 0.26154,-0.1264 0.17748,-0.2398 -2.63053,-0.18272 -4.80479,0.51168 -6.93489,1.04076 -2.01152,0.49967 -4.88277,1.04776 -6.81548,0.0278 0.76023,-0.92911 0.24247,-2.74492 0.38794,-4.19445 6.29673,-4.74421 12.85075,-9.41052 19.13714,-14.13656 0.0667,-0.0537 0.22947,-0.0814 0.20781,-0.20606 -6.06301,0 -12.12253,0 -18.18553,0 2.71026,-1.70932 5.43351,-3.41515 8.1567,-5.12264 2.72325,-1.70933 5.49934,-3.33109 8.15677,-5.12265 -1.57076,-0.23555 -3.04712,-0.56109 -4.61522,-0.8018 1.13516,-1.12225 2.39939,-2.1206 3.57354,-3.2151 -0.37061,-0.34112 -0.72822,-0.70048 -1.07542,-1.07193 0.92995,-1.10317 2.33532,-1.73266 3.6038,-2.49987 -0.007,-0.0191 -0.002,-0.058 -0.0303,-0.058 -9.02432,2.39589 -16.79916,6.04043 -25.95429,8.30476 z M 289.207,298.61696 c 2.40023,-0.10998 4.76063,0.0588 7.02321,0.26929 6.59726,0.61908 12.45763,2.36215 17.44522,4.55632 6.83448,2.99856 12.6966,6.92713 17.55771,11.78399 4.96417,4.96326 9.10314,10.45477 12.23425,17.11436 2.36298,5.02133 4.08097,10.54917 5.00051,17.02695 0.92044,6.50377 0.49875,14.32885 -0.74381,20.17532 -0.86937,4.07922 -2.09111,7.73076 -3.57355,11.10342 -2.99513,6.81715 -6.92888,12.70701 -11.78657,17.55946 -4.94418,4.94509 -10.45735,9.16204 -17.11177,12.23425 -5.05683,2.33098 -10.53101,4.07922 -17.02521,5.0005 -6.51669,0.92128 -14.31152,0.50309 -20.17965,-0.74555 -4.08188,-0.86762 -7.75842,-2.08677 -11.10251,-3.56922 -6.83714,-3.02971 -12.68885,-6.91847 -17.56037,-11.78565 -4.95984,-4.96076 -9.10222,-10.47127 -12.23159,-17.11269 -2.37431,-5.03517 -4.08013,-10.54143 -5.00142,-17.02871 -0.92128,-6.47945 -0.52475,-14.33835 0.74206,-20.18139 0.89103,-4.09823 2.10152,-7.74718 3.57355,-11.09727 3.01854,-6.87605 6.89855,-12.67326 11.78832,-17.56037 4.94859,-4.95376 10.46002,-9.16371 17.11177,-12.23592 5.05508,-2.33357 10.52668,-4.07489 17.02521,-4.998 2.16993,-0.30562 4.40917,-0.39311 6.81464,-0.50909"
           style="fill:#231f20;fill-opacity:1;fill-rule:evenodd;stroke:none"
           id="path5084"
           inkscape:connector-curvature="0" /></g></g></g></svg>