<?xml version="1.0" encoding="UTF-8" standalone="no"?>
<!DOCTYPE svg PUBLIC "-//W3C//DTD SVG 1.1//EN" "http://www.w3.org/Graphics/SVG/1.1/DTD/svg11.dtd">
<svg width="100%" height="100%" viewBox="0 0 252 78" version="1.1" xmlns="http://www.w3.org/2000/svg" xmlns:xlink="http://www.w3.org/1999/xlink" xml:space="preserve" style="fill-rule:evenodd;clip-rule:evenodd;">
    <g id="g4199">
        <path id="path3" d="M125.455,1.701C124.819,1.259 124.241,1.077 123.497,0.921C119.886,0.179 116.188,-0.234 112.504,0.14C102.275,1.003 92.61,6.483 86.377,14.604C85.028,16.332 83.724,18.093 82.431,19.863C82.331,20.013 82.124,20.313 82.024,20.463C79.892,23.258 78.688,26.582 77.478,29.842C76.919,31.85 76.392,33.882 76.094,35.946C75.767,38.838 75.8,41.758 75.982,44.656C76.544,51.211 79.121,57.548 83.002,62.846C83.93,64.052 84.902,65.23 85.947,66.34C87.84,68.228 89.913,69.945 92.169,71.385C95.09,73.342 98.323,74.851 101.715,75.782C108.185,77.643 115.281,77.949 121.718,75.817L125.454,69.963L125.454,57.182L152.936,57.154L156.405,51.444L143.024,37.934L141.023,37.922L153.504,25.268L157.341,20.134L125.455,20.134L125.455,1.701L125.455,1.701ZM121.243,53.723C117.294,54.815 112.21,54.795 108.42,53.166C104.083,51.335 100.402,47.842 98.623,43.448C96.953,39.789 96.777,35.605 97.666,31.716C98.205,29.567 99.329,27.476 101.114,26.11C104.046,23.639 107.937,22.795 111.65,22.376C114.921,22.488 118.416,23.133 121.243,24.864L121.243,53.723Z" style="fill:rgb(1,1,1);fill-rule:nonzero;"/>
        <path id="path5" d="M35.391,75.678L39.878,69.577L49.135,1.701L31.591,1.701L28.452,5.628L25.076,34.491L20.938,1.701L3.221,1.701L0,5.832L9.847,75.623L35.391,75.678Z" style="fill:rgb(1,1,1);fill-rule:nonzero;"/>
        <path id="path7" d="M225.49,1.701C221.662,1.701 220.453,3.124 219.287,3.91C218.286,4.667 217.58,5.334 216.613,6.123C214.568,7.802 213.318,9.676 211.926,11.911C210.501,14.218 209.276,16.003 209.276,19.929L209.362,57.242C209.409,60.616 208.96,64.117 210.155,67.359C210.949,69.373 212.165,71.322 213.924,72.63C215.573,74.052 218.732,75.624 221.309,75.624L234.633,75.624C238.645,75.624 242.363,73.194 244.866,70.214L247.307,67.049C250.166,62.669 250.741,60.302 250.612,56.676L251.108,13.376C251.049,9.609 249.851,6.31 246.67,4.158C245.053,3.115 243.399,1.703 240.643,1.703L225.488,1.703L225.489,1.701L225.49,1.701ZM228.559,17.251L230.458,17.251C231.544,17.179 231.545,18.717 231.545,19.435L231.544,58.803L230.235,58.838C229.472,58.838 228.56,57.373 228.56,56.656L228.559,17.251L228.559,17.251Z" style="fill:rgb(26,33,31);fill-rule:nonzero;"/>
        <path id="path9" d="M184.536,35.729C184.489,36.831 183.546,38.437 182.61,38.967C179.526,40.693 176.464,42.457 173.374,44.167C171.712,44.965 170.06,45.875 168.801,47.247C166.283,49.953 164.381,53.466 164.44,57.249L164.274,75.708L199.364,75.72L203.398,69.96L203.398,58.8L182.599,58.8C182.599,58.8 182.532,55.487 183.133,54.609C183.921,53.46 185.599,52.751 186.802,52.003C189.405,50.462 192.099,49.077 194.705,47.533C196.372,46.572 197.741,45.184 198.798,43.581C199.617,42.392 200.589,41.32 201.476,40.183C202.772,38.517 203.556,36.458 203.633,34.344L203.749,13.974C203.552,10.637 202.603,7.095 200.06,4.766C197.931,2.525 195.533,1.665 192.465,1.7C189.168,1.53 184.185,1.677 180.883,1.7C179.009,1.762 177.477,1.928 175.711,2.585C174.333,3.009 172.801,4.322 172.226,4.793C170.451,6.549 169.083,7.799 167.452,9.689C165.848,11.639 164.625,14.654 164.715,17.236L164.832,31.202L178.842,31.197C179.814,30.025 181.876,27.733 182.756,26.489C183.236,25.858 183.107,25.019 183.142,24.28C183.089,22.148 183.138,19.424 183.077,17.292C183.336,17.295 183.823,17.616 184.215,18.209C184.536,18.744 184.563,19.775 184.542,21.032L184.542,35.73L184.536,35.729L184.536,35.729Z" style="fill:rgb(1,1,1);fill-rule:nonzero;"/>
        <path id="path13" d="M123.246,1.66C119.842,0.909 116.35,0.72 112.875,0.929C104.589,1.742 96.511,5.278 90.584,11.173C90.016,11.786 89.521,12.463 88.974,13.093C94.08,8.677 100.593,6.029 107.257,5.137L107.498,5.096C109.672,5.034 111.847,4.742 114.02,4.946C115.631,5.093 117.233,5.302 118.847,5.432C119.86,5.656 120.866,5.903 121.9,6.014C122.009,5.861 122.226,5.555 122.336,5.402C123.013,4.38 123.625,3.311 124.391,2.351C124.118,1.966 123.723,1.701 123.246,1.66L123.246,1.66Z" style="fill:rgb(241,234,221);fill-rule:nonzero;stroke:black;stroke-width:1px;"/>
        <path id="path15" d="M199.943,5.864C198.367,3.951 196.874,3.071 194.454,2.732C190.65,2.238 186.173,2.425 182.35,2.34C180.384,2.521 178.829,2.213 177.278,2.782C175.271,3.468 173.327,4.678 171.919,6.274L171.908,6.289C172.026,6.345 172.261,6.451 172.38,6.507C174.762,5.874 177.244,5.988 179.687,5.924C183.232,5.986 186.79,5.709 190.319,6.153C192.847,6.613 195.273,7.764 197.077,9.617L199.943,5.864L199.943,5.864Z" style="fill:rgb(236,228,214);fill-rule:nonzero;stroke:black;stroke-width:1px;"/>
        <path id="path17" d="M120.569,54.809C119.43,55.061 118.281,55.298 117.115,55.368C114.671,55.548 112.198,55.298 109.843,54.63C107.749,53.911 105.756,52.886 103.965,51.582C101.527,49.698 99.53,47.247 98.191,44.473C96.362,40.73 95.867,36.367 96.718,32.292C96.886,31.37 97.157,30.472 97.434,29.58C96.718,30.421 96.091,31.337 95.605,32.333C94.38,34.962 93.427,37.822 93.515,40.757C93.447,44.368 94.501,47.975 96.433,51.019C96.621,51.328 96.821,51.635 97.037,51.932C99.363,55.016 102.575,57.474 106.297,58.599C110.917,60.046 116.067,59.588 120.387,57.413C120.685,57.235 120.976,57.039 121.265,56.844C121.282,56.123 121.285,55.398 121.265,54.677C121.09,54.709 120.743,54.774 120.569,54.809L120.569,54.809Z" style="fill:rgb(238,228,210);fill-rule:nonzero;"/>
        <path id="path19" d="M247.078,5.521C246.472,5.05 245.698,4.522 245.053,4.107C243.109,2.829 241.235,2.449 238.937,2.34C236.358,2.255 233.122,2.355 230.545,2.34C227.871,2.378 224.78,2.029 222.233,3.027C219.73,4.156 219.023,5.285 217.359,6.799C221.196,5.697 225.211,6.042 229.151,6.027C230.699,6.006 232.248,6.033 233.8,6.015C235.621,6.109 237.478,6.26 239.198,6.922C240.499,7.402 241.641,8.224 242.705,9.101C243.019,9.369 243.332,9.64 243.65,9.911L247.078,5.521L247.078,5.521Z" style="fill:rgb(241,234,221);fill-rule:nonzero;stroke:black;stroke-width:1px;"/>
        <path id="path21" d="M66.904,75.598L70.809,69.936L70.676,1.701L54.321,1.701L51.068,5.944L51.03,75.598L66.904,75.598Z" style="fill:rgb(1,1,1);fill-rule:nonzero;"/>
        <g id="path27" transform="matrix(0.448082,0,0,0.448082,-4.24647,-1.14451)">
            <path d="M412.327,39.73C408.509,39.73 407.294,45.95 407.274,48.848L407.274,70.994L378.655,70.875L378.858,40.922C379.457,31.59 384.819,21.509 394.275,18.73C396.785,18.001 399.384,17.593 402.003,17.547C409.87,17.277 417.756,17.639 425.615,17.179C431.319,17.645 437.434,17.652 442.452,20.806C448.628,24.131 452.431,30.499 453.016,37.498C453.304,54.794 452.953,71.35 453.016,88.646C453.057,91.624 452.837,95.538 451.497,98.219C449.919,101.504 447.462,104.43 444.274,106.242C435.933,111.006 427.503,115.599 419.211,120.435C414.952,122.947 409.925,125.304 407.743,130.017C406.376,135.166 406.915,140.578 406.836,145.847L453.016,145.847L453.016,169.761L377.889,169.838L377.889,127.961C379.653,118.646 387.118,108.515 395.375,104.067C401.815,100.438 408.209,96.749 414.695,93.207C418.244,91.248 423.106,89.047 423.133,84.309C423.226,71.402 423.048,61.768 423.196,48.855C423.049,44.857 421.911,39.724 417.586,39.724L412.327,39.724L412.327,39.73Z" style="fill:white;fill-rule:nonzero;"/>
        </g>
        <g id="polygon29" transform="matrix(0.448082,0,0,0.448082,-4.24647,-1.14451)">
            <path d="M349.673,58.709L318.623,90.148L282.364,90.148L282.364,58.709L349.673,58.709Z" style="fill:rgb(54,61,163);fill-rule:nonzero;"/>
        </g>
        <g id="polygon31" transform="matrix(0.448082,0,0,0.448082,-4.24647,-1.14451)">
            <path d="M349.673,128.046L318.623,98.044L282.364,98.044L282.364,128.046L349.673,128.046Z" style="fill:rgb(248,54,26);fill-rule:nonzero;"/>
        </g>
        <path id="path33" d="M233.541,74.982C240.645,74.982 246.404,68.881 246.404,63.897L246.404,19.849C246.404,14.865 241.528,6.702 234.426,6.702L222.001,6.702C214.897,6.702 210.022,14.865 210.022,19.849L210.022,63.896C210.022,68.88 215.781,74.982 222.884,74.982L233.541,74.982L233.541,74.982ZM224.363,19.14C224.363,18.422 224.783,16.662 226.037,16.662L230.383,16.662C231.8,16.662 232.058,18.422 232.058,19.14L232.058,61.955C232.058,62.673 230.851,64.138 230.089,64.138L226.332,64.138C225.569,64.138 224.362,62.672 224.362,61.955L224.363,19.14L224.363,19.14Z" style="fill:white;fill-rule:nonzero;"/>
        <g id="polygon35" transform="matrix(0.448082,0,0,0.448082,-4.24647,-1.14451)">
            <path d="M11.695,15.246L47.592,15.246L53.426,7.775L17.528,7.775L11.695,15.246Z" style="fill:rgb(241,234,221);fill-rule:nonzero;stroke:black;stroke-width:1px;"/>
        </g>
        <g id="polygon37" transform="matrix(0.448082,0,0,0.448082,-4.24647,-1.14451)">
            <path d="M75.412,15.219L111.309,15.219L117.142,7.748L81.245,7.748L75.412,15.219Z" style="fill:rgb(241,234,221);fill-rule:nonzero;stroke:black;stroke-width:1px;"/>
        </g>
        <g id="polygon39" transform="matrix(0.448082,0,0,0.448082,-4.24647,-1.14451)">
            <path d="M125.383,15.246L158.652,15.246L164.485,7.775L131.216,7.775L125.383,15.246Z" style="fill:rgb(241,234,221);fill-rule:nonzero;stroke:black;stroke-width:1px;"/>
        </g>
        <g id="polygon41" transform="matrix(0.448082,0,0,0.448082,-4.24647,-1.14451)">
            <path d="M282.889,57.126L350.329,57.126L356.82,48.999L289.379,48.999L282.889,57.126Z" style="fill:rgb(247,250,249);fill-rule:nonzero;"/>
        </g>
        <g id="polygon43" transform="matrix(0.448082,0,0,0.448082,-4.24647,-1.14451)">
            <path d="M320.083,96.311L320.149,96.311L326.377,88.416L323.417,88.443L320.288,91.757L286.377,91.757L282.778,96.365L320.04,96.365L320.083,96.311Z" style="fill:rgb(240,235,233);fill-rule:nonzero;stroke:black;stroke-width:1px;"/>
        </g>
        <g id="polygon45" transform="matrix(0.448082,0,0,0.448082,-4.24647,-1.14451)">
            <path d="M410.001,143.917L453.127,143.917L460.274,135.132L417.148,135.132L410.001,143.917Z" style="fill:rgb(242,234,225);fill-rule:nonzero;"/>
        </g>
        <g id="polygon49" transform="matrix(0.448082,0,0,0.448082,-4.24647,-1.14451)">
            <path d="M47.213,16.826L11.343,16.826L23.762,103.844L54.708,70.815L47.213,16.826Z" style="fill:rgb(56,54,150);fill-rule:nonzero;"/>
        </g>
        <g id="polygon51" transform="matrix(0.448082,0,0,0.448082,-4.24647,-1.14451)">
            <path d="M69.871,54.633L105.295,16.826L74.639,16.826L69.871,54.633Z" style="fill:rgb(56,54,150);fill-rule:nonzero;stroke:black;stroke-width:1px;"/>
        </g>
        <g id="polygon53" transform="matrix(0.448082,0,0,0.448082,-4.24647,-1.14451)">
            <path d="M157.793,16.825L124.547,16.825L124.547,71.221L157.793,35.739L157.793,16.825Z" style="fill:rgb(216,39,104);fill-rule:nonzero;stroke:black;stroke-width:1px;"/>
        </g>
        <g id="polygon55" transform="matrix(0.448082,0,0,0.448082,-4.24647,-1.14451)">
            <path d="M61.583,120.334L54.737,71.026L54.708,70.815L23.762,103.844L23.792,104.055L33.044,168.881L98.056,99.495L109.855,16.826L105.521,16.826L105.295,16.826L69.871,54.633L69.835,54.913L61.583,120.334Z" style="fill:rgb(216,39,104);fill-rule:nonzero;"/>
        </g>
        <path id="path57" d="M76.662,37.535L106.376,5.82C90.447,8.242 78.183,21.294 76.662,37.535Z" style="fill:rgb(243,99,18);fill-rule:nonzero;"/>
        <g id="polygon59" transform="matrix(0.448082,0,0,0.448082,-4.24647,-1.14451)">
            <path d="M98.044,99.577L98.056,99.495L33.044,168.881L33.053,168.939L33.169,169.752L88.028,169.752L98.044,99.577Z" style="fill:rgb(243,99,18);fill-rule:nonzero;stroke:black;stroke-width:1px;"/>
        </g>
        <g id="polygon61" transform="matrix(0.448082,0,0,0.448082,-4.24647,-1.14451)">
            <path d="M157.793,35.808L157.793,35.739L124.547,71.221L124.547,146.107L157.793,110.626L157.793,35.808Z" style="fill:rgb(243,99,18);fill-rule:nonzero;stroke:black;stroke-width:1px;"/>
        </g>
        <path id="path65" d="M111.74,5.417C109.936,5.417 108.166,5.553 106.438,5.812C106.418,5.815 106.397,5.817 106.377,5.82L76.662,37.535C76.66,37.555 76.658,37.576 76.657,37.597C76.555,38.702 76.5,39.82 76.5,40.95C76.5,49.34 79.356,57.05 84.156,63.128L95.548,50.969C93.809,48.051 92.814,44.622 92.814,40.951C92.814,30.336 101.125,21.731 111.74,21.731C115.022,21.731 118.109,22.557 120.811,24.007L121.031,23.773L121.031,6.652C118.069,5.851 114.955,5.417 111.74,5.417L111.74,5.417Z" style="fill:rgb(245,196,8);fill-rule:nonzero;"/>
        <g id="polygon67" transform="matrix(0.448082,0,0,0.448082,-4.24647,-1.14451)">
            <path d="M124.547,146.234L124.547,169.752L157.793,169.752L157.793,110.753L157.793,110.626L124.547,146.107L124.547,146.234Z" style="fill:rgb(245,196,8);fill-rule:nonzero;stroke:black;stroke-width:1px;"/>
        </g>
        <path id="path69" d="M111.74,60.173C104.801,60.173 98.847,56.494 95.555,50.981C95.553,50.976 95.551,50.973 95.548,50.97L84.156,63.129C84.159,63.133 84.161,63.136 84.164,63.139C89.048,69.318 95.943,73.81 103.898,75.613L120.21,58.203C117.654,59.462 114.781,60.173 111.74,60.173L111.74,60.173Z" style="fill:rgb(108,162,19);fill-rule:nonzero;"/>
        <path id="path71" d="M120.811,24.007C120.815,24.009 120.819,24.011 120.823,24.013C120.892,24.051 120.962,24.086 121.031,24.125L121.031,23.792L121.031,23.773L120.811,24.007L120.811,24.007Z" style="fill:rgb(83,165,32);fill-rule:nonzero;"/>
        <path id="path73" d="M120.311,58.154C120.278,58.171 120.244,58.187 120.21,58.203L103.899,75.613C103.914,75.616 103.929,75.619 103.944,75.622C106.448,76.188 109.056,76.487 111.74,76.487C114.956,76.487 118.069,76.051 121.031,75.252L121.031,57.778C120.794,57.909 120.554,58.033 120.311,58.154L120.311,58.154Z" style="fill:rgb(91,110,45);fill-rule:nonzero;"/>
        <path id="path13.-3" d="M123.246,1.66C119.842,0.909 116.35,0.72 112.875,0.929C104.589,1.742 96.511,5.278 90.584,11.173C90.016,11.786 89.521,12.463 88.974,13.093C94.08,8.677 100.593,6.029 107.257,5.137L107.498,5.096C109.672,5.034 111.847,4.742 114.02,4.946C115.631,5.093 117.233,5.302 118.847,5.432C119.86,5.656 120.866,5.903 121.9,6.014C122.009,5.861 122.226,5.555 122.336,5.402C123.013,4.38 123.625,3.311 124.391,2.351C124.118,1.966 123.723,1.701 123.246,1.66L123.246,1.66Z" style="fill:rgb(241,234,221);fill-rule:nonzero;stroke:black;stroke-width:1px;"/>
    </g>
</svg>
