<?xml version="1.0" encoding="UTF-8" standalone="no"?>
<svg
   xmlns:dc="http://purl.org/dc/elements/1.1/"
   xmlns:cc="http://creativecommons.org/ns#"
   xmlns:rdf="http://www.w3.org/1999/02/22-rdf-syntax-ns#"
   xmlns:svg="http://www.w3.org/2000/svg"
   xmlns="http://www.w3.org/2000/svg"
   xmlns:sodipodi="http://sodipodi.sourceforge.net/DTD/sodipodi-0.dtd"
   xmlns:inkscape="http://www.inkscape.org/namespaces/inkscape"
   width="567"
   height="129"
   viewBox="0 0 567 129"
   version="1.1"
   xml:space="preserve"
   style="clip-rule:evenodd;fill-rule:evenodd"
   id="svg4550"
   sodipodi:docname="system.svg"
   inkscape:version="0.92.0 r15299"><metadata
     id="metadata4556"><rdf:RDF><cc:Work
         rdf:about=""><dc:format>image/svg+xml</dc:format><dc:type
           rdf:resource="http://purl.org/dc/dcmitype/StillImage" /><dc:title></dc:title></cc:Work></rdf:RDF></metadata><defs
     id="defs4554" /><sodipodi:namedview
     pagecolor="#ffffff"
     bordercolor="#666666"
     borderopacity="1"
     objecttolerance="10"
     gridtolerance="10"
     guidetolerance="10"
     inkscape:pageopacity="0"
     inkscape:pageshadow="2"
     inkscape:window-width="1920"
     inkscape:window-height="1137"
     id="namedview4552"
     showgrid="false"
     units="px"
     inkscape:zoom="1.4335317"
     inkscape:cx="325.1952"
     inkscape:cy="-104.76973"
     inkscape:window-x="1912"
     inkscape:window-y="-8"
     inkscape:window-maximized="1"
     inkscape:current-layer="svg4550" /><g
     id="g5208"><g
       transform="matrix(1.7141779,0,0,1.7141779,68.278108,-1.75247)"
       id="g4199"><path
         inkscape:connector-curvature="0"
         style="fill:#010101;fill-rule:nonzero"
         d="M 125.455,1.701 C 124.819,1.259 124.241,1.077 123.497,0.921 119.886,0.179 116.188,-0.234 112.504,0.14 102.275,1.003 92.61,6.483 86.377,14.604 c -1.349,1.728 -2.653,3.489 -3.946,5.259 -0.1,0.15 -0.307,0.45 -0.407,0.6 -2.132,2.795 -3.336,6.119 -4.546,9.379 -0.559,2.008 -1.086,4.04 -1.384,6.104 -0.327,2.892 -0.294,5.812 -0.112,8.71 0.562,6.555 3.139,12.892 7.02,18.19 0.928,1.206 1.9,2.384 2.945,3.494 1.893,1.888 3.966,3.605 6.222,5.045 2.921,1.957 6.154,3.466 9.546,4.397 6.47,1.861 13.566,2.167 20.003,0.035 l 3.736,-5.854 V 57.182 l 27.482,-0.028 3.469,-5.71 -13.381,-13.51 -2.001,-0.012 12.481,-12.654 3.837,-5.134 h -31.886 z m -4.212,52.022 c -3.949,1.092 -9.033,1.072 -12.823,-0.557 -4.337,-1.831 -8.018,-5.324 -9.797,-9.718 -1.67,-3.659 -1.846,-7.843 -0.957,-11.732 0.539,-2.149 1.663,-4.24 3.448,-5.606 2.932,-2.471 6.823,-3.315 10.536,-3.734 3.271,0.112 6.766,0.757 9.593,2.488 z"
         id="path3" /><path
         inkscape:connector-curvature="0"
         style="fill:#010101;fill-rule:nonzero"
         d="M 35.391,75.678 39.878,69.577 49.135,1.701 H 31.591 L 28.452,5.628 25.076,34.491 20.938,1.701 H 3.221 L 0,5.832 9.847,75.623 Z"
         id="path5" /><path
         inkscape:connector-curvature="0"
         style="fill:#1a211f;fill-rule:nonzero"
         d="m 225.49,1.701 c -3.828,0 -5.037,1.423 -6.203,2.209 -1.001,0.757 -1.707,1.424 -2.674,2.213 -2.045,1.679 -3.295,3.553 -4.687,5.788 -1.425,2.307 -2.65,4.092 -2.65,8.018 l 0.086,37.313 c 0.047,3.374 -0.402,6.875 0.793,10.117 0.794,2.014 2.01,3.963 3.769,5.271 1.649,1.422 4.808,2.994 7.385,2.994 h 13.324 c 4.012,0 7.73,-2.43 10.233,-5.41 l 2.441,-3.165 c 2.859,-4.38 3.434,-6.747 3.305,-10.373 l 0.496,-43.3 C 251.049,9.609 249.851,6.31 246.67,4.158 245.053,3.115 243.399,1.703 240.643,1.703 h -15.155 l 0.001,-0.002 z m 3.069,15.55 h 1.899 c 1.086,-0.072 1.087,1.466 1.087,2.184 l -10e-4,39.368 -1.309,0.035 c -0.763,0 -1.675,-1.465 -1.675,-2.182 z"
         id="path7" /><path
         inkscape:connector-curvature="0"
         style="fill:#010101;fill-rule:nonzero"
         d="m 184.536,35.729 c -0.047,1.102 -0.99,2.708 -1.926,3.238 -3.084,1.726 -6.146,3.49 -9.236,5.2 -1.662,0.798 -3.314,1.708 -4.573,3.08 -2.518,2.706 -4.42,6.219 -4.361,10.002 l -0.166,18.459 35.09,0.012 4.034,-5.76 V 58.8 h -20.799 c 0,0 -0.067,-3.313 0.534,-4.191 0.788,-1.149 2.466,-1.858 3.669,-2.606 2.603,-1.541 5.297,-2.926 7.903,-4.47 1.667,-0.961 3.036,-2.349 4.093,-3.952 0.819,-1.189 1.791,-2.261 2.678,-3.398 1.296,-1.666 2.08,-3.725 2.157,-5.839 l 0.116,-20.37 c -0.197,-3.337 -1.146,-6.879 -3.689,-9.208 -2.129,-2.241 -4.527,-3.101 -7.595,-3.066 -3.297,-0.17 -8.28,-0.023 -11.582,0 -1.874,0.062 -3.406,0.228 -5.172,0.885 -1.378,0.424 -2.91,1.737 -3.485,2.208 -1.775,1.756 -3.143,3.006 -4.774,4.896 -1.604,1.95 -2.827,4.965 -2.737,7.547 l 0.117,13.966 14.01,-0.005 c 0.972,-1.172 3.034,-3.464 3.914,-4.708 0.48,-0.631 0.351,-1.47 0.386,-2.209 -0.053,-2.132 -0.004,-4.856 -0.065,-6.988 0.259,0.003 0.746,0.324 1.138,0.917 0.321,0.535 0.348,1.566 0.327,2.823 V 35.73 Z"
         id="path9" /><path
         inkscape:connector-curvature="0"
         style="fill:#f1eadd;fill-rule:nonzero;stroke:#000000;stroke-width:1px"
         d="M 123.246,1.66 C 119.842,0.909 116.35,0.72 112.875,0.929 104.589,1.742 96.511,5.278 90.584,11.173 c -0.568,0.613 -1.063,1.29 -1.61,1.92 5.106,-4.416 11.619,-7.064 18.283,-7.956 l 0.241,-0.041 c 2.174,-0.062 4.349,-0.354 6.522,-0.15 1.611,0.147 3.213,0.356 4.827,0.486 1.013,0.224 2.019,0.471 3.053,0.582 0.109,-0.153 0.326,-0.459 0.436,-0.612 0.677,-1.022 1.289,-2.091 2.055,-3.051 -0.273,-0.385 -0.668,-0.65 -1.145,-0.691 z"
         id="path13" /><path
         inkscape:connector-curvature="0"
         style="fill:#ece4d6;fill-rule:nonzero;stroke:#000000;stroke-width:1px"
         d="M 199.943,5.864 C 198.367,3.951 196.874,3.071 194.454,2.732 190.65,2.238 186.173,2.425 182.35,2.34 c -1.966,0.181 -3.521,-0.127 -5.072,0.442 -2.007,0.686 -3.951,1.896 -5.359,3.492 l -0.011,0.015 c 0.118,0.056 0.353,0.162 0.472,0.218 2.382,-0.633 4.864,-0.519 7.307,-0.583 3.545,0.062 7.103,-0.215 10.632,0.229 2.528,0.46 4.954,1.611 6.758,3.464 z"
         id="path15" /><path
         inkscape:connector-curvature="0"
         style="fill:#eee4d2;fill-rule:nonzero"
         d="m 120.569,54.809 c -1.139,0.252 -2.288,0.489 -3.454,0.559 -2.444,0.18 -4.917,-0.07 -7.272,-0.738 -2.094,-0.719 -4.087,-1.744 -5.878,-3.048 -2.438,-1.884 -4.435,-4.335 -5.774,-7.109 -1.829,-3.743 -2.324,-8.106 -1.473,-12.181 0.168,-0.922 0.439,-1.82 0.716,-2.712 -0.716,0.841 -1.343,1.757 -1.829,2.753 -1.225,2.629 -2.178,5.489 -2.09,8.424 -0.068,3.611 0.986,7.218 2.918,10.262 0.188,0.309 0.388,0.616 0.604,0.913 2.326,3.084 5.538,5.542 9.26,6.667 4.62,1.447 9.77,0.989 14.09,-1.186 0.298,-0.178 0.589,-0.374 0.878,-0.569 0.017,-0.721 0.02,-1.446 0,-2.167 -0.175,0.032 -0.522,0.097 -0.696,0.132 z"
         id="path17" /><path
         inkscape:connector-curvature="0"
         style="fill:#f1eadd;fill-rule:nonzero;stroke:#000000;stroke-width:1px"
         d="m 247.078,5.521 c -0.606,-0.471 -1.38,-0.999 -2.025,-1.414 -1.944,-1.278 -3.818,-1.658 -6.116,-1.767 -2.579,-0.085 -5.815,0.015 -8.392,0 -2.674,0.038 -5.765,-0.311 -8.312,0.687 -2.503,1.129 -3.21,2.258 -4.874,3.772 3.837,-1.102 7.852,-0.757 11.792,-0.772 1.548,-0.021 3.097,0.006 4.649,-0.012 1.821,0.094 3.678,0.245 5.398,0.907 1.301,0.48 2.443,1.302 3.507,2.179 0.314,0.268 0.627,0.539 0.945,0.81 z"
         id="path19" /><path
         inkscape:connector-curvature="0"
         style="fill:#010101;fill-rule:nonzero"
         d="M 66.904,75.598 70.809,69.936 70.676,1.701 H 54.321 L 51.068,5.944 51.03,75.598 Z"
         id="path21" /><g
         transform="matrix(0.448082,0,0,0.448082,-4.24647,-1.14451)"
         id="path27"><path
           inkscape:connector-curvature="0"
           id="path4494"
           style="fill:#ffffff;fill-rule:nonzero"
           d="m 412.327,39.73 c -3.818,0 -5.033,6.22 -5.053,9.118 v 22.146 l -28.619,-0.119 0.203,-29.953 c 0.599,-9.332 5.961,-19.413 15.417,-22.192 2.51,-0.729 5.109,-1.137 7.728,-1.183 7.867,-0.27 15.753,0.092 23.612,-0.368 5.704,0.466 11.819,0.473 16.837,3.627 6.176,3.325 9.979,9.693 10.564,16.692 0.288,17.296 -0.063,33.852 0,51.148 0.041,2.978 -0.179,6.892 -1.519,9.573 -1.578,3.285 -4.035,6.211 -7.223,8.023 -8.341,4.764 -16.771,9.357 -25.063,14.193 -4.259,2.512 -9.286,4.869 -11.468,9.582 -1.367,5.149 -0.828,10.561 -0.907,15.83 h 46.18 v 23.914 l -75.127,0.077 v -41.877 c 1.764,-9.315 9.229,-19.446 17.486,-23.894 6.44,-3.629 12.834,-7.318 19.32,-10.86 3.549,-1.959 8.411,-4.16 8.438,-8.898 0.093,-12.907 -0.085,-22.541 0.063,-35.454 -0.147,-3.998 -1.285,-9.131 -5.61,-9.131 h -5.259 z" /></g><g
         transform="matrix(0.448082,0,0,0.448082,-4.24647,-1.14451)"
         id="polygon29"><path
           inkscape:connector-curvature="0"
           id="path4497"
           style="fill:#363da3;fill-rule:nonzero"
           d="m 349.673,58.709 -31.05,31.439 H 282.364 V 58.709 Z" /></g><g
         transform="matrix(0.448082,0,0,0.448082,-4.24647,-1.14451)"
         id="polygon31"><path
           inkscape:connector-curvature="0"
           id="path4500"
           style="fill:#f8361a;fill-rule:nonzero"
           d="m 349.673,128.046 -31.05,-30.002 h -36.259 v 30.002 z" /></g><path
         inkscape:connector-curvature="0"
         style="fill:#ffffff;fill-rule:nonzero"
         d="m 233.541,74.982 c 7.104,0 12.863,-6.101 12.863,-11.085 V 19.849 c 0,-4.984 -4.876,-13.147 -11.978,-13.147 h -12.425 c -7.104,0 -11.979,8.163 -11.979,13.147 v 44.047 c 0,4.984 5.759,11.086 12.862,11.086 z M 224.363,19.14 c 0,-0.718 0.42,-2.478 1.674,-2.478 h 4.346 c 1.417,0 1.675,1.76 1.675,2.478 v 42.815 c 0,0.718 -1.207,2.183 -1.969,2.183 h -3.757 c -0.763,0 -1.97,-1.466 -1.97,-2.183 z"
         id="path33" /><g
         transform="matrix(0.448082,0,0,0.448082,-4.24647,-1.14451)"
         id="polygon35"><path
           inkscape:connector-curvature="0"
           id="path4504"
           style="fill:#f1eadd;fill-rule:nonzero;stroke:#000000;stroke-width:1px"
           d="M 11.695,15.246 H 47.592 L 53.426,7.775 H 17.528 Z" /></g><g
         transform="matrix(0.448082,0,0,0.448082,-4.24647,-1.14451)"
         id="polygon37"><path
           inkscape:connector-curvature="0"
           id="path4507"
           style="fill:#f1eadd;fill-rule:nonzero;stroke:#000000;stroke-width:1px"
           d="m 75.412,15.219 h 35.897 l 5.833,-7.471 H 81.245 Z" /></g><g
         transform="matrix(0.448082,0,0,0.448082,-4.24647,-1.14451)"
         id="polygon39"><path
           inkscape:connector-curvature="0"
           id="path4510"
           style="fill:#f1eadd;fill-rule:nonzero;stroke:#000000;stroke-width:1px"
           d="m 125.383,15.246 h 33.269 l 5.833,-7.471 h -33.269 z" /></g><g
         transform="matrix(0.448082,0,0,0.448082,-4.24647,-1.14451)"
         id="polygon41"><path
           inkscape:connector-curvature="0"
           id="path4513"
           style="fill:#f7faf9;fill-rule:nonzero"
           d="m 282.889,57.126 h 67.44 l 6.491,-8.127 h -67.441 z" /></g><g
         transform="matrix(0.448082,0,0,0.448082,-4.24647,-1.14451)"
         id="polygon43"><path
           inkscape:connector-curvature="0"
           id="path4516"
           style="fill:#f0ebe9;fill-rule:nonzero;stroke:#000000;stroke-width:1px"
           d="m 320.083,96.311 h 0.066 l 6.228,-7.895 -2.96,0.027 -3.129,3.314 h -33.911 l -3.599,4.608 h 37.262 z" /></g><g
         transform="matrix(0.448082,0,0,0.448082,-4.24647,-1.14451)"
         id="polygon45"><path
           inkscape:connector-curvature="0"
           id="path4519"
           style="fill:#f2eae1;fill-rule:nonzero"
           d="m 410.001,143.917 h 43.126 l 7.147,-8.785 h -43.126 z" /></g><g
         transform="matrix(0.448082,0,0,0.448082,-4.24647,-1.14451)"
         id="polygon49"><path
           inkscape:connector-curvature="0"
           id="path4522"
           style="fill:#383696;fill-rule:nonzero"
           d="M 47.213,16.826 H 11.343 L 23.762,103.844 54.708,70.815 Z" /></g><g
         transform="matrix(0.448082,0,0,0.448082,-4.24647,-1.14451)"
         id="polygon51"><path
           inkscape:connector-curvature="0"
           id="path4525"
           style="fill:#383696;fill-rule:nonzero;stroke:#000000;stroke-width:1px"
           d="M 69.871,54.633 105.295,16.826 H 74.639 Z" /></g><g
         transform="matrix(0.448082,0,0,0.448082,-4.24647,-1.14451)"
         id="polygon53"><path
           inkscape:connector-curvature="0"
           id="path4528"
           style="fill:#d82768;fill-rule:nonzero;stroke:#000000;stroke-width:1px"
           d="M 157.793,16.825 H 124.547 V 71.221 L 157.793,35.739 Z" /></g><g
         transform="matrix(0.448082,0,0,0.448082,-4.24647,-1.14451)"
         id="polygon55"><path
           inkscape:connector-curvature="0"
           id="path4531"
           style="fill:#d82768;fill-rule:nonzero"
           d="m 61.583,120.334 -6.846,-49.308 -0.029,-0.211 -30.946,33.029 0.03,0.211 9.252,64.826 65.012,-69.386 11.799,-82.669 h -4.334 -0.226 l -35.424,37.807 -0.036,0.28 z" /></g><path
         inkscape:connector-curvature="0"
         style="fill:#f36312;fill-rule:nonzero"
         d="M 76.662,37.535 106.376,5.82 C 90.447,8.242 78.183,21.294 76.662,37.535 Z"
         id="path57" /><g
         transform="matrix(0.448082,0,0,0.448082,-4.24647,-1.14451)"
         id="polygon59"><path
           inkscape:connector-curvature="0"
           id="path4535"
           style="fill:#f36312;fill-rule:nonzero;stroke:#000000;stroke-width:1px"
           d="m 98.044,99.577 0.012,-0.082 -65.012,69.386 0.009,0.058 0.116,0.813 h 54.859 z" /></g><g
         transform="matrix(0.448082,0,0,0.448082,-4.24647,-1.14451)"
         id="polygon61"><path
           inkscape:connector-curvature="0"
           id="path4538"
           style="fill:#f36312;fill-rule:nonzero;stroke:#000000;stroke-width:1px"
           d="m 157.793,35.808 v -0.069 l -33.246,35.482 v 74.886 l 33.246,-35.481 z" /></g><path
         inkscape:connector-curvature="0"
         style="fill:#f5c408;fill-rule:nonzero"
         d="m 111.74,5.417 c -1.804,0 -3.574,0.136 -5.302,0.395 -0.02,0.003 -0.041,0.005 -0.061,0.008 L 76.662,37.535 c -0.002,0.02 -0.004,0.041 -0.005,0.062 -0.102,1.105 -0.157,2.223 -0.157,3.353 0,8.39 2.856,16.1 7.656,22.178 L 95.548,50.969 c -1.739,-2.918 -2.734,-6.347 -2.734,-10.018 0,-10.615 8.311,-19.22 18.926,-19.22 3.282,0 6.369,0.826 9.071,2.276 l 0.22,-0.234 V 6.652 C 118.069,5.851 114.955,5.417 111.74,5.417 Z"
         id="path65" /><g
         transform="matrix(0.448082,0,0,0.448082,-4.24647,-1.14451)"
         id="polygon67"><path
           inkscape:connector-curvature="0"
           id="path4542"
           style="fill:#f5c408;fill-rule:nonzero;stroke:#000000;stroke-width:1px"
           d="m 124.547,146.234 v 23.518 h 33.246 v -58.999 -0.127 l -33.246,35.481 z" /></g><path
         inkscape:connector-curvature="0"
         style="fill:#6ca213;fill-rule:nonzero"
         d="m 111.74,60.173 c -6.939,0 -12.893,-3.679 -16.185,-9.192 -0.002,-0.005 -0.004,-0.008 -0.007,-0.011 L 84.156,63.129 c 0.003,0.004 0.005,0.007 0.008,0.01 4.884,6.179 11.779,10.671 19.734,12.474 l 16.312,-17.41 c -2.556,1.259 -5.429,1.97 -8.47,1.97 z"
         id="path69" /><path
         inkscape:connector-curvature="0"
         style="fill:#53a520;fill-rule:nonzero"
         d="m 120.811,24.007 c 0.004,0.002 0.008,0.004 0.012,0.006 0.069,0.038 0.139,0.073 0.208,0.112 v -0.333 -0.019 z"
         id="path71" /><path
         inkscape:connector-curvature="0"
         style="fill:#5b6e2d;fill-rule:nonzero"
         d="m 120.311,58.154 c -0.033,0.017 -0.067,0.033 -0.101,0.049 l -16.311,17.41 c 0.015,0.003 0.03,0.006 0.045,0.009 2.504,0.566 5.112,0.865 7.796,0.865 3.216,0 6.329,-0.436 9.291,-1.235 V 57.778 c -0.237,0.131 -0.477,0.255 -0.72,0.376 z"
         id="path73" /><path
         inkscape:connector-curvature="0"
         style="fill:#f1eadd;fill-rule:nonzero;stroke:#000000;stroke-width:1px"
         d="M 123.246,1.66 C 119.842,0.909 116.35,0.72 112.875,0.929 104.589,1.742 96.511,5.278 90.584,11.173 c -0.568,0.613 -1.063,1.29 -1.61,1.92 5.106,-4.416 11.619,-7.064 18.283,-7.956 l 0.241,-0.041 c 2.174,-0.062 4.349,-0.354 6.522,-0.15 1.611,0.147 3.213,0.356 4.827,0.486 1.013,0.224 2.019,0.471 3.053,0.582 0.109,-0.153 0.326,-0.459 0.436,-0.612 0.677,-1.022 1.289,-2.091 2.055,-3.051 -0.273,-0.385 -0.668,-0.65 -1.145,-0.691 z"
         id="path13.-3" /></g></g></svg>