<?xml version="1.0" encoding="UTF-8" standalone="no"?>
<!-- Generator: Adobe Illustrator 13.0.0, SVG Export Plug-In . SVG Version: 6.00 Build 14948)  -->

<svg
   xmlns:dc="http://purl.org/dc/elements/1.1/"
   xmlns:cc="http://creativecommons.org/ns#"
   xmlns:rdf="http://www.w3.org/1999/02/22-rdf-syntax-ns#"
   xmlns:svg="http://www.w3.org/2000/svg"
   xmlns="http://www.w3.org/2000/svg"
   xmlns:sodipodi="http://sodipodi.sourceforge.net/DTD/sodipodi-0.dtd"
   xmlns:inkscape="http://www.inkscape.org/namespaces/inkscape"
   version="1.2"
   id="Ebene_1"
   x="0px"
   y="0px"
   width="225.10841"
   height="77.2994"
   viewBox="0 0 225.10842 77.299398"
   xml:space="preserve"
   inkscape:version="0.91 r13725"
   sodipodi:docname="VC-20 (german version).svg"><defs
     id="defs15" /><sodipodi:namedview
     pagecolor="#ffffff"
     bordercolor="#666666"
     borderopacity="1"
     objecttolerance="10"
     gridtolerance="10"
     guidetolerance="10"
     inkscape:pageopacity="0"
     inkscape:pageshadow="2"
     inkscape:window-width="1920"
     inkscape:window-height="1137"
     id="namedview13"
     showgrid="false"
     inkscape:zoom="2.0585526"
     inkscape:cx="-25.942017"
     inkscape:cy="77.572932"
     inkscape:window-x="-8"
     inkscape:window-y="-8"
     inkscape:window-maximized="1"
     inkscape:current-layer="Ebene_1"
     fit-margin-top="0"
     fit-margin-left="0"
     fit-margin-right="0"
     fit-margin-bottom="0" /><metadata
     id="metadata3"><ns:sfw><ns:slices /><ns:sliceSourceBounds
         x="749.163"
         y="518.519"
         width="352.675"
         height="41.963"
         bottomLeftOrigin="true" /></ns:sfw><rdf:RDF><cc:Work
         rdf:about=""><dc:format>image/svg+xml</dc:format><dc:type
           rdf:resource="http://purl.org/dc/dcmitype/StillImage" /><dc:title></dc:title><dc:date>August 2016</dc:date></cc:Work></rdf:RDF></metadata><g
     id="g4777"
     transform="translate(-26.000001,-3.8184133e-6)"><path
       style="fill:#010101"
       inkscape:connector-curvature="0"
       id="path3"
       d="M 125.45475,1.7008028 C 124.81937,1.2589945 124.24135,1.0766253 123.49664,0.92069293 119.886,0.17866997 116.18798,-0.23356501 112.5043,0.14013496 102.2746,1.0026918 92.610381,6.4827286 86.376671,14.603758 c -1.348726,1.728698 -2.652643,3.489658 -3.945806,5.259132 -0.09992,0.150108 -0.306488,0.450322 -0.40641,0.600429 -2.131972,2.794237 -3.336415,6.119001 -4.546235,9.378346 -0.559654,2.008302 -1.086597,4.040351 -1.384124,6.104215 -0.326651,2.891918 -0.294389,5.812513 -0.11202,8.710256 0.562342,6.554984 3.138811,12.891753 7.020093,18.18942 0.927529,1.206684 1.899417,2.38469 2.944792,3.494588 1.893144,1.887767 3.966417,3.604816 6.221611,5.044501 2.921043,1.957668 6.1544,3.466359 9.546378,4.397472 6.46985,1.860435 13.56567,2.166922 20.00325,0.0345 l 3.73611,-5.853288 0,-12.781525 27.48218,-0.02823 3.4686,-5.709455 -13.38061,-13.509657 -2.00158,-0.01255 12.48086,-12.65427 3.83692,-5.134118 -31.88593,0 0,-18.4327282 0,0 z m -4.21151,52.0218142 c -3.94895,1.092423 -9.03288,1.072259 -12.8232,-0.556517 -4.33743,-1.831309 -8.01842,-5.324105 -9.797302,-9.717992 -1.669552,-3.659482 -1.846096,-7.843218 -0.957102,-11.73167 0.539042,-2.149447 1.663727,-4.240195 3.447984,-5.606395 2.9327,-2.470722 6.82294,-3.315355 10.53619,-3.733864 3.27144,0.112021 6.76603,0.756362 9.59298,2.487749 l 4.5e-4,28.858689 0,0 z" /><path
       style="fill:#010101"
       inkscape:connector-curvature="0"
       id="path5"
       d="m 61.39082,75.677714 4.48754,-6.101077 9.25691,-67.8758342 -17.54463,0 -3.13836,3.9269863 -3.376295,28.8636179 -4.138033,-32.7906042 -17.717142,0 -3.220809,4.1313115 9.84659,69.7913817 25.544229,0.05422 z" /><path
       inkscape:connector-curvature="0"
       style="fill:#1a211f;fill-opacity:1"
       id="path7"
       d="m 225.48985,1.7008028 c -3.82796,0 -5.03644,1.4231069 -6.2028,2.2094899 -1.00056,0.7563616 -1.70674,1.424003 -2.67415,2.2130745 -2.04459,1.6785133 -3.29519,3.5528382 -4.68738,5.7874208 -1.42445,2.306723 -2.64995,4.09188 -2.64995,8.01797 l 0.086,37.313091 c 0.047,3.374054 -0.40193,6.875363 0.79355,10.117232 0.79355,2.014127 2.0101,3.963281 3.76882,5.270783 1.64894,1.422211 4.80836,2.994529 7.38483,2.994529 l 13.32415,0 c 4.01257,0 7.7303,-2.429946 10.23284,-5.410585 l 2.44159,-3.164799 c 2.85876,-4.379549 3.43365,-6.747211 3.30415,-10.373087 l 0.49693,-43.300356 c -0.0592,-3.7661247 -1.25732,-7.0653488 -4.4387,-9.2174842 -1.61668,-1.0426857 -3.27054,-2.4550386 -6.02714,-2.4550386 l -15.15412,0 0.001,-0.00224 0,0 z m 3.06935,15.5506682 1.89897,0 c 1.0857,-0.07214 1.0866,1.465227 1.0866,2.183053 l -9e-4,39.367993 -1.30884,0.03585 c -0.76308,0 -1.67538,-1.465674 -1.67538,-2.182605 l -4.5e-4,-39.404287 z" /><path
       style="fill:#010101"
       inkscape:connector-curvature="0"
       id="path9"
       d="m 184.53564,35.729456 c -0.0466,1.101385 -0.98981,2.707757 -1.92585,3.237837 -3.0837,1.725562 -6.14544,3.489659 -9.23586,5.199986 -1.66148,0.797585 -3.31401,1.708087 -4.57312,3.079664 -2.51732,2.706412 -4.41942,6.219371 -4.36072,10.002523 l -0.16624,18.458718 35.0906,0.01165 4.03363,-5.75964 0,-11.159918 -20.79904,0 c 0,0 -0.0668,-3.313562 0.53366,-4.191354 0.78818,-1.148881 2.46669,-1.857746 3.66889,-2.606042 2.60336,-1.540504 5.29722,-2.925972 7.90326,-4.469613 1.66732,-0.961135 3.0362,-2.349739 4.09323,-3.952079 0.81864,-1.18876 1.79053,-2.261467 2.67818,-3.39825 1.29585,-1.665967 2.07955,-3.724901 2.15707,-5.838502 l 0.11605,-20.370681 c -0.19716,-3.336415 -1.14664,-6.8789471 -3.68906,-9.2080747 -2.12883,-2.2408556 -4.52741,-3.1002759 -7.59543,-3.0653256 -3.29698,-0.170719 -8.28009,-0.023748 -11.58201,0 -1.87387,0.061835 -3.40631,0.2276254 -5.17175,0.8845129 -1.3783,0.4243332 -2.91029,1.737212 -3.48473,2.2085937 -1.7753,1.7551353 -3.14374,3.0057307 -4.77431,4.8957385 -1.60458,1.9496022 -2.8274,4.9647432 -2.73733,7.5470372 l 0.1174,13.966252 14.00971,-0.0058 c 0.97234,-1.171733 3.03396,-3.463222 3.91444,-4.707993 0.47945,-0.63045 0.3504,-1.469707 0.3858,-2.208593 -0.0533,-2.131972 -0.004,-4.85586 -0.0654,-6.987831 0.25899,0.0031 0.7465,0.323515 1.13858,0.917223 0.32037,0.534113 0.34816,1.565148 0.32665,2.822465 l 0,14.697969 -0.006,-4.48e-4 0,0 z" /><path
       d="M 123.24571,1.6595793 C 119.84209,0.90859473 116.34974,0.71995242 112.87487,0.92920648 104.5885,1.7420263 96.511378,5.2782855 90.584156,11.173246 90.015989,11.785773 89.520859,12.462824 88.973751,13.093275 94.07964,8.6765356 100.59295,6.0292701 107.25682,5.1371398 l 0.24152,-0.041223 c 2.17319,-0.061835 4.34908,-0.3535364 6.52182,-0.1501074 1.61086,0.1469708 3.21275,0.3562248 4.82674,0.4857204 1.01266,0.2240407 2.0195,0.4713817 3.05278,0.582954 0.10888,-0.1532438 0.32665,-0.4592835 0.43598,-0.6125274 0.67705,-1.0216258 1.28958,-2.0907483 2.05535,-3.0505388 -0.27333,-0.3857982 -0.66809,-0.6506144 -1.1453,-0.6918379 z"
       id="path13"
       inkscape:connector-curvature="0"
       style="color:#000000;clip-rule:nonzero;display:inline;overflow:visible;visibility:visible;opacity:1;isolation:auto;mix-blend-mode:normal;color-interpolation:sRGB;color-interpolation-filters:linearRGB;solid-color:#000000;solid-opacity:1;fill:#f1eadd;fill-opacity:1;fill-rule:nonzero;stroke-width:1;stroke-linecap:butt;stroke-linejoin:miter;stroke-miterlimit:4;stroke-dasharray:none;stroke-dashoffset:0;stroke-opacity:1;color-rendering:auto;image-rendering:auto;shape-rendering:auto;text-rendering:auto;enable-background:accumulate" /><path
       d="m 199.94337,5.8643761 c -1.57679,-1.9137561 -3.0698,-2.79334 -5.48899,-3.1320897 -3.80422,-0.4946819 -8.281,-0.3073839 -12.10448,-0.3925194 -1.96573,0.1814731 -3.52057,-0.1263589 -5.07228,0.4418084 -2.00696,0.6860128 -3.95029,1.896729 -5.35816,3.4923472 l -0.0116,0.014787 c 0.11785,0.05601 0.35354,0.1622055 0.47183,0.2182157 2.382,-0.6331392 4.86393,-0.5184303 7.30687,-0.582954 3.54522,0.061835 7.10388,-0.2150792 10.63252,0.2294177 2.52808,0.4592835 4.95354,1.610853 6.75797,3.4632219 l 2.86637,-3.7522345 z"
       id="path15"
       inkscape:connector-curvature="0"
       style="color:#000000;clip-rule:nonzero;display:inline;overflow:visible;visibility:visible;opacity:1;isolation:auto;mix-blend-mode:normal;color-interpolation:sRGB;color-interpolation-filters:linearRGB;solid-color:#000000;solid-opacity:1;fill:#ece4d6;fill-opacity:1;fill-rule:nonzero;stroke-width:1;stroke-linecap:butt;stroke-linejoin:miter;stroke-miterlimit:4;stroke-dasharray:none;stroke-dashoffset:0;stroke-opacity:1;color-rendering:auto;image-rendering:auto;shape-rendering:auto;text-rendering:auto;enable-background:accumulate" /><path
       d="m 120.56932,54.809215 c -1.13947,0.252269 -2.2879,0.488856 -3.45426,0.559205 -2.44383,0.179681 -4.9168,-0.07035 -7.27236,-0.738886 -2.09344,-0.718275 -4.08695,-1.743037 -5.87749,-3.047851 -2.43801,-1.884182 -4.435107,-4.33474 -5.774422,-7.108364 -1.828621,-3.743721 -2.323303,-8.106243 -1.472396,-12.181544 0.16803,-0.921704 0.438672,-1.820107 0.715586,-2.712237 -0.715586,0.841945 -1.3429,1.757823 -1.828621,2.75346 -1.225055,2.629343 -2.178572,5.488999 -2.090748,8.424381 -0.06766,3.610192 0.986227,7.217248 2.918355,10.261962 0.188194,0.308728 0.388038,0.615664 0.603566,0.912742 2.325991,3.083697 5.53874,5.541424 9.26095,6.667005 4.61972,1.446855 9.76997,0.988916 14.08992,-1.18652 0.29753,-0.177888 0.58878,-0.3737 0.87734,-0.568615 0.0175,-0.720515 0.0202,-1.446407 0,-2.166923 -0.1743,0.03181 -0.52156,0.09723 -0.69542,0.132185 z"
       id="path17"
       inkscape:connector-curvature="0"
       style="fill:#eee4d2;fill-opacity:1" /><path
       d="m 247.07841,5.5206976 c -0.6067,-0.4709336 -1.38054,-0.9987737 -2.02577,-1.4141452 -1.94333,-1.2779284 -3.81766,-1.6579016 -6.11542,-1.7667854 -2.57961,-0.085135 -5.81565,0.014787 -8.39212,0 -2.6737,0.038535 -5.76502,-0.3109685 -8.31236,0.6873571 -2.50298,1.1287173 -3.21005,2.2583307 -4.87378,3.771502 3.83692,-1.1013844 7.85173,-0.7568097 11.79171,-0.7715964 1.54857,-0.020612 3.09759,0.00583 4.6493,-0.01165 1.82055,0.094097 3.67785,0.2442044 5.39758,0.9069169 1.30123,0.4798953 2.44384,1.3016768 3.50714,2.1790204 0.31455,0.2679527 0.62686,0.539042 0.945,0.8096832 l 3.42872,-4.3903025 z"
       id="path19"
       inkscape:connector-curvature="0"
       style="color:#000000;clip-rule:nonzero;display:inline;overflow:visible;visibility:visible;opacity:1;isolation:auto;mix-blend-mode:normal;color-interpolation:sRGB;color-interpolation-filters:linearRGB;solid-color:#000000;solid-opacity:1;fill:#f1eadd;fill-opacity:1;fill-rule:nonzero;stroke-width:1;stroke-linecap:butt;stroke-linejoin:miter;stroke-miterlimit:4;stroke-dasharray:none;stroke-dashoffset:0;stroke-opacity:1;color-rendering:auto;image-rendering:auto;shape-rendering:auto;text-rendering:auto;enable-background:accumulate" /><g
       transform="matrix(0.4480815,0,0,0.4480815,-4.2464684,-1.1445147)"
       id="g25"><path
         d="m 412.327,39.73 c -3.818,0 -5.033,6.22 -5.053,9.118 l 0,22.146 -28.619,-0.119 0.203,-29.953 c 0.599,-9.332 5.961,-19.413 15.417,-22.192 2.51,-0.729 5.109,-1.137 7.728,-1.183 7.867,-0.27 15.753,0.092 23.612,-0.368 5.704,0.466 11.819,0.473 16.837,3.627 6.176,3.325 9.979,9.693 10.564,16.692 0.288,17.296 -0.063,33.852 0,51.148 0.041,2.978 -0.179,6.892 -1.519,9.573 -1.578,3.285 -4.035,6.211 -7.223,8.023 -8.341,4.764 -16.771,9.357 -25.063,14.193 -4.259,2.512 -9.286,4.869 -11.468,9.582 -1.367,5.149 -0.828,10.561 -0.907,15.83 l 46.18,0 0,23.914 -75.127,0.077 0,-41.877 c 1.764,-9.315 9.229,-19.446 17.486,-23.894 6.44,-3.629 12.834,-7.318 19.32,-10.86 3.549,-1.959 8.411,-4.16 8.438,-8.898 0.093,-12.907 -0.085,-22.541 0.063,-35.454 -0.147,-3.998 -1.285,-9.131 -5.61,-9.131 l -5.259,0 0,0.006 0,0 z"
         id="path27"
         inkscape:connector-curvature="0"
         style="fill:#ffffff" /></g><polygon
       transform="matrix(0.4480815,0,0,0.4480815,-4.2464684,-1.1445147)"
       points="282.364,58.709 349.673,58.709 318.623,90.148 282.364,90.148 "
       id="polygon29"
       style="fill:#363da3;fill-opacity:1" /><polygon
       transform="matrix(0.4480815,0,0,0.4480815,-4.2464684,-1.1445147)"
       points="282.364,128.046 349.673,128.046 318.623,98.044 282.364,98.044 "
       id="polygon31"
       style="fill:#f8361a;fill-opacity:1" /><path
       d="m 233.54097,74.982292 c 7.10389,0 12.86308,-6.101526 12.86308,-11.085537 l 0,-44.048203 c 0,-4.983563 -4.87558,-13.1462635 -11.97812,-13.1462635 l -12.4253,0 c -7.10388,0 -11.97901,8.1627005 -11.97901,13.1462635 l 0,44.047755 c 0,4.984011 5.75964,11.085537 12.86263,11.085537 l 10.65672,0 0,4.48e-4 z m -9.17805,-55.842605 c 0,-0.717827 0.4203,-2.477443 1.67403,-2.477443 l 4.34595,0 c 1.41728,0 1.67537,1.759616 1.67537,2.477443 l 0,42.815531 c 0,0.718275 -1.20758,2.182605 -1.96976,2.182605 l -3.75672,0 c -0.76308,0 -1.96977,-1.465674 -1.96977,-2.182605 l 9e-4,-42.815531 0,0 z"
       id="path33"
       inkscape:connector-curvature="0"
       style="fill:#ffffff" /><polygon
       transform="matrix(0.4480815,0,0,0.4480815,21.753532,-1.1445147)"
       style="color:#000000;clip-rule:nonzero;display:inline;overflow:visible;visibility:visible;opacity:1;isolation:auto;mix-blend-mode:normal;color-interpolation:sRGB;color-interpolation-filters:linearRGB;solid-color:#000000;solid-opacity:1;fill:#f1eadd;fill-opacity:1;fill-rule:nonzero;stroke-width:1;stroke-linecap:butt;stroke-linejoin:miter;stroke-miterlimit:4;stroke-dasharray:none;stroke-dashoffset:0;stroke-opacity:1;color-rendering:auto;image-rendering:auto;shape-rendering:auto;text-rendering:auto;enable-background:accumulate"
       id="polygon35"
       points="53.426,7.775 17.528,7.775 11.695,15.246 47.592,15.246 " /><polygon
       transform="matrix(0.4480815,0,0,0.4480815,21.753532,-1.1445147)"
       style="color:#000000;clip-rule:nonzero;display:inline;overflow:visible;visibility:visible;opacity:1;isolation:auto;mix-blend-mode:normal;color-interpolation:sRGB;color-interpolation-filters:linearRGB;solid-color:#000000;solid-opacity:1;fill:#f1eadd;fill-opacity:1;fill-rule:nonzero;stroke-width:1;stroke-linecap:butt;stroke-linejoin:miter;stroke-miterlimit:4;stroke-dasharray:none;stroke-dashoffset:0;stroke-opacity:1;color-rendering:auto;image-rendering:auto;shape-rendering:auto;text-rendering:auto;enable-background:accumulate"
       id="polygon37"
       points="117.142,7.748 81.245,7.748 75.412,15.219 111.309,15.219 " /><polygon
       transform="matrix(0.4480815,0,0,0.4480815,-4.2464684,-1.1445147)"
       style="fill:#f7faf9;fill-opacity:1"
       id="polygon41"
       points="289.379,48.999 282.889,57.126 350.329,57.126 356.82,48.999 " /><polygon
       transform="matrix(0.4480815,0,0,0.4480815,-4.2464684,-1.1445147)"
       style="color:#000000;clip-rule:nonzero;display:inline;overflow:visible;visibility:visible;opacity:1;isolation:auto;mix-blend-mode:normal;color-interpolation:sRGB;color-interpolation-filters:linearRGB;solid-color:#000000;solid-opacity:1;fill:#f0ebe9;fill-opacity:1;fill-rule:nonzero;stroke-width:1;stroke-linecap:butt;stroke-linejoin:miter;stroke-miterlimit:4;stroke-dasharray:none;stroke-dashoffset:0;stroke-opacity:1;color-rendering:auto;image-rendering:auto;shape-rendering:auto;text-rendering:auto;enable-background:accumulate"
       id="polygon43"
       points="323.417,88.443 320.288,91.757 286.377,91.757 282.778,96.365 320.04,96.365 320.083,96.311 320.149,96.311 326.377,88.416 " /><polygon
       transform="matrix(0.4480815,0,0,0.4480815,-4.2464684,-1.1445147)"
       style="fill:#f2eae1;fill-opacity:1"
       id="polygon45"
       points="417.148,135.132 410.001,143.917 453.127,143.917 460.274,135.132 " /><polygon
       transform="matrix(0.4480815,0,0,0.4480815,21.753532,-1.1445147)"
       points="23.762,103.844 54.708,70.815 47.213,16.826 11.343,16.826 "
       id="polygon49"
       style="fill:#383696;fill-opacity:1" /><polygon
       transform="matrix(0.4480815,0,0,0.4480815,21.753532,-1.1445147)"
       points="69.871,54.633 105.295,16.826 74.639,16.826 "
       id="polygon51"
       style="color:#000000;clip-rule:nonzero;display:inline;overflow:visible;visibility:visible;opacity:1;isolation:auto;mix-blend-mode:normal;color-interpolation:sRGB;color-interpolation-filters:linearRGB;solid-color:#000000;solid-opacity:1;fill:#383696;fill-opacity:1;fill-rule:nonzero;stroke-width:1;stroke-linecap:butt;stroke-linejoin:miter;stroke-miterlimit:4;stroke-dasharray:none;stroke-dashoffset:0;stroke-opacity:1;color-rendering:auto;image-rendering:auto;shape-rendering:auto;text-rendering:auto;enable-background:accumulate" /><polygon
       transform="matrix(0.4480815,0,0,0.4480815,21.753532,-1.1445147)"
       points="98.056,99.495 109.855,16.826 105.521,16.826 105.295,16.826 69.871,54.633 69.835,54.913 61.583,120.334 54.737,71.026 54.708,70.815 23.762,103.844 23.792,104.055 33.044,168.881 "
       id="polygon55"
       style="fill:#d82768;fill-opacity:1" /><path
       d="M 76.661816,37.534777 106.37634,5.8204641 C 90.447491,8.2418966 78.183052,21.294063 76.661816,37.534777 Z"
       id="path57"
       inkscape:connector-curvature="0"
       style="fill:#f36312;fill-opacity:1" /><polygon
       transform="matrix(0.4480815,0,0,0.4480815,21.753532,-1.1445147)"
       points="98.044,99.577 98.056,99.495 33.044,168.881 33.053,168.939 33.169,169.752 88.028,169.752 "
       id="polygon59"
       style="color:#000000;clip-rule:nonzero;display:inline;overflow:visible;visibility:visible;opacity:1;isolation:auto;mix-blend-mode:normal;color-interpolation:sRGB;color-interpolation-filters:linearRGB;solid-color:#000000;solid-opacity:1;fill:#f36312;fill-opacity:1;fill-rule:nonzero;stroke-width:1;stroke-linecap:butt;stroke-linejoin:miter;stroke-miterlimit:4;stroke-dasharray:none;stroke-dashoffset:0;stroke-opacity:1;color-rendering:auto;image-rendering:auto;shape-rendering:auto;text-rendering:auto;enable-background:accumulate" /><path
       style="fill:#f5c408;fill-opacity:1"
       inkscape:connector-curvature="0"
       id="path65"
       d="m 111.74032,5.4167427 c -1.80442,0 -3.57479,0.1357687 -5.30214,0.3947598 -0.0206,0.00314 -0.0412,0.00583 -0.0614,0.00896 L 76.662264,37.534777 c -0.0022,0.02061 -0.004,0.04167 -0.0054,0.06228 -0.101715,1.104521 -0.156381,2.222932 -0.156381,3.353442 0,8.389878 2.855176,16.099568 7.655921,22.177346 L 95.548451,50.969156 C 93.808999,48.050801 92.81381,44.621634 92.81381,40.951398 c 0,-10.615499 8.31146,-19.220456 18.92651,-19.220456 3.2813,0 6.36859,0.826262 9.07097,2.276254 l 0.21956,-0.234347 0,-17.1207456 c -2.96227,-0.8007216 -6.07554,-1.2353607 -9.29053,-1.2353607 z" /><path
       d="m 111.74032,60.17275 c -6.93943,0 -12.893093,-3.679197 -16.185148,-9.191944 -0.0022,-0.0045 -0.0045,-0.0081 -0.0072,-0.01031 L 84.155979,63.129192 c 0.0027,0.0036 0.0054,0.0072 0.0076,0.0094 4.884089,6.179043 11.779167,10.671509 19.734851,12.474588 l 16.31151,-17.409758 c -2.55586,1.258661 -5.42895,1.969318 -8.46964,1.969318 z"
       id="path69"
       inkscape:connector-curvature="0"
       style="fill:#6ca213;fill-opacity:1" /><path
       d="m 120.81129,24.007196 c 0.004,0.0018 0.008,0.004 0.0117,0.0058 0.069,0.03764 0.13935,0.07304 0.20791,0.111572 l 0,-0.332924 0,-0.01882 -0.21956,0.234347 z"
       id="path71"
       inkscape:connector-curvature="0"
       style="fill:#53a520" /><path
       d="m 120.31123,58.153695 c -0.0336,0.01703 -0.0668,0.03316 -0.10082,0.04974 L 103.8989,75.61319 c 0.0152,0.0027 0.03,0.0063 0.0452,0.009 2.50388,0.565479 5.11217,0.864797 7.79617,0.864797 3.21544,0 6.32871,-0.435983 9.29053,-1.234912 l 0,-17.473834 c -0.23659,0.130391 -0.47721,0.25451 -0.71962,0.375492 z"
       id="path73"
       inkscape:connector-curvature="0"
       style="fill:#5b6e2d;fill-opacity:1" /><path
       d="M 123.24571,1.6595774 C 119.84209,0.90859276 116.34974,0.71995045 112.87487,0.92920451 104.5885,1.7420244 96.511378,5.2782837 90.584156,11.173244 90.015989,11.785771 89.520859,12.462822 88.973751,13.093273 94.07964,8.6765338 100.59295,6.0292683 107.25682,5.1371381 l 0.24152,-0.041223 c 2.17319,-0.061835 4.34908,-0.3535363 6.52182,-0.1501073 1.61086,0.1469707 3.21275,0.3562247 4.82674,0.4857203 1.01266,0.2240408 2.0195,0.4713817 3.05278,0.582954 0.10888,-0.1532438 0.32665,-0.4592835 0.43598,-0.6125274 0.67705,-1.0216258 1.28958,-2.0907484 2.05535,-3.050539 -0.27333,-0.3857982 -0.66809,-0.6506143 -1.1453,-0.6918378 z"
       id="path13-3"
       inkscape:connector-curvature="0"
       style="color:#000000;clip-rule:nonzero;display:inline;overflow:visible;visibility:visible;opacity:1;isolation:auto;mix-blend-mode:normal;color-interpolation:sRGB;color-interpolation-filters:linearRGB;solid-color:#000000;solid-opacity:1;fill:#f1eadd;fill-opacity:1;fill-rule:nonzero;stroke-width:1;stroke-linecap:butt;stroke-linejoin:miter;stroke-miterlimit:4;stroke-dasharray:none;stroke-dashoffset:0;stroke-opacity:1;color-rendering:auto;image-rendering:auto;shape-rendering:auto;text-rendering:auto;enable-background:accumulate" /></g></svg>